<svg xmlns="http://www.w3.org/2000/svg" xmlns:xlink="http://www.w3.org/1999/xlink" id="svg" width="150" height="200"
     viewBox="200, 20, 2,200">
    <g id="svgg">
        <path id="path0"
              d="M151.994 18.340 L 160.766 18.537 160.766 20.114 L 160.766 21.691 152.249 21.691 C 140.008 21.691,136.589 24.062,136.018 32.949 C 135.836 35.794,135.437 37.643,135.004 37.649 C 134.538 37.656,134.564 37.833,135.077 38.159 C 135.696 38.552,135.832 55.495,135.715 117.256 C 135.633 160.485,135.781 195.853,136.045 195.853 C 136.308 195.853,136.523 196.369,136.523 197.000 C 136.523 201.336,142.946 204.147,152.858 204.147 L 160.817 204.147 160.716 210.558 C 160.661 214.084,160.793 217.146,161.009 217.362 C 161.226 217.579,161.404 214.694,161.404 210.952 L 161.404 204.147 170.920 204.147 C 177.936 204.147,180.520 204.356,180.758 204.944 C 181.009 205.567,181.091 205.569,181.130 204.954 C 181.169 204.346,185.709 204.166,200.938 204.166 L 220.697 204.167 220.895 212.610 L 221.093 221.053 221.232 212.593 L 221.372 204.132 234.119 204.175 C 248.941 204.225,253.907 202.644,253.907 197.874 C 253.907 197.514,254.359 196.769,254.910 196.218 C 255.490 195.638,255.608 195.215,255.191 195.215 C 254.795 195.215,254.636 194.946,254.840 194.618 C 255.480 193.582,255.271 30.294,254.627 28.643 C 252.382 22.882,248.456 21.574,233.652 21.654 L 221.372 21.720 221.372 20.130 L 221.372 18.540 229.187 18.339 C 233.485 18.229,215.901 18.140,190.112 18.141 C 164.322 18.142,147.169 18.231,151.994 18.340 M180.542 20.096 L 180.542 21.691 170.973 21.691 L 161.404 21.691 161.404 20.096 L 161.404 18.501 170.973 18.501 L 180.542 18.501 180.542 20.096 M220.734 20.096 L 220.734 21.670 200.957 21.671 L 181.180 21.672 181.180 20.096 L 181.180 18.520 200.957 18.520 L 220.734 18.521 220.734 20.096 M241.946 31.407 C 244.860 33.040,247.391 36.927,246.081 37.759 C 245.462 38.152,245.464 38.260,246.093 38.268 C 246.677 38.275,246.890 39.987,246.890 44.673 L 246.890 51.069 242.634 47.459 C 237.284 42.921,232.668 40.792,226.337 39.944 C 221.239 39.262,220.029 38.566,223.126 38.096 C 224.575 37.877,224.474 37.814,222.548 37.735 C 220.509 37.652,220.257 37.800,220.549 38.915 C 220.822 39.961,220.568 40.191,219.146 40.191 C 213.070 40.191,199.124 46.432,189.944 53.259 C 186.870 55.546,183.855 57.439,183.246 57.467 C 182.525 57.499,182.428 57.634,182.968 57.850 C 183.590 58.099,183.510 58.395,182.653 59.021 C 181.795 59.649,181.389 59.673,181.035 59.116 C 180.740 58.654,180.558 58.864,180.552 59.673 C 180.547 60.388,179.083 62.398,177.299 64.139 C 175.515 65.880,172.189 69.530,169.907 72.249 C 165.823 77.117,161.429 79.257,161.394 76.396 C 161.386 75.804,161.262 75.790,160.910 76.344 C 160.649 76.754,159.433 77.210,158.208 77.358 L 155.981 77.627 158.373 77.729 L 160.766 77.831 160.766 81.275 C 160.766 84.167,160.357 85.391,158.214 88.918 C 156.810 91.229,155.662 93.369,155.662 93.675 C 155.662 93.981,154.974 94.973,154.134 95.880 C 153.294 96.787,152.737 97.660,152.897 97.819 C 153.056 97.979,151.232 101.944,148.842 106.631 L 144.498 115.152 144.319 106.589 C 144.185 100.166,144.344 97.896,144.957 97.508 C 145.594 97.103,145.599 96.987,144.976 96.979 C 143.824 96.965,143.824 77.853,144.976 77.781 C 145.614 77.740,145.614 77.666,144.976 77.408 C 143.290 76.728,143.902 58.071,145.614 57.967 L 147.049 57.880 145.614 57.604 C 144.202 57.332,144.179 57.173,144.179 47.803 L 144.179 38.278 146.252 38.182 C 148.182 38.093,148.204 38.068,146.571 37.821 C 140.339 36.876,148.831 29.984,156.227 29.984 L 160.766 29.984 160.766 33.812 C 160.766 37.330,160.650 37.647,159.330 37.726 L 157.895 37.813 159.330 38.090 C 161.049 38.421,161.314 41.646,159.788 43.663 C 158.537 45.317,158.551 49.685,159.809 50.168 C 161.254 50.723,160.959 52.157,159.154 53.339 C 157.654 54.322,157.462 54.321,156.362 53.326 C 155.010 52.102,154.386 52.906,154.386 55.874 C 154.386 56.889,154.005 57.442,153.270 57.490 C 152.360 57.551,152.339 57.614,153.155 57.834 C 153.867 58.026,154.077 58.651,153.880 59.993 L 153.603 61.882 157.184 61.882 C 159.597 61.882,160.782 62.142,160.816 62.679 C 160.856 63.317,160.931 63.317,161.188 62.679 C 161.365 62.241,161.927 61.882,162.436 61.882 C 163.168 61.882,163.217 61.611,162.672 60.593 C 161.707 58.789,162.376 58.068,165.109 57.967 C 166.652 57.910,166.959 57.784,165.998 57.600 C 164.562 57.325,164.579 57.268,166.796 54.814 C 170.896 50.275,168.981 45.648,164.478 49.214 C 162.396 50.863,159.916 51.458,161.765 49.864 C 169.095 43.549,169.693 43.180,170.876 44.250 C 172.559 45.774,172.722 45.621,173.212 42.060 C 173.552 39.589,173.980 38.695,175.026 38.273 C 176.119 37.832,176.170 37.712,175.279 37.680 C 174.665 37.658,174.163 37.209,174.163 36.683 C 174.163 35.911,173.162 35.726,168.981 35.726 C 164.447 35.726,163.898 35.845,164.593 36.683 C 165.270 37.498,165.094 37.640,163.395 37.640 L 161.404 37.640 161.404 33.825 L 161.404 30.011 191.069 29.997 L 220.734 29.984 220.845 32.695 L 220.957 35.407 221.199 32.729 L 221.442 30.051 224.437 29.771 C 231.190 29.140,239.242 29.892,241.946 31.407 M165.869 38.521 C 165.869 38.655,164.864 39.530,163.636 40.467 L 161.404 42.170 161.404 40.224 C 161.404 38.425,161.572 38.278,163.636 38.278 C 164.864 38.278,165.869 38.387,165.869 38.521 M233.271 47.242 C 237.616 49.463,243.429 55.368,242.879 57.001 C 242.743 57.405,243.014 58.022,243.481 58.373 C 244.931 59.462,247.019 69.161,246.784 73.716 C 246.667 75.981,246.790 77.906,247.059 77.995 C 247.623 78.181,246.483 90.320,245.547 94.099 C 245.199 95.502,244.752 97.650,244.554 98.872 C 243.229 107.046,230.246 135.846,227.873 135.875 C 227.414 135.881,227.215 136.171,227.430 136.520 C 227.909 137.294,221.941 146.126,221.235 145.689 C 220.959 145.519,220.734 145.810,220.734 146.338 C 220.734 147.608,213.873 155.662,212.790 155.662 C 212.325 155.662,211.984 156.139,212.033 156.723 C 212.250 159.328,191.567 175.400,187.879 175.492 C 186.826 175.518,186.352 175.694,186.825 175.882 C 187.816 176.277,182.626 178.791,181.556 178.435 C 181.180 178.309,180.535 178.545,180.122 178.957 C 178.010 181.070,164.080 181.861,161.833 179.996 C 161.357 179.601,160.842 179.403,160.688 179.556 C 160.171 180.074,155.341 176.930,155.502 176.181 C 155.590 175.773,155.113 175.439,154.443 175.439 C 151.338 175.439,147.370 167.992,145.179 158.054 L 144.792 156.300 152.779 156.300 C 160.610 156.300,160.767 156.328,160.852 157.735 L 160.939 159.171 161.216 157.735 C 161.485 156.335,161.716 156.296,170.539 156.160 L 179.585 156.020 170.680 155.822 C 164.556 155.686,161.620 155.381,161.280 154.846 C 160.894 154.238,160.783 154.243,160.775 154.864 C 160.759 156.187,145.076 155.983,144.566 154.653 C 141.114 145.658,153.705 99.102,160.037 97.446 C 161.081 97.173,161.404 96.599,161.404 95.009 C 161.404 92.527,170.412 78.496,172.326 77.996 C 172.978 77.825,173.353 77.431,173.161 77.120 C 172.707 76.386,179.946 67.574,180.647 68.007 C 180.940 68.189,181.180 67.939,181.180 67.453 C 181.180 66.162,190.602 58.054,192.102 58.054 C 192.803 58.054,193.211 57.787,193.009 57.459 C 192.479 56.601,199.156 51.984,205.108 49.093 C 215.601 43.996,225.631 43.337,233.271 47.242 M220.821 75.717 C 220.754 76.789,220.253 77.172,218.660 77.369 L 216.587 77.627 218.660 77.729 C 219.833 77.787,220.738 78.177,220.743 78.628 C 220.751 79.233,220.870 79.242,221.236 78.667 C 221.501 78.249,223.291 77.800,225.213 77.668 L 228.708 77.429 225.084 77.311 C 221.879 77.207,221.428 77.027,221.184 75.758 C 220.908 74.327,220.907 74.327,220.821 75.717 M164.151 79.794 C 162.127 83.240,161.404 83.416,161.404 80.461 C 161.404 77.953,161.494 77.831,163.353 77.831 L 165.303 77.831 164.151 79.794 M196.491 83.804 C 196.491 83.931,197.352 85.119,198.405 86.443 C 199.458 87.768,200.319 89.067,200.319 89.330 C 200.319 89.906,191.673 96.964,190.943 96.983 C 187.702 97.069,185.178 107.545,187.419 111.609 C 189.168 114.780,188.949 114.877,198.992 106.530 C 209.691 97.638,208.216 98.229,211.550 101.501 L 214.216 104.118 214.664 100.863 C 214.910 99.072,215.363 97.608,215.670 97.608 C 215.977 97.608,216.064 97.179,215.863 96.656 C 215.544 95.826,216.163 90.919,217.291 85.327 L 217.645 83.573 207.068 83.573 C 201.251 83.573,196.491 83.677,196.491 83.804 M200.549 108.660 C 199.106 109.774,194.860 113.233,191.113 116.347 L 184.301 122.008 182.741 120.542 C 181.808 119.666,181.145 118.287,181.093 117.114 C 181.020 115.448,180.963 115.384,180.716 116.690 C 180.498 117.851,180.292 118.012,179.881 117.347 C 179.023 115.958,178.823 116.571,177.380 125.040 C 175.520 135.958,175.576 135.756,174.322 136.083 C 173.708 136.244,174.856 136.408,176.874 136.449 C 179.261 136.497,180.542 136.791,180.542 137.289 C 180.542 137.884,180.712 137.884,181.308 137.289 C 181.809 136.787,184.724 136.498,189.761 136.449 C 193.989 136.408,197.018 136.257,196.491 136.114 C 195.185 135.757,192.447 131.648,192.961 130.816 C 193.189 130.447,195.826 128.099,198.820 125.598 C 206.583 119.114,208.430 114.927,205.784 109.810 C 204.118 106.590,203.427 106.438,200.549 108.660 M246.106 135.989 C 245.482 136.385,245.476 136.506,246.083 136.513 C 246.690 136.521,246.870 140.977,246.870 155.981 C 246.870 170.963,246.689 175.450,246.083 175.489 C 245.469 175.528,245.471 175.610,246.093 175.861 C 247.625 176.480,247.120 188.073,245.431 191.056 C 243.273 194.866,242.136 195.195,231.100 195.206 L 221.372 195.215 221.372 191.069 L 221.372 186.922 225.524 186.922 C 229.513 186.922,229.645 186.872,228.881 185.649 C 228.167 184.506,228.429 184.076,231.427 181.453 C 233.285 179.828,234.769 177.985,234.769 177.303 C 234.769 176.588,235.235 176.046,235.885 176.003 C 236.948 175.932,236.948 175.915,235.885 175.637 C 235.271 175.476,234.769 174.993,234.769 174.562 C 234.769 172.600,233.301 172.296,231.430 173.871 C 230.405 174.733,229.101 175.439,228.532 175.439 C 227.925 175.439,227.747 175.222,228.102 174.915 C 235.936 168.146,236.447 167.859,237.683 169.537 C 238.679 170.890,238.868 170.478,239.730 165.080 C 240.449 160.576,240.661 160.766,234.908 160.766 L 230.156 160.766 231.145 162.275 C 232.106 163.741,232.033 163.871,228.595 166.839 C 225.128 169.832,225.062 169.952,225.373 172.710 L 225.690 175.526 223.075 175.337 L 220.459 175.148 220.621 178.005 C 220.710 179.576,220.522 182.225,220.203 183.892 C 219.877 185.593,219.866 186.922,220.178 186.922 C 220.484 186.922,220.734 188.789,220.734 191.071 L 220.734 195.219 185.233 195.194 C 142.064 195.162,144.179 195.852,144.179 181.805 C 144.179 175.368,145.011 174.483,148.036 177.703 C 150.169 179.973,155.522 183.405,158.373 184.331 C 159.689 184.758,160.765 185.300,160.765 185.536 C 160.764 186.177,175.421 185.257,177.922 184.459 C 179.112 184.080,180.332 183.921,180.633 184.107 C 180.934 184.293,181.180 184.141,181.180 183.770 C 181.180 183.398,181.539 183.094,181.978 183.093 C 182.416 183.092,185.923 181.513,189.769 179.584 C 193.616 177.655,197.348 176.072,198.063 176.067 C 199.012 176.060,199.134 175.913,198.516 175.521 C 197.889 175.123,198.220 174.656,199.792 173.720 C 202.411 172.160,213.254 162.522,216.215 159.122 C 217.415 157.745,218.992 156.463,219.721 156.272 C 220.450 156.081,221.150 155.363,221.277 154.677 C 221.404 153.991,223.299 150.989,225.488 148.006 C 227.677 145.024,230.387 141.220,231.511 139.553 C 232.635 137.887,233.875 136.523,234.268 136.523 C 234.660 136.523,234.798 136.339,234.573 136.115 C 234.349 135.890,235.812 132.517,237.826 128.619 C 241.454 121.595,243.024 118.124,245.361 111.962 L 246.571 108.772 246.744 122.123 C 246.876 132.378,246.729 135.594,246.106 135.989 M145.455 174.482 C 146.105 175.265,146.061 175.439,145.214 175.439 C 144.644 175.439,144.179 175.008,144.179 174.482 C 144.179 173.955,144.287 173.525,144.419 173.525 C 144.552 173.525,145.018 173.955,145.455 174.482 M226.592 177.671 C 224.352 179.556,224.067 179.594,222.538 178.211 C 220.662 176.512,221.150 176.077,224.929 176.077 L 228.487 176.077 226.592 177.671 "
              stroke="none" fill="#000000" fill-rule="evenodd"/>
    </g>
</svg>
