<svg id="svg" xmlns="http://www.w3.org/2000/svg" xmlns:xlink="http://www.w3.org/1999/xlink" width="400" height="600"
     viewBox="0 0 400 600" version="1.1">
    <g id="svgg">
        <path id="path0"
              d="M49.200 1.213 C 49.200 2.097,48.956 2.524,48.300 2.788 C 47.265 3.204,47.769 3.305,49.100 2.948 C 50.034 2.697,50.492 0.000,49.600 0.000 C 49.380 0.000,49.200 0.546,49.200 1.213 M351.600 1.400 C 351.600 2.170,351.735 2.802,351.900 2.805 C 352.065 2.808,352.650 2.904,353.200 3.017 C 354.167 3.216,354.171 3.210,353.300 2.824 C 352.652 2.537,352.400 2.086,352.400 1.213 C 352.400 0.546,352.220 0.000,352.000 0.000 C 351.780 0.000,351.600 0.630,351.600 1.400 M44.400 4.000 C 42.565 5.005,43.050 5.010,45.256 4.009 C 46.215 3.574,46.730 3.221,46.400 3.226 C 46.070 3.230,45.170 3.578,44.400 4.000 M131.300 3.500 C 169.525 3.556,232.075 3.556,270.300 3.500 C 308.525 3.444,277.250 3.398,200.800 3.398 C 124.350 3.398,93.075 3.444,131.300 3.500 M356.344 4.009 C 357.303 4.444,358.203 4.792,358.344 4.783 C 358.849 4.750,355.787 3.233,355.200 3.226 C 354.870 3.221,355.385 3.574,356.344 4.009 M57.200 4.200 C 54.827 4.887,55.963 4.892,59.000 4.208 C 60.452 3.881,60.926 3.669,60.200 3.673 C 59.540 3.676,58.190 3.913,57.200 4.200 M342.600 4.208 C 345.740 4.915,347.166 4.903,344.600 4.191 C 343.500 3.885,342.060 3.642,341.400 3.651 C 340.618 3.662,341.036 3.856,342.600 4.208 M38.489 6.475 C 36.668 7.375,35.267 8.200,35.376 8.310 C 35.486 8.419,35.986 8.240,36.488 7.913 C 36.989 7.585,38.660 6.756,40.200 6.070 C 41.740 5.385,42.730 4.828,42.400 4.832 C 42.070 4.836,40.310 5.575,38.489 6.475 M360.360 5.616 C 361.327 6.055,362.189 6.345,362.274 6.259 C 362.490 6.044,359.799 4.798,359.140 4.809 C 358.843 4.814,359.392 5.177,360.360 5.616 M50.000 5.800 C 48.722 6.530,48.996 6.534,51.000 5.812 C 51.880 5.495,52.240 5.234,51.800 5.232 C 51.360 5.230,50.550 5.486,50.000 5.800 M351.200 6.000 C 352.190 6.415,353.360 6.759,353.800 6.765 C 354.240 6.770,353.610 6.426,352.400 6.000 C 349.594 5.013,348.848 5.013,351.200 6.000 M364.200 7.390 C 365.080 7.932,365.932 8.381,366.092 8.388 C 366.253 8.394,367.378 9.036,368.592 9.812 C 369.807 10.589,370.800 11.131,370.800 11.017 C 370.800 10.569,363.606 6.396,362.844 6.402 C 362.710 6.403,363.320 6.848,364.200 7.390 M44.600 7.622 C 43.720 8.038,43.270 8.376,43.600 8.373 C 43.930 8.369,44.830 8.022,45.600 7.600 C 47.396 6.617,46.692 6.632,44.600 7.622 M356.000 7.600 C 356.770 8.022,357.670 8.370,358.000 8.374 C 358.330 8.379,357.815 8.026,356.856 7.591 C 354.650 6.590,354.165 6.595,356.000 7.600 M32.700 9.608 C 31.655 10.265,30.800 10.878,30.800 10.973 C 30.800 11.239,34.364 9.182,34.620 8.768 C 34.956 8.225,34.783 8.300,32.700 9.608 M40.400 9.450 C 39.410 9.994,39.038 10.318,39.572 10.169 C 40.647 9.872,43.236 8.386,42.600 8.432 C 42.380 8.448,41.390 8.906,40.400 9.450 M361.354 9.818 C 362.868 10.571,364.938 11.663,365.954 12.244 C 366.969 12.826,367.530 13.023,367.200 12.682 C 366.566 12.027,359.483 8.383,358.926 8.425 C 358.747 8.438,359.839 9.065,361.354 9.818 M28.922 12.229 L 27.800 13.258 29.100 12.354 C 29.815 11.857,30.400 11.393,30.400 11.325 C 30.400 11.009,29.958 11.280,28.922 12.229 M372.000 11.985 C 372.550 12.446,373.360 13.010,373.800 13.238 C 374.346 13.522,374.282 13.387,373.600 12.815 C 373.050 12.354,372.240 11.790,371.800 11.562 C 371.254 11.278,371.318 11.413,372.000 11.985 M34.800 12.400 C 34.250 12.830,33.952 13.186,34.137 13.191 C 34.322 13.196,34.931 12.840,35.491 12.400 C 36.050 11.960,36.349 11.604,36.154 11.609 C 35.959 11.614,35.350 11.970,34.800 12.400 M26.150 14.100 C 22.085 17.134,14.595 24.796,13.539 27.000 C 13.328 27.440,13.568 27.260,14.072 26.600 C 16.375 23.583,23.736 16.263,26.618 14.122 C 27.268 13.639,27.700 13.234,27.578 13.222 C 27.455 13.210,26.813 13.605,26.150 14.100 M30.800 14.991 C 24.740 19.155,11.178 33.600,13.329 33.600 C 13.425 33.600,14.377 32.295,15.444 30.700 C 16.511 29.105,19.728 25.456,22.592 22.592 C 25.456 19.728,29.105 16.511,30.700 15.444 C 33.207 13.767,33.925 13.192,33.500 13.202 C 33.445 13.204,32.230 14.009,30.800 14.991 M369.127 14.200 C 369.781 14.750,370.438 15.200,370.588 15.200 C 370.739 15.200,370.327 14.750,369.673 14.200 C 369.019 13.650,368.362 13.200,368.212 13.200 C 368.061 13.200,368.473 13.650,369.127 14.200 M379.122 17.447 C 380.543 18.793,382.807 21.057,384.153 22.478 C 385.499 23.899,386.241 24.598,385.803 24.031 C 384.771 22.695,378.905 16.829,377.569 15.797 C 377.002 15.359,377.701 16.101,379.122 17.447 M375.883 19.352 C 377.689 21.047,380.553 23.911,382.248 25.717 C 384.175 27.770,384.669 28.184,383.565 26.823 C 381.309 24.042,377.558 20.291,374.777 18.035 C 373.416 16.931,373.830 17.425,375.883 19.352 M388.003 27.270 C 388.677 28.221,389.675 29.675,390.220 30.500 C 390.764 31.325,391.300 32.000,391.411 32.000 C 391.521 32.000,391.159 31.325,390.605 30.500 C 390.051 29.675,389.156 28.340,388.615 27.534 C 388.075 26.727,387.440 25.948,387.205 25.803 C 386.970 25.658,387.329 26.318,388.003 27.270 M12.323 28.700 C 11.618 29.521,11.090 30.400,11.301 30.400 C 11.383 30.400,11.849 29.860,12.337 29.200 C 13.301 27.896,13.292 27.572,12.323 28.700 M9.877 32.300 C 8.298 34.838,8.246 34.942,8.706 34.658 C 9.158 34.379,11.264 30.800,10.977 30.800 C 10.885 30.800,10.390 31.475,9.877 32.300 M386.400 31.120 C 386.400 31.330,386.662 31.720,386.982 31.985 C 387.303 32.251,388.414 33.982,389.452 35.831 C 390.490 37.681,391.403 39.130,391.481 39.052 C 391.559 38.975,390.872 37.581,389.954 35.956 C 388.262 32.957,386.400 30.424,386.400 31.120 M391.600 32.544 C 391.600 32.708,392.050 33.505,392.600 34.314 C 393.150 35.123,393.600 35.599,393.600 35.371 C 393.600 35.142,393.150 34.345,392.600 33.600 C 392.050 32.855,391.600 32.379,391.600 32.544 M12.254 34.973 C 11.319 36.400,11.446 36.704,12.446 35.433 C 12.911 34.842,13.205 34.272,13.100 34.166 C 12.995 34.061,12.614 34.424,12.254 34.973 M62.800 35.197 C 57.999 36.244,55.190 37.262,51.000 39.478 C 47.823 41.157,40.732 48.225,39.622 50.818 C 39.391 51.358,39.036 52.070,38.833 52.400 C 37.349 54.812,36.059 58.605,35.149 63.231 C 34.581 66.118,34.899 375.505,35.472 377.000 C 35.817 377.902,35.940 378.001,35.967 377.400 C 36.142 373.420,36.878 365.443,37.202 364.000 C 37.424 363.010,37.862 360.310,38.174 358.000 C 38.864 352.902,40.613 343.978,42.054 338.200 C 42.274 337.320,42.715 335.443,43.035 334.029 C 43.355 332.615,43.869 330.635,44.178 329.629 C 44.486 328.623,45.112 326.540,45.568 325.000 C 47.012 320.133,48.471 315.449,48.994 314.000 C 52.342 304.718,53.282 302.183,53.811 301.000 C 54.106 300.340,54.916 298.450,55.610 296.800 C 57.722 291.778,60.801 285.103,62.805 281.200 C 63.426 279.990,64.674 277.560,65.578 275.800 C 66.482 274.040,67.391 272.330,67.598 272.000 C 67.804 271.670,68.889 269.780,70.008 267.800 C 72.591 263.229,72.809 262.867,73.899 261.327 C 74.395 260.626,74.800 259.944,74.800 259.810 C 74.800 259.677,75.134 259.080,75.543 258.484 C 75.951 257.888,78.031 254.790,80.165 251.600 C 84.872 244.564,85.970 243.009,88.944 239.178 C 90.214 237.540,91.737 235.572,92.327 234.804 C 92.917 234.037,94.038 232.687,94.817 231.804 C 95.597 230.922,97.029 229.210,98.001 228.000 C 104.709 219.646,121.147 203.384,130.954 195.400 C 133.116 193.640,135.271 191.882,135.742 191.493 C 137.185 190.305,142.505 186.267,144.200 185.075 C 145.080 184.456,146.610 183.330,147.600 182.574 C 148.590 181.818,149.670 181.075,150.000 180.923 C 150.330 180.770,151.489 180.005,152.575 179.223 C 162.440 172.118,183.140 160.964,197.200 155.177 C 198.410 154.679,200.120 153.951,201.000 153.559 C 202.550 152.868,204.480 152.139,207.800 150.987 C 208.680 150.682,210.660 149.956,212.200 149.375 C 213.740 148.793,215.900 148.064,217.000 147.756 C 218.100 147.447,219.567 146.926,220.260 146.597 C 220.954 146.269,221.764 146.003,222.060 146.006 C 222.357 146.009,223.813 145.643,225.296 145.193 C 232.985 142.859,237.172 141.769,241.507 140.973 C 243.105 140.679,244.588 140.331,244.802 140.199 C 245.303 139.889,253.056 138.484,258.200 137.771 C 260.400 137.466,262.924 137.041,263.808 136.826 C 264.692 136.611,267.842 136.245,270.808 136.012 C 273.774 135.779,277.640 135.370,279.400 135.101 C 284.628 134.304,308.277 134.427,311.800 135.270 C 313.340 135.638,315.410 136.122,316.400 136.346 C 319.349 137.013,322.520 137.959,323.800 138.552 C 326.554 139.828,330.254 141.651,331.000 142.099 C 344.772 150.375,349.726 155.119,357.424 167.400 C 361.433 173.795,364.741 182.128,365.418 187.537 C 365.619 189.141,365.800 189.560,366.143 189.217 C 366.726 188.634,367.013 65.651,366.437 62.834 C 363.805 49.960,354.387 38.991,343.797 36.467 C 342.919 36.258,341.127 35.797,339.816 35.443 C 337.239 34.748,65.966 34.507,62.800 35.197 M6.455 38.580 C 5.545 40.452,4.805 42.212,4.812 42.492 C 4.819 42.771,5.385 41.740,6.070 40.200 C 6.756 38.660,7.585 36.989,7.913 36.488 C 8.240 35.986,8.419 35.486,8.309 35.376 C 8.200 35.267,7.366 36.709,6.455 38.580 M393.603 36.090 C 393.601 36.250,393.959 36.970,394.399 37.690 C 394.838 38.411,395.196 38.820,395.196 38.600 C 395.195 38.380,394.837 37.660,394.400 37.000 C 393.963 36.340,393.604 35.931,393.603 36.090 M10.758 37.739 C 10.405 38.213,10.002 39.050,9.862 39.600 L 9.608 40.600 10.104 39.558 C 10.377 38.985,10.851 38.216,11.157 37.849 C 11.463 37.481,11.643 37.113,11.557 37.030 C 11.471 36.946,11.111 37.266,10.758 37.739 M395.200 39.447 C 395.200 39.667,395.464 40.196,395.787 40.624 C 396.110 41.051,396.375 41.220,396.375 41.000 C 396.375 40.780,396.110 40.251,395.787 39.824 C 395.464 39.396,395.200 39.227,395.200 39.447 M391.601 39.811 C 391.601 40.037,391.844 40.577,392.142 41.011 C 392.439 41.445,392.891 42.340,393.144 43.000 C 393.593 44.169,393.599 44.171,393.394 43.095 C 393.176 41.957,391.604 39.077,391.601 39.811 M396.448 42.000 C 396.439 42.330,396.868 43.590,397.400 44.800 C 397.932 46.010,398.375 46.765,398.384 46.478 C 398.393 46.191,398.063 45.201,397.652 44.278 C 397.240 43.355,396.804 42.330,396.683 42.000 C 396.488 41.467,396.461 41.467,396.448 42.000 M3.872 44.619 C 3.502 45.393,3.204 46.246,3.209 46.514 C 3.214 46.781,3.577 46.208,4.016 45.240 C 4.967 43.144,4.839 42.591,3.872 44.619 M7.593 44.672 C 6.693 47.007,6.695 47.129,7.607 45.472 C 8.070 44.631,8.388 43.764,8.315 43.544 C 8.241 43.324,7.916 43.831,7.593 44.672 M393.600 44.478 C 393.600 44.605,393.869 45.224,394.198 45.854 C 394.526 46.484,394.790 46.730,394.785 46.400 C 394.779 46.070,394.510 45.451,394.187 45.024 C 393.864 44.596,393.600 44.351,393.600 44.478 M398.446 47.824 C 398.391 48.810,399.409 50.325,399.838 49.895 C 400.005 49.728,399.855 49.369,399.505 49.096 C 399.154 48.823,398.783 48.240,398.680 47.800 C 398.498 47.020,398.492 47.021,398.446 47.824 M2.688 48.384 C 2.532 48.983,2.147 49.200,1.237 49.200 C 0.557 49.200,0.000 49.380,0.000 49.600 C 0.000 50.603,2.710 50.014,2.976 48.953 C 3.121 48.377,3.163 47.830,3.070 47.737 C 2.978 47.644,2.806 47.935,2.688 48.384 M395.216 49.054 C 395.207 49.304,395.463 50.114,395.784 50.854 C 396.106 51.594,396.376 51.996,396.384 51.746 C 396.393 51.496,396.137 50.686,395.816 49.946 C 395.494 49.206,395.224 48.804,395.216 49.054 M5.665 50.217 C 5.409 50.778,5.207 51.454,5.216 51.719 C 5.224 51.983,5.497 51.588,5.822 50.839 C 6.505 49.265,6.361 48.690,5.665 50.217 M117.905 66.915 C 117.987 78.820,117.898 82.244,117.482 83.038 L 116.954 84.045 113.668 80.623 C 111.468 78.331,110.087 77.200,109.490 77.200 C 108.843 77.200,101.986 83.812,84.600 101.200 C 59.686 126.117,59.866 125.960,58.155 124.114 C 53.535 119.129,52.277 106.713,55.647 99.356 C 56.061 98.452,56.400 97.583,56.400 97.425 C 56.400 96.542,62.843 89.698,76.569 76.002 C 86.264 66.327,92.000 60.316,92.000 59.829 C 92.000 59.400,90.558 57.577,88.767 55.742 C 86.989 53.921,85.651 52.241,85.793 52.011 C 85.969 51.726,91.170 51.625,101.926 51.695 L 117.800 51.800 117.905 66.915 M396.853 55.600 C 396.842 55.930,397.081 57.190,397.383 58.400 C 397.685 59.610,397.944 60.240,397.958 59.800 C 397.973 59.360,397.734 58.100,397.428 57.000 C 397.122 55.900,396.863 55.270,396.853 55.600 M4.091 57.377 C 3.821 58.386,3.614 59.704,3.632 60.306 C 3.649 60.908,3.918 60.230,4.229 58.800 C 4.896 55.737,4.798 54.733,4.091 57.377 M398.199 300.200 C 398.199 431.760,398.244 485.640,398.300 419.933 C 398.356 354.226,398.356 246.586,398.300 180.733 C 398.244 114.880,398.199 168.640,398.199 300.200 M3.399 300.200 C 3.399 431.320,3.444 485.020,3.500 419.533 C 3.556 354.046,3.556 246.766,3.500 181.133 C 3.444 115.500,3.399 169.080,3.399 300.200 M111.477 87.100 C 116.081 93.133,117.023 105.005,113.438 111.800 C 113.090 112.460,112.804 113.149,112.802 113.331 C 112.796 114.264,106.571 120.889,92.631 134.798 C 82.682 144.726,77.200 150.478,77.200 150.990 C 77.200 151.449,78.591 153.183,80.500 155.104 C 84.826 159.457,85.643 159.212,67.200 159.097 L 51.800 159.000 51.689 143.800 C 51.548 124.584,51.200 125.821,55.532 130.133 C 57.562 132.153,59.347 133.600,59.809 133.600 C 60.325 133.600,69.002 125.200,84.600 109.600 C 110.541 83.656,109.509 84.520,111.477 87.100 M202.459 192.754 C 201.592 193.305,202.246 194.099,209.574 201.396 C 215.003 206.800,216.400 208.409,216.400 209.258 C 216.400 210.140,210.866 215.807,184.368 242.062 C 156.389 269.783,147.963 278.535,145.716 282.209 C 143.024 286.610,142.347 288.175,140.445 294.400 C 138.383 301.148,138.115 317.988,140.012 321.609 C 140.187 321.944,140.633 323.384,141.001 324.809 C 141.370 326.234,141.813 327.580,141.987 327.800 C 142.160 328.020,142.437 328.650,142.602 329.200 C 142.959 330.392,145.782 335.356,146.964 336.871 C 149.633 340.292,150.148 340.800,150.942 340.800 C 151.548 340.799,166.190 326.411,200.788 291.814 C 242.521 250.084,249.908 242.862,250.668 243.053 C 251.158 243.176,254.899 246.634,258.981 250.738 C 264.947 256.737,266.480 258.082,266.797 257.600 C 267.049 257.216,267.156 245.429,267.095 224.800 L 267.000 192.600 235.000 192.505 C 217.400 192.452,202.756 192.564,202.459 192.754 M365.599 223.820 C 365.596 226.107,364.724 235.596,364.406 236.800 C 364.202 237.570,363.844 239.820,363.611 241.800 C 363.377 243.780,362.921 246.660,362.598 248.200 C 362.274 249.740,361.720 252.440,361.366 254.200 C 359.078 265.594,357.143 272.779,353.127 284.800 C 349.970 294.247,349.566 295.369,349.168 295.780 C 348.966 295.989,348.800 296.416,348.800 296.730 C 348.800 297.277,347.566 300.367,345.960 303.844 C 345.542 304.748,345.200 305.607,345.200 305.752 C 345.200 305.897,344.461 307.588,343.558 309.508 C 339.581 317.962,336.351 324.281,332.674 330.800 C 328.710 337.829,328.262 338.578,325.370 343.000 C 324.506 344.320,323.730 345.566,323.644 345.768 C 323.558 345.970,322.970 346.870,322.337 347.768 C 321.704 348.666,320.517 350.390,319.700 351.600 C 316.125 356.894,307.245 368.533,303.981 372.200 C 297.027 380.016,294.162 383.087,289.024 388.237 C 278.597 398.686,264.699 410.568,255.800 416.642 C 249.335 421.053,242.035 425.887,241.200 426.308 C 240.650 426.586,239.390 427.339,238.400 427.982 C 237.410 428.624,236.150 429.402,235.600 429.710 C 235.050 430.018,233.880 430.689,233.000 431.203 C 229.316 433.352,227.805 434.145,219.800 438.139 C 215.180 440.444,210.050 442.893,208.400 443.581 C 206.750 444.269,205.098 444.998,204.729 445.201 C 204.360 445.404,202.380 446.214,200.329 447.001 C 198.278 447.788,196.240 448.607,195.800 448.822 C 195.360 449.036,194.460 449.382,193.800 449.589 C 193.140 449.796,191.070 450.519,189.200 451.196 C 187.330 451.873,184.990 452.677,184.000 452.984 C 183.010 453.290,180.940 453.933,179.400 454.412 C 174.240 456.017,169.822 457.238,167.085 457.815 C 165.592 458.130,164.048 458.560,163.654 458.771 C 163.260 458.982,161.962 459.280,160.769 459.434 C 159.576 459.588,158.150 459.883,157.600 460.090 C 154.938 461.093,135.729 464.105,127.400 464.826 C 124.540 465.074,120.760 465.428,119.000 465.613 C 107.418 466.832,89.627 465.808,83.264 463.556 C 82.090 463.140,80.857 462.800,80.525 462.800 C 79.484 462.800,71.359 458.975,69.000 457.374 C 68.211 456.838,67.472 456.400,67.359 456.400 C 67.133 456.400,62.995 453.547,59.681 451.107 C 54.263 447.117,48.110 439.828,43.772 432.258 C 40.716 426.926,40.337 426.170,39.229 423.200 C 37.008 417.248,36.703 416.183,36.209 412.652 C 36.001 411.164,35.826 410.814,35.468 411.172 C 34.849 411.791,34.577 534.291,35.188 537.370 C 36.455 543.752,38.570 548.676,41.731 552.600 C 46.387 558.381,52.755 562.747,58.742 564.264 C 59.984 564.578,61.630 565.003,62.400 565.208 C 65.186 565.950,337.447 565.704,340.216 564.957 C 341.527 564.603,343.157 564.179,343.837 564.013 C 350.742 562.335,359.440 554.807,363.234 547.228 C 364.738 544.223,365.211 542.827,366.428 537.800 C 367.059 535.195,366.734 224.174,366.100 223.540 C 365.700 223.140,365.600 223.196,365.599 223.820 M200.800 308.600 C 168.533 340.868,151.529 357.600,151.004 357.600 C 150.504 357.600,147.411 354.808,142.694 350.100 C 136.684 344.102,135.102 342.720,134.795 343.200 C 134.554 343.575,134.445 355.809,134.505 375.800 L 134.600 407.800 166.778 407.902 C 188.373 407.971,199.090 407.870,199.366 407.594 C 199.646 407.314,197.469 404.875,192.488 399.888 C 186.938 394.332,185.200 392.354,185.200 391.595 C 185.200 390.807,191.957 383.847,217.425 358.399 C 246.814 329.033,253.821 321.686,255.759 318.200 C 256.126 317.540,256.881 316.190,257.437 315.200 C 258.779 312.809,260.184 309.192,261.010 306.000 C 261.380 304.570,261.871 302.680,262.102 301.800 C 262.668 299.638,262.661 284.757,262.092 282.000 C 260.974 276.584,259.300 271.685,257.443 268.400 C 256.884 267.410,256.124 266.060,255.755 265.400 C 254.304 262.803,251.479 259.600,250.640 259.600 C 250.056 259.600,234.814 274.585,200.800 308.600 M349.920 441.680 C 350.550 442.310,350.608 471.002,349.982 472.648 L 349.564 473.747 346.074 470.274 C 344.155 468.363,342.317 466.800,341.990 466.800 C 341.663 466.800,330.508 477.688,317.201 490.996 C 297.503 510.695,292.856 515.148,292.203 514.956 C 291.379 514.713,288.842 512.083,288.815 511.444 C 288.807 511.248,288.455 510.348,288.033 509.444 C 285.234 503.446,285.399 494.717,288.436 488.200 C 290.042 484.754,292.423 482.169,309.300 465.553 C 326.907 448.218,325.834 450.060,321.100 445.296 C 318.433 442.612,317.915 441.902,318.400 441.594 C 319.338 440.997,349.319 441.079,349.920 441.680 M343.703 476.524 C 348.495 482.490,349.382 494.103,345.650 502.000 C 344.198 505.073,345.141 504.048,326.600 522.705 C 307.009 542.418,308.243 540.420,312.818 545.018 C 317.237 549.460,317.984 549.234,299.317 549.105 L 284.200 549.000 284.095 533.401 C 284.038 524.821,284.090 517.543,284.212 517.226 C 284.366 516.823,285.489 517.700,287.943 520.143 C 291.137 523.323,291.540 523.601,292.426 523.244 C 292.962 523.028,304.110 512.131,317.200 499.029 C 342.954 473.251,341.836 474.200,343.703 476.524 M3.652 540.400 C 3.643 540.950,3.885 542.300,4.191 543.400 C 4.911 545.996,4.934 544.472,4.217 541.600 C 3.915 540.390,3.661 539.850,3.652 540.400 M397.253 542.453 C 396.977 543.790,396.827 544.960,396.919 545.052 C 397.011 545.144,397.318 544.131,397.600 542.800 C 397.882 541.469,398.033 540.300,397.935 540.201 C 397.836 540.103,397.530 541.116,397.253 542.453 M5.235 548.600 C 5.230 548.820,5.574 549.990,6.000 551.200 C 6.426 552.410,6.770 553.040,6.765 552.600 C 6.755 551.791,5.253 547.860,5.235 548.600 M395.691 549.700 C 395.010 551.584,395.104 552.094,395.826 550.430 C 396.153 549.677,396.366 548.899,396.301 548.702 C 396.235 548.505,395.960 548.954,395.691 549.700 M0.000 550.800 C 0.000 551.020,0.546 551.200,1.213 551.200 C 2.086 551.200,2.537 551.452,2.824 552.100 C 3.210 552.971,3.216 552.967,3.017 552.000 C 2.904 551.450,2.808 550.865,2.805 550.700 C 2.797 550.243,0.000 550.342,0.000 550.800 M399.067 550.667 C 398.581 551.153,398.790 551.579,399.400 551.345 C 399.730 551.218,400.000 550.954,400.000 550.757 C 400.000 550.338,399.449 550.284,399.067 550.667 M3.209 553.940 C 3.198 554.599,4.444 557.290,4.659 557.074 C 4.745 556.989,4.455 556.127,4.016 555.160 C 3.577 554.192,3.214 553.643,3.209 553.940 M394.104 554.684 C 393.831 555.266,393.682 555.815,393.772 555.905 C 394.012 556.146,394.873 554.418,394.726 553.991 C 394.657 553.790,394.377 554.102,394.104 554.684 M7.524 555.400 C 7.726 555.840,7.992 556.470,8.114 556.800 C 8.307 557.318,8.341 557.315,8.368 556.776 C 8.386 556.434,8.120 555.804,7.778 555.376 C 7.166 554.612,7.162 554.613,7.524 555.400 M397.232 555.939 C 396.995 556.384,396.801 556.984,396.802 557.274 C 396.804 557.563,397.077 557.278,397.410 556.640 C 397.742 556.003,397.936 555.402,397.840 555.306 C 397.743 555.210,397.470 555.495,397.232 555.939 M393.232 556.806 C 393.214 557.139,392.829 558.103,392.376 558.949 C 391.923 559.794,391.622 560.555,391.707 560.640 C 391.997 560.931,393.663 557.188,393.463 556.694 C 393.331 556.367,393.253 556.404,393.232 556.806 M8.425 557.726 C 8.383 558.283,12.027 565.366,12.682 566.000 C 13.023 566.330,12.826 565.769,12.244 564.754 C 11.663 563.738,10.571 561.668,9.818 560.154 C 9.065 558.639,8.438 557.547,8.425 557.726 M396.025 559.283 C 395.715 560.007,395.389 560.780,395.301 561.000 C 395.212 561.220,395.529 560.818,396.005 560.106 C 396.481 559.395,396.807 558.622,396.730 558.389 C 396.652 558.156,396.335 558.558,396.025 559.283 M5.225 559.400 C 5.225 559.620,5.490 560.149,5.813 560.576 C 6.136 561.004,6.400 561.173,6.400 560.953 C 6.400 560.733,6.136 560.204,5.813 559.776 C 5.490 559.349,5.225 559.180,5.225 559.400 M389.468 564.506 C 388.436 566.318,387.301 568.250,386.946 568.800 L 386.302 569.800 387.153 568.800 C 388.231 567.533,391.716 561.582,391.504 561.370 C 391.416 561.283,390.500 562.694,389.468 564.506 M6.402 561.644 C 6.396 562.406,10.569 569.600,11.017 569.600 C 11.131 569.600,10.589 568.607,9.812 567.392 C 9.036 566.178,8.394 565.053,8.388 564.892 C 8.372 564.528,6.405 561.309,6.402 561.644 M392.484 566.299 C 391.288 568.132,391.534 568.365,392.767 566.567 C 393.288 565.805,393.644 565.118,393.558 565.039 C 393.471 564.961,392.988 565.528,392.484 566.299 M13.200 566.972 C 13.200 567.287,13.374 567.528,17.147 572.415 C 19.748 575.784,23.546 579.697,26.823 582.385 C 28.021 583.366,26.943 582.196,24.429 579.785 C 20.368 575.889,18.020 573.194,14.300 568.160 C 13.695 567.341,13.200 566.807,13.200 566.972 M390.306 569.754 C 386.956 574.761,385.708 576.286,381.597 580.397 C 377.486 584.508,375.961 585.756,370.954 589.106 C 369.310 590.205,369.128 590.781,370.753 589.739 C 378.314 584.891,386.091 577.114,390.939 569.553 C 391.981 567.928,391.405 568.110,390.306 569.754 M11.562 570.600 C 11.790 571.040,12.354 571.850,12.815 572.400 C 13.387 573.082,13.522 573.146,13.238 572.600 C 13.010 572.160,12.446 571.350,11.985 570.800 C 11.413 570.118,11.278 570.054,11.562 570.600 M382.976 573.898 C 381.206 575.957,377.080 580.051,373.800 583.003 C 373.002 583.721,373.203 583.635,374.400 582.747 C 376.560 581.144,382.090 575.668,383.939 573.300 C 385.843 570.862,385.293 571.204,382.976 573.898 M15.797 576.369 C 16.829 577.705,22.695 583.571,24.031 584.603 C 24.598 585.041,23.899 584.299,22.478 582.953 C 21.057 581.607,18.793 579.343,17.447 577.922 C 16.101 576.501,15.359 575.802,15.797 576.369 M31.869 586.143 C 33.167 587.225,38.840 590.493,39.052 590.281 C 39.130 590.203,37.681 589.290,35.831 588.252 C 33.982 587.214,32.251 586.103,31.985 585.782 C 31.720 585.462,31.330 585.200,31.120 585.200 C 30.910 585.200,31.247 585.624,31.869 586.143 M369.554 585.931 C 369.029 586.334,367.209 587.447,365.508 588.406 C 363.808 589.365,362.487 590.220,362.573 590.306 C 362.659 590.392,364.140 589.639,365.865 588.633 C 368.938 586.840,371.242 585.227,370.754 585.209 C 370.619 585.204,370.079 585.529,369.554 585.931 M25.803 586.005 C 25.948 586.240,26.727 586.875,27.534 587.415 C 28.340 587.956,29.675 588.851,30.500 589.405 C 31.325 589.959,32.000 590.321,32.000 590.211 C 32.000 590.100,31.325 589.564,30.500 589.020 C 29.675 588.475,28.221 587.477,27.270 586.803 C 26.318 586.129,25.658 585.770,25.803 586.005 M33.600 591.400 C 34.345 591.950,35.142 592.400,35.371 592.400 C 35.599 592.400,35.123 591.950,34.314 591.400 C 33.505 590.850,32.708 590.400,32.544 590.400 C 32.379 590.400,32.855 590.850,33.600 591.400 M360.589 590.942 C 360.155 591.239,359.260 591.691,358.600 591.944 C 357.431 592.393,357.429 592.399,358.505 592.194 C 359.643 591.976,362.523 590.404,361.789 590.401 C 361.563 590.401,361.023 590.644,360.589 590.942 M367.241 591.434 C 366.493 591.965,366.053 592.400,366.263 592.400 C 366.473 592.400,367.255 591.950,368.000 591.400 C 369.735 590.120,369.047 590.151,367.241 591.434 M37.000 593.200 C 37.660 593.637,38.380 593.995,38.600 593.996 C 38.820 593.996,38.411 593.638,37.690 593.199 C 35.992 592.163,35.436 592.164,37.000 593.200 M45.024 592.987 C 45.451 593.310,46.070 593.579,46.400 593.585 C 46.730 593.590,46.484 593.326,45.854 592.998 C 44.395 592.237,44.025 592.232,45.024 592.987 M355.600 593.033 C 355.042 593.343,354.865 593.585,355.200 593.581 C 355.530 593.578,356.149 593.310,356.576 592.987 C 357.539 592.259,356.945 592.287,355.600 593.033 M39.824 594.587 C 40.251 594.910,40.780 595.175,41.000 595.175 C 41.220 595.175,41.051 594.910,40.624 594.587 C 40.196 594.264,39.667 594.000,39.447 594.000 C 39.227 594.000,39.396 594.264,39.824 594.587 M49.946 594.616 C 50.686 594.937,51.496 595.193,51.746 595.184 C 51.996 595.176,51.594 594.906,50.854 594.584 C 50.114 594.263,49.304 594.007,49.054 594.016 C 48.804 594.024,49.206 594.294,49.946 594.616 M350.600 594.614 C 348.985 595.354,349.951 595.355,351.654 594.616 C 352.394 594.294,352.730 594.039,352.400 594.048 C 352.070 594.057,351.260 594.312,350.600 594.614 M360.406 594.823 C 359.640 595.250,359.280 595.599,359.606 595.597 C 359.933 595.596,360.740 595.237,361.400 594.800 C 362.931 593.786,362.238 593.802,360.406 594.823 M42.000 595.483 C 42.330 595.604,43.355 596.040,44.278 596.452 C 45.201 596.863,46.191 597.193,46.478 597.184 C 46.765 597.175,46.010 596.732,44.800 596.200 C 43.590 595.668,42.330 595.239,42.000 595.248 C 41.467 595.261,41.467 595.288,42.000 595.483 M57.000 596.228 C 58.100 596.534,59.360 596.776,59.800 596.765 C 60.240 596.755,59.700 596.496,58.600 596.191 C 57.500 595.885,56.240 595.643,55.800 595.653 C 55.360 595.663,55.900 595.922,57.000 596.228 M343.000 596.209 C 341.900 596.492,341.360 596.737,341.800 596.754 C 342.240 596.771,343.500 596.534,344.600 596.228 C 347.111 595.529,345.709 595.513,343.000 596.209 M356.976 596.187 C 355.966 596.951,356.404 596.959,357.854 596.202 C 358.484 595.874,358.719 595.604,358.376 595.602 C 358.034 595.601,357.404 595.864,356.976 596.187 M130.900 597.100 C 169.345 597.156,232.255 597.156,270.700 597.100 C 309.145 597.044,277.690 596.998,200.800 596.998 C 123.910 596.998,92.455 597.044,130.900 597.100 M47.800 597.480 C 48.240 597.583,48.823 597.954,49.096 598.305 C 49.369 598.655,49.728 598.805,49.895 598.638 C 50.325 598.209,48.810 597.191,47.824 597.246 C 47.021 597.292,47.020 597.298,47.800 597.480 M351.867 597.867 C 351.484 598.249,351.538 598.800,351.957 598.800 C 352.154 598.800,352.418 598.530,352.545 598.200 C 352.779 597.590,352.353 597.381,351.867 597.867 "
              stroke="none" fill="#000000" fill-rule="evenodd"></path>
        
        <path id="path2"
              d="M0.000 24.625 L 0.000 49.251 1.287 49.125 C 2.387 49.018,2.626 48.796,2.923 47.600 C 3.987 43.326,8.120 34.698,11.201 30.324 C 11.868 29.376,13.086 27.613,13.907 26.406 C 15.834 23.574,23.574 15.834,26.406 13.907 C 27.613 13.086,29.376 11.868,30.324 11.201 C 34.698 8.120,43.326 3.987,47.600 2.923 C 48.796 2.626,49.018 2.387,49.125 1.287 L 49.251 0.000 24.625 0.000 L 0.000 0.000 0.000 24.625 M352.475 1.300 C 352.588 2.479,352.769 2.642,354.424 3.050 C 355.426 3.298,356.813 3.793,357.504 4.150 C 358.195 4.508,358.972 4.800,359.232 4.800 C 363.662 4.800,380.321 17.078,386.641 25.000 C 388.297 27.076,388.802 27.788,391.283 31.551 C 392.703 33.704,396.800 41.610,396.800 42.197 C 396.800 42.352,397.086 43.083,397.437 43.821 C 397.787 44.559,398.290 46.014,398.556 47.054 C 399.852 52.137,400.000 49.846,400.000 24.633 L 400.000 0.000 376.175 -0.000 L 352.349 -0.000 352.475 1.300 M57.200 4.471 C 52.589 5.340,48.482 6.459,45.400 7.687 C 42.813 8.718,39.166 10.351,38.400 10.820 C 38.070 11.023,37.260 11.466,36.600 11.805 C 27.641 16.409,16.142 27.877,11.938 36.400 C 11.667 36.950,11.248 37.670,11.007 38.000 C 10.066 39.286,7.254 46.232,6.067 50.200 C 3.355 59.267,3.597 34.732,3.598 300.376 C 3.600 565.635,3.368 541.679,6.017 549.800 C 6.448 551.120,6.800 552.450,6.800 552.756 C 6.800 553.062,7.137 554.052,7.549 554.956 C 7.961 555.860,8.816 557.770,9.449 559.200 C 10.749 562.137,13.423 566.794,15.800 570.259 C 18.697 574.483,29.669 585.200,31.096 585.200 C 31.319 585.200,31.721 585.464,31.989 585.787 C 32.805 586.770,40.939 591.188,43.474 592.024 C 44.246 592.279,45.355 592.737,45.939 593.041 C 46.522 593.346,47.224 593.596,47.498 593.598 C 47.773 593.599,49.033 593.950,50.298 594.378 C 51.564 594.805,53.500 595.276,54.600 595.424 C 55.700 595.571,57.583 595.941,58.784 596.246 C 60.624 596.713,82.959 596.800,200.560 596.800 L 340.152 596.800 344.576 595.952 C 347.009 595.486,350.036 594.766,351.302 594.352 C 352.567 593.939,353.827 593.594,354.102 593.586 C 354.376 593.579,355.320 593.225,356.200 592.800 C 357.080 592.375,357.946 592.021,358.125 592.014 C 359.115 591.972,365.811 588.390,369.991 585.665 C 379.397 579.533,390.147 566.250,393.207 556.979 C 393.471 556.178,393.937 555.045,394.241 554.461 C 394.546 553.878,394.796 553.176,394.798 552.902 C 394.799 552.627,395.139 551.367,395.552 550.102 C 395.966 548.836,396.686 545.809,397.152 543.376 L 398.000 538.952 398.000 300.200 L 398.000 61.448 397.152 57.024 C 396.686 54.591,395.966 51.564,395.552 50.298 C 395.139 49.033,394.799 47.773,394.798 47.498 C 394.796 47.224,394.546 46.522,394.241 45.939 C 393.937 45.355,393.479 44.246,393.224 43.474 C 392.388 40.939,387.970 32.805,386.987 31.989 C 386.664 31.721,386.400 31.318,386.400 31.092 C 386.400 29.528,372.138 15.200,370.581 15.200 C 370.400 15.200,369.880 14.869,369.426 14.464 C 366.945 12.253,357.732 7.961,351.400 6.067 C 342.457 3.392,354.934 3.592,200.400 3.638 C 63.676 3.679,61.331 3.692,57.200 4.471 M339.816 35.443 C 341.127 35.797,342.919 36.258,343.797 36.467 C 354.387 38.991,363.805 49.960,366.437 62.834 C 367.013 65.651,366.726 188.634,366.143 189.217 C 365.800 189.560,365.619 189.141,365.418 187.537 C 364.741 182.128,361.433 173.795,357.424 167.400 C 351.848 158.505,347.140 153.101,341.200 148.779 C 337.608 146.166,335.848 145.013,331.000 142.099 C 330.254 141.651,326.554 139.828,323.800 138.552 C 322.520 137.959,319.349 137.013,316.400 136.346 C 315.410 136.122,313.340 135.638,311.800 135.270 C 308.277 134.427,284.628 134.304,279.400 135.101 C 277.640 135.370,273.774 135.779,270.808 136.012 C 267.842 136.245,264.692 136.611,263.808 136.826 C 262.924 137.041,260.400 137.466,258.200 137.771 C 253.056 138.484,245.303 139.889,244.802 140.199 C 244.588 140.331,243.105 140.679,241.507 140.973 C 237.172 141.769,232.985 142.859,225.296 145.193 C 223.813 145.643,222.357 146.009,222.060 146.006 C 221.764 146.003,220.954 146.269,220.260 146.597 C 219.567 146.926,218.100 147.447,217.000 147.756 C 215.900 148.064,213.740 148.793,212.200 149.375 C 210.660 149.956,208.680 150.682,207.800 150.987 C 204.480 152.139,202.550 152.868,201.000 153.559 C 200.120 153.951,198.410 154.679,197.200 155.177 C 183.140 160.964,162.440 172.118,152.575 179.223 C 151.489 180.005,150.330 180.770,150.000 180.923 C 149.670 181.075,148.590 181.818,147.600 182.574 C 146.610 183.330,145.080 184.456,144.200 185.075 C 142.505 186.267,137.185 190.305,135.742 191.493 C 135.271 191.882,133.116 193.640,130.954 195.400 C 121.147 203.384,104.709 219.646,98.001 228.000 C 97.029 229.210,95.597 230.922,94.817 231.804 C 94.038 232.687,92.917 234.037,92.327 234.804 C 91.737 235.572,90.214 237.540,88.944 239.178 C 85.970 243.009,84.872 244.564,80.165 251.600 C 78.031 254.790,75.951 257.888,75.543 258.484 C 75.134 259.080,74.800 259.677,74.800 259.810 C 74.800 259.944,74.395 260.626,73.899 261.327 C 72.809 262.867,72.591 263.229,70.008 267.800 C 68.889 269.780,67.804 271.670,67.598 272.000 C 67.391 272.330,66.482 274.040,65.578 275.800 C 64.674 277.560,63.426 279.990,62.805 281.200 C 60.801 285.103,57.722 291.778,55.610 296.800 C 54.916 298.450,54.106 300.340,53.811 301.000 C 53.282 302.183,52.342 304.718,48.994 314.000 C 48.471 315.449,47.012 320.133,45.568 325.000 C 45.112 326.540,44.486 328.623,44.178 329.629 C 43.869 330.635,43.355 332.615,43.035 334.029 C 42.715 335.443,42.274 337.320,42.054 338.200 C 40.613 343.978,38.864 352.902,38.174 358.000 C 37.862 360.310,37.424 363.010,37.202 364.000 C 36.878 365.443,36.142 373.420,35.967 377.400 C 35.940 378.001,35.817 377.902,35.472 377.000 C 34.899 375.505,34.581 66.118,35.149 63.231 C 36.059 58.605,37.349 54.812,38.833 52.400 C 39.036 52.070,39.391 51.358,39.622 50.818 C 40.732 48.225,47.823 41.157,51.000 39.478 C 55.190 37.262,57.999 36.244,62.800 35.197 C 65.966 34.507,337.239 34.748,339.816 35.443 M85.793 52.011 C 85.651 52.241,86.989 53.921,88.767 55.742 C 90.558 57.577,92.000 59.400,92.000 59.829 C 92.000 60.316,86.264 66.327,76.569 76.002 C 62.843 89.698,56.400 96.542,56.400 97.425 C 56.400 97.583,56.061 98.452,55.647 99.356 C 52.277 106.713,53.535 119.129,58.155 124.114 C 59.866 125.960,59.686 126.117,84.600 101.200 C 101.986 83.812,108.843 77.200,109.490 77.200 C 110.087 77.200,111.468 78.331,113.668 80.623 L 116.954 84.045 117.482 83.038 C 117.898 82.244,117.987 78.820,117.905 66.915 L 117.800 51.800 101.926 51.695 C 91.170 51.625,85.969 51.726,85.793 52.011 M84.600 109.600 C 69.002 125.200,60.325 133.600,59.809 133.600 C 59.347 133.600,57.562 132.153,55.532 130.133 C 51.200 125.821,51.548 124.584,51.689 143.800 L 51.800 159.000 67.200 159.097 C 85.643 159.212,84.826 159.457,80.500 155.104 C 78.591 153.183,77.200 151.449,77.200 150.990 C 77.200 150.478,82.682 144.726,92.631 134.798 C 106.571 120.889,112.796 114.264,112.802 113.331 C 112.804 113.149,113.090 112.460,113.438 111.800 C 117.023 105.005,116.081 93.133,111.477 87.100 C 109.509 84.520,110.541 83.656,84.600 109.600 M267.095 224.800 C 267.156 245.429,267.049 257.216,266.797 257.600 C 266.480 258.082,264.947 256.737,258.981 250.738 C 254.899 246.634,251.158 243.176,250.668 243.053 C 249.908 242.862,242.521 250.084,200.788 291.814 C 166.190 326.411,151.548 340.799,150.942 340.800 C 150.148 340.800,149.633 340.292,146.964 336.871 C 145.782 335.356,142.959 330.392,142.602 329.200 C 142.437 328.650,142.160 328.020,141.987 327.800 C 141.813 327.580,141.370 326.234,141.001 324.809 C 140.633 323.384,140.187 321.944,140.012 321.609 C 138.115 317.988,138.383 301.148,140.445 294.400 C 142.347 288.175,143.024 286.610,145.716 282.209 C 147.963 278.535,156.389 269.783,184.368 242.062 C 210.866 215.807,216.400 210.140,216.400 209.258 C 216.400 208.409,215.003 206.800,209.574 201.396 C 202.246 194.099,201.592 193.305,202.459 192.754 C 202.756 192.564,217.400 192.452,235.000 192.505 L 267.000 192.600 267.095 224.800 M366.708 380.120 C 366.777 479.829,366.676 536.778,366.428 537.800 C 365.211 542.827,364.738 544.223,363.234 547.228 C 359.440 554.807,350.742 562.335,343.837 564.013 C 343.157 564.179,341.527 564.603,340.216 564.957 C 337.447 565.704,65.186 565.950,62.400 565.208 C 61.630 565.003,59.984 564.578,58.742 564.264 C 47.001 561.290,37.865 550.859,35.188 537.370 C 34.577 534.291,34.849 411.791,35.468 411.172 C 35.826 410.814,36.001 411.164,36.209 412.652 C 36.703 416.183,37.008 417.248,39.229 423.200 C 40.337 426.170,40.716 426.926,43.772 432.258 C 48.110 439.828,54.263 447.117,59.681 451.107 C 62.995 453.547,67.133 456.400,67.359 456.400 C 67.472 456.400,68.211 456.838,69.000 457.374 C 71.359 458.975,79.484 462.800,80.525 462.800 C 80.857 462.800,82.090 463.140,83.264 463.556 C 89.627 465.808,107.418 466.832,119.000 465.613 C 120.760 465.428,124.540 465.074,127.400 464.826 C 135.729 464.105,154.938 461.093,157.600 460.090 C 158.150 459.883,159.576 459.588,160.769 459.434 C 161.962 459.280,163.260 458.982,163.654 458.771 C 164.048 458.560,165.592 458.130,167.085 457.815 C 169.822 457.238,174.240 456.017,179.400 454.412 C 180.940 453.933,183.010 453.290,184.000 452.984 C 184.990 452.677,187.330 451.873,189.200 451.196 C 191.070 450.519,193.140 449.796,193.800 449.589 C 194.460 449.382,195.360 449.036,195.800 448.822 C 196.240 448.607,198.278 447.788,200.329 447.001 C 202.380 446.214,204.360 445.404,204.729 445.201 C 205.098 444.998,206.750 444.269,208.400 443.581 C 210.050 442.893,215.180 440.444,219.800 438.139 C 227.805 434.145,229.316 433.352,233.000 431.203 C 233.880 430.689,235.050 430.018,235.600 429.710 C 236.150 429.402,237.410 428.624,238.400 427.982 C 239.390 427.339,240.650 426.586,241.200 426.308 C 242.035 425.887,249.335 421.053,255.800 416.642 C 264.699 410.568,278.597 398.686,289.024 388.237 C 294.162 383.087,297.027 380.016,303.981 372.200 C 307.245 368.533,316.125 356.894,319.700 351.600 C 320.517 350.390,321.704 348.666,322.337 347.768 C 322.970 346.870,323.558 345.970,323.644 345.768 C 323.730 345.566,324.506 344.320,325.370 343.000 C 328.262 338.578,328.710 337.829,332.674 330.800 C 336.351 324.281,339.581 317.962,343.558 309.508 C 344.461 307.588,345.200 305.897,345.200 305.752 C 345.200 305.607,345.542 304.748,345.960 303.844 C 347.566 300.367,348.800 297.277,348.800 296.730 C 348.800 296.416,348.966 295.989,349.168 295.780 C 349.566 295.369,349.970 294.247,353.127 284.800 C 357.143 272.779,359.078 265.594,361.366 254.200 C 361.720 252.440,362.274 249.740,362.598 248.200 C 362.921 246.660,363.377 243.780,363.611 241.800 C 363.844 239.820,364.202 237.570,364.406 236.800 C 364.724 235.596,365.596 226.107,365.599 223.820 C 365.600 223.196,365.700 223.140,366.100 223.540 C 366.498 223.938,366.622 255.905,366.708 380.120 M253.283 261.900 C 254.274 263.165,255.387 264.740,255.755 265.400 C 256.124 266.060,256.884 267.410,257.443 268.400 C 259.300 271.685,260.974 276.584,262.092 282.000 C 262.661 284.757,262.668 299.638,262.102 301.800 C 261.871 302.680,261.380 304.570,261.010 306.000 C 260.184 309.192,258.779 312.809,257.437 315.200 C 256.881 316.190,256.126 317.540,255.759 318.200 C 253.821 321.686,246.814 329.033,217.425 358.399 C 191.957 383.847,185.200 390.807,185.200 391.595 C 185.200 392.354,186.938 394.332,192.488 399.888 C 197.469 404.875,199.646 407.314,199.366 407.594 C 199.090 407.870,188.373 407.971,166.778 407.902 L 134.600 407.800 134.505 375.800 C 134.445 355.809,134.554 343.575,134.795 343.200 C 135.102 342.720,136.684 344.102,142.694 350.100 C 147.411 354.808,150.504 357.600,151.004 357.600 C 151.529 357.600,168.533 340.868,200.800 308.600 C 234.814 274.585,250.056 259.600,250.640 259.600 C 251.189 259.600,252.108 260.400,253.283 261.900 M318.400 441.594 C 317.915 441.902,318.433 442.612,321.100 445.296 C 325.834 450.060,326.907 448.218,309.300 465.553 C 292.423 482.169,290.042 484.754,288.436 488.200 C 285.399 494.717,285.234 503.446,288.033 509.444 C 288.455 510.348,288.807 511.248,288.815 511.444 C 288.842 512.083,291.379 514.713,292.203 514.956 C 292.856 515.148,297.503 510.695,317.201 490.996 C 330.508 477.688,341.663 466.800,341.990 466.800 C 342.317 466.800,344.155 468.363,346.074 470.274 L 349.564 473.747 349.982 472.648 C 350.608 471.002,350.550 442.310,349.920 441.680 C 349.319 441.079,319.338 440.997,318.400 441.594 M317.200 499.029 C 304.110 512.131,292.962 523.028,292.426 523.244 C 291.540 523.601,291.137 523.323,287.943 520.143 C 285.489 517.700,284.366 516.823,284.212 517.226 C 284.090 517.543,284.038 524.821,284.095 533.401 L 284.200 549.000 299.317 549.105 C 317.984 549.234,317.237 549.460,312.818 545.018 C 308.243 540.420,307.009 542.418,326.600 522.705 C 345.141 504.048,344.198 505.073,345.650 502.000 C 348.889 495.146,348.849 486.772,345.544 479.800 C 342.350 473.062,344.809 471.394,317.200 499.029 M-0.000 574.975 L 0.000 598.800 24.633 598.800 C 49.846 598.800,52.137 598.652,47.054 597.356 C 46.014 597.090,44.559 596.587,43.821 596.237 C 43.083 595.886,42.352 595.600,42.197 595.600 C 40.568 595.600,29.650 589.150,25.000 585.441 C 17.059 579.107,4.800 562.461,4.800 558.013 C 4.800 557.744,4.523 557.046,4.184 556.462 C 3.846 555.878,3.351 554.500,3.084 553.400 C 2.637 551.555,2.500 551.390,1.300 551.275 L -0.000 551.149 -0.000 574.975 M399.007 551.700 C 398.915 551.975,398.648 552.950,398.413 553.867 C 398.179 554.783,397.721 556.043,397.396 556.667 C 397.071 557.290,396.804 557.991,396.802 558.225 C 396.797 559.252,390.932 570.009,389.253 572.073 C 389.017 572.363,387.986 573.680,386.961 575.000 C 384.293 578.436,380.270 582.490,376.800 585.240 C 375.150 586.547,373.563 587.812,373.273 588.049 C 371.370 589.611,360.406 595.606,359.460 595.601 C 359.274 595.601,358.517 595.886,357.779 596.237 C 357.041 596.587,355.586 597.090,354.546 597.356 C 349.484 598.647,351.771 598.800,376.167 598.800 L 400.000 598.800 400.000 575.000 C 400.000 552.957,399.841 549.215,399.007 551.700 "
              stroke="none" fill="#ffffff" fill-rule="evenodd"></path>
    </g>
</svg>
