<?xml version="1.0" encoding="UTF-8" standalone="no"?>
<!DOCTYPE svg PUBLIC "-//W3C//DTD SVG 1.1//EN"
 "http://www.w3.org/Graphics/SVG/1.1/DTD/svg11.dtd">
<!-- Generated by graphviz version 11.0.0 (20240428.1522)
 -->
<!-- Title: dependency&#45;cruiser output Pages: 1 -->
<svg width="881pt" height="901pt"
 viewBox="0.00 0.00 881.25 900.84" xmlns="http://www.w3.org/2000/svg" xmlns:xlink="http://www.w3.org/1999/xlink">
<g id="graph0" class="graph" transform="scale(1 1) rotate(0) translate(4 896.84)">
<title>dependency&#45;cruiser output</title>
<polygon fill="white" stroke="none" points="-4,4 -4,-896.84 877.25,-896.84 877.25,4 -4,4"/>
<g id="clust1" class="cluster">
<title>cluster_src</title>
<path fill="#ffffff" stroke="black" stroke-width="2" d="M20,-39.84C20,-39.84 853.25,-39.84 853.25,-39.84 859.25,-39.84 865.25,-45.84 865.25,-51.84 865.25,-51.84 865.25,-872.84 865.25,-872.84 865.25,-878.84 859.25,-884.84 853.25,-884.84 853.25,-884.84 20,-884.84 20,-884.84 14,-884.84 8,-878.84 8,-872.84 8,-872.84 8,-51.84 8,-51.84 8,-45.84 14,-39.84 20,-39.84"/>
<text text-anchor="middle" x="436.62" y="-872.29" font-family="Helvetica,sans-Serif" font-weight="bold" font-size="9.00">src</text>
</g>
<g id="clust2" class="cluster">
<title>cluster_src/js</title>
<path fill="#ffffff" stroke="black" stroke-width="2" d="M90,-47.84C90,-47.84 845.25,-47.84 845.25,-47.84 851.25,-47.84 857.25,-53.84 857.25,-59.84 857.25,-59.84 857.25,-845.84 857.25,-845.84 857.25,-851.84 851.25,-857.84 845.25,-857.84 845.25,-857.84 90,-857.84 90,-857.84 84,-857.84 78,-851.84 78,-845.84 78,-845.84 78,-59.84 78,-59.84 78,-53.84 84,-47.84 90,-47.84"/>
<text text-anchor="middle" x="467.62" y="-845.29" font-family="Helvetica,sans-Serif" font-weight="bold" font-size="9.00">js</text>
</g>
<g id="clust3" class="cluster">
<title>cluster_src/js/actions</title>
<path fill="#ffffff" stroke="black" stroke-width="2" d="M536,-744.84C536,-744.84 767.25,-744.84 767.25,-744.84 773.25,-744.84 779.25,-750.84 779.25,-756.84 779.25,-756.84 779.25,-818.84 779.25,-818.84 779.25,-824.84 773.25,-830.84 767.25,-830.84 767.25,-830.84 536,-830.84 536,-830.84 530,-830.84 524,-824.84 524,-818.84 524,-818.84 524,-756.84 524,-756.84 524,-750.84 530,-744.84 536,-744.84"/>
<text text-anchor="middle" x="651.62" y="-818.29" font-family="Helvetica,sans-Serif" font-weight="bold" font-size="9.00">actions</text>
</g>
<g id="clust4" class="cluster">
<title>cluster_src/js/bot</title>
<path fill="#ffffff" stroke="black" stroke-width="2" d="M336.62,-615.84C336.62,-615.84 616.38,-615.84 616.38,-615.84 622.38,-615.84 628.38,-621.84 628.38,-627.84 628.38,-627.84 628.38,-658.84 628.38,-658.84 628.38,-664.84 622.38,-670.84 616.38,-670.84 616.38,-670.84 336.62,-670.84 336.62,-670.84 330.62,-670.84 324.62,-664.84 324.62,-658.84 324.62,-658.84 324.62,-627.84 324.62,-627.84 324.62,-621.84 330.62,-615.84 336.62,-615.84"/>
<text text-anchor="middle" x="476.5" y="-658.29" font-family="Helvetica,sans-Serif" font-weight="bold" font-size="9.00">bot</text>
</g>
<g id="clust5" class="cluster">
<title>cluster_src/js/connection</title>
<path fill="#ffffff" stroke="black" stroke-width="2" d="M315.25,-397.84C315.25,-397.84 613,-397.84 613,-397.84 619,-397.84 625,-403.84 625,-409.84 625,-409.84 625,-533.84 625,-533.84 625,-539.84 619,-545.84 613,-545.84 613,-545.84 315.25,-545.84 315.25,-545.84 309.25,-545.84 303.25,-539.84 303.25,-533.84 303.25,-533.84 303.25,-409.84 303.25,-409.84 303.25,-403.84 309.25,-397.84 315.25,-397.84"/>
<text text-anchor="middle" x="464.12" y="-533.29" font-family="Helvetica,sans-Serif" font-weight="bold" font-size="9.00">connection</text>
</g>
<g id="clust6" class="cluster">
<title>cluster_src/js/lib</title>
<path fill="#ffffff" stroke="black" stroke-width="2" d="M451.88,-72.84C451.88,-72.84 498.12,-72.84 498.12,-72.84 504.12,-72.84 510.12,-78.84 510.12,-84.84 510.12,-84.84 510.12,-115.84 510.12,-115.84 510.12,-121.84 504.12,-127.84 498.12,-127.84 498.12,-127.84 451.88,-127.84 451.88,-127.84 445.88,-127.84 439.88,-121.84 439.88,-115.84 439.88,-115.84 439.88,-84.84 439.88,-84.84 439.88,-78.84 445.88,-72.84 451.88,-72.84"/>
<text text-anchor="middle" x="475" y="-115.29" font-family="Helvetica,sans-Serif" font-weight="bold" font-size="9.00">lib</text>
</g>
<g id="clust7" class="cluster">
<title>cluster_src/js/mode</title>
<path fill="#ffffff" stroke="black" stroke-width="2" d="M234.75,-397.84C234.75,-397.84 283.25,-397.84 283.25,-397.84 289.25,-397.84 295.25,-403.84 295.25,-409.84 295.25,-409.84 295.25,-564.84 295.25,-564.84 295.25,-570.84 289.25,-576.84 283.25,-576.84 283.25,-576.84 234.75,-576.84 234.75,-576.84 228.75,-576.84 222.75,-570.84 222.75,-564.84 222.75,-564.84 222.75,-409.84 222.75,-409.84 222.75,-403.84 228.75,-397.84 234.75,-397.84"/>
<text text-anchor="middle" x="259" y="-564.29" font-family="Helvetica,sans-Serif" font-weight="bold" font-size="9.00">mode</text>
</g>
<g id="clust8" class="cluster">
<title>cluster_src/js/uno</title>
<path fill="#ffffff" stroke="black" stroke-width="2" d="M451.88,-223.84C451.88,-223.84 734.88,-223.84 734.88,-223.84 740.88,-223.84 746.88,-229.84 746.88,-235.84 746.88,-235.84 746.88,-343.84 746.88,-343.84 746.88,-349.84 740.88,-355.84 734.88,-355.84 734.88,-355.84 451.88,-355.84 451.88,-355.84 445.88,-355.84 439.88,-349.84 439.88,-343.84 439.88,-343.84 439.88,-235.84 439.88,-235.84 439.88,-229.84 445.88,-223.84 451.88,-223.84"/>
<text text-anchor="middle" x="593.38" y="-343.29" font-family="Helvetica,sans-Serif" font-weight="bold" font-size="9.00">uno</text>
</g>
<g id="clust9" class="cluster">
<title>cluster_src/js/utils</title>
<path fill="#ffffff" stroke="black" stroke-width="2" d="M673,-402.84C673,-402.84 837.25,-402.84 837.25,-402.84 843.25,-402.84 849.25,-408.84 849.25,-414.84 849.25,-414.84 849.25,-724.84 849.25,-724.84 849.25,-730.84 843.25,-736.84 837.25,-736.84 837.25,-736.84 673,-736.84 673,-736.84 667,-736.84 661,-730.84 661,-724.84 661,-724.84 661,-414.84 661,-414.84 661,-408.84 667,-402.84 673,-402.84"/>
<text text-anchor="middle" x="755.12" y="-724.29" font-family="Helvetica,sans-Serif" font-weight="bold" font-size="9.00">utils</text>
</g>
<g id="clust10" class="cluster">
<title>cluster_src/js/views</title>
<path fill="#ffffff" stroke="black" stroke-width="2" d="M326.5,-93.84C326.5,-93.84 405.75,-93.84 405.75,-93.84 411.75,-93.84 417.75,-99.84 417.75,-105.84 417.75,-105.84 417.75,-353.84 417.75,-353.84 417.75,-359.84 411.75,-365.84 405.75,-365.84 405.75,-365.84 326.5,-365.84 326.5,-365.84 320.5,-365.84 314.5,-359.84 314.5,-353.84 314.5,-353.84 314.5,-105.84 314.5,-105.84 314.5,-99.84 320.5,-93.84 326.5,-93.84"/>
<text text-anchor="middle" x="366.12" y="-353.29" font-family="Helvetica,sans-Serif" font-weight="bold" font-size="9.00">views</text>
</g>
<!-- src/index.js -->
<g id="node1" class="node">
<title>src/index.js</title>
<g id="a_node1"><a xlink:href="src/index.js" xlink:title="index.js">
<path fill="#ffffcc" stroke="black" d="M63.58,-522.47C63.58,-522.47 22.42,-522.47 22.42,-522.47 19.21,-522.47 16,-519.26 16,-516.05 16,-516.05 16,-509.63 16,-509.63 16,-506.42 19.21,-503.22 22.42,-503.22 22.42,-503.22 63.58,-503.22 63.58,-503.22 66.79,-503.22 70,-506.42 70,-509.63 70,-509.63 70,-516.05 70,-516.05 70,-519.26 66.79,-522.47 63.58,-522.47"/>
<text text-anchor="start" x="27.25" y="-509.92" font-family="Helvetica,sans-Serif" font-size="9.00">index.js</text>
</a>
</g>
</g>
<!-- src/js/starter.js -->
<g id="node2" class="node">
<title>src/js/starter.js</title>
<g id="a_node2"><a xlink:href="src/js/starter.js" xlink:title="starter.js">
<path fill="#ffffcc" stroke="black" d="M133.58,-449.47C133.58,-449.47 92.42,-449.47 92.42,-449.47 89.21,-449.47 86,-446.26 86,-443.05 86,-443.05 86,-436.63 86,-436.63 86,-433.42 89.21,-430.22 92.42,-430.22 92.42,-430.22 133.58,-430.22 133.58,-430.22 136.79,-430.22 140,-433.42 140,-436.63 140,-436.63 140,-443.05 140,-443.05 140,-446.26 136.79,-449.47 133.58,-449.47"/>
<text text-anchor="start" x="95" y="-436.92" font-family="Helvetica,sans-Serif" font-size="9.00">starter.js</text>
</a>
</g>
</g>
<!-- src/index.js&#45;&gt;src/js/starter.js -->
<g id="edge1" class="edge">
<title>src/index.js&#45;&gt;src/js/starter.js</title>
<path fill="none" stroke="#000000" stroke-width="2" stroke-opacity="0.200000" d="M47.47,-502.73C52.38,-489.78 62.53,-467.39 78,-453.84 78.14,-453.71 78.29,-453.59 78.44,-453.47"/>
<polygon fill="#000000" fill-opacity="0.200000" stroke="#000000" stroke-width="2" stroke-opacity="0.200000" points="79.4,-455.35 83.2,-450.25 77.05,-451.87 79.4,-455.35"/>
</g>
<!-- src/js/views/install_as_app.js -->
<g id="node3" class="node">
<title>src/js/views/install_as_app.js</title>
<g id="a_node3"><a xlink:href="src/js/views/install_as_app.js" xlink:title="install_as_app.js">
<path fill="#ffffcc" stroke="black" d="M403.33,-307.47C403.33,-307.47 328.92,-307.47 328.92,-307.47 325.71,-307.47 322.5,-304.26 322.5,-301.05 322.5,-301.05 322.5,-294.63 322.5,-294.63 322.5,-291.42 325.71,-288.22 328.92,-288.22 328.92,-288.22 403.33,-288.22 403.33,-288.22 406.54,-288.22 409.75,-291.42 409.75,-294.63 409.75,-294.63 409.75,-301.05 409.75,-301.05 409.75,-304.26 406.54,-307.47 403.33,-307.47"/>
<text text-anchor="start" x="330.5" y="-294.92" font-family="Helvetica,sans-Serif" font-size="9.00">install_as_app.js</text>
</a>
</g>
</g>
<!-- src/index.js&#45;&gt;src/js/views/install_as_app.js -->
<g id="edge2" class="edge">
<title>src/index.js&#45;&gt;src/js/views/install_as_app.js</title>
<path fill="none" stroke="#000000" stroke-width="2" stroke-opacity="0.200000" d="M45.65,-522.92C48.81,-538.53 57.34,-568.07 78,-580.84 160.14,-631.6 226.36,-647.5 295.25,-579.84 316.42,-559.04 284.55,-335.89 303.25,-312.84 306.18,-309.23 309.81,-306.4 313.84,-304.2"/>
<polygon fill="#000000" fill-opacity="0.200000" stroke="#000000" stroke-width="2" stroke-opacity="0.200000" points="314.55,-306.18 319.22,-301.88 312.88,-302.32 314.55,-306.18"/>
</g>
<!-- src/js/utils/assert.js -->
<g id="node13" class="node">
<title>src/js/utils/assert.js</title>
<g id="a_node13"><a xlink:href="src/js/utils/assert.js" xlink:title="assert.js">
<path fill="#ffffcc" stroke="black" d="M834.83,-430.47C834.83,-430.47 793.67,-430.47 793.67,-430.47 790.46,-430.47 787.25,-427.26 787.25,-424.05 787.25,-424.05 787.25,-417.63 787.25,-417.63 787.25,-414.42 790.46,-411.22 793.67,-411.22 793.67,-411.22 834.83,-411.22 834.83,-411.22 838.04,-411.22 841.25,-414.42 841.25,-417.63 841.25,-417.63 841.25,-424.05 841.25,-424.05 841.25,-427.26 838.04,-430.47 834.83,-430.47"/>
<text text-anchor="start" x="796.25" y="-417.92" font-family="Helvetica,sans-Serif" font-size="9.00">assert.js</text>
</a>
</g>
</g>
<!-- src/js/starter.js&#45;&gt;src/js/utils/assert.js -->
<g id="edge59" class="edge">
<title>src/js/starter.js&#45;&gt;src/js/utils/assert.js</title>
<path fill="none" stroke="#000000" stroke-width="2" stroke-opacity="0.200000" d="M135.62,-449.85C137.21,-451.06 138.7,-452.39 140,-453.84 150.25,-465.27 140.27,-477.27 153,-485.84 163.83,-493.13 202.34,-494.9 211.75,-485.84 234.9,-463.56 211.24,-226.84 222.75,-196.84 240.78,-149.85 269.09,-152.84 295.25,-109.84 300.01,-102.01 295.62,-95.91 303.25,-90.84 325.05,-76.37 400.34,-74.79 421,-90.84 439.47,-105.19 416.51,-126.31 434,-141.84 468.45,-172.42 594.37,-159.63 639.5,-168.84 702.68,-181.74 736.32,-159.72 779.25,-207.84 804.79,-236.47 811.23,-355.75 812.78,-402.21"/>
<polygon fill="#000000" fill-opacity="0.200000" stroke="#000000" stroke-width="2" stroke-opacity="0.200000" points="810.67,-402 812.95,-407.93 814.87,-401.87 810.67,-402"/>
</g>
<!-- src/js/game.js -->
<g id="node21" class="node">
<title>src/js/game.js</title>
<g id="a_node21"><a xlink:href="src/js/game.js" xlink:title="game.js">
<path fill="#ffffcc" stroke="black" d="M202.96,-222.47C202.96,-222.47 161.79,-222.47 161.79,-222.47 158.58,-222.47 155.38,-219.26 155.38,-216.05 155.38,-216.05 155.38,-209.63 155.38,-209.63 155.38,-206.42 158.58,-203.22 161.79,-203.22 161.79,-203.22 202.96,-203.22 202.96,-203.22 206.17,-203.22 209.38,-206.42 209.38,-209.63 209.38,-209.63 209.38,-216.05 209.38,-216.05 209.38,-219.26 206.17,-222.47 202.96,-222.47"/>
<text text-anchor="start" x="165.5" y="-209.92" font-family="Helvetica,sans-Serif" font-size="9.00">game.js</text>
</a>
</g>
</g>
<!-- src/js/starter.js&#45;&gt;src/js/game.js -->
<g id="edge52" class="edge">
<title>src/js/starter.js&#45;&gt;src/js/game.js</title>
<path fill="none" stroke="#000000" stroke-width="2" stroke-opacity="0.200000" d="M116.98,-429.79C127.4,-394.71 162.25,-277.28 175.86,-231.42"/>
<polygon fill="#000000" fill-opacity="0.200000" stroke="#000000" stroke-width="2" stroke-opacity="0.200000" points="177.87,-232.02 177.57,-225.67 173.85,-230.83 177.87,-232.02"/>
</g>
<!-- src/js/mode/ai.js -->
<g id="node28" class="node">
<title>src/js/mode/ai.js</title>
<g id="a_node28"><a xlink:href="src/js/mode/ai.js" xlink:title="ai.js">
<path fill="#ffffcc" stroke="black" d="M279.58,-487.47C279.58,-487.47 238.42,-487.47 238.42,-487.47 235.21,-487.47 232,-484.26 232,-481.05 232,-481.05 232,-474.63 232,-474.63 232,-471.42 235.21,-468.22 238.42,-468.22 238.42,-468.22 279.58,-468.22 279.58,-468.22 282.79,-468.22 286,-471.42 286,-474.63 286,-474.63 286,-481.05 286,-481.05 286,-484.26 282.79,-487.47 279.58,-487.47"/>
<text text-anchor="start" x="250.38" y="-474.92" font-family="Helvetica,sans-Serif" font-size="9.00">ai.js</text>
</a>
</g>
</g>
<!-- src/js/starter.js&#45;&gt;src/js/mode/ai.js -->
<g id="edge53" class="edge">
<title>src/js/starter.js&#45;&gt;src/js/mode/ai.js</title>
<path fill="none" stroke="#000000" stroke-width="2" stroke-dasharray="5,2" stroke-opacity="0.200000" d="M140.5,-433.92C161.39,-430.76 190.46,-429.81 211.75,-442.84 220.4,-448.14 215.23,-456.04 222.75,-462.84 223.25,-463.29 223.76,-463.73 224.29,-464.16"/>
<polygon fill="#000000" fill-opacity="0.200000" stroke="#000000" stroke-width="2" stroke-opacity="0.200000" points="223.07,-465.87 229.24,-467.4 225.37,-462.36 223.07,-465.87"/>
</g>
<!-- src/js/mode/hotseat.js -->
<g id="node30" class="node">
<title>src/js/mode/hotseat.js</title>
<g id="a_node30"><a xlink:href="src/js/mode/hotseat.js" xlink:title="hotseat.js">
<path fill="#ffffcc" stroke="black" d="M280.83,-549.47C280.83,-549.47 237.17,-549.47 237.17,-549.47 233.96,-549.47 230.75,-546.26 230.75,-543.05 230.75,-543.05 230.75,-536.63 230.75,-536.63 230.75,-533.42 233.96,-530.22 237.17,-530.22 237.17,-530.22 280.83,-530.22 280.83,-530.22 284.04,-530.22 287.25,-533.42 287.25,-536.63 287.25,-536.63 287.25,-543.05 287.25,-543.05 287.25,-546.26 284.04,-549.47 280.83,-549.47"/>
<text text-anchor="start" x="238.75" y="-536.92" font-family="Helvetica,sans-Serif" font-size="9.00">hotseat.js</text>
</a>
</g>
</g>
<!-- src/js/starter.js&#45;&gt;src/js/mode/hotseat.js -->
<g id="edge54" class="edge">
<title>src/js/starter.js&#45;&gt;src/js/mode/hotseat.js</title>
<path fill="none" stroke="#000000" stroke-width="2" stroke-dasharray="5,2" stroke-opacity="0.200000" d="M140.37,-442.01C167.57,-444.49 206.72,-448.87 211.75,-453.84 234.46,-476.29 203.14,-499.64 222.75,-524.84 223.15,-525.35 223.57,-525.85 224,-526.33"/>
<polygon fill="#000000" fill-opacity="0.200000" stroke="#000000" stroke-width="2" stroke-opacity="0.200000" points="222.23,-527.59 228.22,-529.74 224.88,-524.33 222.23,-527.59"/>
</g>
<!-- src/js/mode/net.js -->
<g id="node31" class="node">
<title>src/js/mode/net.js</title>
<g id="a_node31"><a xlink:href="src/js/mode/net.js" xlink:title="net.js">
<path fill="#ffffcc" stroke="black" d="M279.58,-456.47C279.58,-456.47 238.42,-456.47 238.42,-456.47 235.21,-456.47 232,-453.26 232,-450.05 232,-450.05 232,-443.63 232,-443.63 232,-440.42 235.21,-437.22 238.42,-437.22 238.42,-437.22 279.58,-437.22 279.58,-437.22 282.79,-437.22 286,-440.42 286,-443.63 286,-443.63 286,-450.05 286,-450.05 286,-453.26 282.79,-456.47 279.58,-456.47"/>
<text text-anchor="start" x="247.75" y="-443.92" font-family="Helvetica,sans-Serif" font-size="9.00">net.js</text>
</a>
</g>
</g>
<!-- src/js/starter.js&#45;&gt;src/js/mode/net.js -->
<g id="edge55" class="edge">
<title>src/js/starter.js&#45;&gt;src/js/mode/net.js</title>
<path fill="none" stroke="#000000" stroke-width="2" stroke-dasharray="5,2" stroke-opacity="0.200000" d="M140.22,-431.39C144.46,-430.33 148.82,-429.42 153,-428.84 178.86,-425.26 186.09,-424.02 211.75,-428.84 214.95,-429.44 220.3,-431.26 226.24,-433.52"/>
<polygon fill="#000000" fill-opacity="0.200000" stroke="#000000" stroke-width="2" stroke-opacity="0.200000" points="225.41,-435.45 231.76,-435.7 226.95,-431.54 225.41,-435.45"/>
</g>
<!-- src/js/mode/server.js -->
<g id="node32" class="node">
<title>src/js/mode/server.js</title>
<g id="a_node32"><a xlink:href="src/js/mode/server.js" xlink:title="server.js">
<path fill="#ffffcc" stroke="black" d="M279.58,-518.47C279.58,-518.47 238.42,-518.47 238.42,-518.47 235.21,-518.47 232,-515.26 232,-512.05 232,-512.05 232,-505.63 232,-505.63 232,-502.42 235.21,-499.22 238.42,-499.22 238.42,-499.22 279.58,-499.22 279.58,-499.22 282.79,-499.22 286,-502.42 286,-505.63 286,-505.63 286,-512.05 286,-512.05 286,-515.26 282.79,-518.47 279.58,-518.47"/>
<text text-anchor="start" x="241.38" y="-505.92" font-family="Helvetica,sans-Serif" font-size="9.00">server.js</text>
</a>
</g>
</g>
<!-- src/js/starter.js&#45;&gt;src/js/mode/server.js -->
<g id="edge56" class="edge">
<title>src/js/starter.js&#45;&gt;src/js/mode/server.js</title>
<path fill="none" stroke="#000000" stroke-width="2" stroke-dasharray="5,2" stroke-opacity="0.200000" d="M136.01,-449.92C137.48,-451.11 138.83,-452.41 140,-453.84 152.64,-469.3 137.67,-484.05 153,-496.84 163.33,-505.46 196.3,-508.15 222.58,-508.86"/>
<polygon fill="#000000" fill-opacity="0.200000" stroke="#000000" stroke-width="2" stroke-opacity="0.200000" points="222.47,-510.96 228.51,-508.98 222.56,-506.76 222.47,-510.96"/>
</g>
<!-- src/js/mode/test.js -->
<g id="node34" class="node">
<title>src/js/mode/test.js</title>
<g id="a_node34"><a xlink:href="src/js/mode/test.js" xlink:title="test.js">
<path fill="#ffffcc" stroke="black" d="M279.58,-425.47C279.58,-425.47 238.42,-425.47 238.42,-425.47 235.21,-425.47 232,-422.26 232,-419.05 232,-419.05 232,-412.63 232,-412.63 232,-409.42 235.21,-406.22 238.42,-406.22 238.42,-406.22 279.58,-406.22 279.58,-406.22 282.79,-406.22 286,-409.42 286,-412.63 286,-412.63 286,-419.05 286,-419.05 286,-422.26 282.79,-425.47 279.58,-425.47"/>
<text text-anchor="start" x="246.62" y="-412.92" font-family="Helvetica,sans-Serif" font-size="9.00">test.js</text>
</a>
</g>
</g>
<!-- src/js/starter.js&#45;&gt;src/js/mode/test.js -->
<g id="edge57" class="edge">
<title>src/js/starter.js&#45;&gt;src/js/mode/test.js</title>
<path fill="none" stroke="#000000" stroke-width="2" stroke-dasharray="5,2" stroke-opacity="0.200000" d="M132.13,-429.76C138.53,-426.66 145.91,-423.61 153,-421.84 175.84,-416.14 202.3,-414.66 222.95,-414.59"/>
<polygon fill="#000000" fill-opacity="0.200000" stroke="#000000" stroke-width="2" stroke-opacity="0.200000" points="222.66,-416.69 228.68,-414.63 222.69,-412.49 222.66,-416.69"/>
</g>
<!-- src/js/settings.js -->
<g id="node35" class="node">
<title>src/js/settings.js</title>
<g id="a_node35"><a xlink:href="src/js/settings.js" xlink:title="settings.js">
<path fill="#ffffcc" stroke="black" d="M205.33,-479.47C205.33,-479.47 159.42,-479.47 159.42,-479.47 156.21,-479.47 153,-476.26 153,-473.05 153,-473.05 153,-466.63 153,-466.63 153,-463.42 156.21,-460.22 159.42,-460.22 159.42,-460.22 205.33,-460.22 205.33,-460.22 208.54,-460.22 211.75,-463.42 211.75,-466.63 211.75,-466.63 211.75,-473.05 211.75,-473.05 211.75,-476.26 208.54,-479.47 205.33,-479.47"/>
<text text-anchor="start" x="161" y="-466.92" font-family="Helvetica,sans-Serif" font-size="9.00">settings.js</text>
</a>
</g>
</g>
<!-- src/js/starter.js&#45;&gt;src/js/settings.js -->
<g id="edge58" class="edge">
<title>src/js/starter.js&#45;&gt;src/js/settings.js</title>
<path fill="none" stroke="#000000" stroke-width="2" stroke-opacity="0.200000" d="M136.43,-449.83C141.05,-451.88 145.97,-454.08 150.81,-456.23"/>
<polygon fill="#000000" fill-opacity="0.200000" stroke="#000000" stroke-width="2" stroke-opacity="0.200000" points="149.71,-458.04 156.04,-458.56 151.42,-454.2 149.71,-458.04"/>
</g>
<!-- src/js/utils/parse&#45;settings.js -->
<g id="node36" class="node">
<title>src/js/utils/parse&#45;settings.js</title>
<g id="a_node36"><a xlink:href="src/js/utils/parse-settings.js" xlink:title="parse&#45;settings.js">
<path fill="#ffffcc" stroke="black" d="M748.33,-492.47C748.33,-492.47 675.42,-492.47 675.42,-492.47 672.21,-492.47 669,-489.26 669,-486.05 669,-486.05 669,-479.63 669,-479.63 669,-476.42 672.21,-473.22 675.42,-473.22 675.42,-473.22 748.33,-473.22 748.33,-473.22 751.54,-473.22 754.75,-476.42 754.75,-479.63 754.75,-479.63 754.75,-486.05 754.75,-486.05 754.75,-489.26 751.54,-492.47 748.33,-492.47"/>
<text text-anchor="start" x="677" y="-479.92" font-family="Helvetica,sans-Serif" font-size="9.00">parse&#45;settings.js</text>
</a>
</g>
</g>
<!-- src/js/starter.js&#45;&gt;src/js/utils/parse&#45;settings.js -->
<g id="edge60" class="edge">
<title>src/js/starter.js&#45;&gt;src/js/utils/parse&#45;settings.js</title>
<path fill="none" stroke="#000000" stroke-width="2" stroke-opacity="0.200000" d="M124.81,-429.87C132.23,-423.53 142.58,-415.65 153,-410.84 210.76,-384.18 249.11,-351.04 295.25,-394.84 307.68,-406.64 290.82,-537.04 303.25,-548.84 330.34,-574.57 610,-571.77 639.5,-548.84 657.97,-534.49 635.98,-514.4 652.5,-497.84 654.97,-495.37 657.78,-493.29 660.81,-491.54"/>
<polygon fill="#000000" fill-opacity="0.200000" stroke="#000000" stroke-width="2" stroke-opacity="0.200000" points="661.43,-493.57 665.97,-489.11 659.65,-489.76 661.43,-493.57"/>
</g>
<!-- src/js/actions/actions_uno_client.js -->
<g id="node4" class="node">
<title>src/js/actions/actions_uno_client.js</title>
<g id="a_node4"><a xlink:href="src/js/actions/actions_uno_client.js" xlink:title="actions_uno_client.js">
<path fill="#ffffcc" stroke="black" d="M631.21,-803.47C631.21,-803.47 540.29,-803.47 540.29,-803.47 537.08,-803.47 533.88,-800.26 533.88,-797.05 533.88,-797.05 533.88,-790.63 533.88,-790.63 533.88,-787.42 537.08,-784.22 540.29,-784.22 540.29,-784.22 631.21,-784.22 631.21,-784.22 634.42,-784.22 637.62,-787.42 637.62,-790.63 637.62,-790.63 637.62,-797.05 637.62,-797.05 637.62,-800.26 634.42,-803.47 631.21,-803.47"/>
<text text-anchor="start" x="541.88" y="-790.92" font-family="Helvetica,sans-Serif" font-size="9.00">actions_uno_client.js</text>
</a>
</g>
</g>
<!-- src/js/actions/actions_uno_common.js -->
<g id="node5" class="node">
<title>src/js/actions/actions_uno_common.js</title>
<g id="a_node5"><a xlink:href="src/js/actions/actions_uno_common.js" xlink:title="actions_uno_common.js">
<path fill="#ffffcc" stroke="black" d="M764.83,-787.47C764.83,-787.47 658.92,-787.47 658.92,-787.47 655.71,-787.47 652.5,-784.26 652.5,-781.05 652.5,-781.05 652.5,-774.63 652.5,-774.63 652.5,-771.42 655.71,-768.22 658.92,-768.22 658.92,-768.22 764.83,-768.22 764.83,-768.22 768.04,-768.22 771.25,-771.42 771.25,-774.63 771.25,-774.63 771.25,-781.05 771.25,-781.05 771.25,-784.26 768.04,-787.47 764.83,-787.47"/>
<text text-anchor="start" x="660.5" y="-774.92" font-family="Helvetica,sans-Serif" font-size="9.00">actions_uno_common.js</text>
</a>
</g>
</g>
<!-- src/js/actions/actions_uno_client.js&#45;&gt;src/js/actions/actions_uno_common.js -->
<g id="edge3" class="edge">
<title>src/js/actions/actions_uno_client.js&#45;&gt;src/js/actions/actions_uno_common.js</title>
<path fill="none" stroke="#000000" stroke-width="2" stroke-opacity="0.200000" d="M637.95,-787.24C639.71,-787.02 641.47,-786.79 643.24,-786.56"/>
<polygon fill="#000000" fill-opacity="0.200000" stroke="#000000" stroke-width="2" stroke-opacity="0.200000" points="643.44,-788.65 649.12,-785.8 642.9,-784.49 643.44,-788.65"/>
</g>
<!-- src/js/actions/actions_uno_server.js -->
<g id="node6" class="node">
<title>src/js/actions/actions_uno_server.js</title>
<g id="a_node6"><a xlink:href="src/js/actions/actions_uno_server.js" xlink:title="actions_uno_server.js">
<path fill="#ffffcc" stroke="black" d="M633.08,-772.47C633.08,-772.47 538.42,-772.47 538.42,-772.47 535.21,-772.47 532,-769.26 532,-766.05 532,-766.05 532,-759.63 532,-759.63 532,-756.42 535.21,-753.22 538.42,-753.22 538.42,-753.22 633.08,-753.22 633.08,-753.22 636.29,-753.22 639.5,-756.42 639.5,-759.63 639.5,-759.63 639.5,-766.05 639.5,-766.05 639.5,-769.26 636.29,-772.47 633.08,-772.47"/>
<text text-anchor="start" x="540" y="-759.92" font-family="Helvetica,sans-Serif" font-size="9.00">actions_uno_server.js</text>
</a>
</g>
</g>
<!-- src/js/actions/actions_uno_server.js&#45;&gt;src/js/actions/actions_uno_common.js -->
<g id="edge4" class="edge">
<title>src/js/actions/actions_uno_server.js&#45;&gt;src/js/actions/actions_uno_common.js</title>
<path fill="none" stroke="#000000" stroke-width="2" stroke-opacity="0.200000" d="M639.75,-769.25C640.9,-769.38 642.05,-769.52 643.21,-769.66"/>
<polygon fill="#000000" fill-opacity="0.200000" stroke="#000000" stroke-width="2" stroke-opacity="0.200000" points="642.88,-771.74 649.09,-770.37 643.38,-767.57 642.88,-771.74"/>
</g>
<!-- src/js/bot/best_card.bot.js -->
<g id="node7" class="node">
<title>src/js/bot/best_card.bot.js</title>
<g id="a_node7"><a xlink:href="src/js/bot/best_card.bot.js" xlink:title="best_card.bot.js">
<path fill="#ffffcc" stroke="black" d="M509.58,-643.47C509.58,-643.47 440.42,-643.47 440.42,-643.47 437.21,-643.47 434,-640.26 434,-637.05 434,-637.05 434,-630.63 434,-630.63 434,-627.42 437.21,-624.22 440.42,-624.22 440.42,-624.22 509.58,-624.22 509.58,-624.22 512.79,-624.22 516,-627.42 516,-630.63 516,-630.63 516,-637.05 516,-637.05 516,-640.26 512.79,-643.47 509.58,-643.47"/>
<text text-anchor="start" x="442" y="-630.92" font-family="Helvetica,sans-Serif" font-size="9.00">best_card.bot.js</text>
</a>
</g>
</g>
<!-- src/js/bot/best_card.bot.js&#45;&gt;src/js/actions/actions_uno_server.js -->
<g id="edge5" class="edge">
<title>src/js/bot/best_card.bot.js&#45;&gt;src/js/actions/actions_uno_server.js</title>
<path fill="none" stroke="#000000" stroke-width="2" stroke-opacity="0.200000" d="M484.53,-643.96C503.19,-666.1 547.79,-719 570.68,-746.15"/>
<polygon fill="#000000" fill-opacity="0.200000" stroke="#000000" stroke-width="2" stroke-opacity="0.200000" points="568.83,-747.22 574.31,-750.45 572.04,-744.51 568.83,-747.22"/>
</g>
<!-- src/js/uno/basic.js -->
<g id="node8" class="node">
<title>src/js/uno/basic.js</title>
<g id="a_node8"><a xlink:href="src/js/uno/basic.js" xlink:title="basic.js">
<path fill="#ffffcc" stroke="black" d="M732.46,-274.47C732.46,-274.47 691.29,-274.47 691.29,-274.47 688.08,-274.47 684.88,-271.26 684.88,-268.05 684.88,-268.05 684.88,-261.63 684.88,-261.63 684.88,-258.42 688.08,-255.22 691.29,-255.22 691.29,-255.22 732.46,-255.22 732.46,-255.22 735.67,-255.22 738.88,-258.42 738.88,-261.63 738.88,-261.63 738.88,-268.05 738.88,-268.05 738.88,-271.26 735.67,-274.47 732.46,-274.47"/>
<text text-anchor="start" x="695.75" y="-261.92" font-family="Helvetica,sans-Serif" font-size="9.00">basic.js</text>
</a>
</g>
</g>
<!-- src/js/bot/best_card.bot.js&#45;&gt;src/js/uno/basic.js -->
<g id="edge6" class="edge">
<title>src/js/bot/best_card.bot.js&#45;&gt;src/js/uno/basic.js</title>
<path fill="none" stroke="#000000" stroke-width="2" stroke-opacity="0.200000" d="M482.28,-623.86C491.61,-608.45 508.78,-577.63 516,-548.84 520.17,-532.22 514.73,-409.25 524,-394.84 555.3,-346.2 592.67,-368.8 639.5,-334.84 661.43,-318.94 683.15,-296.4 696.77,-281.24"/>
<polygon fill="#000000" fill-opacity="0.200000" stroke="#000000" stroke-width="2" stroke-opacity="0.200000" points="698.02,-282.99 700.42,-277.11 694.87,-280.21 698.02,-282.99"/>
</g>
<!-- src/js/utils/random.js -->
<g id="node9" class="node">
<title>src/js/utils/random.js</title>
<g id="a_node9"><a xlink:href="src/js/utils/random.js" xlink:title="random.js">
<path fill="#ffffcc" stroke="black" d="M734.46,-554.47C734.46,-554.47 689.29,-554.47 689.29,-554.47 686.08,-554.47 682.88,-551.26 682.88,-548.05 682.88,-548.05 682.88,-541.63 682.88,-541.63 682.88,-538.42 686.08,-535.22 689.29,-535.22 689.29,-535.22 734.46,-535.22 734.46,-535.22 737.67,-535.22 740.88,-538.42 740.88,-541.63 740.88,-541.63 740.88,-548.05 740.88,-548.05 740.88,-551.26 737.67,-554.47 734.46,-554.47"/>
<text text-anchor="start" x="690.88" y="-541.92" font-family="Helvetica,sans-Serif" font-size="9.00">random.js</text>
</a>
</g>
</g>
<!-- src/js/bot/best_card.bot.js&#45;&gt;src/js/utils/random.js -->
<g id="edge7" class="edge">
<title>src/js/bot/best_card.bot.js&#45;&gt;src/js/utils/random.js</title>
<path fill="none" stroke="#000000" stroke-width="2" stroke-opacity="0.200000" d="M503.43,-623.78C510.09,-621.59 517.25,-619.45 524,-617.84 549.24,-611.83 619.74,-617.65 639.5,-600.84 654.06,-588.45 638.61,-572.98 652.5,-559.84 658.35,-554.3 665.97,-550.74 673.76,-548.46"/>
<polygon fill="#000000" fill-opacity="0.200000" stroke="#000000" stroke-width="2" stroke-opacity="0.200000" points="674.23,-550.51 679.59,-547.1 673.27,-546.42 674.23,-550.51"/>
</g>
<!-- src/js/utils/timer.js -->
<g id="node10" class="node">
<title>src/js/utils/timer.js</title>
<g id="a_node10"><a xlink:href="src/js/utils/timer.js" xlink:title="timer.js">
<path fill="#ffffcc" stroke="black" d="M732.46,-523.47C732.46,-523.47 691.29,-523.47 691.29,-523.47 688.08,-523.47 684.88,-520.26 684.88,-517.05 684.88,-517.05 684.88,-510.63 684.88,-510.63 684.88,-507.42 688.08,-504.22 691.29,-504.22 691.29,-504.22 732.46,-504.22 732.46,-504.22 735.67,-504.22 738.88,-507.42 738.88,-510.63 738.88,-510.63 738.88,-517.05 738.88,-517.05 738.88,-520.26 735.67,-523.47 732.46,-523.47"/>
<text text-anchor="start" x="696.5" y="-510.92" font-family="Helvetica,sans-Serif" font-size="9.00">timer.js</text>
</a>
</g>
</g>
<!-- src/js/bot/best_card.bot.js&#45;&gt;src/js/utils/timer.js -->
<g id="edge8" class="edge">
<title>src/js/bot/best_card.bot.js&#45;&gt;src/js/utils/timer.js</title>
<path fill="none" stroke="#000000" stroke-width="2" stroke-opacity="0.200000" d="M510.69,-623.87C512.58,-622.67 514.38,-621.34 516,-619.84 522.44,-613.91 517.85,-608.07 524,-601.84 563.7,-561.67 596.75,-585.76 639.5,-548.84 647.52,-541.91 643.89,-535.03 652.5,-528.84 659.3,-523.95 667.56,-520.66 675.69,-518.43"/>
<polygon fill="#000000" fill-opacity="0.200000" stroke="#000000" stroke-width="2" stroke-opacity="0.200000" points="676.08,-520.5 681.45,-517.1 675.13,-516.41 676.08,-520.5"/>
</g>
<!-- src/js/bot/simple.bot.js -->
<g id="node11" class="node">
<title>src/js/bot/simple.bot.js</title>
<g id="a_node11"><a xlink:href="src/js/bot/simple.bot.js" xlink:title="simple.bot.js">
<path fill="#ffffcc" stroke="black" d="M613.96,-643.47C613.96,-643.47 557.54,-643.47 557.54,-643.47 554.33,-643.47 551.12,-640.26 551.12,-637.05 551.12,-637.05 551.12,-630.63 551.12,-630.63 551.12,-627.42 554.33,-624.22 557.54,-624.22 557.54,-624.22 613.96,-624.22 613.96,-624.22 617.17,-624.22 620.38,-627.42 620.38,-630.63 620.38,-630.63 620.38,-637.05 620.38,-637.05 620.38,-640.26 617.17,-643.47 613.96,-643.47"/>
<text text-anchor="start" x="559.12" y="-630.92" font-family="Helvetica,sans-Serif" font-size="9.00">simple.bot.js</text>
</a>
</g>
</g>
<!-- src/js/bot/best_card.bot.js&#45;&gt;src/js/bot/simple.bot.js -->
<g id="edge9" class="edge">
<title>src/js/bot/best_card.bot.js&#45;&gt;src/js/bot/simple.bot.js</title>
<path fill="none" stroke="#000000" stroke-width="2" stroke-opacity="0.200000" d="M516.49,-633.84C524.74,-633.84 533.45,-633.84 541.78,-633.84"/>
<polygon fill="#000000" fill-opacity="0.200000" stroke="#000000" stroke-width="2" stroke-opacity="0.200000" points="541.61,-635.94 547.61,-633.84 541.61,-631.74 541.61,-635.94"/>
</g>
<!-- src/js/bot/simple.bot.js&#45;&gt;src/js/uno/basic.js -->
<g id="edge11" class="edge">
<title>src/js/bot/simple.bot.js&#45;&gt;src/js/uno/basic.js</title>
<path fill="none" stroke="#000000" stroke-width="2" stroke-opacity="0.200000" d="M595.12,-623.91C607.32,-608.81 629.57,-578.67 639.5,-548.84 660.49,-485.77 636.21,-464.29 652.5,-399.84 663.63,-355.8 687.48,-307.78 701,-282.58"/>
<polygon fill="#000000" fill-opacity="0.200000" stroke="#000000" stroke-width="2" stroke-opacity="0.200000" points="702.68,-283.87 703.7,-277.6 698.99,-281.87 702.68,-283.87"/>
</g>
<!-- src/js/bot/simple.bot.js&#45;&gt;src/js/utils/assert.js -->
<g id="edge12" class="edge">
<title>src/js/bot/simple.bot.js&#45;&gt;src/js/utils/assert.js</title>
<path fill="none" stroke="#000000" stroke-width="2" stroke-opacity="0.200000" d="M591.1,-643.81C599.72,-662.14 620.91,-700.68 652.5,-715.84 703.29,-740.22 737.2,-753.33 779.25,-715.84 799.94,-697.4 809.86,-501.86 812.5,-439.7"/>
<polygon fill="#000000" fill-opacity="0.200000" stroke="#000000" stroke-width="2" stroke-opacity="0.200000" points="814.59,-440.02 812.74,-433.94 810.4,-439.85 814.59,-440.02"/>
</g>
<!-- src/js/bot/setup_bot.js -->
<g id="node12" class="node">
<title>src/js/bot/setup_bot.js</title>
<g id="a_node12"><a xlink:href="src/js/bot/setup_bot.js" xlink:title="setup_bot.js">
<path fill="#ffffcc" stroke="black" d="M393.21,-643.47C393.21,-643.47 339.04,-643.47 339.04,-643.47 335.83,-643.47 332.62,-640.26 332.62,-637.05 332.62,-637.05 332.62,-630.63 332.62,-630.63 332.62,-627.42 335.83,-624.22 339.04,-624.22 339.04,-624.22 393.21,-624.22 393.21,-624.22 396.42,-624.22 399.62,-627.42 399.62,-630.63 399.62,-630.63 399.62,-637.05 399.62,-637.05 399.62,-640.26 396.42,-643.47 393.21,-643.47"/>
<text text-anchor="start" x="340.62" y="-630.92" font-family="Helvetica,sans-Serif" font-size="9.00">setup_bot.js</text>
</a>
</g>
</g>
<!-- src/js/bot/setup_bot.js&#45;&gt;src/js/bot/best_card.bot.js -->
<g id="edge10" class="edge">
<title>src/js/bot/setup_bot.js&#45;&gt;src/js/bot/best_card.bot.js</title>
<path fill="none" stroke="#000000" stroke-width="2" stroke-opacity="0.200000" d="M400.06,-633.84C407.9,-633.84 416.43,-633.84 424.82,-633.84"/>
<polygon fill="#000000" fill-opacity="0.200000" stroke="#000000" stroke-width="2" stroke-opacity="0.200000" points="424.8,-635.94 430.8,-633.84 424.8,-631.74 424.8,-635.94"/>
</g>
<!-- src/js/connection/client.js -->
<g id="node14" class="node">
<title>src/js/connection/client.js</title>
<g id="a_node14"><a xlink:href="src/js/connection/client.js" xlink:title="client.js">
<path fill="#ffffcc" stroke="black" d="M495.58,-487.47C495.58,-487.47 454.42,-487.47 454.42,-487.47 451.21,-487.47 448,-484.26 448,-481.05 448,-481.05 448,-474.63 448,-474.63 448,-471.42 451.21,-468.22 454.42,-468.22 454.42,-468.22 495.58,-468.22 495.58,-468.22 498.79,-468.22 502,-471.42 502,-474.63 502,-474.63 502,-481.05 502,-481.05 502,-484.26 498.79,-487.47 495.58,-487.47"/>
<text text-anchor="start" x="459.25" y="-474.92" font-family="Helvetica,sans-Serif" font-size="9.00">client.js</text>
</a>
</g>
</g>
<!-- src/js/utils/handlers.js -->
<g id="node15" class="node">
<title>src/js/utils/handlers.js</title>
<g id="a_node15"><a xlink:href="src/js/utils/handlers.js" xlink:title="handlers.js">
<path fill="#ffffcc" stroke="black" d="M736.71,-461.47C736.71,-461.47 687.04,-461.47 687.04,-461.47 683.83,-461.47 680.62,-458.26 680.62,-455.05 680.62,-455.05 680.62,-448.63 680.62,-448.63 680.62,-445.42 683.83,-442.22 687.04,-442.22 687.04,-442.22 736.71,-442.22 736.71,-442.22 739.92,-442.22 743.12,-445.42 743.12,-448.63 743.12,-448.63 743.12,-455.05 743.12,-455.05 743.12,-458.26 739.92,-461.47 736.71,-461.47"/>
<text text-anchor="start" x="688.62" y="-448.92" font-family="Helvetica,sans-Serif" font-size="9.00">handlers.js</text>
</a>
</g>
</g>
<!-- src/js/connection/client.js&#45;&gt;src/js/utils/handlers.js -->
<g id="edge13" class="edge">
<title>src/js/connection/client.js&#45;&gt;src/js/utils/handlers.js</title>
<path fill="none" stroke="#000000" stroke-width="2" stroke-opacity="0.200000" d="M502.49,-474.91C543.74,-470.34 623.57,-461.51 671.55,-456.19"/>
<polygon fill="#000000" fill-opacity="0.200000" stroke="#000000" stroke-width="2" stroke-opacity="0.200000" points="671.67,-458.29 677.41,-455.55 671.21,-454.12 671.67,-458.29"/>
</g>
<!-- src/js/connection/common.js -->
<g id="node16" class="node">
<title>src/js/connection/common.js</title>
<g id="a_node16"><a xlink:href="src/js/connection/common.js" xlink:title="common.js">
<path fill="#ffffcc" stroke="black" d="M610.58,-425.47C610.58,-425.47 560.92,-425.47 560.92,-425.47 557.71,-425.47 554.5,-422.26 554.5,-419.05 554.5,-419.05 554.5,-412.63 554.5,-412.63 554.5,-409.42 557.71,-406.22 560.92,-406.22 560.92,-406.22 610.58,-406.22 610.58,-406.22 613.79,-406.22 617,-409.42 617,-412.63 617,-412.63 617,-419.05 617,-419.05 617,-422.26 613.79,-425.47 610.58,-425.47"/>
<text text-anchor="start" x="562.5" y="-412.92" font-family="Helvetica,sans-Serif" font-size="9.00">common.js</text>
</a>
</g>
</g>
<!-- src/js/connection/client.js&#45;&gt;src/js/connection/common.js -->
<g id="edge14" class="edge">
<title>src/js/connection/client.js&#45;&gt;src/js/connection/common.js</title>
<path fill="none" stroke="#000000" stroke-width="2" stroke-opacity="0.200000" d="M502.22,-469.05C506.89,-467.19 511.66,-465.1 516,-462.84 533.54,-453.73 551.95,-440.95 565.3,-431.01"/>
<polygon fill="#000000" fill-opacity="0.200000" stroke="#000000" stroke-width="2" stroke-opacity="0.200000" points="566.22,-432.95 569.74,-427.66 563.69,-429.6 566.22,-432.95"/>
</g>
<!-- src/js/utils/handlers.js&#45;&gt;src/js/utils/assert.js -->
<g id="edge75" class="edge">
<title>src/js/utils/handlers.js&#45;&gt;src/js/utils/assert.js</title>
<path fill="none" stroke="#000000" stroke-width="2" stroke-opacity="0.200000" d="M743.33,-446.41C754.75,-444 767.74,-440.8 779.25,-436.84 781.36,-436.12 783.5,-435.3 785.65,-434.43"/>
<polygon fill="#000000" fill-opacity="0.200000" stroke="#000000" stroke-width="2" stroke-opacity="0.200000" points="786.34,-436.42 791,-432.1 784.66,-432.57 786.34,-436.42"/>
</g>
<!-- src/js/connection/common.js&#45;&gt;src/js/utils/random.js -->
<g id="edge16" class="edge">
<title>src/js/connection/common.js&#45;&gt;src/js/utils/random.js</title>
<path fill="none" stroke="#000000" stroke-width="2" stroke-opacity="0.200000" d="M589.59,-425.85C596.45,-448.17 616.11,-502.2 652.5,-529.84 658.8,-534.63 666.48,-537.9 674.16,-540.12"/>
<polygon fill="#000000" fill-opacity="0.200000" stroke="#000000" stroke-width="2" stroke-opacity="0.200000" points="673.17,-542.04 679.5,-541.44 674.18,-537.97 673.17,-542.04"/>
</g>
<!-- src/js/connection/common.js&#45;&gt;src/js/utils/handlers.js -->
<g id="edge15" class="edge">
<title>src/js/connection/common.js&#45;&gt;src/js/utils/handlers.js</title>
<path fill="none" stroke="#000000" stroke-width="2" stroke-opacity="0.200000" d="M617.08,-425.93C628.18,-429.52 640.87,-433.49 652.5,-436.84 658.65,-438.61 665.2,-440.39 671.6,-442.08"/>
<polygon fill="#000000" fill-opacity="0.200000" stroke="#000000" stroke-width="2" stroke-opacity="0.200000" points="670.92,-444.07 677.26,-443.55 671.98,-440.01 670.92,-444.07"/>
</g>
<!-- src/js/connection/connection_chooser.js -->
<g id="node17" class="node">
<title>src/js/connection/connection_chooser.js</title>
<g id="a_node17"><a xlink:href="src/js/connection/connection_chooser.js" xlink:title="connection_chooser.js">
<path fill="#ffffcc" stroke="black" d="M414.58,-456.47C414.58,-456.47 317.67,-456.47 317.67,-456.47 314.46,-456.47 311.25,-453.26 311.25,-450.05 311.25,-450.05 311.25,-443.63 311.25,-443.63 311.25,-440.42 314.46,-437.22 317.67,-437.22 317.67,-437.22 414.58,-437.22 414.58,-437.22 417.79,-437.22 421,-440.42 421,-443.63 421,-443.63 421,-450.05 421,-450.05 421,-453.26 417.79,-456.47 414.58,-456.47"/>
<text text-anchor="start" x="319.25" y="-443.92" font-family="Helvetica,sans-Serif" font-size="9.00">connection_chooser.js</text>
</a>
</g>
</g>
<!-- src/js/connection/connection_chooser.js&#45;&gt;src/js/utils/assert.js -->
<g id="edge17" class="edge">
<title>src/js/connection/connection_chooser.js&#45;&gt;src/js/utils/assert.js</title>
<path fill="none" stroke="#000000" stroke-width="2" stroke-opacity="0.200000" d="M376.74,-436.73C389.4,-422.74 411.18,-396.09 421,-368.84 432.2,-337.78 409.65,-243.14 434,-220.84 448.14,-207.89 764.59,-208.47 779.25,-220.84 806.64,-243.97 811.97,-356.77 813,-402.02"/>
<polygon fill="#000000" fill-opacity="0.200000" stroke="#000000" stroke-width="2" stroke-opacity="0.200000" points="810.9,-401.84 813.11,-407.8 815.1,-401.76 810.9,-401.84"/>
</g>
<!-- src/js/connection/connection_chooser.js&#45;&gt;src/js/connection/client.js -->
<g id="edge18" class="edge">
<title>src/js/connection/connection_chooser.js&#45;&gt;src/js/connection/client.js</title>
<path fill="none" stroke="#000000" stroke-width="2" stroke-dasharray="5,2" stroke-opacity="0.200000" d="M406.91,-456.91C411.67,-458.19 416.45,-459.52 421,-460.84 427,-462.58 433.34,-464.53 439.48,-466.46"/>
<polygon fill="#000000" fill-opacity="0.200000" stroke="#000000" stroke-width="2" stroke-opacity="0.200000" points="438.43,-468.33 444.79,-468.15 439.71,-464.33 438.43,-468.33"/>
</g>
<!-- src/js/connection/fake.js -->
<g id="node18" class="node">
<title>src/js/connection/fake.js</title>
<g id="a_node18"><a xlink:href="src/js/connection/fake.js" xlink:title="fake.js">
<path fill="#ffffcc" stroke="black" d="M495.58,-518.47C495.58,-518.47 454.42,-518.47 454.42,-518.47 451.21,-518.47 448,-515.26 448,-512.05 448,-512.05 448,-505.63 448,-505.63 448,-502.42 451.21,-499.22 454.42,-499.22 454.42,-499.22 495.58,-499.22 495.58,-499.22 498.79,-499.22 502,-502.42 502,-505.63 502,-505.63 502,-512.05 502,-512.05 502,-515.26 498.79,-518.47 495.58,-518.47"/>
<text text-anchor="start" x="461.5" y="-505.92" font-family="Helvetica,sans-Serif" font-size="9.00">fake.js</text>
</a>
</g>
</g>
<!-- src/js/connection/connection_chooser.js&#45;&gt;src/js/connection/fake.js -->
<g id="edge19" class="edge">
<title>src/js/connection/connection_chooser.js&#45;&gt;src/js/connection/fake.js</title>
<path fill="none" stroke="#000000" stroke-width="2" stroke-dasharray="5,2" stroke-opacity="0.200000" d="M415.39,-456.71C417.38,-457.93 419.26,-459.3 421,-460.84 432.8,-471.29 422.76,-482.79 434,-493.84 435.78,-495.6 437.79,-497.15 439.94,-498.52"/>
<polygon fill="#000000" fill-opacity="0.200000" stroke="#000000" stroke-width="2" stroke-opacity="0.200000" points="438.64,-500.21 444.93,-501.13 440.59,-496.49 438.64,-500.21"/>
</g>
<!-- src/js/connection/server.js -->
<g id="node19" class="node">
<title>src/js/connection/server.js</title>
<g id="a_node19"><a xlink:href="src/js/connection/server.js" xlink:title="server.js">
<path fill="#ffffcc" stroke="black" d="M495.58,-425.47C495.58,-425.47 454.42,-425.47 454.42,-425.47 451.21,-425.47 448,-422.26 448,-419.05 448,-419.05 448,-412.63 448,-412.63 448,-409.42 451.21,-406.22 454.42,-406.22 454.42,-406.22 495.58,-406.22 495.58,-406.22 498.79,-406.22 502,-409.42 502,-412.63 502,-412.63 502,-419.05 502,-419.05 502,-422.26 498.79,-425.47 495.58,-425.47"/>
<text text-anchor="start" x="457.38" y="-412.92" font-family="Helvetica,sans-Serif" font-size="9.00">server.js</text>
</a>
</g>
</g>
<!-- src/js/connection/connection_chooser.js&#45;&gt;src/js/connection/server.js -->
<g id="edge20" class="edge">
<title>src/js/connection/connection_chooser.js&#45;&gt;src/js/connection/server.js</title>
<path fill="none" stroke="#000000" stroke-width="2" stroke-dasharray="5,2" stroke-opacity="0.200000" d="M401.82,-436.78C413.79,-433.31 427.19,-429.42 439.17,-425.94"/>
<polygon fill="#000000" fill-opacity="0.200000" stroke="#000000" stroke-width="2" stroke-opacity="0.200000" points="439.52,-428.03 444.69,-424.34 438.35,-424 439.52,-428.03"/>
</g>
<!-- src/js/connection/socket.js -->
<g id="node20" class="node">
<title>src/js/connection/socket.js</title>
<g id="a_node20"><a xlink:href="src/js/connection/socket.js" xlink:title="socket.js">
<path fill="#ffffcc" stroke="black" d="M495.58,-456.47C495.58,-456.47 454.42,-456.47 454.42,-456.47 451.21,-456.47 448,-453.26 448,-450.05 448,-450.05 448,-443.63 448,-443.63 448,-440.42 451.21,-437.22 454.42,-437.22 454.42,-437.22 495.58,-437.22 495.58,-437.22 498.79,-437.22 502,-440.42 502,-443.63 502,-443.63 502,-450.05 502,-450.05 502,-453.26 498.79,-456.47 495.58,-456.47"/>
<text text-anchor="start" x="456.62" y="-443.92" font-family="Helvetica,sans-Serif" font-size="9.00">socket.js</text>
</a>
</g>
</g>
<!-- src/js/connection/connection_chooser.js&#45;&gt;src/js/connection/socket.js -->
<g id="edge21" class="edge">
<title>src/js/connection/connection_chooser.js&#45;&gt;src/js/connection/socket.js</title>
<path fill="none" stroke="#000000" stroke-width="2" stroke-dasharray="5,2" stroke-opacity="0.200000" d="M421.19,-446.84C427.24,-446.84 433.27,-446.84 438.99,-446.84"/>
<polygon fill="#000000" fill-opacity="0.200000" stroke="#000000" stroke-width="2" stroke-opacity="0.200000" points="438.64,-448.94 444.64,-446.84 438.64,-444.74 438.64,-448.94"/>
</g>
<!-- src/js/connection/fake.js&#45;&gt;src/js/utils/timer.js -->
<g id="edge23" class="edge">
<title>src/js/connection/fake.js&#45;&gt;src/js/utils/timer.js</title>
<path fill="none" stroke="#000000" stroke-width="2" stroke-opacity="0.200000" d="M502.49,-509.41C544.89,-510.31 628.05,-512.08 675.5,-513.09"/>
<polygon fill="#000000" fill-opacity="0.200000" stroke="#000000" stroke-width="2" stroke-opacity="0.200000" points="675.42,-515.19 681.46,-513.21 675.5,-510.99 675.42,-515.19"/>
</g>
<!-- src/js/connection/fake.js&#45;&gt;src/js/utils/handlers.js -->
<g id="edge22" class="edge">
<title>src/js/connection/fake.js&#45;&gt;src/js/utils/handlers.js</title>
<path fill="none" stroke="#000000" stroke-width="2" stroke-opacity="0.200000" d="M502.36,-502.66C534.7,-495.06 591.18,-481.7 639.5,-469.84 649.97,-467.27 661.29,-464.44 671.77,-461.8"/>
<polygon fill="#000000" fill-opacity="0.200000" stroke="#000000" stroke-width="2" stroke-opacity="0.200000" points="672.09,-463.88 677.4,-460.38 671.07,-459.81 672.09,-463.88"/>
</g>
<!-- src/js/connection/server.js&#45;&gt;src/js/utils/handlers.js -->
<g id="edge24" class="edge">
<title>src/js/connection/server.js&#45;&gt;src/js/utils/handlers.js</title>
<path fill="none" stroke="#000000" stroke-width="2" stroke-opacity="0.200000" d="M502.37,-425.76C509.33,-428.06 516.88,-430.29 524,-431.84 531.1,-433.39 618.86,-442.47 671.55,-447.85"/>
<polygon fill="#000000" fill-opacity="0.200000" stroke="#000000" stroke-width="2" stroke-opacity="0.200000" points="671.12,-449.92 677.31,-448.44 671.55,-445.74 671.12,-449.92"/>
</g>
<!-- src/js/connection/server.js&#45;&gt;src/js/connection/common.js -->
<g id="edge25" class="edge">
<title>src/js/connection/server.js&#45;&gt;src/js/connection/common.js</title>
<path fill="none" stroke="#000000" stroke-width="2" stroke-opacity="0.200000" d="M502.33,-415.84C515.24,-415.84 531.05,-415.84 545.36,-415.84"/>
<polygon fill="#000000" fill-opacity="0.200000" stroke="#000000" stroke-width="2" stroke-opacity="0.200000" points="545.01,-417.94 551.01,-415.84 545.01,-413.74 545.01,-417.94"/>
</g>
<!-- src/js/connection/socket.js&#45;&gt;src/js/utils/handlers.js -->
<g id="edge26" class="edge">
<title>src/js/connection/socket.js&#45;&gt;src/js/utils/handlers.js</title>
<path fill="none" stroke="#000000" stroke-width="2" stroke-opacity="0.200000" d="M502.49,-447.41C543.74,-448.28 623.57,-449.98 671.55,-451"/>
<polygon fill="#000000" fill-opacity="0.200000" stroke="#000000" stroke-width="2" stroke-opacity="0.200000" points="671.35,-453.1 677.39,-451.13 671.44,-448.9 671.35,-453.1"/>
</g>
<!-- src/js/connection/socket.js&#45;&gt;src/js/connection/common.js -->
<g id="edge27" class="edge">
<title>src/js/connection/socket.js&#45;&gt;src/js/connection/common.js</title>
<path fill="none" stroke="#000000" stroke-width="2" stroke-opacity="0.200000" d="M502.33,-439.34C515.24,-435.66 531.05,-431.15 545.36,-427.07"/>
<polygon fill="#000000" fill-opacity="0.200000" stroke="#000000" stroke-width="2" stroke-opacity="0.200000" points="545.94,-429.09 551.13,-425.42 544.78,-425.05 545.94,-429.09"/>
</g>
<!-- src/js/game.js&#45;&gt;src/js/utils/assert.js -->
<g id="edge30" class="edge">
<title>src/js/game.js&#45;&gt;src/js/utils/assert.js</title>
<path fill="none" stroke="#000000" stroke-width="2" stroke-opacity="0.200000" d="M185.93,-202.96C190.72,-186.07 202.43,-151.29 222.75,-128.84 250.71,-97.96 263.09,-91.91 303.25,-80.84 353.7,-66.94 379.6,-48.83 421,-80.84 439.16,-94.89 416.17,-116.38 434,-130.84 493.65,-179.22 722.89,-94.67 779.25,-146.84 798.04,-164.23 809.14,-343.37 812.31,-402.22"/>
<polygon fill="#000000" fill-opacity="0.200000" stroke="#000000" stroke-width="2" stroke-opacity="0.200000" points="810.19,-401.98 812.6,-407.86 814.39,-401.76 810.19,-401.98"/>
</g>
<!-- src/js/uno&#45;game.js -->
<g id="node22" class="node">
<title>src/js/uno&#45;game.js</title>
<g id="a_node22"><a xlink:href="src/js/uno-game.js" xlink:title="uno&#45;game.js">
<path fill="#ffffcc" stroke="black" d="M286.83,-222.47C286.83,-222.47 231.17,-222.47 231.17,-222.47 227.96,-222.47 224.75,-219.26 224.75,-216.05 224.75,-216.05 224.75,-209.63 224.75,-209.63 224.75,-206.42 227.96,-203.22 231.17,-203.22 231.17,-203.22 286.83,-203.22 286.83,-203.22 290.04,-203.22 293.25,-206.42 293.25,-209.63 293.25,-209.63 293.25,-216.05 293.25,-216.05 293.25,-219.26 290.04,-222.47 286.83,-222.47"/>
<text text-anchor="start" x="232.75" y="-209.92" font-family="Helvetica,sans-Serif" font-size="9.00">uno&#45;game.js</text>
</a>
</g>
</g>
<!-- src/js/game.js&#45;&gt;src/js/uno&#45;game.js -->
<g id="edge28" class="edge">
<title>src/js/game.js&#45;&gt;src/js/uno&#45;game.js</title>
<path fill="none" stroke="#000000" stroke-width="2" stroke-opacity="0.200000" d="M209.48,-212.84C211.42,-212.84 213.41,-212.84 215.43,-212.84"/>
<polygon fill="#000000" fill-opacity="0.200000" stroke="#000000" stroke-width="2" stroke-opacity="0.200000" points="215.28,-214.94 221.28,-212.84 215.28,-210.74 215.28,-214.94"/>
</g>
<!-- src/js/uno/default&#45;engine.js -->
<g id="node23" class="node">
<title>src/js/uno/default&#45;engine.js</title>
<g id="a_node23"><a xlink:href="src/js/uno/default-engine.js" xlink:title="default&#45;engine.js">
<path fill="#ffffcc" stroke="black" d="M621.83,-251.47C621.83,-251.47 549.67,-251.47 549.67,-251.47 546.46,-251.47 543.25,-248.26 543.25,-245.05 543.25,-245.05 543.25,-238.63 543.25,-238.63 543.25,-235.42 546.46,-232.22 549.67,-232.22 549.67,-232.22 621.83,-232.22 621.83,-232.22 625.04,-232.22 628.25,-235.42 628.25,-238.63 628.25,-238.63 628.25,-245.05 628.25,-245.05 628.25,-248.26 625.04,-251.47 621.83,-251.47"/>
<text text-anchor="start" x="551.25" y="-238.92" font-family="Helvetica,sans-Serif" font-size="9.00">default&#45;engine.js</text>
</a>
</g>
</g>
<!-- src/js/game.js&#45;&gt;src/js/uno/default&#45;engine.js -->
<g id="edge29" class="edge">
<title>src/js/game.js&#45;&gt;src/js/uno/default&#45;engine.js</title>
<path fill="none" stroke="#000000" stroke-width="2" stroke-opacity="0.200000" d="M187.19,-222.65C199.09,-251.67 238.6,-336.99 303.25,-368.84 350.19,-391.97 380.58,-402.08 421,-368.84 444.09,-349.85 416.1,-326.79 434,-302.84 457.69,-271.16 500.61,-255.88 534.61,-248.55"/>
<polygon fill="#000000" fill-opacity="0.200000" stroke="#000000" stroke-width="2" stroke-opacity="0.200000" points="534.61,-250.69 540.08,-247.44 533.78,-246.57 534.61,-250.69"/>
</g>
<!-- src/js/views/logger.js -->
<g id="node24" class="node">
<title>src/js/views/logger.js</title>
<g id="a_node24"><a xlink:href="src/js/views/logger.js" xlink:title="logger.js">
<path fill="#ffffcc" stroke="black" d="M386.71,-245.47C386.71,-245.47 345.54,-245.47 345.54,-245.47 342.33,-245.47 339.12,-242.26 339.12,-239.05 339.12,-239.05 339.12,-232.63 339.12,-232.63 339.12,-229.42 342.33,-226.22 345.54,-226.22 345.54,-226.22 386.71,-226.22 386.71,-226.22 389.92,-226.22 393.12,-229.42 393.12,-232.63 393.12,-232.63 393.12,-239.05 393.12,-239.05 393.12,-242.26 389.92,-245.47 386.71,-245.47"/>
<text text-anchor="start" x="348.12" y="-232.92" font-family="Helvetica,sans-Serif" font-size="9.00">logger.js</text>
</a>
</g>
</g>
<!-- src/js/game.js&#45;&gt;src/js/views/logger.js -->
<g id="edge31" class="edge">
<title>src/js/game.js&#45;&gt;src/js/views/logger.js</title>
<path fill="none" stroke="#000000" stroke-width="2" stroke-opacity="0.200000" d="M204.21,-222.83C210.08,-225.22 216.55,-227.47 222.75,-228.84 258.62,-236.77 300.76,-237.86 329.84,-237.37"/>
<polygon fill="#000000" fill-opacity="0.200000" stroke="#000000" stroke-width="2" stroke-opacity="0.200000" points="329.82,-239.47 335.77,-237.23 329.72,-235.27 329.82,-239.47"/>
</g>
<!-- src/js/views/names.js -->
<g id="node25" class="node">
<title>src/js/views/names.js</title>
<g id="a_node25"><a xlink:href="src/js/views/names.js" xlink:title="names.js">
<path fill="#ffffcc" stroke="black" d="M387.21,-183.47C387.21,-183.47 345.04,-183.47 345.04,-183.47 341.83,-183.47 338.62,-180.26 338.62,-177.05 338.62,-177.05 338.62,-170.63 338.62,-170.63 338.62,-167.42 341.83,-164.22 345.04,-164.22 345.04,-164.22 387.21,-164.22 387.21,-164.22 390.42,-164.22 393.62,-167.42 393.62,-170.63 393.62,-170.63 393.62,-177.05 393.62,-177.05 393.62,-180.26 390.42,-183.47 387.21,-183.47"/>
<text text-anchor="start" x="346.62" y="-170.92" font-family="Helvetica,sans-Serif" font-size="9.00">names.js</text>
</a>
</g>
</g>
<!-- src/js/game.js&#45;&gt;src/js/views/names.js -->
<g id="edge32" class="edge">
<title>src/js/game.js&#45;&gt;src/js/views/names.js</title>
<path fill="none" stroke="#000000" stroke-width="2" stroke-opacity="0.200000" d="M205.56,-202.81C211.09,-200.59 217.07,-198.43 222.75,-196.84 258.32,-186.88 300.18,-180.76 329.26,-177.36"/>
<polygon fill="#000000" fill-opacity="0.200000" stroke="#000000" stroke-width="2" stroke-opacity="0.200000" points="329.5,-179.45 335.23,-176.69 329.03,-175.28 329.5,-179.45"/>
</g>
<!-- src/js/views/places.js -->
<g id="node26" class="node">
<title>src/js/views/places.js</title>
<g id="a_node26"><a xlink:href="src/js/views/places.js" xlink:title="places.js">
<path fill="#ffffcc" stroke="black" d="M386.71,-121.47C386.71,-121.47 345.54,-121.47 345.54,-121.47 342.33,-121.47 339.12,-118.26 339.12,-115.05 339.12,-115.05 339.12,-108.63 339.12,-108.63 339.12,-105.42 342.33,-102.22 345.54,-102.22 345.54,-102.22 386.71,-102.22 386.71,-102.22 389.92,-102.22 393.12,-105.42 393.12,-108.63 393.12,-108.63 393.12,-115.05 393.12,-115.05 393.12,-118.26 389.92,-121.47 386.71,-121.47"/>
<text text-anchor="start" x="347.38" y="-108.92" font-family="Helvetica,sans-Serif" font-size="9.00">places.js</text>
</a>
</g>
</g>
<!-- src/js/game.js&#45;&gt;src/js/views/places.js -->
<g id="edge33" class="edge">
<title>src/js/game.js&#45;&gt;src/js/views/places.js</title>
<path fill="none" stroke="#000000" stroke-width="2" stroke-opacity="0.200000" d="M193.94,-202.76C213.69,-184.52 258.3,-146.15 303.25,-126.84 311.71,-123.21 321.2,-120.35 330.17,-118.15"/>
<polygon fill="#000000" fill-opacity="0.200000" stroke="#000000" stroke-width="2" stroke-opacity="0.200000" points="330.57,-120.22 335.96,-116.84 329.64,-116.12 330.57,-120.22"/>
</g>
<!-- src/js/uno&#45;game.js&#45;&gt;src/js/utils/timer.js -->
<g id="edge64" class="edge">
<title>src/js/uno&#45;game.js&#45;&gt;src/js/utils/timer.js</title>
<path fill="none" stroke="#000000" stroke-width="2" stroke-opacity="0.200000" d="M262.48,-222.62C269.22,-249.74 287.9,-328.3 295.25,-394.84 296.95,-410.25 292.13,-663.03 303.25,-673.84 316.65,-686.86 625.71,-686.45 639.5,-673.84 663.38,-652.01 631.55,-553.49 652.5,-528.84 658.39,-521.9 667.02,-517.95 675.85,-515.75"/>
<polygon fill="#000000" fill-opacity="0.200000" stroke="#000000" stroke-width="2" stroke-opacity="0.200000" points="676.16,-517.83 681.67,-514.65 675.39,-513.7 676.16,-517.83"/>
</g>
<!-- src/js/uno&#45;game.js&#45;&gt;src/js/bot/setup_bot.js -->
<g id="edge61" class="edge">
<title>src/js/uno&#45;game.js&#45;&gt;src/js/bot/setup_bot.js</title>
<path fill="none" stroke="#000000" stroke-width="2" stroke-opacity="0.200000" d="M262.4,-222.63C268.93,-249.77 287.13,-328.39 295.25,-394.84 299.41,-428.86 291.8,-516.54 303.25,-548.84 312.85,-575.94 334.06,-601.87 348.96,-617.81"/>
<polygon fill="#000000" fill-opacity="0.200000" stroke="#000000" stroke-width="2" stroke-opacity="0.200000" points="347.14,-618.94 352.81,-621.82 350.17,-616.04 347.14,-618.94"/>
</g>
<!-- src/js/uno&#45;game.js&#45;&gt;src/js/utils/assert.js -->
<g id="edge63" class="edge">
<title>src/js/uno&#45;game.js&#45;&gt;src/js/utils/assert.js</title>
<path fill="none" stroke="#000000" stroke-width="2" stroke-opacity="0.200000" d="M260.31,-202.73C261.61,-179.06 268.38,-119.9 303.25,-90.84 466.41,45.11 638.14,25.88 779.25,-132.84 814.75,-172.77 814.76,-344.42 813.72,-401.96"/>
<polygon fill="#000000" fill-opacity="0.200000" stroke="#000000" stroke-width="2" stroke-opacity="0.200000" points="811.63,-401.68 813.6,-407.72 815.83,-401.77 811.63,-401.68"/>
</g>
<!-- src/js/uno&#45;game.js&#45;&gt;src/js/views/logger.js -->
<g id="edge67" class="edge">
<title>src/js/uno&#45;game.js&#45;&gt;src/js/views/logger.js</title>
<path fill="none" stroke="#000000" stroke-width="2" stroke-opacity="0.200000" d="M293.55,-220.18C305.23,-222.74 318.37,-225.61 330.16,-228.19"/>
<polygon fill="#000000" fill-opacity="0.200000" stroke="#000000" stroke-width="2" stroke-opacity="0.200000" points="329.61,-230.22 335.92,-229.45 330.51,-226.12 329.61,-230.22"/>
</g>
<!-- src/js/uno/engine.js -->
<g id="node37" class="node">
<title>src/js/uno/engine.js</title>
<g id="a_node37"><a xlink:href="src/js/uno/engine.js" xlink:title="engine.js">
<path fill="#ffffcc" stroke="black" d="M495.71,-328.47C495.71,-328.47 454.29,-328.47 454.29,-328.47 451.08,-328.47 447.88,-325.26 447.88,-322.05 447.88,-322.05 447.88,-315.63 447.88,-315.63 447.88,-312.42 451.08,-309.22 454.29,-309.22 454.29,-309.22 495.71,-309.22 495.71,-309.22 498.92,-309.22 502.12,-312.42 502.12,-315.63 502.12,-315.63 502.12,-322.05 502.12,-322.05 502.12,-325.26 498.92,-328.47 495.71,-328.47"/>
<text text-anchor="start" x="455.88" y="-315.92" font-family="Helvetica,sans-Serif" font-size="9.00">engine.js</text>
</a>
</g>
</g>
<!-- src/js/uno&#45;game.js&#45;&gt;src/js/uno/engine.js -->
<g id="edge62" class="edge">
<title>src/js/uno&#45;game.js&#45;&gt;src/js/uno/engine.js</title>
<path fill="none" stroke="#000000" stroke-width="2" stroke-opacity="0.200000" d="M261.18,-222.59C265.17,-253.86 279.31,-350.64 303.25,-368.84 344.91,-400.52 372.36,-388.16 421,-368.84 437.75,-362.19 452.26,-347.46 461.85,-335.7"/>
<polygon fill="#000000" fill-opacity="0.200000" stroke="#000000" stroke-width="2" stroke-opacity="0.200000" points="463.28,-337.28 465.3,-331.26 459.96,-334.71 463.28,-337.28"/>
</g>
<!-- src/js/views/choose_color.js -->
<g id="node38" class="node">
<title>src/js/views/choose_color.js</title>
<g id="a_node38"><a xlink:href="src/js/views/choose_color.js" xlink:title="choose_color.js">
<path fill="#ffffcc" stroke="black" d="M400.71,-152.47C400.71,-152.47 331.54,-152.47 331.54,-152.47 328.33,-152.47 325.12,-149.26 325.12,-146.05 325.12,-146.05 325.12,-139.63 325.12,-139.63 325.12,-136.42 328.33,-133.22 331.54,-133.22 331.54,-133.22 400.71,-133.22 400.71,-133.22 403.92,-133.22 407.12,-136.42 407.12,-139.63 407.12,-139.63 407.12,-146.05 407.12,-146.05 407.12,-149.26 403.92,-152.47 400.71,-152.47"/>
<text text-anchor="start" x="333.12" y="-139.92" font-family="Helvetica,sans-Serif" font-size="9.00">choose_color.js</text>
</a>
</g>
</g>
<!-- src/js/uno&#45;game.js&#45;&gt;src/js/views/choose_color.js -->
<g id="edge65" class="edge">
<title>src/js/uno&#45;game.js&#45;&gt;src/js/views/choose_color.js</title>
<path fill="none" stroke="#000000" stroke-width="2" stroke-opacity="0.200000" d="M285.21,-202.8C289.02,-200.35 292.57,-197.39 295.25,-193.84 305.14,-180.77 291.77,-169.54 303.25,-157.84 306.97,-154.05 311.47,-151.15 316.33,-148.95"/>
<polygon fill="#000000" fill-opacity="0.200000" stroke="#000000" stroke-width="2" stroke-opacity="0.200000" points="317.02,-150.93 321.93,-146.9 315.58,-146.99 317.02,-150.93"/>
</g>
<!-- src/js/views/layout.js -->
<g id="node39" class="node">
<title>src/js/views/layout.js</title>
<g id="a_node39"><a xlink:href="src/js/views/layout.js" xlink:title="layout.js">
<path fill="#ffffcc" stroke="black" d="M386.71,-214.47C386.71,-214.47 345.54,-214.47 345.54,-214.47 342.33,-214.47 339.12,-211.26 339.12,-208.05 339.12,-208.05 339.12,-201.63 339.12,-201.63 339.12,-198.42 342.33,-195.22 345.54,-195.22 345.54,-195.22 386.71,-195.22 386.71,-195.22 389.92,-195.22 393.12,-198.42 393.12,-201.63 393.12,-201.63 393.12,-208.05 393.12,-208.05 393.12,-211.26 389.92,-214.47 386.71,-214.47"/>
<text text-anchor="start" x="349.25" y="-201.92" font-family="Helvetica,sans-Serif" font-size="9.00">layout.js</text>
</a>
</g>
</g>
<!-- src/js/uno&#45;game.js&#45;&gt;src/js/views/layout.js -->
<g id="edge66" class="edge">
<title>src/js/uno&#45;game.js&#45;&gt;src/js/views/layout.js</title>
<path fill="none" stroke="#000000" stroke-width="2" stroke-opacity="0.200000" d="M293.55,-210.29C305.23,-209.4 318.37,-208.4 330.16,-207.5"/>
<polygon fill="#000000" fill-opacity="0.200000" stroke="#000000" stroke-width="2" stroke-opacity="0.200000" points="330.03,-209.62 335.86,-207.07 329.71,-205.43 330.03,-209.62"/>
</g>
<!-- src/js/uno/default&#45;engine.js&#45;&gt;src/js/uno/basic.js -->
<g id="edge69" class="edge">
<title>src/js/uno/default&#45;engine.js&#45;&gt;src/js/uno/basic.js</title>
<path fill="none" stroke="#000000" stroke-width="2" stroke-opacity="0.200000" d="M628.43,-249.56C643.82,-252.42 661.11,-255.62 675.85,-258.35"/>
<polygon fill="#000000" fill-opacity="0.200000" stroke="#000000" stroke-width="2" stroke-opacity="0.200000" points="675.41,-260.41 681.69,-259.43 676.18,-256.28 675.41,-260.41"/>
</g>
<!-- src/js/lib/qrcode.js -->
<g id="node27" class="node">
<title>src/js/lib/qrcode.js</title>
<g id="a_node27"><a xlink:href="src/js/lib/qrcode.js" xlink:title="qrcode.js">
<path fill="#ffffcc" stroke="black" d="M495.71,-100.47C495.71,-100.47 454.29,-100.47 454.29,-100.47 451.08,-100.47 447.88,-97.26 447.88,-94.05 447.88,-94.05 447.88,-87.63 447.88,-87.63 447.88,-84.42 451.08,-81.22 454.29,-81.22 454.29,-81.22 495.71,-81.22 495.71,-81.22 498.92,-81.22 502.12,-84.42 502.12,-87.63 502.12,-87.63 502.12,-94.05 502.12,-94.05 502.12,-97.26 498.92,-100.47 495.71,-100.47"/>
<text text-anchor="start" x="455.88" y="-87.92" font-family="Helvetica,sans-Serif" font-size="9.00">qrcode.js</text>
</a>
</g>
</g>
<!-- src/js/mode/ai.js&#45;&gt;src/js/utils/random.js -->
<g id="edge35" class="edge">
<title>src/js/mode/ai.js&#45;&gt;src/js/utils/random.js</title>
<path fill="none" stroke="#000000" stroke-width="2" stroke-opacity="0.200000" d="M286.37,-484.97C289.85,-486.98 292.99,-489.55 295.25,-492.84 309.36,-513.37 285.33,-699.55 303.25,-716.84 322.08,-735.01 396.83,-726.85 421,-716.84 428.55,-713.71 426.57,-707.24 434,-703.84 475.64,-684.79 606.68,-720.77 639.5,-688.84 660.15,-668.75 633.72,-581.69 652.5,-559.84 657.96,-553.49 665.71,-549.64 673.79,-547.36"/>
<polygon fill="#000000" fill-opacity="0.200000" stroke="#000000" stroke-width="2" stroke-opacity="0.200000" points="674.21,-549.41 679.63,-546.09 673.32,-545.31 674.21,-549.41"/>
</g>
<!-- src/js/mode/ai.js&#45;&gt;src/js/views/logger.js -->
<g id="edge36" class="edge">
<title>src/js/mode/ai.js&#45;&gt;src/js/views/logger.js</title>
<path fill="none" stroke="#000000" stroke-width="2" stroke-opacity="0.200000" d="M286.37,-470.71C289.85,-468.7 292.99,-466.13 295.25,-462.84 308.62,-443.43 288.33,-269.09 303.25,-250.84 309.8,-242.83 319.83,-238.67 329.92,-236.62"/>
<polygon fill="#000000" fill-opacity="0.200000" stroke="#000000" stroke-width="2" stroke-opacity="0.200000" points="330.09,-238.72 335.72,-235.76 329.48,-234.56 330.09,-238.72"/>
</g>
<!-- src/js/utils/async&#45;queue.js -->
<g id="node29" class="node">
<title>src/js/utils/async&#45;queue.js</title>
<g id="a_node29"><a xlink:href="src/js/utils/async-queue.js" xlink:title="async&#45;queue.js">
<path fill="#ffffcc" stroke="black" d="M744.96,-585.47C744.96,-585.47 678.79,-585.47 678.79,-585.47 675.58,-585.47 672.38,-582.26 672.38,-579.05 672.38,-579.05 672.38,-572.63 672.38,-572.63 672.38,-569.42 675.58,-566.22 678.79,-566.22 678.79,-566.22 744.96,-566.22 744.96,-566.22 748.17,-566.22 751.38,-569.42 751.38,-572.63 751.38,-572.63 751.38,-579.05 751.38,-579.05 751.38,-582.26 748.17,-585.47 744.96,-585.47"/>
<text text-anchor="start" x="680.38" y="-572.92" font-family="Helvetica,sans-Serif" font-size="9.00">async&#45;queue.js</text>
</a>
</g>
</g>
<!-- src/js/mode/ai.js&#45;&gt;src/js/utils/async&#45;queue.js -->
<g id="edge34" class="edge">
<title>src/js/mode/ai.js&#45;&gt;src/js/utils/async&#45;queue.js</title>
<path fill="none" stroke="#000000" stroke-width="2" stroke-opacity="0.200000" d="M286.38,-484.97C289.86,-486.98 292.99,-489.55 295.25,-492.84 309.91,-514.2 284.62,-707.84 303.25,-725.84 338.59,-759.99 475.23,-718.87 524,-712.84 549.66,-709.67 621.23,-717.13 639.5,-698.84 673.67,-664.64 620.64,-627.2 652.5,-590.84 655.69,-587.2 659.63,-584.39 663.95,-582.22"/>
<polygon fill="#000000" fill-opacity="0.200000" stroke="#000000" stroke-width="2" stroke-opacity="0.200000" points="664.45,-584.28 669.24,-580.1 662.89,-580.38 664.45,-584.28"/>
</g>
<!-- src/js/mode/hotseat.js&#45;&gt;src/js/utils/random.js -->
<g id="edge37" class="edge">
<title>src/js/mode/hotseat.js&#45;&gt;src/js/utils/random.js</title>
<path fill="none" stroke="#000000" stroke-width="2" stroke-opacity="0.200000" d="M260.57,-549.89C262.89,-587 273.05,-715.47 303.25,-739.84 364.52,-789.28 614.48,-725.38 639.5,-697.84 660.21,-675.04 632.5,-583.27 652.5,-559.84 657.94,-553.47 665.68,-549.62 673.76,-547.33"/>
<polygon fill="#000000" fill-opacity="0.200000" stroke="#000000" stroke-width="2" stroke-opacity="0.200000" points="674.19,-549.39 679.6,-546.06 673.29,-545.28 674.19,-549.39"/>
</g>
<!-- src/js/mode/net.js&#45;&gt;src/js/actions/actions_uno_client.js -->
<g id="edge38" class="edge">
<title>src/js/mode/net.js&#45;&gt;src/js/actions/actions_uno_client.js</title>
<path fill="none" stroke="#000000" stroke-width="2" stroke-opacity="0.200000" d="M286.38,-453.97C289.86,-455.98 292.99,-458.55 295.25,-461.84 310.21,-483.66 287.65,-678.47 303.25,-699.84 329.72,-736.11 450.62,-766.56 525.1,-782.31"/>
<polygon fill="#000000" fill-opacity="0.200000" stroke="#000000" stroke-width="2" stroke-opacity="0.200000" points="524.23,-784.27 530.54,-783.44 525.09,-780.16 524.23,-784.27"/>
</g>
<!-- src/js/mode/net.js&#45;&gt;src/js/actions/actions_uno_server.js -->
<g id="edge39" class="edge">
<title>src/js/mode/net.js&#45;&gt;src/js/actions/actions_uno_server.js</title>
<path fill="none" stroke="#000000" stroke-width="2" stroke-opacity="0.200000" d="M286.38,-453.97C289.85,-455.98 292.99,-458.55 295.25,-461.84 309.54,-482.64 286.24,-670.2 303.25,-688.84 321.03,-708.33 397.32,-692.22 421,-703.84 428.34,-707.44 427.09,-712.48 434,-716.84 466.7,-737.46 479.68,-732.61 516,-745.84 519.57,-747.14 520.36,-747.75 524,-748.84 525.85,-749.4 527.74,-749.95 529.66,-750.49"/>
<polygon fill="#000000" fill-opacity="0.200000" stroke="#000000" stroke-width="2" stroke-opacity="0.200000" points="528.89,-752.45 535.22,-751.98 529.97,-748.4 528.89,-752.45"/>
</g>
<!-- src/js/mode/net.js&#45;&gt;src/js/connection/common.js -->
<g id="edge40" class="edge">
<title>src/js/mode/net.js&#45;&gt;src/js/connection/common.js</title>
<path fill="none" stroke="#000000" stroke-width="2" stroke-opacity="0.200000" d="M286.47,-438.31C289.68,-436.52 292.72,-434.39 295.25,-431.84 301.72,-425.35 295.95,-418.38 303.25,-412.84 345.26,-380.94 371.74,-416.73 421,-397.84 427.56,-395.33 427.29,-390.94 434,-388.84 468.79,-377.97 480.19,-382.06 516,-388.84 529.92,-391.48 544.63,-396.87 556.86,-402.14"/>
<polygon fill="#000000" fill-opacity="0.200000" stroke="#000000" stroke-width="2" stroke-opacity="0.200000" points="555.79,-403.97 562.13,-404.51 557.51,-400.13 555.79,-403.97"/>
</g>
<!-- src/js/mode/net.js&#45;&gt;src/js/connection/connection_chooser.js -->
<g id="edge41" class="edge">
<title>src/js/mode/net.js&#45;&gt;src/js/connection/connection_chooser.js</title>
<path fill="none" stroke="#000000" stroke-width="2" stroke-opacity="0.200000" d="M286.26,-446.84C291.21,-446.84 296.57,-446.84 302.1,-446.84"/>
<polygon fill="#000000" fill-opacity="0.200000" stroke="#000000" stroke-width="2" stroke-opacity="0.200000" points="301.86,-448.94 307.86,-446.84 301.86,-444.74 301.86,-448.94"/>
</g>
<!-- src/js/mode/net.js&#45;&gt;src/js/views/logger.js -->
<g id="edge43" class="edge">
<title>src/js/mode/net.js&#45;&gt;src/js/views/logger.js</title>
<path fill="none" stroke="#000000" stroke-width="2" stroke-opacity="0.200000" d="M286.35,-439.69C289.83,-437.69 292.98,-435.12 295.25,-431.84 306.72,-415.3 290.46,-266.39 303.25,-250.84 309.82,-242.85 319.86,-238.7 329.95,-236.65"/>
<polygon fill="#000000" fill-opacity="0.200000" stroke="#000000" stroke-width="2" stroke-opacity="0.200000" points="330.12,-238.75 335.75,-235.79 329.5,-234.59 330.12,-238.75"/>
</g>
<!-- src/js/mode/net.js&#45;&gt;src/js/views/names.js -->
<g id="edge44" class="edge">
<title>src/js/mode/net.js&#45;&gt;src/js/views/names.js</title>
<path fill="none" stroke="#000000" stroke-width="2" stroke-opacity="0.200000" d="M286.38,-439.72C289.86,-437.71 292.99,-435.13 295.25,-431.84 310.52,-409.56 286.2,-209.8 303.25,-188.84 309.72,-180.88 319.64,-176.72 329.64,-174.65"/>
<polygon fill="#000000" fill-opacity="0.200000" stroke="#000000" stroke-width="2" stroke-opacity="0.200000" points="329.77,-176.76 335.39,-173.79 329.14,-172.61 329.77,-176.76"/>
</g>
<!-- src/js/mode/net.js&#45;&gt;src/js/utils/async&#45;queue.js -->
<g id="edge42" class="edge">
<title>src/js/mode/net.js&#45;&gt;src/js/utils/async&#45;queue.js</title>
<path fill="none" stroke="#000000" stroke-width="2" stroke-opacity="0.200000" d="M286.28,-454.04C289.77,-456.04 292.94,-458.59 295.25,-461.84 310.24,-482.89 284.36,-560.21 303.25,-577.84 354.11,-625.31 567.28,-598.69 663.45,-583.78"/>
<polygon fill="#000000" fill-opacity="0.200000" stroke="#000000" stroke-width="2" stroke-opacity="0.200000" points="663.52,-585.89 669.12,-582.89 662.87,-581.74 663.52,-585.89"/>
</g>
<!-- src/js/mode/server.js&#45;&gt;src/js/actions/actions_uno_client.js -->
<g id="edge45" class="edge">
<title>src/js/mode/server.js&#45;&gt;src/js/actions/actions_uno_client.js</title>
<path fill="none" stroke="#000000" stroke-width="2" stroke-opacity="0.200000" d="M286.38,-515.97C289.86,-517.98 292.99,-520.55 295.25,-523.84 310.64,-546.31 284.54,-749.05 303.25,-768.84 363.46,-832.51 476.67,-819.51 539.62,-805.83"/>
<polygon fill="#000000" fill-opacity="0.200000" stroke="#000000" stroke-width="2" stroke-opacity="0.200000" points="539.82,-807.94 545.21,-804.57 538.89,-803.84 539.82,-807.94"/>
</g>
<!-- src/js/mode/server.js&#45;&gt;src/js/actions/actions_uno_server.js -->
<g id="edge46" class="edge">
<title>src/js/mode/server.js&#45;&gt;src/js/actions/actions_uno_server.js</title>
<path fill="none" stroke="#000000" stroke-width="2" stroke-opacity="0.200000" d="M286.38,-515.97C289.86,-517.98 292.99,-520.55 295.25,-523.84 309.72,-544.92 285.14,-735.79 303.25,-753.84 332.99,-783.49 449.55,-777.41 523.04,-770.19"/>
<polygon fill="#000000" fill-opacity="0.200000" stroke="#000000" stroke-width="2" stroke-opacity="0.200000" points="523,-772.3 528.76,-769.61 522.58,-768.13 523,-772.3"/>
</g>
<!-- src/js/mode/server.js&#45;&gt;src/js/connection/common.js -->
<g id="edge47" class="edge">
<title>src/js/mode/server.js&#45;&gt;src/js/connection/common.js</title>
<path fill="none" stroke="#000000" stroke-width="2" stroke-opacity="0.200000" d="M286.47,-501.32C289.84,-499.37 292.92,-496.92 295.25,-493.84 312.27,-471.33 283.88,-451.37 303.25,-430.84 339.78,-392.11 371.86,-429.33 421,-408.84 427.49,-406.14 427.29,-401.94 434,-399.84 468.79,-388.97 479.79,-395.68 516,-399.84 525.69,-400.95 536.01,-402.92 545.62,-405.11"/>
<polygon fill="#000000" fill-opacity="0.200000" stroke="#000000" stroke-width="2" stroke-opacity="0.200000" points="544.94,-407.1 551.27,-406.45 545.92,-403.02 544.94,-407.1"/>
</g>
<!-- src/js/mode/server.js&#45;&gt;src/js/connection/connection_chooser.js -->
<g id="edge48" class="edge">
<title>src/js/mode/server.js&#45;&gt;src/js/connection/connection_chooser.js</title>
<path fill="none" stroke="#000000" stroke-width="2" stroke-opacity="0.200000" d="M285.31,-498.76C288.7,-497.21 292.09,-495.55 295.25,-493.84 312.71,-484.37 331.31,-471.71 344.93,-461.92"/>
<polygon fill="#000000" fill-opacity="0.200000" stroke="#000000" stroke-width="2" stroke-opacity="0.200000" points="345.88,-463.83 349.5,-458.6 343.41,-460.43 345.88,-463.83"/>
</g>
<!-- src/js/mode/server.js&#45;&gt;src/js/views/logger.js -->
<g id="edge50" class="edge">
<title>src/js/mode/server.js&#45;&gt;src/js/views/logger.js</title>
<path fill="none" stroke="#000000" stroke-width="2" stroke-opacity="0.200000" d="M286.38,-501.72C289.86,-499.71 292.99,-497.13 295.25,-493.84 310.52,-471.56 286.2,-271.8 303.25,-250.84 309.78,-242.82 319.8,-238.65 329.89,-236.6"/>
<polygon fill="#000000" fill-opacity="0.200000" stroke="#000000" stroke-width="2" stroke-opacity="0.200000" points="330.07,-238.7 335.7,-235.74 329.46,-234.55 330.07,-238.7"/>
</g>
<!-- src/js/mode/server.js&#45;&gt;src/js/utils/async&#45;queue.js -->
<g id="edge49" class="edge">
<title>src/js/mode/server.js&#45;&gt;src/js/utils/async&#45;queue.js</title>
<path fill="none" stroke="#000000" stroke-width="2" stroke-opacity="0.200000" d="M286.37,-515.97C289.85,-517.98 292.99,-520.55 295.25,-523.84 308.87,-543.63 285.96,-723.18 303.25,-739.84 327.55,-763.25 618.13,-733.65 639.5,-711.84 658.43,-692.52 634.81,-611.29 652.5,-590.84 655.67,-587.18 659.59,-584.35 663.9,-582.18"/>
<polygon fill="#000000" fill-opacity="0.200000" stroke="#000000" stroke-width="2" stroke-opacity="0.200000" points="664.4,-584.24 669.19,-580.05 662.84,-580.34 664.4,-584.24"/>
</g>
<!-- src/js/views/qr_helper.js -->
<g id="node33" class="node">
<title>src/js/views/qr_helper.js</title>
<g id="a_node33"><a xlink:href="src/js/views/qr_helper.js" xlink:title="qr_helper.js">
<path fill="#ffffcc" stroke="black" d="M392.46,-276.47C392.46,-276.47 339.79,-276.47 339.79,-276.47 336.58,-276.47 333.38,-273.26 333.38,-270.05 333.38,-270.05 333.38,-263.63 333.38,-263.63 333.38,-260.42 336.58,-257.22 339.79,-257.22 339.79,-257.22 392.46,-257.22 392.46,-257.22 395.67,-257.22 398.88,-260.42 398.88,-263.63 398.88,-263.63 398.88,-270.05 398.88,-270.05 398.88,-273.26 395.67,-276.47 392.46,-276.47"/>
<text text-anchor="start" x="341.38" y="-263.92" font-family="Helvetica,sans-Serif" font-size="9.00">qr_helper.js</text>
</a>
</g>
</g>
<!-- src/js/mode/server.js&#45;&gt;src/js/views/qr_helper.js -->
<g id="edge51" class="edge">
<title>src/js/mode/server.js&#45;&gt;src/js/views/qr_helper.js</title>
<path fill="none" stroke="#000000" stroke-width="2" stroke-opacity="0.200000" d="M286.37,-501.71C289.85,-499.7 292.99,-497.13 295.25,-493.84 308.62,-474.43 288.33,-300.09 303.25,-281.84 308.6,-275.3 316.27,-271.33 324.4,-268.97"/>
<polygon fill="#000000" fill-opacity="0.200000" stroke="#000000" stroke-width="2" stroke-opacity="0.200000" points="324.61,-271.08 330.01,-267.72 323.69,-266.98 324.61,-271.08"/>
</g>
<!-- src/js/views/qr_helper.js&#45;&gt;src/js/lib/qrcode.js -->
<g id="edge79" class="edge">
<title>src/js/views/qr_helper.js&#45;&gt;src/js/lib/qrcode.js</title>
<path fill="none" stroke="#000000" stroke-width="2" stroke-opacity="0.200000" d="M399.18,-263.38C407.13,-261.15 415.06,-257.57 421,-251.84 434.76,-238.57 428.09,-229.02 434,-210.84 445.75,-174.71 459.89,-132.6 467.82,-109.1"/>
<polygon fill="#000000" fill-opacity="0.200000" stroke="#000000" stroke-width="2" stroke-opacity="0.200000" points="469.73,-110.01 469.66,-103.65 465.75,-108.66 469.73,-110.01"/>
</g>
<!-- src/js/uno/engine.js&#45;&gt;src/js/uno/basic.js -->
<g id="edge71" class="edge">
<title>src/js/uno/engine.js&#45;&gt;src/js/uno/basic.js</title>
<path fill="none" stroke="#000000" stroke-width="2" stroke-opacity="0.200000" d="M502.36,-313.79C507.46,-311.75 512.35,-308.88 516,-304.84 526.13,-293.66 512.31,-281.39 524,-271.84 546.38,-253.55 628,-257.32 675.65,-261.3"/>
<polygon fill="#000000" fill-opacity="0.200000" stroke="#000000" stroke-width="2" stroke-opacity="0.200000" points="675.24,-263.38 681.4,-261.81 675.61,-259.19 675.24,-263.38"/>
</g>
<!-- src/js/uno/engine.js&#45;&gt;src/js/utils/handlers.js -->
<g id="edge70" class="edge">
<title>src/js/uno/engine.js&#45;&gt;src/js/utils/handlers.js</title>
<path fill="none" stroke="#000000" stroke-width="2" stroke-opacity="0.200000" d="M502.57,-328.01C509.52,-330.32 517.02,-332.74 524,-334.84 574.9,-350.14 603.47,-326.77 639.5,-365.84 661.25,-389.43 630.63,-413.37 652.5,-436.84 657.63,-442.34 664.48,-445.94 671.68,-448.26"/>
<polygon fill="#000000" fill-opacity="0.200000" stroke="#000000" stroke-width="2" stroke-opacity="0.200000" points="670.94,-450.24 677.28,-449.7 671.99,-446.17 670.94,-450.24"/>
</g>
<!-- src/js/uno/deck.js -->
<g id="node40" class="node">
<title>src/js/uno/deck.js</title>
<g id="a_node40"><a xlink:href="src/js/uno/deck.js" xlink:title="deck.js">
<path fill="#ffffcc" stroke="black" d="M606.33,-328.47C606.33,-328.47 565.17,-328.47 565.17,-328.47 561.96,-328.47 558.75,-325.26 558.75,-322.05 558.75,-322.05 558.75,-315.63 558.75,-315.63 558.75,-312.42 561.96,-309.22 565.17,-309.22 565.17,-309.22 606.33,-309.22 606.33,-309.22 609.54,-309.22 612.75,-312.42 612.75,-315.63 612.75,-315.63 612.75,-322.05 612.75,-322.05 612.75,-325.26 609.54,-328.47 606.33,-328.47"/>
<text text-anchor="start" x="571.12" y="-315.92" font-family="Helvetica,sans-Serif" font-size="9.00">deck.js</text>
</a>
</g>
</g>
<!-- src/js/uno/engine.js&#45;&gt;src/js/uno/deck.js -->
<g id="edge72" class="edge">
<title>src/js/uno/engine.js&#45;&gt;src/js/uno/deck.js</title>
<path fill="none" stroke="#000000" stroke-width="2" stroke-opacity="0.200000" d="M502.6,-318.84C516.8,-318.84 534.44,-318.84 549.73,-318.84"/>
<polygon fill="#000000" fill-opacity="0.200000" stroke="#000000" stroke-width="2" stroke-opacity="0.200000" points="549.39,-320.94 555.39,-318.84 549.39,-316.74 549.39,-320.94"/>
</g>
<!-- src/js/uno/player.js -->
<g id="node42" class="node">
<title>src/js/uno/player.js</title>
<g id="a_node42"><a xlink:href="src/js/uno/player.js" xlink:title="player.js">
<path fill="#ffffcc" stroke="black" d="M606.33,-297.47C606.33,-297.47 565.17,-297.47 565.17,-297.47 561.96,-297.47 558.75,-294.26 558.75,-291.05 558.75,-291.05 558.75,-284.63 558.75,-284.63 558.75,-281.42 561.96,-278.22 565.17,-278.22 565.17,-278.22 606.33,-278.22 606.33,-278.22 609.54,-278.22 612.75,-281.42 612.75,-284.63 612.75,-284.63 612.75,-291.05 612.75,-291.05 612.75,-294.26 609.54,-297.47 606.33,-297.47"/>
<text text-anchor="start" x="568.5" y="-284.92" font-family="Helvetica,sans-Serif" font-size="9.00">player.js</text>
</a>
</g>
</g>
<!-- src/js/uno/engine.js&#45;&gt;src/js/uno/player.js -->
<g id="edge73" class="edge">
<title>src/js/uno/engine.js&#45;&gt;src/js/uno/player.js</title>
<path fill="none" stroke="#000000" stroke-width="2" stroke-opacity="0.200000" d="M502.54,-309.57C509.49,-307.26 517,-304.87 524,-302.84 532.29,-300.44 541.28,-298.09 549.74,-295.98"/>
<polygon fill="#000000" fill-opacity="0.200000" stroke="#000000" stroke-width="2" stroke-opacity="0.200000" points="550.04,-298.07 555.37,-294.6 549.05,-293.99 550.04,-298.07"/>
</g>
<!-- src/js/views/choose_color.js&#45;&gt;src/js/uno/basic.js -->
<g id="edge76" class="edge">
<title>src/js/views/choose_color.js&#45;&gt;src/js/uno/basic.js</title>
<path fill="none" stroke="#000000" stroke-width="2" stroke-opacity="0.200000" d="M407.49,-151.59C412.2,-153.33 416.81,-155.39 421,-157.84 428.06,-161.96 426.57,-167.44 434,-170.84 475.64,-189.89 605.17,-155.54 639.5,-185.84 661.59,-205.34 632.07,-229.62 652.5,-250.84 658.68,-257.26 667.24,-260.95 675.91,-263.03"/>
<polygon fill="#000000" fill-opacity="0.200000" stroke="#000000" stroke-width="2" stroke-opacity="0.200000" points="675.27,-265.04 681.55,-264.05 676.02,-260.91 675.27,-265.04"/>
</g>
<!-- src/js/views/layout.js&#45;&gt;src/js/uno/basic.js -->
<g id="edge77" class="edge">
<title>src/js/views/layout.js&#45;&gt;src/js/uno/basic.js</title>
<path fill="none" stroke="#000000" stroke-width="2" stroke-opacity="0.200000" d="M393.38,-198.62C445.74,-187.84 564.55,-171.66 639.5,-225.84 649.65,-233.18 642.63,-243.13 652.5,-250.84 659.13,-256.03 667.39,-259.33 675.59,-261.43"/>
<polygon fill="#000000" fill-opacity="0.200000" stroke="#000000" stroke-width="2" stroke-opacity="0.200000" points="675.12,-263.48 681.42,-262.64 675.98,-259.36 675.12,-263.48"/>
</g>
<!-- src/js/views/layout.js&#45;&gt;src/js/utils/timer.js -->
<g id="edge78" class="edge">
<title>src/js/views/layout.js&#45;&gt;src/js/utils/timer.js</title>
<path fill="none" stroke="#000000" stroke-width="2" stroke-opacity="0.200000" d="M393.58,-206.02C403.64,-207.87 414.27,-211.8 421,-219.84 440.9,-243.64 412.96,-336.04 434,-358.84 465.44,-392.91 607.53,-361.26 639.5,-394.84 671.62,-428.58 621.72,-463.88 652.5,-498.84 658.46,-505.62 667.03,-509.53 675.78,-511.74"/>
<polygon fill="#000000" fill-opacity="0.200000" stroke="#000000" stroke-width="2" stroke-opacity="0.200000" points="675.23,-513.77 681.52,-512.85 676.03,-509.65 675.23,-513.77"/>
</g>
<!-- src/js/utils/shuffle.js -->
<g id="node41" class="node">
<title>src/js/utils/shuffle.js</title>
<g id="a_node41"><a xlink:href="src/js/utils/shuffle.js" xlink:title="shuffle.js">
<path fill="#ffffcc" stroke="black" d="M732.46,-430.47C732.46,-430.47 691.29,-430.47 691.29,-430.47 688.08,-430.47 684.88,-427.26 684.88,-424.05 684.88,-424.05 684.88,-417.63 684.88,-417.63 684.88,-414.42 688.08,-411.22 691.29,-411.22 691.29,-411.22 732.46,-411.22 732.46,-411.22 735.67,-411.22 738.88,-414.42 738.88,-417.63 738.88,-417.63 738.88,-424.05 738.88,-424.05 738.88,-427.26 735.67,-430.47 732.46,-430.47"/>
<text text-anchor="start" x="693.12" y="-417.92" font-family="Helvetica,sans-Serif" font-size="9.00">shuffle.js</text>
</a>
</g>
</g>
<!-- src/js/uno/deck.js&#45;&gt;src/js/utils/shuffle.js -->
<g id="edge68" class="edge">
<title>src/js/uno/deck.js&#45;&gt;src/js/utils/shuffle.js</title>
<path fill="none" stroke="#000000" stroke-width="2" stroke-opacity="0.200000" d="M613.22,-324.58C622.23,-327.47 631.94,-331.71 639.5,-337.84 648.03,-344.75 645.82,-350.13 652.5,-358.84 665.26,-375.46 681.79,-392.69 694,-404.75"/>
<polygon fill="#000000" fill-opacity="0.200000" stroke="#000000" stroke-width="2" stroke-opacity="0.200000" points="692.36,-406.08 698.12,-408.77 695.29,-403.08 692.36,-406.08"/>
</g>
<!-- src/js/uno/player.js&#45;&gt;src/js/uno/basic.js -->
<g id="edge74" class="edge">
<title>src/js/uno/player.js&#45;&gt;src/js/uno/basic.js</title>
<path fill="none" stroke="#000000" stroke-width="2" stroke-opacity="0.200000" d="M613.07,-282.96C631.34,-279.58 655.87,-275.03 675.8,-271.34"/>
<polygon fill="#000000" fill-opacity="0.200000" stroke="#000000" stroke-width="2" stroke-opacity="0.200000" points="676.1,-273.42 681.61,-270.26 675.33,-269.29 676.1,-273.42"/>
</g>
<!-- src/js/utils/ellipse.js -->
<g id="node43" class="node">
<title>src/js/utils/ellipse.js</title>
<g id="a_node43"><a xlink:href="src/js/utils/ellipse.js" xlink:title="ellipse.js">
<path fill="#ccffcc" stroke="black" d="M732.46,-616.47C732.46,-616.47 691.29,-616.47 691.29,-616.47 688.08,-616.47 684.88,-613.26 684.88,-610.05 684.88,-610.05 684.88,-603.63 684.88,-603.63 684.88,-600.42 688.08,-597.22 691.29,-597.22 691.29,-597.22 732.46,-597.22 732.46,-597.22 735.67,-597.22 738.88,-600.42 738.88,-603.63 738.88,-603.63 738.88,-610.05 738.88,-610.05 738.88,-613.26 735.67,-616.47 732.46,-616.47"/>
<text text-anchor="start" x="693.12" y="-603.92" font-family="Helvetica,sans-Serif" font-size="9.00">ellipse.js</text>
</a>
</g>
</g>
<!-- src/js/utils/enum.js -->
<g id="node44" class="node">
<title>src/js/utils/enum.js</title>
<g id="a_node44"><a xlink:href="src/js/utils/enum.js" xlink:title="enum.js">
<path fill="#ccffcc" stroke="black" d="M732.46,-647.47C732.46,-647.47 691.29,-647.47 691.29,-647.47 688.08,-647.47 684.88,-644.26 684.88,-641.05 684.88,-641.05 684.88,-634.63 684.88,-634.63 684.88,-631.42 688.08,-628.22 691.29,-628.22 691.29,-628.22 732.46,-628.22 732.46,-628.22 735.67,-628.22 738.88,-631.42 738.88,-634.63 738.88,-634.63 738.88,-641.05 738.88,-641.05 738.88,-644.26 735.67,-647.47 732.46,-647.47"/>
<text text-anchor="start" x="695" y="-634.92" font-family="Helvetica,sans-Serif" font-size="9.00">enum.js</text>
</a>
</g>
</g>
<!-- src/js/utils/queue.js -->
<g id="node45" class="node">
<title>src/js/utils/queue.js</title>
<g id="a_node45"><a xlink:href="src/js/utils/queue.js" xlink:title="queue.js">
<path fill="#ccffcc" stroke="black" d="M732.46,-678.47C732.46,-678.47 691.29,-678.47 691.29,-678.47 688.08,-678.47 684.88,-675.26 684.88,-672.05 684.88,-672.05 684.88,-665.63 684.88,-665.63 684.88,-662.42 688.08,-659.22 691.29,-659.22 691.29,-659.22 732.46,-659.22 732.46,-659.22 735.67,-659.22 738.88,-662.42 738.88,-665.63 738.88,-665.63 738.88,-672.05 738.88,-672.05 738.88,-675.26 735.67,-678.47 732.46,-678.47"/>
<text text-anchor="start" x="693.88" y="-665.92" font-family="Helvetica,sans-Serif" font-size="9.00">queue.js</text>
</a>
</g>
</g>
<!-- src/js/utils/unused.js -->
<g id="node46" class="node">
<title>src/js/utils/unused.js</title>
<g id="a_node46"><a xlink:href="src/js/utils/unused.js" xlink:title="unused.js">
<path fill="#ccffcc" stroke="black" d="M734.08,-709.47C734.08,-709.47 689.67,-709.47 689.67,-709.47 686.46,-709.47 683.25,-706.26 683.25,-703.05 683.25,-703.05 683.25,-696.63 683.25,-696.63 683.25,-693.42 686.46,-690.22 689.67,-690.22 689.67,-690.22 734.08,-690.22 734.08,-690.22 737.29,-690.22 740.5,-693.42 740.5,-696.63 740.5,-696.63 740.5,-703.05 740.5,-703.05 740.5,-706.26 737.29,-709.47 734.08,-709.47"/>
<text text-anchor="start" x="691.25" y="-696.92" font-family="Helvetica,sans-Serif" font-size="9.00">unused.js</text>
</a>
</g>
</g>
<!-- src/js/views/media.js -->
<g id="node47" class="node">
<title>src/js/views/media.js</title>
<g id="a_node47"><a xlink:href="src/js/views/media.js" xlink:title="media.js">
<path fill="#ccffcc" stroke="black" d="M386.71,-338.47C386.71,-338.47 345.54,-338.47 345.54,-338.47 342.33,-338.47 339.12,-335.26 339.12,-332.05 339.12,-332.05 339.12,-325.63 339.12,-325.63 339.12,-322.42 342.33,-319.22 345.54,-319.22 345.54,-319.22 386.71,-319.22 386.71,-319.22 389.92,-319.22 393.12,-322.42 393.12,-325.63 393.12,-325.63 393.12,-332.05 393.12,-332.05 393.12,-335.26 389.92,-338.47 386.71,-338.47"/>
<text text-anchor="start" x="348.12" y="-325.92" font-family="Helvetica,sans-Serif" font-size="9.00">media.js</text>
</a>
</g>
</g>
<!-- src/sw.js -->
<g id="node48" class="node">
<title>src/sw.js</title>
<g id="a_node48"><a xlink:href="src/sw.js" xlink:title="sw.js">
<path fill="#ccffcc" stroke="black" d="M63.58,-746.47C63.58,-746.47 22.42,-746.47 22.42,-746.47 19.21,-746.47 16,-743.26 16,-740.05 16,-740.05 16,-733.63 16,-733.63 16,-730.42 19.21,-727.22 22.42,-727.22 22.42,-727.22 63.58,-727.22 63.58,-727.22 66.79,-727.22 70,-730.42 70,-733.63 70,-733.63 70,-740.05 70,-740.05 70,-743.26 66.79,-746.47 63.58,-746.47"/>
<text text-anchor="start" x="32.12" y="-733.92" font-family="Helvetica,sans-Serif" font-size="9.00">sw.js</text>
</a>
</g>
</g>
</g>
</svg>
