<?xml version="1.0" encoding="UTF-8" standalone="no"?>
<!DOCTYPE svg PUBLIC "-//W3C//DTD SVG 1.1//EN"
 "http://www.w3.org/Graphics/SVG/1.1/DTD/svg11.dtd">
<!-- Generated by graphviz version 11.0.0 (20240428.1522)
 -->
<!-- Title: dependency&#45;cruiser output Pages: 1 -->
<svg width="823pt" height="901pt"
 viewBox="0.00 0.00 822.75 901.00" xmlns="http://www.w3.org/2000/svg" xmlns:xlink="http://www.w3.org/1999/xlink">
<g id="graph0" class="graph" transform="scale(1 1) rotate(0) translate(4 897)">
<title>dependency&#45;cruiser output</title>
<polygon fill="white" stroke="none" points="-4,4 -4,-897 818.75,-897 818.75,4 -4,4"/>
<g id="clust1" class="cluster">
<title>cluster_src</title>
<path fill="#ffffff" stroke="black" stroke-width="2" d="M20,-8C20,-8 794.75,-8 794.75,-8 800.75,-8 806.75,-14 806.75,-20 806.75,-20 806.75,-873 806.75,-873 806.75,-879 800.75,-885 794.75,-885 794.75,-885 20,-885 20,-885 14,-885 8,-879 8,-873 8,-873 8,-20 8,-20 8,-14 14,-8 20,-8"/>
<text text-anchor="middle" x="407.38" y="-872.45" font-family="Helvetica,sans-Serif" font-weight="bold" font-size="9.00">src</text>
</g>
<g id="clust2" class="cluster">
<title>cluster_src/js</title>
<path fill="#ffffff" stroke="black" stroke-width="2" d="M90,-16C90,-16 786.75,-16 786.75,-16 792.75,-16 798.75,-22 798.75,-28 798.75,-28 798.75,-846 798.75,-846 798.75,-852 792.75,-858 786.75,-858 786.75,-858 90,-858 90,-858 84,-858 78,-852 78,-846 78,-846 78,-28 78,-28 78,-22 84,-16 90,-16"/>
<text text-anchor="middle" x="438.38" y="-845.45" font-family="Helvetica,sans-Serif" font-weight="bold" font-size="9.00">js</text>
</g>
<g id="clust3" class="cluster">
<title>cluster_src/js/actions</title>
<path fill="#ffffff" stroke="black" stroke-width="2" d="M477.5,-745C477.5,-745 708.75,-745 708.75,-745 714.75,-745 720.75,-751 720.75,-757 720.75,-757 720.75,-819 720.75,-819 720.75,-825 714.75,-831 708.75,-831 708.75,-831 477.5,-831 477.5,-831 471.5,-831 465.5,-825 465.5,-819 465.5,-819 465.5,-757 465.5,-757 465.5,-751 471.5,-745 477.5,-745"/>
<text text-anchor="middle" x="593.12" y="-818.45" font-family="Helvetica,sans-Serif" font-weight="bold" font-size="9.00">actions</text>
</g>
<g id="clust4" class="cluster">
<title>cluster_src/js/bot</title>
<path fill="#ffffff" stroke="black" stroke-width="2" d="M261.88,-658C261.88,-658 557.88,-658 557.88,-658 563.88,-658 569.88,-664 569.88,-670 569.88,-670 569.88,-701 569.88,-701 569.88,-707 563.88,-713 557.88,-713 557.88,-713 261.88,-713 261.88,-713 255.88,-713 249.88,-707 249.88,-701 249.88,-701 249.88,-670 249.88,-670 249.88,-664 255.88,-658 261.88,-658"/>
<text text-anchor="middle" x="409.88" y="-700.45" font-family="Helvetica,sans-Serif" font-weight="bold" font-size="9.00">bot</text>
</g>
<g id="clust5" class="cluster">
<title>cluster_src/js/connection</title>
<path fill="#ffffff" stroke="black" stroke-width="2" d="M240.5,-467C240.5,-467 554.5,-467 554.5,-467 560.5,-467 566.5,-473 566.5,-479 566.5,-479 566.5,-572 566.5,-572 566.5,-578 560.5,-584 554.5,-584 554.5,-584 240.5,-584 240.5,-584 234.5,-584 228.5,-578 228.5,-572 228.5,-572 228.5,-479 228.5,-479 228.5,-473 234.5,-467 240.5,-467"/>
<text text-anchor="middle" x="397.5" y="-571.45" font-family="Helvetica,sans-Serif" font-weight="bold" font-size="9.00">connection</text>
</g>
<g id="clust6" class="cluster">
<title>cluster_src/js/lib</title>
<path fill="#ffffff" stroke="black" stroke-width="2" d="M504.12,-305C504.12,-305 550.38,-305 550.38,-305 556.38,-305 562.38,-311 562.38,-317 562.38,-317 562.38,-348 562.38,-348 562.38,-354 556.38,-360 550.38,-360 550.38,-360 504.12,-360 504.12,-360 498.12,-360 492.12,-354 492.12,-348 492.12,-348 492.12,-317 492.12,-317 492.12,-311 498.12,-305 504.12,-305"/>
<text text-anchor="middle" x="527.25" y="-347.45" font-family="Helvetica,sans-Serif" font-weight="bold" font-size="9.00">lib</text>
</g>
<g id="clust7" class="cluster">
<title>cluster_src/js/mode</title>
<path fill="#ffffff" stroke="black" stroke-width="2" d="M160,-538C160,-538 208.5,-538 208.5,-538 214.5,-538 220.5,-544 220.5,-550 220.5,-550 220.5,-705 220.5,-705 220.5,-711 214.5,-717 208.5,-717 208.5,-717 160,-717 160,-717 154,-717 148,-711 148,-705 148,-705 148,-550 148,-550 148,-544 154,-538 160,-538"/>
<text text-anchor="middle" x="184.25" y="-704.45" font-family="Helvetica,sans-Serif" font-weight="bold" font-size="9.00">mode</text>
</g>
<g id="clust8" class="cluster">
<title>cluster_src/js/uno</title>
<path fill="#ffffff" stroke="black" stroke-width="2" d="M382.75,-34C382.75,-34 676.38,-34 676.38,-34 682.38,-34 688.38,-40 688.38,-46 688.38,-46 688.38,-154 688.38,-154 688.38,-160 682.38,-166 676.38,-166 676.38,-166 382.75,-166 382.75,-166 376.75,-166 370.75,-160 370.75,-154 370.75,-154 370.75,-46 370.75,-46 370.75,-40 376.75,-34 382.75,-34"/>
<text text-anchor="middle" x="529.56" y="-153.45" font-family="Helvetica,sans-Serif" font-weight="bold" font-size="9.00">uno</text>
</g>
<g id="clust9" class="cluster">
<title>cluster_src/js/utils</title>
<path fill="#ffffff" stroke="black" stroke-width="2" d="M617.88,-450C617.88,-450 778.75,-450 778.75,-450 784.75,-450 790.75,-456 790.75,-462 790.75,-462 790.75,-710 790.75,-710 790.75,-716 784.75,-722 778.75,-722 778.75,-722 617.88,-722 617.88,-722 611.88,-722 605.88,-716 605.88,-710 605.88,-710 605.88,-462 605.88,-462 605.88,-456 611.88,-450 617.88,-450"/>
<text text-anchor="middle" x="698.31" y="-709.45" font-family="Helvetica,sans-Serif" font-weight="bold" font-size="9.00">utils</text>
</g>
<g id="clust10" class="cluster">
<title>cluster_src/js/views</title>
<path fill="#ffffff" stroke="black" stroke-width="2" d="M366.25,-212C366.25,-212 445.5,-212 445.5,-212 451.5,-212 457.5,-218 457.5,-224 457.5,-224 457.5,-441 457.5,-441 457.5,-447 451.5,-453 445.5,-453 445.5,-453 366.25,-453 366.25,-453 360.25,-453 354.25,-447 354.25,-441 354.25,-441 354.25,-224 354.25,-224 354.25,-218 360.25,-212 366.25,-212"/>
<text text-anchor="middle" x="405.88" y="-440.45" font-family="Helvetica,sans-Serif" font-weight="bold" font-size="9.00">views</text>
</g>
<!-- src/index.js -->
<g id="node1" class="node">
<title>src/index.js</title>
<g id="a_node1"><a xlink:href="src/index.js" xlink:title="index.js">
<path fill="#ffffcc" stroke="black" d="M63.58,-661.62C63.58,-661.62 22.42,-661.62 22.42,-661.62 19.21,-661.62 16,-658.42 16,-655.21 16,-655.21 16,-648.79 16,-648.79 16,-645.58 19.21,-642.38 22.42,-642.38 22.42,-642.38 63.58,-642.38 63.58,-642.38 66.79,-642.38 70,-645.58 70,-648.79 70,-648.79 70,-655.21 70,-655.21 70,-658.42 66.79,-661.62 63.58,-661.62"/>
<text text-anchor="start" x="27.25" y="-649.08" font-family="Helvetica,sans-Serif" font-size="9.00">index.js</text>
</a>
</g>
</g>
<!-- src/js/starter.js -->
<g id="node2" class="node">
<title>src/js/starter.js</title>
<g id="a_node2"><a xlink:href="src/js/starter.js" xlink:title="starter.js">
<path fill="#ffffcc" stroke="black" d="M133.58,-611.62C133.58,-611.62 92.42,-611.62 92.42,-611.62 89.21,-611.62 86,-608.42 86,-605.21 86,-605.21 86,-598.79 86,-598.79 86,-595.58 89.21,-592.38 92.42,-592.38 92.42,-592.38 133.58,-592.38 133.58,-592.38 136.79,-592.38 140,-595.58 140,-598.79 140,-598.79 140,-605.21 140,-605.21 140,-608.42 136.79,-611.62 133.58,-611.62"/>
<text text-anchor="start" x="95" y="-599.08" font-family="Helvetica,sans-Serif" font-size="9.00">starter.js</text>
</a>
</g>
</g>
<!-- src/index.js&#45;&gt;src/js/starter.js -->
<g id="edge1" class="edge">
<title>src/index.js&#45;&gt;src/js/starter.js</title>
<path fill="none" stroke="#000000" stroke-width="2" stroke-opacity="0.200000" d="M51.45,-642.03C56.9,-635.23 64.85,-626.22 78.57,-616.35"/>
<polygon fill="#000000" fill-opacity="0.200000" stroke="#000000" stroke-width="2" stroke-opacity="0.200000" points="79.5,-618.26 83.28,-613.15 77.14,-614.79 79.5,-618.26"/>
</g>
<!-- src/js/views/install_as_app.js -->
<g id="node3" class="node">
<title>src/js/views/install_as_app.js</title>
<g id="a_node3"><a xlink:href="src/js/views/install_as_app.js" xlink:title="install_as_app.js">
<path fill="#ffffcc" stroke="black" d="M443.08,-425.62C443.08,-425.62 368.67,-425.62 368.67,-425.62 365.46,-425.62 362.25,-422.42 362.25,-419.21 362.25,-419.21 362.25,-412.79 362.25,-412.79 362.25,-409.58 365.46,-406.38 368.67,-406.38 368.67,-406.38 443.08,-406.38 443.08,-406.38 446.29,-406.38 449.5,-409.58 449.5,-412.79 449.5,-412.79 449.5,-419.21 449.5,-419.21 449.5,-422.42 446.29,-425.62 443.08,-425.62"/>
<text text-anchor="start" x="370.25" y="-413.07" font-family="Helvetica,sans-Serif" font-size="9.00">install_as_app.js</text>
</a>
</g>
</g>
<!-- src/index.js&#45;&gt;src/js/views/install_as_app.js -->
<g id="edge2" class="edge">
<title>src/index.js&#45;&gt;src/js/views/install_as_app.js</title>
<path fill="none" stroke="#000000" stroke-width="2" stroke-opacity="0.200000" d="M44.96,-662C47.93,-690.55 57.98,-771.4 78,-787 175.27,-862.81 282.39,-821.51 346.25,-716 360.76,-692.03 342.78,-489.56 354.25,-464 360.13,-450.89 371.43,-439.63 381.87,-431.31"/>
<polygon fill="#000000" fill-opacity="0.200000" stroke="#000000" stroke-width="2" stroke-opacity="0.200000" points="382.93,-433.14 386.46,-427.86 380.4,-429.78 382.93,-433.14"/>
</g>
<!-- src/js/utils/assert.js -->
<g id="node13" class="node">
<title>src/js/utils/assert.js</title>
<g id="a_node13"><a xlink:href="src/js/utils/assert.js" xlink:title="assert.js">
<path fill="#ffffcc" stroke="black" d="M776.33,-477.62C776.33,-477.62 735.17,-477.62 735.17,-477.62 731.96,-477.62 728.75,-474.42 728.75,-471.21 728.75,-471.21 728.75,-464.79 728.75,-464.79 728.75,-461.58 731.96,-458.38 735.17,-458.38 735.17,-458.38 776.33,-458.38 776.33,-458.38 779.54,-458.38 782.75,-461.58 782.75,-464.79 782.75,-464.79 782.75,-471.21 782.75,-471.21 782.75,-474.42 779.54,-477.62 776.33,-477.62"/>
<text text-anchor="start" x="737.75" y="-465.07" font-family="Helvetica,sans-Serif" font-size="9.00">assert.js</text>
</a>
</g>
</g>
<!-- src/js/starter.js&#45;&gt;src/js/utils/assert.js -->
<g id="edge58" class="edge">
<title>src/js/starter.js&#45;&gt;src/js/utils/assert.js</title>
<path fill="none" stroke="#000000" stroke-width="2" stroke-opacity="0.200000" d="M113.93,-591.93C113.86,-551.49 115.84,-397.28 148,-276 170.77,-190.11 180.08,-167.5 228.5,-93 250.77,-58.74 249.51,-25 290.38,-25 290.38,-25 290.38,-25 528.25,-25 613.85,-25 658.83,28.1 720.75,-31 751.37,-60.23 754.45,-368.72 754.73,-448.99"/>
<polygon fill="#000000" fill-opacity="0.200000" stroke="#000000" stroke-width="2" stroke-opacity="0.200000" points="752.63,-448.98 754.74,-454.97 756.83,-448.97 752.63,-448.98"/>
</g>
<!-- src/js/game.js -->
<g id="node21" class="node">
<title>src/js/game.js</title>
<g id="a_node21"><a xlink:href="src/js/game.js" xlink:title="game.js">
<path fill="#ffffcc" stroke="black" d="M204.83,-301.62C204.83,-301.62 163.67,-301.62 163.67,-301.62 160.46,-301.62 157.25,-298.42 157.25,-295.21 157.25,-295.21 157.25,-288.79 157.25,-288.79 157.25,-285.58 160.46,-282.38 163.67,-282.38 163.67,-282.38 204.83,-282.38 204.83,-282.38 208.04,-282.38 211.25,-285.58 211.25,-288.79 211.25,-288.79 211.25,-295.21 211.25,-295.21 211.25,-298.42 208.04,-301.62 204.83,-301.62"/>
<text text-anchor="start" x="167.38" y="-289.07" font-family="Helvetica,sans-Serif" font-size="9.00">game.js</text>
</a>
</g>
</g>
<!-- src/js/starter.js&#45;&gt;src/js/game.js -->
<g id="edge50" class="edge">
<title>src/js/starter.js&#45;&gt;src/js/game.js</title>
<path fill="none" stroke="#000000" stroke-width="2" stroke-opacity="0.200000" d="M116.23,-592.04C126.09,-547.86 165.99,-369.27 179.07,-310.7"/>
<polygon fill="#000000" fill-opacity="0.200000" stroke="#000000" stroke-width="2" stroke-opacity="0.200000" points="181.08,-311.35 180.34,-305.04 176.98,-310.43 181.08,-311.35"/>
</g>
<!-- src/js/helper.js -->
<g id="node27" class="node">
<title>src/js/helper.js</title>
<g id="a_node27"><a xlink:href="src/js/helper.js" xlink:title="helper.js">
<path fill="#ffffcc" stroke="black" d="M311.96,-388.62C311.96,-388.62 270.79,-388.62 270.79,-388.62 267.58,-388.62 264.38,-385.42 264.38,-382.21 264.38,-382.21 264.38,-375.79 264.38,-375.79 264.38,-372.58 267.58,-369.38 270.79,-369.38 270.79,-369.38 311.96,-369.38 311.96,-369.38 315.17,-369.38 318.38,-372.58 318.38,-375.79 318.38,-375.79 318.38,-382.21 318.38,-382.21 318.38,-385.42 315.17,-388.62 311.96,-388.62"/>
<text text-anchor="start" x="273.38" y="-376.07" font-family="Helvetica,sans-Serif" font-size="9.00">helper.js</text>
</a>
</g>
</g>
<!-- src/js/starter.js&#45;&gt;src/js/helper.js -->
<g id="edge51" class="edge">
<title>src/js/starter.js&#45;&gt;src/js/helper.js</title>
<path fill="none" stroke="#000000" stroke-width="2" stroke-opacity="0.200000" d="M116.6,-592.14C125.79,-559.23 159.99,-452.14 228.5,-398 236.26,-391.87 246.01,-387.7 255.45,-384.88"/>
<polygon fill="#000000" fill-opacity="0.200000" stroke="#000000" stroke-width="2" stroke-opacity="0.200000" points="255.77,-386.97 261.04,-383.42 254.7,-382.91 255.77,-386.97"/>
</g>
<!-- src/js/mode/ai.js -->
<g id="node29" class="node">
<title>src/js/mode/ai.js</title>
<g id="a_node29"><a xlink:href="src/js/mode/ai.js" xlink:title="ai.js">
<path fill="#ffffcc" stroke="black" d="M204.83,-658.62C204.83,-658.62 163.67,-658.62 163.67,-658.62 160.46,-658.62 157.25,-655.42 157.25,-652.21 157.25,-652.21 157.25,-645.79 157.25,-645.79 157.25,-642.58 160.46,-639.38 163.67,-639.38 163.67,-639.38 204.83,-639.38 204.83,-639.38 208.04,-639.38 211.25,-642.58 211.25,-645.79 211.25,-645.79 211.25,-652.21 211.25,-652.21 211.25,-655.42 208.04,-658.62 204.83,-658.62"/>
<text text-anchor="start" x="175.62" y="-646.08" font-family="Helvetica,sans-Serif" font-size="9.00">ai.js</text>
</a>
</g>
</g>
<!-- src/js/starter.js&#45;&gt;src/js/mode/ai.js -->
<g id="edge52" class="edge">
<title>src/js/starter.js&#45;&gt;src/js/mode/ai.js</title>
<path fill="none" stroke="#000000" stroke-width="2" stroke-dasharray="5,2" stroke-opacity="0.200000" d="M135.57,-612.06C137.17,-613.26 138.68,-614.57 140,-616 145.95,-622.42 141.76,-627.86 148,-634 148.48,-634.47 148.98,-634.93 149.49,-635.38"/>
<polygon fill="#000000" fill-opacity="0.200000" stroke="#000000" stroke-width="2" stroke-opacity="0.200000" points="148.2,-637.04 154.33,-638.71 150.58,-633.58 148.2,-637.04"/>
</g>
<!-- src/js/mode/hotseat.js -->
<g id="node31" class="node">
<title>src/js/mode/hotseat.js</title>
<g id="a_node31"><a xlink:href="src/js/mode/hotseat.js" xlink:title="hotseat.js">
<path fill="#ffffcc" stroke="black" d="M206.08,-627.62C206.08,-627.62 162.42,-627.62 162.42,-627.62 159.21,-627.62 156,-624.42 156,-621.21 156,-621.21 156,-614.79 156,-614.79 156,-611.58 159.21,-608.38 162.42,-608.38 162.42,-608.38 206.08,-608.38 206.08,-608.38 209.29,-608.38 212.5,-611.58 212.5,-614.79 212.5,-614.79 212.5,-621.21 212.5,-621.21 212.5,-624.42 209.29,-627.62 206.08,-627.62"/>
<text text-anchor="start" x="164" y="-615.08" font-family="Helvetica,sans-Serif" font-size="9.00">hotseat.js</text>
</a>
</g>
</g>
<!-- src/js/starter.js&#45;&gt;src/js/mode/hotseat.js -->
<g id="edge53" class="edge">
<title>src/js/starter.js&#45;&gt;src/js/mode/hotseat.js</title>
<path fill="none" stroke="#000000" stroke-width="2" stroke-dasharray="5,2" stroke-opacity="0.200000" d="M140.18,-608.05C142.39,-608.56 144.65,-609.08 146.92,-609.61"/>
<polygon fill="#000000" fill-opacity="0.200000" stroke="#000000" stroke-width="2" stroke-opacity="0.200000" points="146.38,-611.64 152.7,-610.94 147.32,-607.54 146.38,-611.64"/>
</g>
<!-- src/js/mode/net.js -->
<g id="node32" class="node">
<title>src/js/mode/net.js</title>
<g id="a_node32"><a xlink:href="src/js/mode/net.js" xlink:title="net.js">
<path fill="#ffffcc" stroke="black" d="M204.83,-596.62C204.83,-596.62 163.67,-596.62 163.67,-596.62 160.46,-596.62 157.25,-593.42 157.25,-590.21 157.25,-590.21 157.25,-583.79 157.25,-583.79 157.25,-580.58 160.46,-577.38 163.67,-577.38 163.67,-577.38 204.83,-577.38 204.83,-577.38 208.04,-577.38 211.25,-580.58 211.25,-583.79 211.25,-583.79 211.25,-590.21 211.25,-590.21 211.25,-593.42 208.04,-596.62 204.83,-596.62"/>
<text text-anchor="start" x="173" y="-584.08" font-family="Helvetica,sans-Serif" font-size="9.00">net.js</text>
</a>
</g>
</g>
<!-- src/js/starter.js&#45;&gt;src/js/mode/net.js -->
<g id="edge54" class="edge">
<title>src/js/starter.js&#45;&gt;src/js/mode/net.js</title>
<path fill="none" stroke="#000000" stroke-width="2" stroke-dasharray="5,2" stroke-opacity="0.200000" d="M140.18,-596.33C142.85,-595.75 145.59,-595.16 148.34,-594.56"/>
<polygon fill="#000000" fill-opacity="0.200000" stroke="#000000" stroke-width="2" stroke-opacity="0.200000" points="148.65,-596.64 154.07,-593.32 147.77,-592.54 148.65,-596.64"/>
</g>
<!-- src/js/mode/server.js -->
<g id="node33" class="node">
<title>src/js/mode/server.js</title>
<g id="a_node33"><a xlink:href="src/js/mode/server.js" xlink:title="server.js">
<path fill="#ffffcc" stroke="black" d="M204.83,-565.62C204.83,-565.62 163.67,-565.62 163.67,-565.62 160.46,-565.62 157.25,-562.42 157.25,-559.21 157.25,-559.21 157.25,-552.79 157.25,-552.79 157.25,-549.58 160.46,-546.38 163.67,-546.38 163.67,-546.38 204.83,-546.38 204.83,-546.38 208.04,-546.38 211.25,-549.58 211.25,-552.79 211.25,-552.79 211.25,-559.21 211.25,-559.21 211.25,-562.42 208.04,-565.62 204.83,-565.62"/>
<text text-anchor="start" x="166.62" y="-553.08" font-family="Helvetica,sans-Serif" font-size="9.00">server.js</text>
</a>
</g>
</g>
<!-- src/js/starter.js&#45;&gt;src/js/mode/server.js -->
<g id="edge55" class="edge">
<title>src/js/starter.js&#45;&gt;src/js/mode/server.js</title>
<path fill="none" stroke="#000000" stroke-width="2" stroke-dasharray="5,2" stroke-opacity="0.200000" d="M123.1,-592.11C129.57,-585.5 138.72,-576.96 148,-571 148.35,-570.78 148.7,-570.55 149.06,-570.33"/>
<polygon fill="#000000" fill-opacity="0.200000" stroke="#000000" stroke-width="2" stroke-opacity="0.200000" points="150.03,-572.19 154.29,-567.47 148.02,-568.51 150.03,-572.19"/>
</g>
<!-- src/js/mode/test.js -->
<g id="node35" class="node">
<title>src/js/mode/test.js</title>
<g id="a_node35"><a xlink:href="src/js/mode/test.js" xlink:title="test.js">
<path fill="#ffffcc" stroke="black" d="M204.83,-689.62C204.83,-689.62 163.67,-689.62 163.67,-689.62 160.46,-689.62 157.25,-686.42 157.25,-683.21 157.25,-683.21 157.25,-676.79 157.25,-676.79 157.25,-673.58 160.46,-670.38 163.67,-670.38 163.67,-670.38 204.83,-670.38 204.83,-670.38 208.04,-670.38 211.25,-673.58 211.25,-676.79 211.25,-676.79 211.25,-683.21 211.25,-683.21 211.25,-686.42 208.04,-689.62 204.83,-689.62"/>
<text text-anchor="start" x="171.88" y="-677.08" font-family="Helvetica,sans-Serif" font-size="9.00">test.js</text>
</a>
</g>
</g>
<!-- src/js/starter.js&#45;&gt;src/js/mode/test.js -->
<g id="edge56" class="edge">
<title>src/js/starter.js&#45;&gt;src/js/mode/test.js</title>
<path fill="none" stroke="#000000" stroke-width="2" stroke-dasharray="5,2" stroke-opacity="0.200000" d="M136.23,-611.92C137.64,-613.14 138.93,-614.5 140,-616 152.81,-633.97 134.38,-647.64 148,-665 148.6,-665.76 149.24,-666.48 149.92,-667.16"/>
<polygon fill="#000000" fill-opacity="0.200000" stroke="#000000" stroke-width="2" stroke-opacity="0.200000" points="148.41,-668.66 154.46,-670.59 150.93,-665.3 148.41,-668.66"/>
</g>
<!-- src/js/settings.js -->
<g id="node36" class="node">
<title>src/js/settings.js</title>
<g id="a_node36"><a xlink:href="src/js/settings.js" xlink:title="settings.js">
<path fill="#ffffcc" stroke="black" d="M207.21,-744.62C207.21,-744.62 161.29,-744.62 161.29,-744.62 158.08,-744.62 154.88,-741.42 154.88,-738.21 154.88,-738.21 154.88,-731.79 154.88,-731.79 154.88,-728.58 158.08,-725.38 161.29,-725.38 161.29,-725.38 207.21,-725.38 207.21,-725.38 210.42,-725.38 213.62,-728.58 213.62,-731.79 213.62,-731.79 213.62,-738.21 213.62,-738.21 213.62,-741.42 210.42,-744.62 207.21,-744.62"/>
<text text-anchor="start" x="162.88" y="-732.08" font-family="Helvetica,sans-Serif" font-size="9.00">settings.js</text>
</a>
</g>
</g>
<!-- src/js/starter.js&#45;&gt;src/js/settings.js -->
<g id="edge57" class="edge">
<title>src/js/starter.js&#45;&gt;src/js/settings.js</title>
<path fill="none" stroke="#000000" stroke-width="2" stroke-opacity="0.200000" d="M136.37,-611.82C137.76,-613.06 138.99,-614.45 140,-616 152.64,-635.43 134.48,-701.17 148,-720 148.11,-720.16 148.22,-720.31 148.34,-720.46"/>
<polygon fill="#000000" fill-opacity="0.200000" stroke="#000000" stroke-width="2" stroke-opacity="0.200000" points="146.57,-721.68 152.39,-724.23 149.43,-718.61 146.57,-721.68"/>
</g>
<!-- src/js/actions/actions_uno_client.js -->
<g id="node4" class="node">
<title>src/js/actions/actions_uno_client.js</title>
<g id="a_node4"><a xlink:href="src/js/actions/actions_uno_client.js" xlink:title="actions_uno_client.js">
<path fill="#ffffcc" stroke="black" d="M572.71,-803.62C572.71,-803.62 481.79,-803.62 481.79,-803.62 478.58,-803.62 475.38,-800.42 475.38,-797.21 475.38,-797.21 475.38,-790.79 475.38,-790.79 475.38,-787.58 478.58,-784.38 481.79,-784.38 481.79,-784.38 572.71,-784.38 572.71,-784.38 575.92,-784.38 579.12,-787.58 579.12,-790.79 579.12,-790.79 579.12,-797.21 579.12,-797.21 579.12,-800.42 575.92,-803.62 572.71,-803.62"/>
<text text-anchor="start" x="483.38" y="-791.08" font-family="Helvetica,sans-Serif" font-size="9.00">actions_uno_client.js</text>
</a>
</g>
</g>
<!-- src/js/actions/actions_uno_common.js -->
<g id="node5" class="node">
<title>src/js/actions/actions_uno_common.js</title>
<g id="a_node5"><a xlink:href="src/js/actions/actions_uno_common.js" xlink:title="actions_uno_common.js">
<path fill="#ffffcc" stroke="black" d="M706.33,-787.62C706.33,-787.62 600.42,-787.62 600.42,-787.62 597.21,-787.62 594,-784.42 594,-781.21 594,-781.21 594,-774.79 594,-774.79 594,-771.58 597.21,-768.38 600.42,-768.38 600.42,-768.38 706.33,-768.38 706.33,-768.38 709.54,-768.38 712.75,-771.58 712.75,-774.79 712.75,-774.79 712.75,-781.21 712.75,-781.21 712.75,-784.42 709.54,-787.62 706.33,-787.62"/>
<text text-anchor="start" x="602" y="-775.08" font-family="Helvetica,sans-Serif" font-size="9.00">actions_uno_common.js</text>
</a>
</g>
</g>
<!-- src/js/actions/actions_uno_client.js&#45;&gt;src/js/actions/actions_uno_common.js -->
<g id="edge3" class="edge">
<title>src/js/actions/actions_uno_client.js&#45;&gt;src/js/actions/actions_uno_common.js</title>
<path fill="none" stroke="#000000" stroke-width="2" stroke-opacity="0.200000" d="M579.45,-787.4C581.21,-787.17 582.97,-786.95 584.74,-786.72"/>
<polygon fill="#000000" fill-opacity="0.200000" stroke="#000000" stroke-width="2" stroke-opacity="0.200000" points="584.94,-788.81 590.62,-785.96 584.4,-784.64 584.94,-788.81"/>
</g>
<!-- src/js/actions/actions_uno_server.js -->
<g id="node6" class="node">
<title>src/js/actions/actions_uno_server.js</title>
<g id="a_node6"><a xlink:href="src/js/actions/actions_uno_server.js" xlink:title="actions_uno_server.js">
<path fill="#ffffcc" stroke="black" d="M574.58,-772.62C574.58,-772.62 479.92,-772.62 479.92,-772.62 476.71,-772.62 473.5,-769.42 473.5,-766.21 473.5,-766.21 473.5,-759.79 473.5,-759.79 473.5,-756.58 476.71,-753.38 479.92,-753.38 479.92,-753.38 574.58,-753.38 574.58,-753.38 577.79,-753.38 581,-756.58 581,-759.79 581,-759.79 581,-766.21 581,-766.21 581,-769.42 577.79,-772.62 574.58,-772.62"/>
<text text-anchor="start" x="481.5" y="-760.08" font-family="Helvetica,sans-Serif" font-size="9.00">actions_uno_server.js</text>
</a>
</g>
</g>
<!-- src/js/actions/actions_uno_server.js&#45;&gt;src/js/actions/actions_uno_common.js -->
<g id="edge4" class="edge">
<title>src/js/actions/actions_uno_server.js&#45;&gt;src/js/actions/actions_uno_common.js</title>
<path fill="none" stroke="#000000" stroke-width="2" stroke-opacity="0.200000" d="M581.25,-769.4C582.4,-769.54 583.55,-769.68 584.71,-769.82"/>
<polygon fill="#000000" fill-opacity="0.200000" stroke="#000000" stroke-width="2" stroke-opacity="0.200000" points="584.38,-771.9 590.59,-770.53 584.88,-767.73 584.38,-771.9"/>
</g>
<!-- src/js/bot/best_card.bot.js -->
<g id="node7" class="node">
<title>src/js/bot/best_card.bot.js</title>
<g id="a_node7"><a xlink:href="src/js/bot/best_card.bot.js" xlink:title="best_card.bot.js">
<path fill="#ffffcc" stroke="black" d="M440.46,-685.62C440.46,-685.62 371.29,-685.62 371.29,-685.62 368.08,-685.62 364.88,-682.42 364.88,-679.21 364.88,-679.21 364.88,-672.79 364.88,-672.79 364.88,-669.58 368.08,-666.38 371.29,-666.38 371.29,-666.38 440.46,-666.38 440.46,-666.38 443.67,-666.38 446.88,-669.58 446.88,-672.79 446.88,-672.79 446.88,-679.21 446.88,-679.21 446.88,-682.42 443.67,-685.62 440.46,-685.62"/>
<text text-anchor="start" x="372.88" y="-673.08" font-family="Helvetica,sans-Serif" font-size="9.00">best_card.bot.js</text>
</a>
</g>
</g>
<!-- src/js/bot/best_card.bot.js&#45;&gt;src/js/actions/actions_uno_server.js -->
<g id="edge5" class="edge">
<title>src/js/bot/best_card.bot.js&#45;&gt;src/js/actions/actions_uno_server.js</title>
<path fill="none" stroke="#000000" stroke-width="2" stroke-opacity="0.200000" d="M422.97,-686C434.02,-693.59 448.3,-704.93 457.5,-718 463.49,-726.51 458.19,-732.59 465.5,-740 468.92,-743.46 472.91,-746.41 477.18,-748.92"/>
<polygon fill="#000000" fill-opacity="0.200000" stroke="#000000" stroke-width="2" stroke-opacity="0.200000" points="476.12,-750.74 482.42,-751.6 478.03,-747 476.12,-750.74"/>
</g>
<!-- src/js/uno/basic.js -->
<g id="node8" class="node">
<title>src/js/uno/basic.js</title>
<g id="a_node8"><a xlink:href="src/js/uno/basic.js" xlink:title="basic.js">
<path fill="#ffffcc" stroke="black" d="M673.96,-138.62C673.96,-138.62 632.79,-138.62 632.79,-138.62 629.58,-138.62 626.38,-135.42 626.38,-132.21 626.38,-132.21 626.38,-125.79 626.38,-125.79 626.38,-122.58 629.58,-119.38 632.79,-119.38 632.79,-119.38 673.96,-119.38 673.96,-119.38 677.17,-119.38 680.38,-122.58 680.38,-125.79 680.38,-125.79 680.38,-132.21 680.38,-132.21 680.38,-135.42 677.17,-138.62 673.96,-138.62"/>
<text text-anchor="start" x="637.25" y="-126.08" font-family="Helvetica,sans-Serif" font-size="9.00">basic.js</text>
</a>
</g>
</g>
<!-- src/js/bot/best_card.bot.js&#45;&gt;src/js/uno/basic.js -->
<g id="edge6" class="edge">
<title>src/js/bot/best_card.bot.js&#45;&gt;src/js/uno/basic.js</title>
<path fill="none" stroke="#000000" stroke-width="2" stroke-opacity="0.200000" d="M433.77,-665.95C478.04,-648.84 563.15,-613.35 581,-587 598.52,-561.13 589.73,-477.95 594,-447 609.78,-332.58 637.91,-196.63 648.34,-147.7"/>
<polygon fill="#000000" fill-opacity="0.200000" stroke="#000000" stroke-width="2" stroke-opacity="0.200000" points="650.34,-148.37 649.55,-142.07 646.24,-147.49 650.34,-148.37"/>
</g>
<!-- src/js/utils/random.js -->
<g id="node9" class="node">
<title>src/js/utils/random.js</title>
<g id="a_node9"><a xlink:href="src/js/utils/random.js" xlink:title="random.js">
<path fill="#ffffcc" stroke="black" d="M675.96,-601.62C675.96,-601.62 630.79,-601.62 630.79,-601.62 627.58,-601.62 624.38,-598.42 624.38,-595.21 624.38,-595.21 624.38,-588.79 624.38,-588.79 624.38,-585.58 627.58,-582.38 630.79,-582.38 630.79,-582.38 675.96,-582.38 675.96,-582.38 679.17,-582.38 682.38,-585.58 682.38,-588.79 682.38,-588.79 682.38,-595.21 682.38,-595.21 682.38,-598.42 679.17,-601.62 675.96,-601.62"/>
<text text-anchor="start" x="632.38" y="-589.08" font-family="Helvetica,sans-Serif" font-size="9.00">random.js</text>
</a>
</g>
</g>
<!-- src/js/bot/best_card.bot.js&#45;&gt;src/js/utils/random.js -->
<g id="edge7" class="edge">
<title>src/js/bot/best_card.bot.js&#45;&gt;src/js/utils/random.js</title>
<path fill="none" stroke="#000000" stroke-width="2" stroke-opacity="0.200000" d="M423.39,-686.11C457.37,-705.48 535.73,-742.55 581,-703 613.42,-674.67 565.39,-639.17 594,-607 599.52,-600.8 607.22,-597 615.22,-594.71"/>
<polygon fill="#000000" fill-opacity="0.200000" stroke="#000000" stroke-width="2" stroke-opacity="0.200000" points="615.58,-596.78 620.98,-593.43 614.67,-592.68 615.58,-596.78"/>
</g>
<!-- src/js/utils/timer.js -->
<g id="node10" class="node">
<title>src/js/utils/timer.js</title>
<g id="a_node10"><a xlink:href="src/js/utils/timer.js" xlink:title="timer.js">
<path fill="#ffffcc" stroke="black" d="M673.96,-508.62C673.96,-508.62 632.79,-508.62 632.79,-508.62 629.58,-508.62 626.38,-505.42 626.38,-502.21 626.38,-502.21 626.38,-495.79 626.38,-495.79 626.38,-492.58 629.58,-489.38 632.79,-489.38 632.79,-489.38 673.96,-489.38 673.96,-489.38 677.17,-489.38 680.38,-492.58 680.38,-495.79 680.38,-495.79 680.38,-502.21 680.38,-502.21 680.38,-505.42 677.17,-508.62 673.96,-508.62"/>
<text text-anchor="start" x="638" y="-496.07" font-family="Helvetica,sans-Serif" font-size="9.00">timer.js</text>
</a>
</g>
</g>
<!-- src/js/bot/best_card.bot.js&#45;&gt;src/js/utils/timer.js -->
<g id="edge8" class="edge">
<title>src/js/bot/best_card.bot.js&#45;&gt;src/js/utils/timer.js</title>
<path fill="none" stroke="#000000" stroke-width="2" stroke-opacity="0.200000" d="M426.36,-686.07C462.11,-702.99 538.42,-731.58 581,-692 610.05,-665 568.57,-544.43 594,-514 599.84,-507.01 608.45,-503.04 617.28,-500.85"/>
<polygon fill="#000000" fill-opacity="0.200000" stroke="#000000" stroke-width="2" stroke-opacity="0.200000" points="617.59,-502.92 623.1,-499.75 616.82,-498.8 617.59,-502.92"/>
</g>
<!-- src/js/bot/simple.bot.js -->
<g id="node11" class="node">
<title>src/js/bot/simple.bot.js</title>
<g id="a_node11"><a xlink:href="src/js/bot/simple.bot.js" xlink:title="simple.bot.js">
<path fill="#ffffcc" stroke="black" d="M555.46,-685.62C555.46,-685.62 499.04,-685.62 499.04,-685.62 495.83,-685.62 492.62,-682.42 492.62,-679.21 492.62,-679.21 492.62,-672.79 492.62,-672.79 492.62,-669.58 495.83,-666.38 499.04,-666.38 499.04,-666.38 555.46,-666.38 555.46,-666.38 558.67,-666.38 561.88,-669.58 561.88,-672.79 561.88,-672.79 561.88,-679.21 561.88,-679.21 561.88,-682.42 558.67,-685.62 555.46,-685.62"/>
<text text-anchor="start" x="500.62" y="-673.08" font-family="Helvetica,sans-Serif" font-size="9.00">simple.bot.js</text>
</a>
</g>
</g>
<!-- src/js/bot/best_card.bot.js&#45;&gt;src/js/bot/simple.bot.js -->
<g id="edge9" class="edge">
<title>src/js/bot/best_card.bot.js&#45;&gt;src/js/bot/simple.bot.js</title>
<path fill="none" stroke="#000000" stroke-width="2" stroke-opacity="0.200000" d="M447.29,-676C458.93,-676 471.67,-676 483.45,-676"/>
<polygon fill="#000000" fill-opacity="0.200000" stroke="#000000" stroke-width="2" stroke-opacity="0.200000" points="483.21,-678.1 489.21,-676 483.21,-673.9 483.21,-678.1"/>
</g>
<!-- src/js/bot/simple.bot.js&#45;&gt;src/js/uno/basic.js -->
<g id="edge11" class="edge">
<title>src/js/bot/simple.bot.js&#45;&gt;src/js/uno/basic.js</title>
<path fill="none" stroke="#000000" stroke-width="2" stroke-opacity="0.200000" d="M550.97,-665.97C562,-659.85 574.3,-650.89 581,-639 602,-601.75 588.69,-489.43 594,-447 608.35,-332.39 637.35,-196.56 648.17,-147.68"/>
<polygon fill="#000000" fill-opacity="0.200000" stroke="#000000" stroke-width="2" stroke-opacity="0.200000" points="650.17,-148.36 649.43,-142.05 646.07,-147.45 650.17,-148.36"/>
</g>
<!-- src/js/bot/simple.bot.js&#45;&gt;src/js/utils/assert.js -->
<g id="edge12" class="edge">
<title>src/js/bot/simple.bot.js&#45;&gt;src/js/utils/assert.js</title>
<path fill="none" stroke="#000000" stroke-width="2" stroke-opacity="0.200000" d="M545.64,-685.99C582.72,-705.82 670.27,-744.64 720.75,-701 752.86,-673.24 755.25,-537.21 755.01,-486.82"/>
<polygon fill="#000000" fill-opacity="0.200000" stroke="#000000" stroke-width="2" stroke-opacity="0.200000" points="757.11,-486.95 754.96,-480.97 752.91,-486.99 757.11,-486.95"/>
</g>
<!-- src/js/bot/setup_bot.js -->
<g id="node12" class="node">
<title>src/js/bot/setup_bot.js</title>
<g id="a_node12"><a xlink:href="src/js/bot/setup_bot.js" xlink:title="setup_bot.js">
<path fill="#ffffcc" stroke="black" d="M318.46,-685.62C318.46,-685.62 264.29,-685.62 264.29,-685.62 261.08,-685.62 257.88,-682.42 257.88,-679.21 257.88,-679.21 257.88,-672.79 257.88,-672.79 257.88,-669.58 261.08,-666.38 264.29,-666.38 264.29,-666.38 318.46,-666.38 318.46,-666.38 321.67,-666.38 324.88,-669.58 324.88,-672.79 324.88,-672.79 324.88,-679.21 324.88,-679.21 324.88,-682.42 321.67,-685.62 318.46,-685.62"/>
<text text-anchor="start" x="265.88" y="-673.08" font-family="Helvetica,sans-Serif" font-size="9.00">setup_bot.js</text>
</a>
</g>
</g>
<!-- src/js/bot/setup_bot.js&#45;&gt;src/js/bot/best_card.bot.js -->
<g id="edge10" class="edge">
<title>src/js/bot/setup_bot.js&#45;&gt;src/js/bot/best_card.bot.js</title>
<path fill="none" stroke="#000000" stroke-width="2" stroke-opacity="0.200000" d="M325.22,-676C334.75,-676 345.37,-676 355.67,-676"/>
<polygon fill="#000000" fill-opacity="0.200000" stroke="#000000" stroke-width="2" stroke-opacity="0.200000" points="355.58,-678.1 361.58,-676 355.58,-673.9 355.58,-678.1"/>
</g>
<!-- src/js/connection/client.js -->
<g id="node14" class="node">
<title>src/js/connection/client.js</title>
<g id="a_node14"><a xlink:href="src/js/connection/client.js" xlink:title="client.js">
<path fill="#ffffcc" stroke="black" d="M426.46,-556.62C426.46,-556.62 385.29,-556.62 385.29,-556.62 382.08,-556.62 378.88,-553.42 378.88,-550.21 378.88,-550.21 378.88,-543.79 378.88,-543.79 378.88,-540.58 382.08,-537.38 385.29,-537.38 385.29,-537.38 426.46,-537.38 426.46,-537.38 429.67,-537.38 432.88,-540.58 432.88,-543.79 432.88,-543.79 432.88,-550.21 432.88,-550.21 432.88,-553.42 429.67,-556.62 426.46,-556.62"/>
<text text-anchor="start" x="390.12" y="-544.08" font-family="Helvetica,sans-Serif" font-size="9.00">client.js</text>
</a>
</g>
</g>
<!-- src/js/utils/handlers.js -->
<g id="node15" class="node">
<title>src/js/utils/handlers.js</title>
<g id="a_node15"><a xlink:href="src/js/utils/handlers.js" xlink:title="handlers.js">
<path fill="#ffffcc" stroke="black" d="M678.21,-539.62C678.21,-539.62 628.54,-539.62 628.54,-539.62 625.33,-539.62 622.12,-536.42 622.12,-533.21 622.12,-533.21 622.12,-526.79 622.12,-526.79 622.12,-523.58 625.33,-520.38 628.54,-520.38 628.54,-520.38 678.21,-520.38 678.21,-520.38 681.42,-520.38 684.62,-523.58 684.62,-526.79 684.62,-526.79 684.62,-533.21 684.62,-533.21 684.62,-536.42 681.42,-539.62 678.21,-539.62"/>
<text text-anchor="start" x="630.12" y="-527.08" font-family="Helvetica,sans-Serif" font-size="9.00">handlers.js</text>
</a>
</g>
</g>
<!-- src/js/connection/client.js&#45;&gt;src/js/utils/handlers.js -->
<g id="edge13" class="edge">
<title>src/js/connection/client.js&#45;&gt;src/js/utils/handlers.js</title>
<path fill="none" stroke="#000000" stroke-width="2" stroke-opacity="0.200000" d="M433.13,-538.26C443.14,-535.35 454.73,-532.47 465.5,-531 516.09,-524.08 575.11,-525.29 613.07,-527.25"/>
<polygon fill="#000000" fill-opacity="0.200000" stroke="#000000" stroke-width="2" stroke-opacity="0.200000" points="612.65,-529.33 618.75,-527.57 612.88,-525.14 612.65,-529.33"/>
</g>
<!-- src/js/connection/common.js -->
<g id="node16" class="node">
<title>src/js/connection/common.js</title>
<g id="a_node16"><a xlink:href="src/js/connection/common.js" xlink:title="common.js">
<path fill="#ffffcc" stroke="black" d="M552.08,-556.62C552.08,-556.62 502.42,-556.62 502.42,-556.62 499.21,-556.62 496,-553.42 496,-550.21 496,-550.21 496,-543.79 496,-543.79 496,-540.58 499.21,-537.38 502.42,-537.38 502.42,-537.38 552.08,-537.38 552.08,-537.38 555.29,-537.38 558.5,-540.58 558.5,-543.79 558.5,-543.79 558.5,-550.21 558.5,-550.21 558.5,-553.42 555.29,-556.62 552.08,-556.62"/>
<text text-anchor="start" x="504" y="-544.08" font-family="Helvetica,sans-Serif" font-size="9.00">common.js</text>
</a>
</g>
</g>
<!-- src/js/connection/client.js&#45;&gt;src/js/connection/common.js -->
<g id="edge14" class="edge">
<title>src/js/connection/client.js&#45;&gt;src/js/connection/common.js</title>
<path fill="none" stroke="#000000" stroke-width="2" stroke-opacity="0.200000" d="M433.37,-547C449.04,-547 469.2,-547 486.73,-547"/>
<polygon fill="#000000" fill-opacity="0.200000" stroke="#000000" stroke-width="2" stroke-opacity="0.200000" points="486.59,-549.1 492.59,-547 486.59,-544.9 486.59,-549.1"/>
</g>
<!-- src/js/utils/handlers.js&#45;&gt;src/js/utils/assert.js -->
<g id="edge73" class="edge">
<title>src/js/utils/handlers.js&#45;&gt;src/js/utils/assert.js</title>
<path fill="none" stroke="#000000" stroke-width="2" stroke-opacity="0.200000" d="M684.93,-527.75C696.87,-525.73 710.2,-521.96 720.75,-515 731.65,-507.81 740.23,-495.84 746.05,-485.78"/>
<polygon fill="#000000" fill-opacity="0.200000" stroke="#000000" stroke-width="2" stroke-opacity="0.200000" points="747.84,-486.87 748.84,-480.59 744.15,-484.88 747.84,-486.87"/>
</g>
<!-- src/js/connection/common.js&#45;&gt;src/js/utils/random.js -->
<g id="edge16" class="edge">
<title>src/js/connection/common.js&#45;&gt;src/js/utils/random.js</title>
<path fill="none" stroke="#000000" stroke-width="2" stroke-opacity="0.200000" d="M547.73,-556.99C560.62,-563.32 578.03,-571.35 594,-577 600.95,-579.46 608.49,-581.7 615.78,-583.65"/>
<polygon fill="#000000" fill-opacity="0.200000" stroke="#000000" stroke-width="2" stroke-opacity="0.200000" points="614.9,-585.59 621.23,-585.06 615.95,-581.53 614.9,-585.59"/>
</g>
<!-- src/js/connection/common.js&#45;&gt;src/js/utils/handlers.js -->
<g id="edge15" class="edge">
<title>src/js/connection/common.js&#45;&gt;src/js/utils/handlers.js</title>
<path fill="none" stroke="#000000" stroke-width="2" stroke-opacity="0.200000" d="M558.93,-542.8C575.32,-540.55 595.66,-537.77 613.18,-535.37"/>
<polygon fill="#000000" fill-opacity="0.200000" stroke="#000000" stroke-width="2" stroke-opacity="0.200000" points="613.39,-537.46 619.05,-534.56 612.82,-533.3 613.39,-537.46"/>
</g>
<!-- src/js/connection/connection_chooser.js -->
<g id="node17" class="node">
<title>src/js/connection/connection_chooser.js</title>
<g id="a_node17"><a xlink:href="src/js/connection/connection_chooser.js" xlink:title="connection_chooser.js">
<path fill="#ffffcc" stroke="black" d="M339.83,-525.62C339.83,-525.62 242.92,-525.62 242.92,-525.62 239.71,-525.62 236.5,-522.42 236.5,-519.21 236.5,-519.21 236.5,-512.79 236.5,-512.79 236.5,-509.58 239.71,-506.38 242.92,-506.38 242.92,-506.38 339.83,-506.38 339.83,-506.38 343.04,-506.38 346.25,-509.58 346.25,-512.79 346.25,-512.79 346.25,-519.21 346.25,-519.21 346.25,-522.42 343.04,-525.62 339.83,-525.62"/>
<text text-anchor="start" x="244.5" y="-513.08" font-family="Helvetica,sans-Serif" font-size="9.00">connection_chooser.js</text>
</a>
</g>
</g>
<!-- src/js/connection/connection_chooser.js&#45;&gt;src/js/utils/assert.js -->
<g id="edge17" class="edge">
<title>src/js/connection/connection_chooser.js&#45;&gt;src/js/utils/assert.js</title>
<path fill="none" stroke="#000000" stroke-width="2" stroke-opacity="0.200000" d="M301.76,-505.99C313.02,-494.73 333.04,-476.99 354.25,-469 379.24,-459.59 567.31,-452.95 594,-452 650.3,-450.01 665.77,-439.71 720.75,-452 723.55,-452.63 726.39,-453.51 729.18,-454.54"/>
<polygon fill="#000000" fill-opacity="0.200000" stroke="#000000" stroke-width="2" stroke-opacity="0.200000" points="728.15,-456.39 734.49,-456.8 729.8,-452.52 728.15,-456.39"/>
</g>
<!-- src/js/connection/connection_chooser.js&#45;&gt;src/js/connection/client.js -->
<g id="edge18" class="edge">
<title>src/js/connection/connection_chooser.js&#45;&gt;src/js/connection/client.js</title>
<path fill="none" stroke="#000000" stroke-width="2" stroke-dasharray="5,2" stroke-opacity="0.200000" d="M328.9,-526.06C342.04,-529.68 356.82,-533.76 369.82,-537.34"/>
<polygon fill="#000000" fill-opacity="0.200000" stroke="#000000" stroke-width="2" stroke-opacity="0.200000" points="369.24,-539.36 375.59,-538.93 370.36,-535.31 369.24,-539.36"/>
</g>
<!-- src/js/connection/server.js -->
<g id="node18" class="node">
<title>src/js/connection/server.js</title>
<g id="a_node18"><a xlink:href="src/js/connection/server.js" xlink:title="server.js">
<path fill="#ffffcc" stroke="black" d="M426.46,-525.62C426.46,-525.62 385.29,-525.62 385.29,-525.62 382.08,-525.62 378.88,-522.42 378.88,-519.21 378.88,-519.21 378.88,-512.79 378.88,-512.79 378.88,-509.58 382.08,-506.38 385.29,-506.38 385.29,-506.38 426.46,-506.38 426.46,-506.38 429.67,-506.38 432.88,-509.58 432.88,-512.79 432.88,-512.79 432.88,-519.21 432.88,-519.21 432.88,-522.42 429.67,-525.62 426.46,-525.62"/>
<text text-anchor="start" x="388.25" y="-513.08" font-family="Helvetica,sans-Serif" font-size="9.00">server.js</text>
</a>
</g>
</g>
<!-- src/js/connection/connection_chooser.js&#45;&gt;src/js/connection/server.js -->
<g id="edge19" class="edge">
<title>src/js/connection/connection_chooser.js&#45;&gt;src/js/connection/server.js</title>
<path fill="none" stroke="#000000" stroke-width="2" stroke-dasharray="5,2" stroke-opacity="0.200000" d="M346.65,-516C354.47,-516 362.34,-516 369.66,-516"/>
<polygon fill="#000000" fill-opacity="0.200000" stroke="#000000" stroke-width="2" stroke-opacity="0.200000" points="369.56,-518.1 375.56,-516 369.56,-513.9 369.56,-518.1"/>
</g>
<!-- src/js/connection/socket.js -->
<g id="node19" class="node">
<title>src/js/connection/socket.js</title>
<g id="a_node19"><a xlink:href="src/js/connection/socket.js" xlink:title="socket.js">
<path fill="#ffffcc" stroke="black" d="M426.46,-494.62C426.46,-494.62 385.29,-494.62 385.29,-494.62 382.08,-494.62 378.88,-491.42 378.88,-488.21 378.88,-488.21 378.88,-481.79 378.88,-481.79 378.88,-478.58 382.08,-475.38 385.29,-475.38 385.29,-475.38 426.46,-475.38 426.46,-475.38 429.67,-475.38 432.88,-478.58 432.88,-481.79 432.88,-481.79 432.88,-488.21 432.88,-488.21 432.88,-491.42 429.67,-494.62 426.46,-494.62"/>
<text text-anchor="start" x="387.5" y="-482.07" font-family="Helvetica,sans-Serif" font-size="9.00">socket.js</text>
</a>
</g>
</g>
<!-- src/js/connection/connection_chooser.js&#45;&gt;src/js/connection/socket.js -->
<g id="edge20" class="edge">
<title>src/js/connection/connection_chooser.js&#45;&gt;src/js/connection/socket.js</title>
<path fill="none" stroke="#000000" stroke-width="2" stroke-dasharray="5,2" stroke-opacity="0.200000" d="M328.9,-505.94C342.04,-502.32 356.82,-498.24 369.82,-494.66"/>
<polygon fill="#000000" fill-opacity="0.200000" stroke="#000000" stroke-width="2" stroke-opacity="0.200000" points="370.36,-496.69 375.59,-493.07 369.24,-492.64 370.36,-496.69"/>
</g>
<!-- src/js/connection/server.js&#45;&gt;src/js/utils/handlers.js -->
<g id="edge21" class="edge">
<title>src/js/connection/server.js&#45;&gt;src/js/utils/handlers.js</title>
<path fill="none" stroke="#000000" stroke-width="2" stroke-opacity="0.200000" d="M433.18,-515.65C467.32,-515.42 528.71,-515.75 581,-520 591.42,-520.85 602.64,-522.21 613.02,-523.65"/>
<polygon fill="#000000" fill-opacity="0.200000" stroke="#000000" stroke-width="2" stroke-opacity="0.200000" points="612.66,-525.72 618.9,-524.5 613.26,-521.56 612.66,-525.72"/>
</g>
<!-- src/js/connection/server.js&#45;&gt;src/js/connection/common.js -->
<g id="edge22" class="edge">
<title>src/js/connection/server.js&#45;&gt;src/js/connection/common.js</title>
<path fill="none" stroke="#000000" stroke-width="2" stroke-opacity="0.200000" d="M433.37,-522.88C449.19,-526.99 469.57,-532.28 487.21,-536.86"/>
<polygon fill="#000000" fill-opacity="0.200000" stroke="#000000" stroke-width="2" stroke-opacity="0.200000" points="486.35,-538.81 492.68,-538.28 487.41,-534.74 486.35,-538.81"/>
</g>
<!-- src/js/connection/socket.js&#45;&gt;src/js/utils/handlers.js -->
<g id="edge23" class="edge">
<title>src/js/connection/socket.js&#45;&gt;src/js/utils/handlers.js</title>
<path fill="none" stroke="#000000" stroke-width="2" stroke-opacity="0.200000" d="M433.27,-488.31C467.5,-492.79 528.99,-501.43 581,-512 584.48,-512.71 598.4,-516.2 613.04,-519.92"/>
<polygon fill="#000000" fill-opacity="0.200000" stroke="#000000" stroke-width="2" stroke-opacity="0.200000" points="612.4,-521.92 618.73,-521.37 613.43,-517.85 612.4,-521.92"/>
</g>
<!-- src/js/connection/socket.js&#45;&gt;src/js/connection/common.js -->
<g id="edge24" class="edge">
<title>src/js/connection/socket.js&#45;&gt;src/js/connection/common.js</title>
<path fill="none" stroke="#000000" stroke-width="2" stroke-opacity="0.200000" d="M433.21,-491.12C441.2,-493.42 449.88,-496.38 457.5,-500 475.57,-508.59 494.19,-521.63 507.49,-531.79"/>
<polygon fill="#000000" fill-opacity="0.200000" stroke="#000000" stroke-width="2" stroke-opacity="0.200000" points="505.88,-533.2 511.9,-535.24 508.46,-529.89 505.88,-533.2"/>
</g>
<!-- src/js/connection/fake.js -->
<g id="node20" class="node">
<title>src/js/connection/fake.js</title>
<g id="a_node20"><a xlink:href="src/js/connection/fake.js" xlink:title="fake.js">
<path fill="#ccffcc" stroke="black" d="M311.96,-556.62C311.96,-556.62 270.79,-556.62 270.79,-556.62 267.58,-556.62 264.38,-553.42 264.38,-550.21 264.38,-550.21 264.38,-543.79 264.38,-543.79 264.38,-540.58 267.58,-537.38 270.79,-537.38 270.79,-537.38 311.96,-537.38 311.96,-537.38 315.17,-537.38 318.38,-540.58 318.38,-543.79 318.38,-543.79 318.38,-550.21 318.38,-550.21 318.38,-553.42 315.17,-556.62 311.96,-556.62"/>
<text text-anchor="start" x="277.88" y="-544.08" font-family="Helvetica,sans-Serif" font-size="9.00">fake.js</text>
</a>
</g>
</g>
<!-- src/js/game.js&#45;&gt;src/js/utils/assert.js -->
<g id="edge27" class="edge">
<title>src/js/game.js&#45;&gt;src/js/utils/assert.js</title>
<path fill="none" stroke="#000000" stroke-width="2" stroke-opacity="0.200000" d="M189.68,-282.19C196.28,-268.62 209.94,-244.19 228.5,-230 293.73,-180.13 322.76,-175 404.88,-175 404.88,-175 404.88,-175 528.25,-175 573.1,-175 697.61,-188.3 720.75,-213 752.73,-247.14 755.14,-396.13 754.96,-449.17"/>
<polygon fill="#000000" fill-opacity="0.200000" stroke="#000000" stroke-width="2" stroke-opacity="0.200000" points="752.86,-448.86 754.92,-454.88 757.06,-448.89 752.86,-448.86"/>
</g>
<!-- src/js/uno&#45;game.js -->
<g id="node22" class="node">
<title>src/js/uno&#45;game.js</title>
<g id="a_node22"><a xlink:href="src/js/uno-game.js" xlink:title="uno&#45;game.js">
<path fill="#ffffcc" stroke="black" d="M319.21,-255.62C319.21,-255.62 263.54,-255.62 263.54,-255.62 260.33,-255.62 257.12,-252.42 257.12,-249.21 257.12,-249.21 257.12,-242.79 257.12,-242.79 257.12,-239.58 260.33,-236.38 263.54,-236.38 263.54,-236.38 319.21,-236.38 319.21,-236.38 322.42,-236.38 325.62,-239.58 325.62,-242.79 325.62,-242.79 325.62,-249.21 325.62,-249.21 325.62,-252.42 322.42,-255.62 319.21,-255.62"/>
<text text-anchor="start" x="265.12" y="-243.07" font-family="Helvetica,sans-Serif" font-size="9.00">uno&#45;game.js</text>
</a>
</g>
</g>
<!-- src/js/game.js&#45;&gt;src/js/uno&#45;game.js -->
<g id="edge25" class="edge">
<title>src/js/game.js&#45;&gt;src/js/uno&#45;game.js</title>
<path fill="none" stroke="#000000" stroke-width="2" stroke-opacity="0.200000" d="M208.32,-281.91C223.25,-275.37 242.86,-266.79 259.17,-259.65"/>
<polygon fill="#000000" fill-opacity="0.200000" stroke="#000000" stroke-width="2" stroke-opacity="0.200000" points="259.93,-261.61 264.59,-257.28 258.25,-257.77 259.93,-261.61"/>
</g>
<!-- src/js/uno/default&#45;engine.js -->
<g id="node23" class="node">
<title>src/js/uno/default&#45;engine.js</title>
<g id="a_node23"><a xlink:href="src/js/uno/default-engine.js" xlink:title="default&#45;engine.js">
<path fill="#ffffcc" stroke="black" d="M563.33,-61.62C563.33,-61.62 491.17,-61.62 491.17,-61.62 487.96,-61.62 484.75,-58.42 484.75,-55.21 484.75,-55.21 484.75,-48.79 484.75,-48.79 484.75,-45.58 487.96,-42.38 491.17,-42.38 491.17,-42.38 563.33,-42.38 563.33,-42.38 566.54,-42.38 569.75,-45.58 569.75,-48.79 569.75,-48.79 569.75,-55.21 569.75,-55.21 569.75,-58.42 566.54,-61.62 563.33,-61.62"/>
<text text-anchor="start" x="492.75" y="-49.08" font-family="Helvetica,sans-Serif" font-size="9.00">default&#45;engine.js</text>
</a>
</g>
</g>
<!-- src/js/game.js&#45;&gt;src/js/uno/default&#45;engine.js -->
<g id="edge26" class="edge">
<title>src/js/game.js&#45;&gt;src/js/uno/default&#45;engine.js</title>
<path fill="none" stroke="#000000" stroke-width="2" stroke-opacity="0.200000" d="M186.23,-281.89C188.93,-259.25 198.38,-203.92 228.5,-171 294.4,-98.97 409.75,-69.78 475.86,-58.54"/>
<polygon fill="#000000" fill-opacity="0.200000" stroke="#000000" stroke-width="2" stroke-opacity="0.200000" points="475.89,-60.66 481.47,-57.62 475.21,-56.52 475.89,-60.66"/>
</g>
<!-- src/js/views/logger.js -->
<g id="node24" class="node">
<title>src/js/views/logger.js</title>
<g id="a_node24"><a xlink:href="src/js/views/logger.js" xlink:title="logger.js">
<path fill="#ffffcc" stroke="black" d="M426.46,-394.62C426.46,-394.62 385.29,-394.62 385.29,-394.62 382.08,-394.62 378.88,-391.42 378.88,-388.21 378.88,-388.21 378.88,-381.79 378.88,-381.79 378.88,-378.58 382.08,-375.38 385.29,-375.38 385.29,-375.38 426.46,-375.38 426.46,-375.38 429.67,-375.38 432.88,-378.58 432.88,-381.79 432.88,-381.79 432.88,-388.21 432.88,-388.21 432.88,-391.42 429.67,-394.62 426.46,-394.62"/>
<text text-anchor="start" x="387.88" y="-382.07" font-family="Helvetica,sans-Serif" font-size="9.00">logger.js</text>
</a>
</g>
</g>
<!-- src/js/game.js&#45;&gt;src/js/views/logger.js -->
<g id="edge28" class="edge">
<title>src/js/game.js&#45;&gt;src/js/views/logger.js</title>
<path fill="none" stroke="#000000" stroke-width="2" stroke-opacity="0.200000" d="M196.27,-302.11C204.61,-309.31 216.62,-318.78 228.5,-325 277.23,-350.49 298.41,-335.89 346.25,-363 350.36,-365.33 350.11,-367.72 354.25,-370 359.15,-372.7 364.59,-374.96 370.04,-376.85"/>
<polygon fill="#000000" fill-opacity="0.200000" stroke="#000000" stroke-width="2" stroke-opacity="0.200000" points="369.28,-378.81 375.63,-378.6 370.53,-374.8 369.28,-378.81"/>
</g>
<!-- src/js/views/names.js -->
<g id="node25" class="node">
<title>src/js/views/names.js</title>
<g id="a_node25"><a xlink:href="src/js/views/names.js" xlink:title="names.js">
<path fill="#ffffcc" stroke="black" d="M426.96,-363.62C426.96,-363.62 384.79,-363.62 384.79,-363.62 381.58,-363.62 378.38,-360.42 378.38,-357.21 378.38,-357.21 378.38,-350.79 378.38,-350.79 378.38,-347.58 381.58,-344.38 384.79,-344.38 384.79,-344.38 426.96,-344.38 426.96,-344.38 430.17,-344.38 433.38,-347.58 433.38,-350.79 433.38,-350.79 433.38,-357.21 433.38,-357.21 433.38,-360.42 430.17,-363.62 426.96,-363.62"/>
<text text-anchor="start" x="386.38" y="-351.07" font-family="Helvetica,sans-Serif" font-size="9.00">names.js</text>
</a>
</g>
</g>
<!-- src/js/game.js&#45;&gt;src/js/views/names.js -->
<g id="edge29" class="edge">
<title>src/js/game.js&#45;&gt;src/js/views/names.js</title>
<path fill="none" stroke="#000000" stroke-width="2" stroke-opacity="0.200000" d="M211.74,-299.48C251.13,-310.6 325.2,-331.51 369.28,-343.95"/>
<polygon fill="#000000" fill-opacity="0.200000" stroke="#000000" stroke-width="2" stroke-opacity="0.200000" points="368.69,-345.97 375.03,-345.58 369.83,-341.92 368.69,-345.97"/>
</g>
<!-- src/js/views/places.js -->
<g id="node26" class="node">
<title>src/js/views/places.js</title>
<g id="a_node26"><a xlink:href="src/js/views/places.js" xlink:title="places.js">
<path fill="#ffffcc" stroke="black" d="M426.46,-301.62C426.46,-301.62 385.29,-301.62 385.29,-301.62 382.08,-301.62 378.88,-298.42 378.88,-295.21 378.88,-295.21 378.88,-288.79 378.88,-288.79 378.88,-285.58 382.08,-282.38 385.29,-282.38 385.29,-282.38 426.46,-282.38 426.46,-282.38 429.67,-282.38 432.88,-285.58 432.88,-288.79 432.88,-288.79 432.88,-295.21 432.88,-295.21 432.88,-298.42 429.67,-301.62 426.46,-301.62"/>
<text text-anchor="start" x="387.12" y="-289.07" font-family="Helvetica,sans-Serif" font-size="9.00">places.js</text>
</a>
</g>
</g>
<!-- src/js/game.js&#45;&gt;src/js/views/places.js -->
<g id="edge30" class="edge">
<title>src/js/game.js&#45;&gt;src/js/views/places.js</title>
<path fill="none" stroke="#000000" stroke-width="2" stroke-opacity="0.200000" d="M211.74,-292C251.26,-292 325.7,-292 369.72,-292"/>
<polygon fill="#000000" fill-opacity="0.200000" stroke="#000000" stroke-width="2" stroke-opacity="0.200000" points="369.6,-294.1 375.6,-292 369.6,-289.9 369.6,-294.1"/>
</g>
<!-- src/js/uno&#45;game.js&#45;&gt;src/js/utils/timer.js -->
<g id="edge62" class="edge">
<title>src/js/uno&#45;game.js&#45;&gt;src/js/utils/timer.js</title>
<path fill="none" stroke="#000000" stroke-width="2" stroke-opacity="0.200000" d="M304.25,-236.2C316.09,-227.12 335.19,-214.26 354.25,-209 403.81,-195.31 550.48,-213.62 581,-255 611.25,-296.02 561.63,-444.62 594,-484 599.78,-491.03 608.37,-495.02 617.2,-497.21"/>
<polygon fill="#000000" fill-opacity="0.200000" stroke="#000000" stroke-width="2" stroke-opacity="0.200000" points="616.75,-499.27 623.03,-498.31 617.52,-495.14 616.75,-499.27"/>
</g>
<!-- src/js/uno&#45;game.js&#45;&gt;src/js/bot/setup_bot.js -->
<g id="edge59" class="edge">
<title>src/js/uno&#45;game.js&#45;&gt;src/js/bot/setup_bot.js</title>
<path fill="none" stroke="#000000" stroke-width="2" stroke-opacity="0.200000" d="M283.55,-256.11C268.53,-276.23 236.12,-323.3 224.5,-369 220.89,-383.21 220.25,-618.96 224.5,-633 228.44,-646 239.23,-655.37 251.03,-661.96"/>
<polygon fill="#000000" fill-opacity="0.200000" stroke="#000000" stroke-width="2" stroke-opacity="0.200000" points="249.86,-663.72 256.17,-664.55 251.75,-659.97 249.86,-663.72"/>
</g>
<!-- src/js/uno&#45;game.js&#45;&gt;src/js/utils/assert.js -->
<g id="edge61" class="edge">
<title>src/js/uno&#45;game.js&#45;&gt;src/js/utils/assert.js</title>
<path fill="none" stroke="#000000" stroke-width="2" stroke-opacity="0.200000" d="M301.76,-236.15C313.01,-225.12 333.03,-207.9 354.25,-201 402.19,-185.41 537.16,-182.13 581,-207 679.3,-262.76 732.44,-399.75 749.01,-449.53"/>
<polygon fill="#000000" fill-opacity="0.200000" stroke="#000000" stroke-width="2" stroke-opacity="0.200000" points="746.98,-450.09 750.83,-455.15 750.98,-448.79 746.98,-450.09"/>
</g>
<!-- src/js/uno&#45;game.js&#45;&gt;src/js/views/logger.js -->
<g id="edge65" class="edge">
<title>src/js/uno&#45;game.js&#45;&gt;src/js/views/logger.js</title>
<path fill="none" stroke="#000000" stroke-width="2" stroke-opacity="0.200000" d="M298.97,-256.1C309.99,-273.34 332.3,-309.79 346.25,-343 351.1,-354.54 345.4,-361.15 354.25,-370 358.61,-374.36 364.16,-377.46 369.99,-379.66"/>
<polygon fill="#000000" fill-opacity="0.200000" stroke="#000000" stroke-width="2" stroke-opacity="0.200000" points="369.36,-381.67 375.72,-381.41 370.59,-377.65 369.36,-381.67"/>
</g>
<!-- src/js/uno/engine.js -->
<g id="node37" class="node">
<title>src/js/uno/engine.js</title>
<g id="a_node37"><a xlink:href="src/js/uno/engine.js" xlink:title="engine.js">
<path fill="#ffffcc" stroke="black" d="M426.58,-138.62C426.58,-138.62 385.17,-138.62 385.17,-138.62 381.96,-138.62 378.75,-135.42 378.75,-132.21 378.75,-132.21 378.75,-125.79 378.75,-125.79 378.75,-122.58 381.96,-119.38 385.17,-119.38 385.17,-119.38 426.58,-119.38 426.58,-119.38 429.79,-119.38 433,-122.58 433,-125.79 433,-125.79 433,-132.21 433,-132.21 433,-135.42 429.79,-138.62 426.58,-138.62"/>
<text text-anchor="start" x="386.75" y="-126.08" font-family="Helvetica,sans-Serif" font-size="9.00">engine.js</text>
</a>
</g>
</g>
<!-- src/js/uno&#45;game.js&#45;&gt;src/js/uno/engine.js -->
<g id="edge60" class="edge">
<title>src/js/uno&#45;game.js&#45;&gt;src/js/uno/engine.js</title>
<path fill="none" stroke="#000000" stroke-width="2" stroke-opacity="0.200000" d="M295.51,-236.07C302.53,-215.46 321.53,-167.86 354.25,-143 358.93,-139.44 364.47,-136.79 370.13,-134.81"/>
<polygon fill="#000000" fill-opacity="0.200000" stroke="#000000" stroke-width="2" stroke-opacity="0.200000" points="370.37,-136.93 375.53,-133.22 369.18,-132.9 370.37,-136.93"/>
</g>
<!-- src/js/views/choose_color.js -->
<g id="node38" class="node">
<title>src/js/views/choose_color.js</title>
<g id="a_node38"><a xlink:href="src/js/views/choose_color.js" xlink:title="choose_color.js">
<path fill="#ffffcc" stroke="black" d="M440.46,-239.62C440.46,-239.62 371.29,-239.62 371.29,-239.62 368.08,-239.62 364.88,-236.42 364.88,-233.21 364.88,-233.21 364.88,-226.79 364.88,-226.79 364.88,-223.58 368.08,-220.38 371.29,-220.38 371.29,-220.38 440.46,-220.38 440.46,-220.38 443.67,-220.38 446.88,-223.58 446.88,-226.79 446.88,-226.79 446.88,-233.21 446.88,-233.21 446.88,-236.42 443.67,-239.62 440.46,-239.62"/>
<text text-anchor="start" x="372.88" y="-227.07" font-family="Helvetica,sans-Serif" font-size="9.00">choose_color.js</text>
</a>
</g>
</g>
<!-- src/js/uno&#45;game.js&#45;&gt;src/js/views/choose_color.js -->
<g id="edge63" class="edge">
<title>src/js/uno&#45;game.js&#45;&gt;src/js/views/choose_color.js</title>
<path fill="none" stroke="#000000" stroke-width="2" stroke-opacity="0.200000" d="M325.82,-241.24C335.24,-239.9 345.69,-238.42 355.81,-236.98"/>
<polygon fill="#000000" fill-opacity="0.200000" stroke="#000000" stroke-width="2" stroke-opacity="0.200000" points="355.96,-239.08 361.6,-236.15 355.37,-234.92 355.96,-239.08"/>
</g>
<!-- src/js/views/layout.js -->
<g id="node39" class="node">
<title>src/js/views/layout.js</title>
<g id="a_node39"><a xlink:href="src/js/views/layout.js" xlink:title="layout.js">
<path fill="#ffffcc" stroke="black" d="M426.46,-270.62C426.46,-270.62 385.29,-270.62 385.29,-270.62 382.08,-270.62 378.88,-267.42 378.88,-264.21 378.88,-264.21 378.88,-257.79 378.88,-257.79 378.88,-254.58 382.08,-251.38 385.29,-251.38 385.29,-251.38 426.46,-251.38 426.46,-251.38 429.67,-251.38 432.88,-254.58 432.88,-257.79 432.88,-257.79 432.88,-264.21 432.88,-264.21 432.88,-267.42 429.67,-270.62 426.46,-270.62"/>
<text text-anchor="start" x="389" y="-258.07" font-family="Helvetica,sans-Serif" font-size="9.00">layout.js</text>
</a>
</g>
</g>
<!-- src/js/uno&#45;game.js&#45;&gt;src/js/views/layout.js -->
<g id="edge64" class="edge">
<title>src/js/uno&#45;game.js&#45;&gt;src/js/views/layout.js</title>
<path fill="none" stroke="#000000" stroke-width="2" stroke-opacity="0.200000" d="M325.82,-250.46C339.64,-252.3 355.66,-254.44 369.65,-256.3"/>
<polygon fill="#000000" fill-opacity="0.200000" stroke="#000000" stroke-width="2" stroke-opacity="0.200000" points="369.29,-258.37 375.51,-257.09 369.84,-254.21 369.29,-258.37"/>
</g>
<!-- src/js/uno/default&#45;engine.js&#45;&gt;src/js/uno/basic.js -->
<g id="edge67" class="edge">
<title>src/js/uno/default&#45;engine.js&#45;&gt;src/js/uno/basic.js</title>
<path fill="none" stroke="#000000" stroke-width="2" stroke-opacity="0.200000" d="M569,-62.09C573.45,-64.46 577.59,-67.39 581,-71 594.99,-85.83 579.21,-100.96 594,-115 600.34,-121.02 608.79,-124.6 617.29,-126.69"/>
<polygon fill="#000000" fill-opacity="0.200000" stroke="#000000" stroke-width="2" stroke-opacity="0.200000" points="616.81,-128.73 623.1,-127.8 617.6,-124.61 616.81,-128.73"/>
</g>
<!-- src/js/lib/qrcode.js -->
<g id="node28" class="node">
<title>src/js/lib/qrcode.js</title>
<g id="a_node28"><a xlink:href="src/js/lib/qrcode.js" xlink:title="qrcode.js">
<path fill="#ffffcc" stroke="black" d="M547.96,-332.62C547.96,-332.62 506.54,-332.62 506.54,-332.62 503.33,-332.62 500.12,-329.42 500.12,-326.21 500.12,-326.21 500.12,-319.79 500.12,-319.79 500.12,-316.58 503.33,-313.38 506.54,-313.38 506.54,-313.38 547.96,-313.38 547.96,-313.38 551.17,-313.38 554.38,-316.58 554.38,-319.79 554.38,-319.79 554.38,-326.21 554.38,-326.21 554.38,-329.42 551.17,-332.62 547.96,-332.62"/>
<text text-anchor="start" x="508.12" y="-320.07" font-family="Helvetica,sans-Serif" font-size="9.00">qrcode.js</text>
</a>
</g>
</g>
<!-- src/js/mode/ai.js&#45;&gt;src/js/utils/random.js -->
<g id="edge32" class="edge">
<title>src/js/mode/ai.js&#45;&gt;src/js/utils/random.js</title>
<path fill="none" stroke="#000000" stroke-width="2" stroke-opacity="0.200000" d="M211.49,-650.24C289.35,-653.47 517.59,-659.59 581,-624 589.29,-619.34 586.07,-612.25 594,-607 600.4,-602.77 607.92,-599.73 615.39,-597.54"/>
<polygon fill="#000000" fill-opacity="0.200000" stroke="#000000" stroke-width="2" stroke-opacity="0.200000" points="615.84,-599.6 621.14,-596.1 614.81,-595.53 615.84,-599.6"/>
</g>
<!-- src/js/mode/ai.js&#45;&gt;src/js/views/logger.js -->
<g id="edge33" class="edge">
<title>src/js/mode/ai.js&#45;&gt;src/js/views/logger.js</title>
<path fill="none" stroke="#000000" stroke-width="2" stroke-opacity="0.200000" d="M211.59,-641.85C215.07,-639.84 218.22,-637.28 220.5,-634 231.3,-618.48 215.96,-478.16 228.5,-464 263.69,-424.26 308.5,-481.32 346.25,-444 360.39,-430.03 340.98,-414.79 354.25,-400 358.5,-395.26 364.17,-391.99 370.18,-389.74"/>
<polygon fill="#000000" fill-opacity="0.200000" stroke="#000000" stroke-width="2" stroke-opacity="0.200000" points="370.43,-391.86 375.57,-388.13 369.22,-387.83 370.43,-391.86"/>
</g>
<!-- src/js/utils/async&#45;queue.js -->
<g id="node30" class="node">
<title>src/js/utils/async&#45;queue.js</title>
<g id="a_node30"><a xlink:href="src/js/utils/async-queue.js" xlink:title="async&#45;queue.js">
<path fill="#ffffcc" stroke="black" d="M686.46,-570.62C686.46,-570.62 620.29,-570.62 620.29,-570.62 617.08,-570.62 613.88,-567.42 613.88,-564.21 613.88,-564.21 613.88,-557.79 613.88,-557.79 613.88,-554.58 617.08,-551.38 620.29,-551.38 620.29,-551.38 686.46,-551.38 686.46,-551.38 689.67,-551.38 692.88,-554.58 692.88,-557.79 692.88,-557.79 692.88,-564.21 692.88,-564.21 692.88,-567.42 689.67,-570.62 686.46,-570.62"/>
<text text-anchor="start" x="621.88" y="-558.08" font-family="Helvetica,sans-Serif" font-size="9.00">async&#45;queue.js</text>
</a>
</g>
</g>
<!-- src/js/mode/ai.js&#45;&gt;src/js/utils/async&#45;queue.js -->
<g id="edge31" class="edge">
<title>src/js/mode/ai.js&#45;&gt;src/js/utils/async&#45;queue.js</title>
<path fill="none" stroke="#000000" stroke-width="2" stroke-opacity="0.200000" d="M211.64,-656.57C215.03,-658.52 218.13,-660.95 220.5,-664 234.85,-682.46 210.75,-700.77 228.5,-716 258.23,-741.5 552.05,-742.38 581,-716 604.09,-694.95 573.73,-599.78 594,-576 597.14,-572.32 601.05,-569.48 605.35,-567.29"/>
<polygon fill="#000000" fill-opacity="0.200000" stroke="#000000" stroke-width="2" stroke-opacity="0.200000" points="605.85,-569.36 610.62,-565.16 604.27,-565.46 605.85,-569.36"/>
</g>
<!-- src/js/mode/hotseat.js&#45;&gt;src/js/utils/random.js -->
<g id="edge34" class="edge">
<title>src/js/mode/hotseat.js&#45;&gt;src/js/utils/random.js</title>
<path fill="none" stroke="#000000" stroke-width="2" stroke-opacity="0.200000" d="M212.62,-623.11C217.88,-623.9 223.34,-624.59 228.5,-625 384.79,-637.57 427.51,-643.02 581,-611 586.92,-609.77 588.18,-608.64 594,-607 601.02,-605.02 608.55,-603 615.78,-601.12"/>
<polygon fill="#000000" fill-opacity="0.200000" stroke="#000000" stroke-width="2" stroke-opacity="0.200000" points="615.88,-603.27 621.16,-599.74 614.83,-599.2 615.88,-603.27"/>
</g>
<!-- src/js/mode/net.js&#45;&gt;src/js/actions/actions_uno_client.js -->
<g id="edge35" class="edge">
<title>src/js/mode/net.js&#45;&gt;src/js/actions/actions_uno_client.js</title>
<path fill="none" stroke="#000000" stroke-width="2" stroke-opacity="0.200000" d="M211.57,-594.17C215.05,-596.17 218.21,-598.73 220.5,-602 238.91,-628.23 207.21,-722.04 228.5,-746 287.21,-812.06 397.93,-811.88 466.56,-804.08"/>
<polygon fill="#000000" fill-opacity="0.200000" stroke="#000000" stroke-width="2" stroke-opacity="0.200000" points="466.42,-806.22 472.12,-803.41 465.91,-802.05 466.42,-806.22"/>
</g>
<!-- src/js/mode/net.js&#45;&gt;src/js/actions/actions_uno_server.js -->
<g id="edge36" class="edge">
<title>src/js/mode/net.js&#45;&gt;src/js/actions/actions_uno_server.js</title>
<path fill="none" stroke="#000000" stroke-width="2" stroke-opacity="0.200000" d="M211.54,-594.19C215.03,-596.19 218.19,-598.74 220.5,-602 236.46,-624.53 209.56,-705.91 228.5,-726 259.68,-759.08 386.73,-764.25 464.44,-764.19"/>
<polygon fill="#000000" fill-opacity="0.200000" stroke="#000000" stroke-width="2" stroke-opacity="0.200000" points="464.18,-766.3 470.17,-764.18 464.16,-762.1 464.18,-766.3"/>
</g>
<!-- src/js/mode/net.js&#45;&gt;src/js/connection/common.js -->
<g id="edge37" class="edge">
<title>src/js/mode/net.js&#45;&gt;src/js/connection/common.js</title>
<path fill="none" stroke="#000000" stroke-width="2" stroke-opacity="0.200000" d="M211.44,-587.61C260.3,-588.26 368.49,-587.36 457.5,-570 469.41,-567.68 482.1,-563.84 493.3,-559.96"/>
<polygon fill="#000000" fill-opacity="0.200000" stroke="#000000" stroke-width="2" stroke-opacity="0.200000" points="493.74,-562.03 498.68,-558.03 492.32,-558.08 493.74,-562.03"/>
</g>
<!-- src/js/mode/net.js&#45;&gt;src/js/connection/connection_chooser.js -->
<g id="edge38" class="edge">
<title>src/js/mode/net.js&#45;&gt;src/js/connection/connection_chooser.js</title>
<path fill="none" stroke="#000000" stroke-width="2" stroke-opacity="0.200000" d="M211.54,-579.34C214.94,-577.41 218.07,-575 220.5,-572 232.18,-557.57 215.67,-544.42 228.5,-531 228.79,-530.7 229.08,-530.41 229.37,-530.12"/>
<polygon fill="#000000" fill-opacity="0.200000" stroke="#000000" stroke-width="2" stroke-opacity="0.200000" points="230.36,-532.01 233.81,-526.68 227.78,-528.69 230.36,-532.01"/>
</g>
<!-- src/js/mode/net.js&#45;&gt;src/js/views/logger.js -->
<g id="edge40" class="edge">
<title>src/js/mode/net.js&#45;&gt;src/js/views/logger.js</title>
<path fill="none" stroke="#000000" stroke-width="2" stroke-opacity="0.200000" d="M211.53,-579.8C215.02,-577.8 218.19,-575.25 220.5,-572 235.73,-550.58 211.44,-473.99 228.5,-454 263.36,-413.16 307.11,-463.76 346.25,-427 355.37,-418.43 345.4,-408.85 354.25,-400 358.61,-395.64 364.16,-392.54 369.99,-390.34"/>
<polygon fill="#000000" fill-opacity="0.200000" stroke="#000000" stroke-width="2" stroke-opacity="0.200000" points="370.59,-392.35 375.72,-388.59 369.36,-388.33 370.59,-392.35"/>
</g>
<!-- src/js/mode/net.js&#45;&gt;src/js/views/names.js -->
<g id="edge41" class="edge">
<title>src/js/mode/net.js&#45;&gt;src/js/views/names.js</title>
<path fill="none" stroke="#000000" stroke-width="2" stroke-opacity="0.200000" d="M211.57,-579.83C215.06,-577.83 218.21,-575.27 220.5,-572 239.4,-545.03 206.38,-448.4 228.5,-424 264.06,-384.78 307.69,-442.27 346.25,-406 358.51,-394.47 342.81,-381.34 354.25,-369 358.4,-364.53 363.81,-361.37 369.54,-359.14"/>
<polygon fill="#000000" fill-opacity="0.200000" stroke="#000000" stroke-width="2" stroke-opacity="0.200000" points="370.07,-361.18 375.18,-357.39 368.83,-357.16 370.07,-361.18"/>
</g>
<!-- src/js/mode/net.js&#45;&gt;src/js/utils/async&#45;queue.js -->
<g id="edge39" class="edge">
<title>src/js/mode/net.js&#45;&gt;src/js/utils/async&#45;queue.js</title>
<path fill="none" stroke="#000000" stroke-width="2" stroke-opacity="0.200000" d="M211.68,-589.11C295.04,-595.55 548.76,-613.5 581,-596 590.32,-590.94 585.39,-582.19 594,-576 597.43,-573.54 601.23,-571.47 605.2,-569.75"/>
<polygon fill="#000000" fill-opacity="0.200000" stroke="#000000" stroke-width="2" stroke-opacity="0.200000" points="605.78,-571.78 610.68,-567.72 604.32,-567.84 605.78,-571.78"/>
</g>
<!-- src/js/mode/server.js&#45;&gt;src/js/actions/actions_uno_client.js -->
<g id="edge42" class="edge">
<title>src/js/mode/server.js&#45;&gt;src/js/actions/actions_uno_client.js</title>
<path fill="none" stroke="#000000" stroke-width="2" stroke-opacity="0.200000" d="M211.58,-563.16C215.06,-565.17 218.21,-567.73 220.5,-571 230.5,-585.32 216.63,-715.19 228.5,-728 246.43,-747.35 320.65,-736.66 346.25,-743 349.94,-743.91 350.65,-744.79 354.25,-746 403.15,-762.4 415.73,-765.48 465.5,-779 468.83,-779.9 472.26,-780.81 475.72,-781.71"/>
<polygon fill="#000000" fill-opacity="0.200000" stroke="#000000" stroke-width="2" stroke-opacity="0.200000" points="475.09,-783.72 481.42,-783.17 476.13,-779.65 475.09,-783.72"/>
</g>
<!-- src/js/mode/server.js&#45;&gt;src/js/actions/actions_uno_server.js -->
<g id="edge43" class="edge">
<title>src/js/mode/server.js&#45;&gt;src/js/actions/actions_uno_server.js</title>
<path fill="none" stroke="#000000" stroke-width="2" stroke-opacity="0.200000" d="M211.57,-563.17C215.05,-565.17 218.21,-567.73 220.5,-571 239.03,-597.42 206.61,-692.29 228.5,-716 246.41,-735.4 320.15,-727.98 346.25,-732 385.69,-738.07 429.85,-745.67 464.55,-751.82"/>
<polygon fill="#000000" fill-opacity="0.200000" stroke="#000000" stroke-width="2" stroke-opacity="0.200000" points="463.91,-753.84 470.19,-752.82 464.65,-749.7 463.91,-753.84"/>
</g>
<!-- src/js/mode/server.js&#45;&gt;src/js/connection/common.js -->
<g id="edge44" class="edge">
<title>src/js/mode/server.js&#45;&gt;src/js/connection/common.js</title>
<path fill="none" stroke="#000000" stroke-width="2" stroke-opacity="0.200000" d="M211.7,-560.97C217.23,-561.82 223.04,-562.56 228.5,-563 329.95,-571.16 356.39,-574.61 457.5,-563 467.19,-561.89 477.51,-559.92 487.12,-557.73"/>
<polygon fill="#000000" fill-opacity="0.200000" stroke="#000000" stroke-width="2" stroke-opacity="0.200000" points="487.42,-559.82 492.77,-556.39 486.44,-555.74 487.42,-559.82"/>
</g>
<!-- src/js/mode/server.js&#45;&gt;src/js/connection/connection_chooser.js -->
<g id="edge45" class="edge">
<title>src/js/mode/server.js&#45;&gt;src/js/connection/connection_chooser.js</title>
<path fill="none" stroke="#000000" stroke-width="2" stroke-opacity="0.200000" d="M211.57,-547.5C214.73,-545.92 217.8,-544.1 220.5,-542 225.28,-538.29 223.48,-534.36 228.5,-531 228.84,-530.77 229.19,-530.54 229.54,-530.32"/>
<polygon fill="#000000" fill-opacity="0.200000" stroke="#000000" stroke-width="2" stroke-opacity="0.200000" points="230.36,-532.27 234.63,-527.56 228.36,-528.57 230.36,-532.27"/>
</g>
<!-- src/js/mode/server.js&#45;&gt;src/js/views/logger.js -->
<g id="edge48" class="edge">
<title>src/js/mode/server.js&#45;&gt;src/js/views/logger.js</title>
<path fill="none" stroke="#000000" stroke-width="2" stroke-opacity="0.200000" d="M211.47,-549.54C214.97,-547.64 218.15,-545.18 220.5,-542 234,-523.7 214.13,-457.62 228.5,-440 262.92,-397.78 297.5,-430.29 346.25,-406 350.23,-404.02 350.28,-402 354.25,-400 359.19,-397.51 364.62,-395.37 370.03,-393.54"/>
<polygon fill="#000000" fill-opacity="0.200000" stroke="#000000" stroke-width="2" stroke-opacity="0.200000" points="370.45,-395.61 375.55,-391.82 369.2,-391.6 370.45,-395.61"/>
</g>
<!-- src/js/mode/server.js&#45;&gt;src/js/helper.js -->
<g id="edge46" class="edge">
<title>src/js/mode/server.js&#45;&gt;src/js/helper.js</title>
<path fill="none" stroke="#000000" stroke-width="2" stroke-opacity="0.200000" d="M211.54,-549.58C215.03,-547.68 218.19,-545.21 220.5,-542 239.23,-515.99 208.74,-423.24 228.5,-398 234.98,-389.72 244.99,-384.95 255.09,-382.24"/>
<polygon fill="#000000" fill-opacity="0.200000" stroke="#000000" stroke-width="2" stroke-opacity="0.200000" points="255.51,-384.3 260.94,-380.98 254.63,-380.19 255.51,-384.3"/>
</g>
<!-- src/js/mode/server.js&#45;&gt;src/js/utils/async&#45;queue.js -->
<g id="edge47" class="edge">
<title>src/js/mode/server.js&#45;&gt;src/js/utils/async&#45;queue.js</title>
<path fill="none" stroke="#000000" stroke-width="2" stroke-opacity="0.200000" d="M211.57,-564.68C214.8,-566.45 217.88,-568.54 220.5,-571 226.29,-576.45 221.74,-582.82 228.5,-587 261.82,-607.59 544.22,-600.47 581,-587 588.11,-584.4 587.28,-579.47 594,-576 597.49,-574.2 601.22,-572.6 605.03,-571.18"/>
<polygon fill="#000000" fill-opacity="0.200000" stroke="#000000" stroke-width="2" stroke-opacity="0.200000" points="605.57,-573.22 610.6,-569.33 604.24,-569.23 605.57,-573.22"/>
</g>
<!-- src/js/views/qr_helper.js -->
<g id="node34" class="node">
<title>src/js/views/qr_helper.js</title>
<g id="a_node34"><a xlink:href="src/js/views/qr_helper.js" xlink:title="qr_helper.js">
<path fill="#ffffcc" stroke="black" d="M432.21,-332.62C432.21,-332.62 379.54,-332.62 379.54,-332.62 376.33,-332.62 373.12,-329.42 373.12,-326.21 373.12,-326.21 373.12,-319.79 373.12,-319.79 373.12,-316.58 376.33,-313.38 379.54,-313.38 379.54,-313.38 432.21,-313.38 432.21,-313.38 435.42,-313.38 438.62,-316.58 438.62,-319.79 438.62,-319.79 438.62,-326.21 438.62,-326.21 438.62,-329.42 435.42,-332.62 432.21,-332.62"/>
<text text-anchor="start" x="381.12" y="-320.07" font-family="Helvetica,sans-Serif" font-size="9.00">qr_helper.js</text>
</a>
</g>
</g>
<!-- src/js/mode/server.js&#45;&gt;src/js/views/qr_helper.js -->
<g id="edge49" class="edge">
<title>src/js/mode/server.js&#45;&gt;src/js/views/qr_helper.js</title>
<path fill="none" stroke="#000000" stroke-width="2" stroke-opacity="0.200000" d="M211.53,-549.58C215.02,-547.67 218.19,-545.2 220.5,-542 238.11,-517.65 207.52,-428.52 228.5,-407 246.83,-388.2 327.22,-415.1 346.25,-397 365.42,-378.76 337.03,-358.09 354.25,-338 357.08,-334.69 360.61,-332.1 364.47,-330.06"/>
<polygon fill="#000000" fill-opacity="0.200000" stroke="#000000" stroke-width="2" stroke-opacity="0.200000" points="365.23,-332.02 369.96,-327.79 363.62,-328.15 365.23,-332.02"/>
</g>
<!-- src/js/views/qr_helper.js&#45;&gt;src/js/lib/qrcode.js -->
<g id="edge77" class="edge">
<title>src/js/views/qr_helper.js&#45;&gt;src/js/lib/qrcode.js</title>
<path fill="none" stroke="#000000" stroke-width="2" stroke-opacity="0.200000" d="M438.87,-323C454.95,-323 474.48,-323 490.99,-323"/>
<polygon fill="#000000" fill-opacity="0.200000" stroke="#000000" stroke-width="2" stroke-opacity="0.200000" points="490.79,-325.1 496.79,-323 490.79,-320.9 490.79,-325.1"/>
</g>
<!-- src/js/uno/engine.js&#45;&gt;src/js/uno/basic.js -->
<g id="edge69" class="edge">
<title>src/js/uno/engine.js&#45;&gt;src/js/uno/basic.js</title>
<path fill="none" stroke="#000000" stroke-width="2" stroke-opacity="0.200000" d="M433.29,-127.04C442.04,-125.12 451.16,-121.55 457.5,-115 468,-104.16 453.64,-91.33 465.5,-82 485.67,-66.13 559.78,-67.55 581,-82 594.03,-90.87 582.1,-104.66 594,-115 600.54,-120.68 608.99,-124.15 617.41,-126.24"/>
<polygon fill="#000000" fill-opacity="0.200000" stroke="#000000" stroke-width="2" stroke-opacity="0.200000" points="616.84,-128.27 623.14,-127.38 617.66,-124.15 616.84,-128.27"/>
</g>
<!-- src/js/uno/engine.js&#45;&gt;src/js/utils/handlers.js -->
<g id="edge68" class="edge">
<title>src/js/uno/engine.js&#45;&gt;src/js/utils/handlers.js</title>
<path fill="none" stroke="#000000" stroke-width="2" stroke-opacity="0.200000" d="M423.18,-139.07C459.36,-162.44 545.87,-224.35 581,-302 600.54,-345.21 563.81,-478.43 594,-515 598.88,-520.92 605.76,-524.67 613.08,-527.02"/>
<polygon fill="#000000" fill-opacity="0.200000" stroke="#000000" stroke-width="2" stroke-opacity="0.200000" points="612.53,-529.05 618.86,-528.45 613.54,-524.97 612.53,-529.05"/>
</g>
<!-- src/js/uno/deck.js -->
<g id="node40" class="node">
<title>src/js/uno/deck.js</title>
<g id="a_node40"><a xlink:href="src/js/uno/deck.js" xlink:title="deck.js">
<path fill="#ffffcc" stroke="black" d="M547.83,-138.62C547.83,-138.62 506.67,-138.62 506.67,-138.62 503.46,-138.62 500.25,-135.42 500.25,-132.21 500.25,-132.21 500.25,-125.79 500.25,-125.79 500.25,-122.58 503.46,-119.38 506.67,-119.38 506.67,-119.38 547.83,-119.38 547.83,-119.38 551.04,-119.38 554.25,-122.58 554.25,-125.79 554.25,-125.79 554.25,-132.21 554.25,-132.21 554.25,-135.42 551.04,-138.62 547.83,-138.62"/>
<text text-anchor="start" x="512.62" y="-126.08" font-family="Helvetica,sans-Serif" font-size="9.00">deck.js</text>
</a>
</g>
</g>
<!-- src/js/uno/engine.js&#45;&gt;src/js/uno/deck.js -->
<g id="edge70" class="edge">
<title>src/js/uno/engine.js&#45;&gt;src/js/uno/deck.js</title>
<path fill="none" stroke="#000000" stroke-width="2" stroke-opacity="0.200000" d="M433.37,-129C450.29,-129 472.43,-129 490.86,-129"/>
<polygon fill="#000000" fill-opacity="0.200000" stroke="#000000" stroke-width="2" stroke-opacity="0.200000" points="490.8,-131.1 496.8,-129 490.8,-126.9 490.8,-131.1"/>
</g>
<!-- src/js/uno/player.js -->
<g id="node42" class="node">
<title>src/js/uno/player.js</title>
<g id="a_node42"><a xlink:href="src/js/uno/player.js" xlink:title="player.js">
<path fill="#ffffcc" stroke="black" d="M547.83,-107.62C547.83,-107.62 506.67,-107.62 506.67,-107.62 503.46,-107.62 500.25,-104.42 500.25,-101.21 500.25,-101.21 500.25,-94.79 500.25,-94.79 500.25,-91.58 503.46,-88.38 506.67,-88.38 506.67,-88.38 547.83,-88.38 547.83,-88.38 551.04,-88.38 554.25,-91.58 554.25,-94.79 554.25,-94.79 554.25,-101.21 554.25,-101.21 554.25,-104.42 551.04,-107.62 547.83,-107.62"/>
<text text-anchor="start" x="510" y="-95.08" font-family="Helvetica,sans-Serif" font-size="9.00">player.js</text>
</a>
</g>
</g>
<!-- src/js/uno/engine.js&#45;&gt;src/js/uno/player.js -->
<g id="edge71" class="edge">
<title>src/js/uno/engine.js&#45;&gt;src/js/uno/player.js</title>
<path fill="none" stroke="#000000" stroke-width="2" stroke-opacity="0.200000" d="M433.4,-121.61C443.44,-118.86 454.98,-115.73 465.5,-113 473.85,-110.83 482.87,-108.56 491.33,-106.47"/>
<polygon fill="#000000" fill-opacity="0.200000" stroke="#000000" stroke-width="2" stroke-opacity="0.200000" points="491.64,-108.55 496.96,-105.08 490.63,-104.48 491.64,-108.55"/>
</g>
<!-- src/js/views/choose_color.js&#45;&gt;src/js/uno/basic.js -->
<g id="edge74" class="edge">
<title>src/js/views/choose_color.js&#45;&gt;src/js/uno/basic.js</title>
<path fill="none" stroke="#000000" stroke-width="2" stroke-opacity="0.200000" d="M431.31,-219.95C475.8,-201.65 569.99,-162.89 619.85,-142.38"/>
<polygon fill="#000000" fill-opacity="0.200000" stroke="#000000" stroke-width="2" stroke-opacity="0.200000" points="620.49,-144.39 625.24,-140.16 618.89,-140.51 620.49,-144.39"/>
</g>
<!-- src/js/views/layout.js&#45;&gt;src/js/uno/basic.js -->
<g id="edge75" class="edge">
<title>src/js/views/layout.js&#45;&gt;src/js/uno/basic.js</title>
<path fill="none" stroke="#000000" stroke-width="2" stroke-opacity="0.200000" d="M433.17,-254.1C441.08,-251.79 449.72,-249.02 457.5,-246 514.39,-223.92 529.4,-218.57 581,-186 600.41,-173.75 620.69,-157.12 634.65,-144.99"/>
<polygon fill="#000000" fill-opacity="0.200000" stroke="#000000" stroke-width="2" stroke-opacity="0.200000" points="635.95,-146.65 639.07,-141.1 633.18,-143.49 635.95,-146.65"/>
</g>
<!-- src/js/views/layout.js&#45;&gt;src/js/utils/timer.js -->
<g id="edge76" class="edge">
<title>src/js/views/layout.js&#45;&gt;src/js/utils/timer.js</title>
<path fill="none" stroke="#000000" stroke-width="2" stroke-opacity="0.200000" d="M433.25,-258.49C472.2,-256.41 544.45,-259.09 581,-302 607.29,-332.87 568.02,-452.86 594,-484 599.83,-490.99 608.44,-494.96 617.27,-497.16"/>
<polygon fill="#000000" fill-opacity="0.200000" stroke="#000000" stroke-width="2" stroke-opacity="0.200000" points="616.81,-499.21 623.1,-498.25 617.59,-495.08 616.81,-499.21"/>
</g>
<!-- src/js/utils/shuffle.js -->
<g id="node41" class="node">
<title>src/js/utils/shuffle.js</title>
<g id="a_node41"><a xlink:href="src/js/utils/shuffle.js" xlink:title="shuffle.js">
<path fill="#ffffcc" stroke="black" d="M673.96,-477.62C673.96,-477.62 632.79,-477.62 632.79,-477.62 629.58,-477.62 626.38,-474.42 626.38,-471.21 626.38,-471.21 626.38,-464.79 626.38,-464.79 626.38,-461.58 629.58,-458.38 632.79,-458.38 632.79,-458.38 673.96,-458.38 673.96,-458.38 677.17,-458.38 680.38,-461.58 680.38,-464.79 680.38,-464.79 680.38,-471.21 680.38,-471.21 680.38,-474.42 677.17,-477.62 673.96,-477.62"/>
<text text-anchor="start" x="634.62" y="-465.07" font-family="Helvetica,sans-Serif" font-size="9.00">shuffle.js</text>
</a>
</g>
</g>
<!-- src/js/uno/deck.js&#45;&gt;src/js/utils/shuffle.js -->
<g id="edge66" class="edge">
<title>src/js/uno/deck.js&#45;&gt;src/js/utils/shuffle.js</title>
<path fill="none" stroke="#000000" stroke-width="2" stroke-opacity="0.200000" d="M554.75,-130.42C564.2,-132.24 574.18,-135.88 581,-143 602.71,-165.67 638.99,-384.04 649.46,-449.53"/>
<polygon fill="#000000" fill-opacity="0.200000" stroke="#000000" stroke-width="2" stroke-opacity="0.200000" points="647.33,-449.45 650.34,-455.05 651.47,-448.8 647.33,-449.45"/>
</g>
<!-- src/js/uno/player.js&#45;&gt;src/js/uno/basic.js -->
<g id="edge72" class="edge">
<title>src/js/uno/player.js&#45;&gt;src/js/uno/basic.js</title>
<path fill="none" stroke="#000000" stroke-width="2" stroke-opacity="0.200000" d="M554.46,-104.89C566.49,-108.02 580.96,-111.75 594,-115 601.49,-116.87 609.52,-118.82 617.17,-120.66"/>
<polygon fill="#000000" fill-opacity="0.200000" stroke="#000000" stroke-width="2" stroke-opacity="0.200000" points="616.64,-122.69 622.96,-122.05 617.62,-118.61 616.64,-122.69"/>
</g>
<!-- src/js/utils/ellipse.js -->
<g id="node43" class="node">
<title>src/js/utils/ellipse.js</title>
<g id="a_node43"><a xlink:href="src/js/utils/ellipse.js" xlink:title="ellipse.js">
<path fill="#ccffcc" stroke="black" d="M673.96,-632.62C673.96,-632.62 632.79,-632.62 632.79,-632.62 629.58,-632.62 626.38,-629.42 626.38,-626.21 626.38,-626.21 626.38,-619.79 626.38,-619.79 626.38,-616.58 629.58,-613.38 632.79,-613.38 632.79,-613.38 673.96,-613.38 673.96,-613.38 677.17,-613.38 680.38,-616.58 680.38,-619.79 680.38,-619.79 680.38,-626.21 680.38,-626.21 680.38,-629.42 677.17,-632.62 673.96,-632.62"/>
<text text-anchor="start" x="634.62" y="-620.08" font-family="Helvetica,sans-Serif" font-size="9.00">ellipse.js</text>
</a>
</g>
</g>
<!-- src/js/utils/enum.js -->
<g id="node44" class="node">
<title>src/js/utils/enum.js</title>
<g id="a_node44"><a xlink:href="src/js/utils/enum.js" xlink:title="enum.js">
<path fill="#ccffcc" stroke="black" d="M673.96,-663.62C673.96,-663.62 632.79,-663.62 632.79,-663.62 629.58,-663.62 626.38,-660.42 626.38,-657.21 626.38,-657.21 626.38,-650.79 626.38,-650.79 626.38,-647.58 629.58,-644.38 632.79,-644.38 632.79,-644.38 673.96,-644.38 673.96,-644.38 677.17,-644.38 680.38,-647.58 680.38,-650.79 680.38,-650.79 680.38,-657.21 680.38,-657.21 680.38,-660.42 677.17,-663.62 673.96,-663.62"/>
<text text-anchor="start" x="636.5" y="-651.08" font-family="Helvetica,sans-Serif" font-size="9.00">enum.js</text>
</a>
</g>
</g>
<!-- src/js/utils/queue.js -->
<g id="node45" class="node">
<title>src/js/utils/queue.js</title>
<g id="a_node45"><a xlink:href="src/js/utils/queue.js" xlink:title="queue.js">
<path fill="#ccffcc" stroke="black" d="M673.96,-694.62C673.96,-694.62 632.79,-694.62 632.79,-694.62 629.58,-694.62 626.38,-691.42 626.38,-688.21 626.38,-688.21 626.38,-681.79 626.38,-681.79 626.38,-678.58 629.58,-675.38 632.79,-675.38 632.79,-675.38 673.96,-675.38 673.96,-675.38 677.17,-675.38 680.38,-678.58 680.38,-681.79 680.38,-681.79 680.38,-688.21 680.38,-688.21 680.38,-691.42 677.17,-694.62 673.96,-694.62"/>
<text text-anchor="start" x="635.38" y="-682.08" font-family="Helvetica,sans-Serif" font-size="9.00">queue.js</text>
</a>
</g>
</g>
<!-- src/sw.js -->
<g id="node46" class="node">
<title>src/sw.js</title>
<g id="a_node46"><a xlink:href="src/sw.js" xlink:title="sw.js">
<path fill="#ccffcc" stroke="black" d="M63.58,-807.62C63.58,-807.62 22.42,-807.62 22.42,-807.62 19.21,-807.62 16,-804.42 16,-801.21 16,-801.21 16,-794.79 16,-794.79 16,-791.58 19.21,-788.38 22.42,-788.38 22.42,-788.38 63.58,-788.38 63.58,-788.38 66.79,-788.38 70,-791.58 70,-794.79 70,-794.79 70,-801.21 70,-801.21 70,-804.42 66.79,-807.62 63.58,-807.62"/>
<text text-anchor="start" x="32.12" y="-795.08" font-family="Helvetica,sans-Serif" font-size="9.00">sw.js</text>
</a>
</g>
</g>
</g>
</svg>
