<?xml version="1.0" encoding="UTF-8" standalone="no"?>
<!DOCTYPE svg PUBLIC "-//W3C//DTD SVG 1.1//EN"
 "http://www.w3.org/Graphics/SVG/1.1/DTD/svg11.dtd">
<!-- Generated by graphviz version 11.0.0 (20240428.1522)
 -->
<!-- Title: dependency&#45;cruiser output Pages: 1 -->
<svg width="745pt" height="796pt"
 viewBox="0.00 0.00 744.75 796.00" xmlns="http://www.w3.org/2000/svg" xmlns:xlink="http://www.w3.org/1999/xlink">
<g id="graph0" class="graph" transform="scale(1 1) rotate(0) translate(4 792)">
<title>dependency&#45;cruiser output</title>
<polygon fill="white" stroke="none" points="-4,4 -4,-792 740.75,-792 740.75,4 -4,4"/>
<g id="clust1" class="cluster">
<title>cluster_src</title>
<path fill="#ffffff" stroke="black" stroke-width="2" d="M20,-8C20,-8 716.75,-8 716.75,-8 722.75,-8 728.75,-14 728.75,-20 728.75,-20 728.75,-768 728.75,-768 728.75,-774 722.75,-780 716.75,-780 716.75,-780 20,-780 20,-780 14,-780 8,-774 8,-768 8,-768 8,-20 8,-20 8,-14 14,-8 20,-8"/>
<text text-anchor="middle" x="368.38" y="-767.45" font-family="Helvetica,sans-Serif" font-weight="bold" font-size="9.00">src</text>
</g>
<g id="clust2" class="cluster">
<title>cluster_src/js</title>
<path fill="#ffffff" stroke="black" stroke-width="2" d="M90,-16C90,-16 708.75,-16 708.75,-16 714.75,-16 720.75,-22 720.75,-28 720.75,-28 720.75,-741 720.75,-741 720.75,-747 714.75,-753 708.75,-753 708.75,-753 90,-753 90,-753 84,-753 78,-747 78,-741 78,-741 78,-28 78,-28 78,-22 84,-16 90,-16"/>
<text text-anchor="middle" x="399.38" y="-740.45" font-family="Helvetica,sans-Serif" font-weight="bold" font-size="9.00">js</text>
</g>
<g id="clust3" class="cluster">
<title>cluster_src/js/bot</title>
<path fill="#ffffff" stroke="black" stroke-width="2" d="M284.12,-249C284.12,-249 557.88,-249 557.88,-249 563.88,-249 569.88,-255 569.88,-261 569.88,-261 569.88,-292 569.88,-292 569.88,-298 563.88,-304 557.88,-304 557.88,-304 284.12,-304 284.12,-304 278.12,-304 272.12,-298 272.12,-292 272.12,-292 272.12,-261 272.12,-261 272.12,-255 278.12,-249 284.12,-249"/>
<text text-anchor="middle" x="421" y="-291.45" font-family="Helvetica,sans-Serif" font-weight="bold" font-size="9.00">bot</text>
</g>
<g id="clust4" class="cluster">
<title>cluster_src/js/connection</title>
<path fill="#ffffff" stroke="black" stroke-width="2" d="M290.62,-410C290.62,-410 446.75,-410 446.75,-410 452.75,-410 458.75,-416 458.75,-422 458.75,-422 458.75,-515 458.75,-515 458.75,-521 452.75,-527 446.75,-527 446.75,-527 290.62,-527 290.62,-527 284.62,-527 278.62,-521 278.62,-515 278.62,-515 278.62,-422 278.62,-422 278.62,-416 284.62,-410 290.62,-410"/>
<text text-anchor="middle" x="368.69" y="-514.45" font-family="Helvetica,sans-Serif" font-weight="bold" font-size="9.00">connection</text>
</g>
<g id="clust5" class="cluster">
<title>cluster_src/js/lib</title>
<path fill="#ffffff" stroke="black" stroke-width="2" d="M290.5,-573C290.5,-573 336.75,-573 336.75,-573 342.75,-573 348.75,-579 348.75,-585 348.75,-585 348.75,-616 348.75,-616 348.75,-622 342.75,-628 336.75,-628 336.75,-628 290.5,-628 290.5,-628 284.5,-628 278.5,-622 278.5,-616 278.5,-616 278.5,-585 278.5,-585 278.5,-579 284.5,-573 290.5,-573"/>
<text text-anchor="middle" x="313.62" y="-615.45" font-family="Helvetica,sans-Serif" font-weight="bold" font-size="9.00">lib</text>
</g>
<g id="clust6" class="cluster">
<title>cluster_src/js/mode</title>
<path fill="#ffffff" stroke="black" stroke-width="2" d="M193.25,-505C193.25,-505 241.75,-505 241.75,-505 247.75,-505 253.75,-511 253.75,-517 253.75,-517 253.75,-672 253.75,-672 253.75,-678 247.75,-684 241.75,-684 241.75,-684 193.25,-684 193.25,-684 187.25,-684 181.25,-678 181.25,-672 181.25,-672 181.25,-517 181.25,-517 181.25,-511 187.25,-505 193.25,-505"/>
<text text-anchor="middle" x="217.5" y="-671.45" font-family="Helvetica,sans-Serif" font-weight="bold" font-size="9.00">mode</text>
</g>
<g id="clust7" class="cluster">
<title>cluster_src/js/uno</title>
<path fill="#ffffff" stroke="black" stroke-width="2" d="M488.75,-52C488.75,-52 676.38,-52 676.38,-52 682.38,-52 688.38,-58 688.38,-64 688.38,-64 688.38,-95 688.38,-95 688.38,-101 682.38,-107 676.38,-107 676.38,-107 488.75,-107 488.75,-107 482.75,-107 476.75,-101 476.75,-95 476.75,-95 476.75,-64 476.75,-64 476.75,-58 482.75,-52 488.75,-52"/>
<text text-anchor="middle" x="582.56" y="-94.45" font-family="Helvetica,sans-Serif" font-weight="bold" font-size="9.00">uno</text>
</g>
<g id="clust8" class="cluster">
<title>cluster_src/js/utils</title>
<path fill="#ffffff" stroke="black" stroke-width="2" d="M491.75,-424C491.75,-424 562.75,-424 562.75,-424 568.75,-424 574.75,-430 574.75,-436 574.75,-436 574.75,-653 574.75,-653 574.75,-659 568.75,-665 562.75,-665 562.75,-665 491.75,-665 491.75,-665 485.75,-665 479.75,-659 479.75,-653 479.75,-653 479.75,-436 479.75,-436 479.75,-430 485.75,-424 491.75,-424"/>
<text text-anchor="middle" x="527.25" y="-652.45" font-family="Helvetica,sans-Serif" font-weight="bold" font-size="9.00">utils</text>
</g>
<!-- src/index.js -->
<g id="node1" class="node">
<title>src/index.js</title>
<g id="a_node1"><a xlink:href="src/index.js" xlink:title="index.js">
<path fill="#ffffcc" stroke="black" d="M63.58,-593.62C63.58,-593.62 22.42,-593.62 22.42,-593.62 19.21,-593.62 16,-590.42 16,-587.21 16,-587.21 16,-580.79 16,-580.79 16,-577.58 19.21,-574.38 22.42,-574.38 22.42,-574.38 63.58,-574.38 63.58,-574.38 66.79,-574.38 70,-577.58 70,-580.79 70,-580.79 70,-587.21 70,-587.21 70,-590.42 66.79,-593.62 63.58,-593.62"/>
<text text-anchor="start" x="27.25" y="-581.08" font-family="Helvetica,sans-Serif" font-size="9.00">index.js</text>
</a>
</g>
</g>
<!-- src/js/install_as_app.js -->
<g id="node2" class="node">
<title>src/js/install_as_app.js</title>
<g id="a_node2"><a xlink:href="src/js/install_as_app.js" xlink:title="install_as_app.js">
<path fill="#ffffcc" stroke="black" d="M166.83,-578.62C166.83,-578.62 92.42,-578.62 92.42,-578.62 89.21,-578.62 86,-575.42 86,-572.21 86,-572.21 86,-565.79 86,-565.79 86,-562.58 89.21,-559.38 92.42,-559.38 92.42,-559.38 166.83,-559.38 166.83,-559.38 170.04,-559.38 173.25,-562.58 173.25,-565.79 173.25,-565.79 173.25,-572.21 173.25,-572.21 173.25,-575.42 170.04,-578.62 166.83,-578.62"/>
<text text-anchor="start" x="94" y="-566.08" font-family="Helvetica,sans-Serif" font-size="9.00">install_as_app.js</text>
</a>
</g>
</g>
<!-- src/index.js&#45;&gt;src/js/install_as_app.js -->
<g id="edge1" class="edge">
<title>src/index.js&#45;&gt;src/js/install_as_app.js</title>
<path fill="none" stroke="#000000" stroke-width="2" stroke-opacity="0.200000" d="M70.31,-579.34C72.43,-578.96 74.62,-578.57 76.84,-578.18"/>
<polygon fill="#000000" fill-opacity="0.200000" stroke="#000000" stroke-width="2" stroke-opacity="0.200000" points="77.02,-580.28 82.56,-577.16 76.29,-576.14 77.02,-580.28"/>
</g>
<!-- src/js/starter.js -->
<g id="node3" class="node">
<title>src/js/starter.js</title>
<g id="a_node3"><a xlink:href="src/js/starter.js" xlink:title="starter.js">
<path fill="#ffffcc" stroke="black" d="M150.21,-609.62C150.21,-609.62 109.04,-609.62 109.04,-609.62 105.83,-609.62 102.62,-606.42 102.62,-603.21 102.62,-603.21 102.62,-596.79 102.62,-596.79 102.62,-593.58 105.83,-590.38 109.04,-590.38 109.04,-590.38 150.21,-590.38 150.21,-590.38 153.42,-590.38 156.62,-593.58 156.62,-596.79 156.62,-596.79 156.62,-603.21 156.62,-603.21 156.62,-606.42 153.42,-609.62 150.21,-609.62"/>
<text text-anchor="start" x="111.62" y="-597.08" font-family="Helvetica,sans-Serif" font-size="9.00">starter.js</text>
</a>
</g>
</g>
<!-- src/index.js&#45;&gt;src/js/starter.js -->
<g id="edge2" class="edge">
<title>src/index.js&#45;&gt;src/js/starter.js</title>
<path fill="none" stroke="#000000" stroke-width="2" stroke-opacity="0.200000" d="M70.31,-588.97C77.71,-590.37 85.88,-591.92 93.71,-593.4"/>
<polygon fill="#000000" fill-opacity="0.200000" stroke="#000000" stroke-width="2" stroke-opacity="0.200000" points="93.07,-595.41 99.35,-594.47 93.85,-591.29 93.07,-595.41"/>
</g>
<!-- src/js/helper.js -->
<g id="node8" class="node">
<title>src/js/helper.js</title>
<g id="a_node8"><a xlink:href="src/js/helper.js" xlink:title="helper.js">
<path fill="#ffffcc" stroke="black" d="M673.96,-322.62C673.96,-322.62 632.79,-322.62 632.79,-322.62 629.58,-322.62 626.38,-319.42 626.38,-316.21 626.38,-316.21 626.38,-309.79 626.38,-309.79 626.38,-306.58 629.58,-303.38 632.79,-303.38 632.79,-303.38 673.96,-303.38 673.96,-303.38 677.17,-303.38 680.38,-306.58 680.38,-309.79 680.38,-309.79 680.38,-316.21 680.38,-316.21 680.38,-319.42 677.17,-322.62 673.96,-322.62"/>
<text text-anchor="start" x="635.38" y="-310.07" font-family="Helvetica,sans-Serif" font-size="9.00">helper.js</text>
</a>
</g>
</g>
<!-- src/js/starter.js&#45;&gt;src/js/helper.js -->
<g id="edge45" class="edge">
<title>src/js/starter.js&#45;&gt;src/js/helper.js</title>
<path fill="none" stroke="#000000" stroke-width="2" stroke-opacity="0.200000" d="M133.38,-609.99C139.03,-628.44 153.76,-667.76 181.25,-687 208.07,-705.77 227.99,-679.8 253.75,-700 260.64,-705.4 254.41,-713.23 261.75,-718 314.33,-752.17 534.96,-740.86 581,-699 636.26,-648.75 649.22,-401.57 651.8,-331.53"/>
<polygon fill="#000000" fill-opacity="0.200000" stroke="#000000" stroke-width="2" stroke-opacity="0.200000" points="653.89,-331.96 651.99,-325.89 649.69,-331.81 653.89,-331.96"/>
</g>
<!-- src/js/game.js -->
<g id="node21" class="node">
<title>src/js/game.js</title>
<g id="a_node21"><a xlink:href="src/js/game.js" xlink:title="game.js">
<path fill="#ffffcc" stroke="black" d="M238.08,-276.62C238.08,-276.62 196.92,-276.62 196.92,-276.62 193.71,-276.62 190.5,-273.42 190.5,-270.21 190.5,-270.21 190.5,-263.79 190.5,-263.79 190.5,-260.58 193.71,-257.38 196.92,-257.38 196.92,-257.38 238.08,-257.38 238.08,-257.38 241.29,-257.38 244.5,-260.58 244.5,-263.79 244.5,-263.79 244.5,-270.21 244.5,-270.21 244.5,-273.42 241.29,-276.62 238.08,-276.62"/>
<text text-anchor="start" x="200.62" y="-264.07" font-family="Helvetica,sans-Serif" font-size="9.00">game.js</text>
</a>
</g>
</g>
<!-- src/js/starter.js&#45;&gt;src/js/game.js -->
<g id="edge44" class="edge">
<title>src/js/starter.js&#45;&gt;src/js/game.js</title>
<path fill="none" stroke="#000000" stroke-width="2" stroke-opacity="0.200000" d="M156.99,-595.81C163.2,-593.59 169.19,-590.19 173.25,-585 184.67,-570.41 178.99,-520.39 181.25,-502 191.19,-421.22 206.75,-325.38 213.36,-285.67"/>
<polygon fill="#000000" fill-opacity="0.200000" stroke="#000000" stroke-width="2" stroke-opacity="0.200000" points="215.42,-286.07 214.34,-279.81 211.28,-285.38 215.42,-286.07"/>
</g>
<!-- src/js/mode/ai.js -->
<g id="node28" class="node">
<title>src/js/mode/ai.js</title>
<g id="a_node28"><a xlink:href="src/js/mode/ai.js" xlink:title="ai.js">
<path fill="#ffffcc" stroke="black" d="M238.08,-563.62C238.08,-563.62 196.92,-563.62 196.92,-563.62 193.71,-563.62 190.5,-560.42 190.5,-557.21 190.5,-557.21 190.5,-550.79 190.5,-550.79 190.5,-547.58 193.71,-544.38 196.92,-544.38 196.92,-544.38 238.08,-544.38 238.08,-544.38 241.29,-544.38 244.5,-547.58 244.5,-550.79 244.5,-550.79 244.5,-557.21 244.5,-557.21 244.5,-560.42 241.29,-563.62 238.08,-563.62"/>
<text text-anchor="start" x="208.88" y="-551.08" font-family="Helvetica,sans-Serif" font-size="9.00">ai.js</text>
</a>
</g>
</g>
<!-- src/js/starter.js&#45;&gt;src/js/mode/ai.js -->
<g id="edge46" class="edge">
<title>src/js/starter.js&#45;&gt;src/js/mode/ai.js</title>
<path fill="none" stroke="#000000" stroke-width="2" stroke-dasharray="5,2" stroke-opacity="0.200000" d="M156.69,-594.37C162.62,-592.17 168.54,-589.15 173.25,-585 179.21,-579.74 175.46,-574.45 181.25,-569 181.74,-568.54 182.25,-568.09 182.77,-567.65"/>
<polygon fill="#000000" fill-opacity="0.200000" stroke="#000000" stroke-width="2" stroke-opacity="0.200000" points="183.85,-569.46 187.67,-564.37 181.51,-565.97 183.85,-569.46"/>
</g>
<!-- src/js/mode/hotseat.js -->
<g id="node30" class="node">
<title>src/js/mode/hotseat.js</title>
<g id="a_node30"><a xlink:href="src/js/mode/hotseat.js" xlink:title="hotseat.js">
<path fill="#ffffcc" stroke="black" d="M239.33,-625.62C239.33,-625.62 195.67,-625.62 195.67,-625.62 192.46,-625.62 189.25,-622.42 189.25,-619.21 189.25,-619.21 189.25,-612.79 189.25,-612.79 189.25,-609.58 192.46,-606.38 195.67,-606.38 195.67,-606.38 239.33,-606.38 239.33,-606.38 242.54,-606.38 245.75,-609.58 245.75,-612.79 245.75,-612.79 245.75,-619.21 245.75,-619.21 245.75,-622.42 242.54,-625.62 239.33,-625.62"/>
<text text-anchor="start" x="197.25" y="-613.08" font-family="Helvetica,sans-Serif" font-size="9.00">hotseat.js</text>
</a>
</g>
</g>
<!-- src/js/starter.js&#45;&gt;src/js/mode/hotseat.js -->
<g id="edge47" class="edge">
<title>src/js/starter.js&#45;&gt;src/js/mode/hotseat.js</title>
<path fill="none" stroke="#000000" stroke-width="2" stroke-dasharray="5,2" stroke-opacity="0.200000" d="M156.86,-604.89C164.24,-606.26 172.4,-607.78 180.26,-609.25"/>
<polygon fill="#000000" fill-opacity="0.200000" stroke="#000000" stroke-width="2" stroke-opacity="0.200000" points="179.68,-611.28 185.97,-610.31 180.45,-607.15 179.68,-611.28"/>
</g>
<!-- src/js/mode/net.js -->
<g id="node31" class="node">
<title>src/js/mode/net.js</title>
<g id="a_node31"><a xlink:href="src/js/mode/net.js" xlink:title="net.js">
<path fill="#ffffcc" stroke="black" d="M238.08,-532.62C238.08,-532.62 196.92,-532.62 196.92,-532.62 193.71,-532.62 190.5,-529.42 190.5,-526.21 190.5,-526.21 190.5,-519.79 190.5,-519.79 190.5,-516.58 193.71,-513.38 196.92,-513.38 196.92,-513.38 238.08,-513.38 238.08,-513.38 241.29,-513.38 244.5,-516.58 244.5,-519.79 244.5,-519.79 244.5,-526.21 244.5,-526.21 244.5,-529.42 241.29,-532.62 238.08,-532.62"/>
<text text-anchor="start" x="206.25" y="-520.08" font-family="Helvetica,sans-Serif" font-size="9.00">net.js</text>
</a>
</g>
</g>
<!-- src/js/starter.js&#45;&gt;src/js/mode/net.js -->
<g id="edge48" class="edge">
<title>src/js/starter.js&#45;&gt;src/js/mode/net.js</title>
<path fill="none" stroke="#000000" stroke-width="2" stroke-dasharray="5,2" stroke-opacity="0.200000" d="M156.74,-595.61C162.95,-593.38 169,-590.04 173.25,-585 186.91,-568.8 168.12,-554.63 181.25,-538 181.85,-537.24 182.49,-536.52 183.17,-535.84"/>
<polygon fill="#000000" fill-opacity="0.200000" stroke="#000000" stroke-width="2" stroke-opacity="0.200000" points="184.19,-537.7 187.73,-532.42 181.67,-534.34 184.19,-537.7"/>
</g>
<!-- src/js/mode/server.js -->
<g id="node32" class="node">
<title>src/js/mode/server.js</title>
<g id="a_node32"><a xlink:href="src/js/mode/server.js" xlink:title="server.js">
<path fill="#ffffcc" stroke="black" d="M238.08,-594.62C238.08,-594.62 196.92,-594.62 196.92,-594.62 193.71,-594.62 190.5,-591.42 190.5,-588.21 190.5,-588.21 190.5,-581.79 190.5,-581.79 190.5,-578.58 193.71,-575.38 196.92,-575.38 196.92,-575.38 238.08,-575.38 238.08,-575.38 241.29,-575.38 244.5,-578.58 244.5,-581.79 244.5,-581.79 244.5,-588.21 244.5,-588.21 244.5,-591.42 241.29,-594.62 238.08,-594.62"/>
<text text-anchor="start" x="199.88" y="-582.08" font-family="Helvetica,sans-Serif" font-size="9.00">server.js</text>
</a>
</g>
</g>
<!-- src/js/starter.js&#45;&gt;src/js/mode/server.js -->
<g id="edge49" class="edge">
<title>src/js/starter.js&#45;&gt;src/js/mode/server.js</title>
<path fill="none" stroke="#000000" stroke-width="2" stroke-dasharray="5,2" stroke-opacity="0.200000" d="M156.86,-595.42C164.61,-594.06 173.22,-592.56 181.44,-591.12"/>
<polygon fill="#000000" fill-opacity="0.200000" stroke="#000000" stroke-width="2" stroke-opacity="0.200000" points="181.6,-593.23 187.15,-590.13 180.88,-589.09 181.6,-593.23"/>
</g>
<!-- src/js/mode/test.js -->
<g id="node33" class="node">
<title>src/js/mode/test.js</title>
<g id="a_node33"><a xlink:href="src/js/mode/test.js" xlink:title="test.js">
<path fill="#ffffcc" stroke="black" d="M238.08,-656.62C238.08,-656.62 196.92,-656.62 196.92,-656.62 193.71,-656.62 190.5,-653.42 190.5,-650.21 190.5,-650.21 190.5,-643.79 190.5,-643.79 190.5,-640.58 193.71,-637.38 196.92,-637.38 196.92,-637.38 238.08,-637.38 238.08,-637.38 241.29,-637.38 244.5,-640.58 244.5,-643.79 244.5,-643.79 244.5,-650.21 244.5,-650.21 244.5,-653.42 241.29,-656.62 238.08,-656.62"/>
<text text-anchor="start" x="205.12" y="-644.08" font-family="Helvetica,sans-Serif" font-size="9.00">test.js</text>
</a>
</g>
</g>
<!-- src/js/starter.js&#45;&gt;src/js/mode/test.js -->
<g id="edge50" class="edge">
<title>src/js/starter.js&#45;&gt;src/js/mode/test.js</title>
<path fill="none" stroke="#000000" stroke-width="2" stroke-dasharray="5,2" stroke-opacity="0.200000" d="M144.88,-609.88C154.82,-616.56 168.54,-625.34 181.25,-632 182.07,-632.43 182.91,-632.86 183.77,-633.29"/>
<polygon fill="#000000" fill-opacity="0.200000" stroke="#000000" stroke-width="2" stroke-opacity="0.200000" points="182.55,-635.04 188.88,-635.71 184.35,-631.24 182.55,-635.04"/>
</g>
<!-- src/js/settings.js -->
<g id="node35" class="node">
<title>src/js/settings.js</title>
<g id="a_node35"><a xlink:href="src/js/settings.js" xlink:title="settings.js">
<path fill="#ffffcc" stroke="black" d="M240.46,-725.62C240.46,-725.62 194.54,-725.62 194.54,-725.62 191.33,-725.62 188.12,-722.42 188.12,-719.21 188.12,-719.21 188.12,-712.79 188.12,-712.79 188.12,-709.58 191.33,-706.38 194.54,-706.38 194.54,-706.38 240.46,-706.38 240.46,-706.38 243.67,-706.38 246.88,-709.58 246.88,-712.79 246.88,-712.79 246.88,-719.21 246.88,-719.21 246.88,-722.42 243.67,-725.62 240.46,-725.62"/>
<text text-anchor="start" x="196.12" y="-713.08" font-family="Helvetica,sans-Serif" font-size="9.00">settings.js</text>
</a>
</g>
</g>
<!-- src/js/starter.js&#45;&gt;src/js/settings.js -->
<g id="edge51" class="edge">
<title>src/js/starter.js&#45;&gt;src/js/settings.js</title>
<path fill="none" stroke="#000000" stroke-width="2" stroke-opacity="0.200000" d="M133.64,-609.99C139.8,-629.02 155.5,-670.9 181.25,-697 182.64,-698.41 184.15,-699.74 185.75,-700.99"/>
<polygon fill="#000000" fill-opacity="0.200000" stroke="#000000" stroke-width="2" stroke-opacity="0.200000" points="184.47,-702.66 190.62,-704.28 186.82,-699.18 184.47,-702.66"/>
</g>
<!-- src/js/actions_uno_client.js -->
<g id="node4" class="node">
<title>src/js/actions_uno_client.js</title>
<g id="a_node4"><a xlink:href="src/js/actions_uno_client.js" xlink:title="actions_uno_client.js">
<path fill="#ffffcc" stroke="black" d="M359.08,-711.62C359.08,-711.62 268.17,-711.62 268.17,-711.62 264.96,-711.62 261.75,-708.42 261.75,-705.21 261.75,-705.21 261.75,-698.79 261.75,-698.79 261.75,-695.58 264.96,-692.38 268.17,-692.38 268.17,-692.38 359.08,-692.38 359.08,-692.38 362.29,-692.38 365.5,-695.58 365.5,-698.79 365.5,-698.79 365.5,-705.21 365.5,-705.21 365.5,-708.42 362.29,-711.62 359.08,-711.62"/>
<text text-anchor="start" x="269.75" y="-699.08" font-family="Helvetica,sans-Serif" font-size="9.00">actions_uno_client.js</text>
</a>
</g>
</g>
<!-- src/js/actions_uno_common.js -->
<g id="node5" class="node">
<title>src/js/actions_uno_common.js</title>
<g id="a_node5"><a xlink:href="src/js/actions_uno_common.js" xlink:title="actions_uno_common.js">
<path fill="#ffffcc" stroke="black" d="M706.33,-708.62C706.33,-708.62 600.42,-708.62 600.42,-708.62 597.21,-708.62 594,-705.42 594,-702.21 594,-702.21 594,-695.79 594,-695.79 594,-692.58 597.21,-689.38 600.42,-689.38 600.42,-689.38 706.33,-689.38 706.33,-689.38 709.54,-689.38 712.75,-692.58 712.75,-695.79 712.75,-695.79 712.75,-702.21 712.75,-702.21 712.75,-705.42 709.54,-708.62 706.33,-708.62"/>
<text text-anchor="start" x="602" y="-696.08" font-family="Helvetica,sans-Serif" font-size="9.00">actions_uno_common.js</text>
</a>
</g>
</g>
<!-- src/js/actions_uno_client.js&#45;&gt;src/js/actions_uno_common.js -->
<g id="edge3" class="edge">
<title>src/js/actions_uno_client.js&#45;&gt;src/js/actions_uno_common.js</title>
<path fill="none" stroke="#000000" stroke-width="2" stroke-opacity="0.200000" d="M365.92,-701.54C424.44,-701.02 520.34,-700.17 584.88,-699.6"/>
<polygon fill="#000000" fill-opacity="0.200000" stroke="#000000" stroke-width="2" stroke-opacity="0.200000" points="584.76,-701.7 590.75,-699.55 584.73,-697.5 584.76,-701.7"/>
</g>
<!-- src/js/actions_uno_server.js -->
<g id="node6" class="node">
<title>src/js/actions_uno_server.js</title>
<g id="a_node6"><a xlink:href="src/js/actions_uno_server.js" xlink:title="actions_uno_server.js">
<path fill="#ffffcc" stroke="black" d="M574.58,-692.62C574.58,-692.62 479.92,-692.62 479.92,-692.62 476.71,-692.62 473.5,-689.42 473.5,-686.21 473.5,-686.21 473.5,-679.79 473.5,-679.79 473.5,-676.58 476.71,-673.38 479.92,-673.38 479.92,-673.38 574.58,-673.38 574.58,-673.38 577.79,-673.38 581,-676.58 581,-679.79 581,-679.79 581,-686.21 581,-686.21 581,-689.42 577.79,-692.62 574.58,-692.62"/>
<text text-anchor="start" x="481.5" y="-680.08" font-family="Helvetica,sans-Serif" font-size="9.00">actions_uno_server.js</text>
</a>
</g>
</g>
<!-- src/js/actions_uno_server.js&#45;&gt;src/js/actions_uno_common.js -->
<g id="edge4" class="edge">
<title>src/js/actions_uno_server.js&#45;&gt;src/js/actions_uno_common.js</title>
<path fill="none" stroke="#000000" stroke-width="2" stroke-opacity="0.200000" d="M581.25,-689.83C582.4,-689.98 583.55,-690.13 584.71,-690.28"/>
<polygon fill="#000000" fill-opacity="0.200000" stroke="#000000" stroke-width="2" stroke-opacity="0.200000" points="584.37,-692.35 590.59,-691.04 584.91,-688.19 584.37,-692.35"/>
</g>
<!-- src/js/bot/best_card.bot.js -->
<g id="node7" class="node">
<title>src/js/bot/best_card.bot.js</title>
<g id="a_node7"><a xlink:href="src/js/bot/best_card.bot.js" xlink:title="best_card.bot.js">
<path fill="#ffffcc" stroke="black" d="M454.08,-276.62C454.08,-276.62 384.92,-276.62 384.92,-276.62 381.71,-276.62 378.5,-273.42 378.5,-270.21 378.5,-270.21 378.5,-263.79 378.5,-263.79 378.5,-260.58 381.71,-257.38 384.92,-257.38 384.92,-257.38 454.08,-257.38 454.08,-257.38 457.29,-257.38 460.5,-260.58 460.5,-263.79 460.5,-263.79 460.5,-270.21 460.5,-270.21 460.5,-273.42 457.29,-276.62 454.08,-276.62"/>
<text text-anchor="start" x="386.5" y="-264.07" font-family="Helvetica,sans-Serif" font-size="9.00">best_card.bot.js</text>
</a>
</g>
</g>
<!-- src/js/bot/best_card.bot.js&#45;&gt;src/js/actions_uno_server.js -->
<g id="edge5" class="edge">
<title>src/js/bot/best_card.bot.js&#45;&gt;src/js/actions_uno_server.js</title>
<path fill="none" stroke="#000000" stroke-width="2" stroke-opacity="0.200000" d="M424.22,-277.01C432.47,-299.73 452.24,-357.12 460.5,-407 464.93,-433.74 456.67,-618.23 474.53,-665.28"/>
<polygon fill="#000000" fill-opacity="0.200000" stroke="#000000" stroke-width="2" stroke-opacity="0.200000" points="472.63,-666.17 477.32,-670.46 476.32,-664.18 472.63,-666.17"/>
</g>
<!-- src/js/bot/best_card.bot.js&#45;&gt;src/js/helper.js -->
<g id="edge6" class="edge">
<title>src/js/bot/best_card.bot.js&#45;&gt;src/js/helper.js</title>
<path fill="none" stroke="#000000" stroke-width="2" stroke-opacity="0.200000" d="M451.43,-277.06C458.63,-279.2 466.29,-281.32 473.5,-283 522.97,-294.57 581.12,-303.47 617.37,-308.47"/>
<polygon fill="#000000" fill-opacity="0.200000" stroke="#000000" stroke-width="2" stroke-opacity="0.200000" points="616.87,-310.52 623.1,-309.25 617.44,-306.36 616.87,-310.52"/>
</g>
<!-- src/js/uno/basic.js -->
<g id="node9" class="node">
<title>src/js/uno/basic.js</title>
<g id="a_node9"><a xlink:href="src/js/uno/basic.js" xlink:title="basic.js">
<path fill="#ffffcc" stroke="black" d="M673.96,-79.62C673.96,-79.62 632.79,-79.62 632.79,-79.62 629.58,-79.62 626.38,-76.42 626.38,-73.21 626.38,-73.21 626.38,-66.79 626.38,-66.79 626.38,-63.58 629.58,-60.38 632.79,-60.38 632.79,-60.38 673.96,-60.38 673.96,-60.38 677.17,-60.38 680.38,-63.58 680.38,-66.79 680.38,-66.79 680.38,-73.21 680.38,-73.21 680.38,-76.42 677.17,-79.62 673.96,-79.62"/>
<text text-anchor="start" x="637.25" y="-67.08" font-family="Helvetica,sans-Serif" font-size="9.00">basic.js</text>
</a>
</g>
</g>
<!-- src/js/bot/best_card.bot.js&#45;&gt;src/js/uno/basic.js -->
<g id="edge7" class="edge">
<title>src/js/bot/best_card.bot.js&#45;&gt;src/js/uno/basic.js</title>
<path fill="none" stroke="#000000" stroke-width="2" stroke-opacity="0.200000" d="M455.88,-257.1C457.56,-255.89 459.12,-254.53 460.5,-253 477.06,-234.69 454.84,-215.16 473.5,-199 491.64,-183.29 563.78,-205.7 581,-189 614.75,-156.26 562.67,-119.06 594,-84 599.99,-77.3 608.57,-73.52 617.31,-71.46"/>
<polygon fill="#000000" fill-opacity="0.200000" stroke="#000000" stroke-width="2" stroke-opacity="0.200000" points="617.5,-73.56 623.04,-70.45 616.77,-69.43 617.5,-73.56"/>
</g>
<!-- src/js/utils/random.js -->
<g id="node10" class="node">
<title>src/js/utils/random.js</title>
<g id="a_node10"><a xlink:href="src/js/utils/random.js" xlink:title="random.js">
<path fill="#ffffcc" stroke="black" d="M549.83,-482.62C549.83,-482.62 504.67,-482.62 504.67,-482.62 501.46,-482.62 498.25,-479.42 498.25,-476.21 498.25,-476.21 498.25,-469.79 498.25,-469.79 498.25,-466.58 501.46,-463.38 504.67,-463.38 504.67,-463.38 549.83,-463.38 549.83,-463.38 553.04,-463.38 556.25,-466.58 556.25,-469.79 556.25,-469.79 556.25,-476.21 556.25,-476.21 556.25,-479.42 553.04,-482.62 549.83,-482.62"/>
<text text-anchor="start" x="506.25" y="-470.07" font-family="Helvetica,sans-Serif" font-size="9.00">random.js</text>
</a>
</g>
</g>
<!-- src/js/bot/best_card.bot.js&#45;&gt;src/js/utils/random.js -->
<g id="edge8" class="edge">
<title>src/js/bot/best_card.bot.js&#45;&gt;src/js/utils/random.js</title>
<path fill="none" stroke="#000000" stroke-width="2" stroke-opacity="0.200000" d="M423.92,-277.03C431.24,-298.73 448.74,-351.75 460.5,-397 467.47,-423.83 454.57,-437.75 473.5,-458 477.84,-462.64 483.49,-465.88 489.49,-468.13"/>
<polygon fill="#000000" fill-opacity="0.200000" stroke="#000000" stroke-width="2" stroke-opacity="0.200000" points="488.53,-470.04 494.88,-469.76 489.75,-466.02 488.53,-470.04"/>
</g>
<!-- src/js/bot/simple.bot.js -->
<g id="node11" class="node">
<title>src/js/bot/simple.bot.js</title>
<g id="a_node11"><a xlink:href="src/js/bot/simple.bot.js" xlink:title="simple.bot.js">
<path fill="#ffffcc" stroke="black" d="M555.46,-276.62C555.46,-276.62 499.04,-276.62 499.04,-276.62 495.83,-276.62 492.62,-273.42 492.62,-270.21 492.62,-270.21 492.62,-263.79 492.62,-263.79 492.62,-260.58 495.83,-257.38 499.04,-257.38 499.04,-257.38 555.46,-257.38 555.46,-257.38 558.67,-257.38 561.88,-260.58 561.88,-263.79 561.88,-263.79 561.88,-270.21 561.88,-270.21 561.88,-273.42 558.67,-276.62 555.46,-276.62"/>
<text text-anchor="start" x="500.62" y="-264.07" font-family="Helvetica,sans-Serif" font-size="9.00">simple.bot.js</text>
</a>
</g>
</g>
<!-- src/js/bot/best_card.bot.js&#45;&gt;src/js/bot/simple.bot.js -->
<g id="edge9" class="edge">
<title>src/js/bot/best_card.bot.js&#45;&gt;src/js/bot/simple.bot.js</title>
<path fill="none" stroke="#000000" stroke-width="2" stroke-opacity="0.200000" d="M460.78,-267C468.25,-267 476.07,-267 483.61,-267"/>
<polygon fill="#000000" fill-opacity="0.200000" stroke="#000000" stroke-width="2" stroke-opacity="0.200000" points="483.25,-269.1 489.25,-267 483.25,-264.9 483.25,-269.1"/>
</g>
<!-- src/js/bot/simple.bot.js&#45;&gt;src/js/helper.js -->
<g id="edge11" class="edge">
<title>src/js/bot/simple.bot.js&#45;&gt;src/js/helper.js</title>
<path fill="none" stroke="#000000" stroke-width="2" stroke-opacity="0.200000" d="M562.27,-275.16C568.55,-276.91 575.02,-278.88 581,-281 595.6,-286.17 611.35,-293.08 624.33,-299.16"/>
<polygon fill="#000000" fill-opacity="0.200000" stroke="#000000" stroke-width="2" stroke-opacity="0.200000" points="623.37,-301.03 629.69,-301.71 625.17,-297.24 623.37,-301.03"/>
</g>
<!-- src/js/bot/simple.bot.js&#45;&gt;src/js/uno/basic.js -->
<g id="edge12" class="edge">
<title>src/js/bot/simple.bot.js&#45;&gt;src/js/uno/basic.js</title>
<path fill="none" stroke="#000000" stroke-width="2" stroke-opacity="0.200000" d="M562.16,-264.43C569.36,-262.29 576.21,-258.75 581,-253 605.09,-224.05 569.56,-112.66 594,-84 599.88,-77.1 608.51,-73.27 617.34,-71.23"/>
<polygon fill="#000000" fill-opacity="0.200000" stroke="#000000" stroke-width="2" stroke-opacity="0.200000" points="617.59,-73.32 623.15,-70.24 616.88,-69.18 617.59,-73.32"/>
</g>
<!-- src/js/bot/setup_bot.js -->
<g id="node12" class="node">
<title>src/js/bot/setup_bot.js</title>
<g id="a_node12"><a xlink:href="src/js/bot/setup_bot.js" xlink:title="setup_bot.js">
<path fill="#ffffcc" stroke="black" d="M340.71,-276.62C340.71,-276.62 286.54,-276.62 286.54,-276.62 283.33,-276.62 280.12,-273.42 280.12,-270.21 280.12,-270.21 280.12,-263.79 280.12,-263.79 280.12,-260.58 283.33,-257.38 286.54,-257.38 286.54,-257.38 340.71,-257.38 340.71,-257.38 343.92,-257.38 347.12,-260.58 347.12,-263.79 347.12,-263.79 347.12,-270.21 347.12,-270.21 347.12,-273.42 343.92,-276.62 340.71,-276.62"/>
<text text-anchor="start" x="288.12" y="-264.07" font-family="Helvetica,sans-Serif" font-size="9.00">setup_bot.js</text>
</a>
</g>
</g>
<!-- src/js/bot/setup_bot.js&#45;&gt;src/js/bot/best_card.bot.js -->
<g id="edge10" class="edge">
<title>src/js/bot/setup_bot.js&#45;&gt;src/js/bot/best_card.bot.js</title>
<path fill="none" stroke="#000000" stroke-width="2" stroke-opacity="0.200000" d="M347.49,-267C354.5,-267 362.04,-267 369.5,-267"/>
<polygon fill="#000000" fill-opacity="0.200000" stroke="#000000" stroke-width="2" stroke-opacity="0.200000" points="369.16,-269.1 375.16,-267 369.16,-264.9 369.16,-269.1"/>
</g>
<!-- src/js/choose_color.js -->
<g id="node13" class="node">
<title>src/js/choose_color.js</title>
<g id="a_node13"><a xlink:href="src/js/choose_color.js" xlink:title="choose_color.js">
<path fill="#ffffcc" stroke="black" d="M561.83,-180.62C561.83,-180.62 492.67,-180.62 492.67,-180.62 489.46,-180.62 486.25,-177.42 486.25,-174.21 486.25,-174.21 486.25,-167.79 486.25,-167.79 486.25,-164.58 489.46,-161.38 492.67,-161.38 492.67,-161.38 561.83,-161.38 561.83,-161.38 565.04,-161.38 568.25,-164.58 568.25,-167.79 568.25,-167.79 568.25,-174.21 568.25,-174.21 568.25,-177.42 565.04,-180.62 561.83,-180.62"/>
<text text-anchor="start" x="494.25" y="-168.07" font-family="Helvetica,sans-Serif" font-size="9.00">choose_color.js</text>
</a>
</g>
</g>
<!-- src/js/choose_color.js&#45;&gt;src/js/uno/basic.js -->
<g id="edge13" class="edge">
<title>src/js/choose_color.js&#45;&gt;src/js/uno/basic.js</title>
<path fill="none" stroke="#000000" stroke-width="2" stroke-opacity="0.200000" d="M568.57,-161.64C573.26,-159.15 577.59,-156 581,-152 600.99,-128.61 572.75,-106.26 594,-84 600.15,-77.55 608.71,-73.85 617.37,-71.78"/>
<polygon fill="#000000" fill-opacity="0.200000" stroke="#000000" stroke-width="2" stroke-opacity="0.200000" points="617.49,-73.89 623.01,-70.75 616.73,-69.76 617.49,-73.89"/>
</g>
<!-- src/js/connection/client.js -->
<g id="node14" class="node">
<title>src/js/connection/client.js</title>
<g id="a_node14"><a xlink:href="src/js/connection/client.js" xlink:title="client.js">
<path fill="#ffffcc" stroke="black" d="M334.21,-437.62C334.21,-437.62 293.04,-437.62 293.04,-437.62 289.83,-437.62 286.62,-434.42 286.62,-431.21 286.62,-431.21 286.62,-424.79 286.62,-424.79 286.62,-421.58 289.83,-418.38 293.04,-418.38 293.04,-418.38 334.21,-418.38 334.21,-418.38 337.42,-418.38 340.62,-421.58 340.62,-424.79 340.62,-424.79 340.62,-431.21 340.62,-431.21 340.62,-434.42 337.42,-437.62 334.21,-437.62"/>
<text text-anchor="start" x="297.88" y="-425.07" font-family="Helvetica,sans-Serif" font-size="9.00">client.js</text>
</a>
</g>
</g>
<!-- src/js/connection/common.js -->
<g id="node15" class="node">
<title>src/js/connection/common.js</title>
<g id="a_node15"><a xlink:href="src/js/connection/common.js" xlink:title="common.js">
<path fill="#ffffcc" stroke="black" d="M444.33,-456.62C444.33,-456.62 394.67,-456.62 394.67,-456.62 391.46,-456.62 388.25,-453.42 388.25,-450.21 388.25,-450.21 388.25,-443.79 388.25,-443.79 388.25,-440.58 391.46,-437.38 394.67,-437.38 394.67,-437.38 444.33,-437.38 444.33,-437.38 447.54,-437.38 450.75,-440.58 450.75,-443.79 450.75,-443.79 450.75,-450.21 450.75,-450.21 450.75,-453.42 447.54,-456.62 444.33,-456.62"/>
<text text-anchor="start" x="396.25" y="-444.07" font-family="Helvetica,sans-Serif" font-size="9.00">common.js</text>
</a>
</g>
</g>
<!-- src/js/utils/handlers.js -->
<g id="node16" class="node">
<title>src/js/utils/handlers.js</title>
<g id="a_node16"><a xlink:href="src/js/utils/handlers.js" xlink:title="handlers.js">
<path fill="#ffffcc" stroke="black" d="M552.08,-451.62C552.08,-451.62 502.42,-451.62 502.42,-451.62 499.21,-451.62 496,-448.42 496,-445.21 496,-445.21 496,-438.79 496,-438.79 496,-435.58 499.21,-432.38 502.42,-432.38 502.42,-432.38 552.08,-432.38 552.08,-432.38 555.29,-432.38 558.5,-435.58 558.5,-438.79 558.5,-438.79 558.5,-445.21 558.5,-445.21 558.5,-448.42 555.29,-451.62 552.08,-451.62"/>
<text text-anchor="start" x="504" y="-439.07" font-family="Helvetica,sans-Serif" font-size="9.00">handlers.js</text>
</a>
</g>
</g>
<!-- src/js/connection/common.js&#45;&gt;src/js/utils/handlers.js -->
<g id="edge14" class="edge">
<title>src/js/connection/common.js&#45;&gt;src/js/utils/handlers.js</title>
<path fill="none" stroke="#000000" stroke-width="2" stroke-opacity="0.200000" d="M451.09,-445.55C462.27,-445.03 475.07,-444.42 486.91,-443.86"/>
<polygon fill="#000000" fill-opacity="0.200000" stroke="#000000" stroke-width="2" stroke-opacity="0.200000" points="486.81,-445.97 492.71,-443.59 486.62,-441.77 486.81,-445.97"/>
</g>
<!-- src/js/connection/server.js -->
<g id="node17" class="node">
<title>src/js/connection/server.js</title>
<g id="a_node17"><a xlink:href="src/js/connection/server.js" xlink:title="server.js">
<path fill="#ffffcc" stroke="black" d="M334.21,-468.62C334.21,-468.62 293.04,-468.62 293.04,-468.62 289.83,-468.62 286.62,-465.42 286.62,-462.21 286.62,-462.21 286.62,-455.79 286.62,-455.79 286.62,-452.58 289.83,-449.38 293.04,-449.38 293.04,-449.38 334.21,-449.38 334.21,-449.38 337.42,-449.38 340.62,-452.58 340.62,-455.79 340.62,-455.79 340.62,-462.21 340.62,-462.21 340.62,-465.42 337.42,-468.62 334.21,-468.62"/>
<text text-anchor="start" x="296" y="-456.07" font-family="Helvetica,sans-Serif" font-size="9.00">server.js</text>
</a>
</g>
</g>
<!-- src/js/connection/socket.js -->
<g id="node18" class="node">
<title>src/js/connection/socket.js</title>
<g id="a_node18"><a xlink:href="src/js/connection/socket.js" xlink:title="socket.js">
<path fill="#ffffcc" stroke="black" d="M334.21,-499.62C334.21,-499.62 293.04,-499.62 293.04,-499.62 289.83,-499.62 286.62,-496.42 286.62,-493.21 286.62,-493.21 286.62,-486.79 286.62,-486.79 286.62,-483.58 289.83,-480.38 293.04,-480.38 293.04,-480.38 334.21,-480.38 334.21,-480.38 337.42,-480.38 340.62,-483.58 340.62,-486.79 340.62,-486.79 340.62,-493.21 340.62,-493.21 340.62,-496.42 337.42,-499.62 334.21,-499.62"/>
<text text-anchor="start" x="295.25" y="-487.07" font-family="Helvetica,sans-Serif" font-size="9.00">socket.js</text>
</a>
</g>
</g>
<!-- src/js/connection/socket.js&#45;&gt;src/js/connection/common.js -->
<g id="edge16" class="edge">
<title>src/js/connection/socket.js&#45;&gt;src/js/connection/common.js</title>
<path fill="none" stroke="#000000" stroke-width="2" stroke-opacity="0.200000" d="M341.11,-483.27C349.07,-480.97 357.74,-478.16 365.5,-475 375.09,-471.1 385.24,-466 394.06,-461.22"/>
<polygon fill="#000000" fill-opacity="0.200000" stroke="#000000" stroke-width="2" stroke-opacity="0.200000" points="394.85,-463.18 399.08,-458.43 392.81,-459.51 394.85,-463.18"/>
</g>
<!-- src/js/connection/socket.js&#45;&gt;src/js/utils/handlers.js -->
<g id="edge15" class="edge">
<title>src/js/connection/socket.js&#45;&gt;src/js/utils/handlers.js</title>
<path fill="none" stroke="#000000" stroke-width="2" stroke-opacity="0.200000" d="M340.93,-487.14C370.51,-483.46 419.75,-475.95 460.5,-463 466.56,-461.07 467.53,-459.21 473.5,-457 477.91,-455.37 482.58,-453.81 487.25,-452.35"/>
<polygon fill="#000000" fill-opacity="0.200000" stroke="#000000" stroke-width="2" stroke-opacity="0.200000" points="487.54,-454.45 492.69,-450.72 486.34,-450.43 487.54,-454.45"/>
</g>
<!-- src/js/deck.js -->
<g id="node19" class="node">
<title>src/js/deck.js</title>
<g id="a_node19"><a xlink:href="src/js/deck.js" xlink:title="deck.js">
<path fill="#ffffcc" stroke="black" d="M547.83,-43.62C547.83,-43.62 506.67,-43.62 506.67,-43.62 503.46,-43.62 500.25,-40.42 500.25,-37.21 500.25,-37.21 500.25,-30.79 500.25,-30.79 500.25,-27.58 503.46,-24.38 506.67,-24.38 506.67,-24.38 547.83,-24.38 547.83,-24.38 551.04,-24.38 554.25,-27.58 554.25,-30.79 554.25,-30.79 554.25,-37.21 554.25,-37.21 554.25,-40.42 551.04,-43.62 547.83,-43.62"/>
<text text-anchor="start" x="512.62" y="-31.07" font-family="Helvetica,sans-Serif" font-size="9.00">deck.js</text>
</a>
</g>
</g>
<!-- src/js/shuffle.js -->
<g id="node20" class="node">
<title>src/js/shuffle.js</title>
<g id="a_node20"><a xlink:href="src/js/shuffle.js" xlink:title="shuffle.js">
<path fill="#ffffcc" stroke="black" d="M673.96,-43.62C673.96,-43.62 632.79,-43.62 632.79,-43.62 629.58,-43.62 626.38,-40.42 626.38,-37.21 626.38,-37.21 626.38,-30.79 626.38,-30.79 626.38,-27.58 629.58,-24.38 632.79,-24.38 632.79,-24.38 673.96,-24.38 673.96,-24.38 677.17,-24.38 680.38,-27.58 680.38,-30.79 680.38,-30.79 680.38,-37.21 680.38,-37.21 680.38,-40.42 677.17,-43.62 673.96,-43.62"/>
<text text-anchor="start" x="634.62" y="-31.07" font-family="Helvetica,sans-Serif" font-size="9.00">shuffle.js</text>
</a>
</g>
</g>
<!-- src/js/deck.js&#45;&gt;src/js/shuffle.js -->
<g id="edge17" class="edge">
<title>src/js/deck.js&#45;&gt;src/js/shuffle.js</title>
<path fill="none" stroke="#000000" stroke-width="2" stroke-opacity="0.200000" d="M554.57,-34C572.84,-34 597.37,-34 617.3,-34"/>
<polygon fill="#000000" fill-opacity="0.200000" stroke="#000000" stroke-width="2" stroke-opacity="0.200000" points="617.06,-36.1 623.06,-34 617.06,-31.9 617.06,-36.1"/>
</g>
<!-- src/js/game.js&#45;&gt;src/js/helper.js -->
<g id="edge19" class="edge">
<title>src/js/game.js&#45;&gt;src/js/helper.js</title>
<path fill="none" stroke="#000000" stroke-width="2" stroke-opacity="0.200000" d="M225.78,-277.09C233.46,-286.81 246.56,-300.92 261.75,-307 294.17,-319.98 527.27,-315.96 617.15,-313.89"/>
<polygon fill="#000000" fill-opacity="0.200000" stroke="#000000" stroke-width="2" stroke-opacity="0.200000" points="617.17,-315.99 623.12,-313.75 617.07,-311.79 617.17,-315.99"/>
</g>
<!-- src/js/game.js&#45;&gt;src/js/bot/setup_bot.js -->
<g id="edge18" class="edge">
<title>src/js/game.js&#45;&gt;src/js/bot/setup_bot.js</title>
<path fill="none" stroke="#000000" stroke-width="2" stroke-opacity="0.200000" d="M244.97,-267C252.96,-267 261.94,-267 270.68,-267"/>
<polygon fill="#000000" fill-opacity="0.200000" stroke="#000000" stroke-width="2" stroke-opacity="0.200000" points="270.62,-269.1 276.62,-267 270.62,-264.9 270.62,-269.1"/>
</g>
<!-- src/js/names.js -->
<g id="node22" class="node">
<title>src/js/names.js</title>
<g id="a_node22"><a xlink:href="src/js/names.js" xlink:title="names.js">
<path fill="#ffffcc" stroke="black" d="M334.71,-345.62C334.71,-345.62 292.54,-345.62 292.54,-345.62 289.33,-345.62 286.12,-342.42 286.12,-339.21 286.12,-339.21 286.12,-332.79 286.12,-332.79 286.12,-329.58 289.33,-326.38 292.54,-326.38 292.54,-326.38 334.71,-326.38 334.71,-326.38 337.92,-326.38 341.12,-329.58 341.12,-332.79 341.12,-332.79 341.12,-339.21 341.12,-339.21 341.12,-342.42 337.92,-345.62 334.71,-345.62"/>
<text text-anchor="start" x="294.12" y="-333.07" font-family="Helvetica,sans-Serif" font-size="9.00">names.js</text>
</a>
</g>
</g>
<!-- src/js/game.js&#45;&gt;src/js/names.js -->
<g id="edge20" class="edge">
<title>src/js/game.js&#45;&gt;src/js/names.js</title>
<path fill="none" stroke="#000000" stroke-width="2" stroke-opacity="0.200000" d="M224.71,-276.76C232.24,-287.9 245.92,-305.99 261.75,-317 266.59,-320.36 272.09,-323.22 277.65,-325.61"/>
<polygon fill="#000000" fill-opacity="0.200000" stroke="#000000" stroke-width="2" stroke-opacity="0.200000" points="276.6,-327.45 282.95,-327.68 278.13,-323.54 276.6,-327.45"/>
</g>
<!-- src/js/places.js -->
<g id="node23" class="node">
<title>src/js/places.js</title>
<g id="a_node23"><a xlink:href="src/js/places.js" xlink:title="places.js">
<path fill="#ffffcc" stroke="black" d="M334.21,-205.62C334.21,-205.62 293.04,-205.62 293.04,-205.62 289.83,-205.62 286.62,-202.42 286.62,-199.21 286.62,-199.21 286.62,-192.79 286.62,-192.79 286.62,-189.58 289.83,-186.38 293.04,-186.38 293.04,-186.38 334.21,-186.38 334.21,-186.38 337.42,-186.38 340.62,-189.58 340.62,-192.79 340.62,-192.79 340.62,-199.21 340.62,-199.21 340.62,-202.42 337.42,-205.62 334.21,-205.62"/>
<text text-anchor="start" x="294.88" y="-193.07" font-family="Helvetica,sans-Serif" font-size="9.00">places.js</text>
</a>
</g>
</g>
<!-- src/js/game.js&#45;&gt;src/js/places.js -->
<g id="edge21" class="edge">
<title>src/js/game.js&#45;&gt;src/js/places.js</title>
<path fill="none" stroke="#000000" stroke-width="2" stroke-opacity="0.200000" d="M223.54,-257.16C230.47,-244.6 244.11,-223.07 261.75,-211 266.6,-207.68 272.2,-205.09 277.86,-203.06"/>
<polygon fill="#000000" fill-opacity="0.200000" stroke="#000000" stroke-width="2" stroke-opacity="0.200000" points="278.14,-205.17 283.25,-201.38 276.89,-201.16 278.14,-205.17"/>
</g>
<!-- src/js/uno&#45;game.js -->
<g id="node24" class="node">
<title>src/js/uno&#45;game.js</title>
<g id="a_node24"><a xlink:href="src/js/uno-game.js" xlink:title="uno&#45;game.js">
<path fill="#ffffcc" stroke="black" d="M341.46,-236.62C341.46,-236.62 285.79,-236.62 285.79,-236.62 282.58,-236.62 279.38,-233.42 279.38,-230.21 279.38,-230.21 279.38,-223.79 279.38,-223.79 279.38,-220.58 282.58,-217.38 285.79,-217.38 285.79,-217.38 341.46,-217.38 341.46,-217.38 344.67,-217.38 347.88,-220.58 347.88,-223.79 347.88,-223.79 347.88,-230.21 347.88,-230.21 347.88,-233.42 344.67,-236.62 341.46,-236.62"/>
<text text-anchor="start" x="287.38" y="-224.07" font-family="Helvetica,sans-Serif" font-size="9.00">uno&#45;game.js</text>
</a>
</g>
</g>
<!-- src/js/game.js&#45;&gt;src/js/uno&#45;game.js -->
<g id="edge22" class="edge">
<title>src/js/game.js&#45;&gt;src/js/uno&#45;game.js</title>
<path fill="none" stroke="#000000" stroke-width="2" stroke-opacity="0.200000" d="M238.13,-256.98C245.47,-253.37 253.92,-249.35 261.75,-246 266.36,-244.03 271.25,-242.05 276.1,-240.16"/>
<polygon fill="#000000" fill-opacity="0.200000" stroke="#000000" stroke-width="2" stroke-opacity="0.200000" points="276.5,-242.26 281.35,-238.16 275,-238.34 276.5,-242.26"/>
</g>
<!-- src/js/uno/default&#45;engine.js -->
<g id="node25" class="node">
<title>src/js/uno/default&#45;engine.js</title>
<g id="a_node25"><a xlink:href="src/js/uno/default-engine.js" xlink:title="default&#45;engine.js">
<path fill="#ffffcc" stroke="black" d="M563.33,-79.62C563.33,-79.62 491.17,-79.62 491.17,-79.62 487.96,-79.62 484.75,-76.42 484.75,-73.21 484.75,-73.21 484.75,-66.79 484.75,-66.79 484.75,-63.58 487.96,-60.38 491.17,-60.38 491.17,-60.38 563.33,-60.38 563.33,-60.38 566.54,-60.38 569.75,-63.58 569.75,-66.79 569.75,-66.79 569.75,-73.21 569.75,-73.21 569.75,-76.42 566.54,-79.62 563.33,-79.62"/>
<text text-anchor="start" x="492.75" y="-67.08" font-family="Helvetica,sans-Serif" font-size="9.00">default&#45;engine.js</text>
</a>
</g>
</g>
<!-- src/js/game.js&#45;&gt;src/js/uno/default&#45;engine.js -->
<g id="edge23" class="edge">
<title>src/js/game.js&#45;&gt;src/js/uno/default&#45;engine.js</title>
<path fill="none" stroke="#000000" stroke-width="2" stroke-opacity="0.200000" d="M221.04,-257.07C226.03,-239.4 238.69,-202.25 261.75,-180 322,-121.86 417.4,-92.62 475.66,-79.41"/>
<polygon fill="#000000" fill-opacity="0.200000" stroke="#000000" stroke-width="2" stroke-opacity="0.200000" points="475.96,-81.49 481.37,-78.15 475.06,-77.39 475.96,-81.49"/>
</g>
<!-- src/js/uno&#45;game.js&#45;&gt;src/js/helper.js -->
<g id="edge53" class="edge">
<title>src/js/uno&#45;game.js&#45;&gt;src/js/helper.js</title>
<path fill="none" stroke="#000000" stroke-width="2" stroke-opacity="0.200000" d="M348.23,-228.14C415.1,-230.59 560.19,-236.89 581,-246 605.84,-256.87 627.45,-280.22 640.2,-296.27"/>
<polygon fill="#000000" fill-opacity="0.200000" stroke="#000000" stroke-width="2" stroke-opacity="0.200000" points="638.25,-297.18 643.57,-300.66 641.58,-294.62 638.25,-297.18"/>
</g>
<!-- src/js/uno&#45;game.js&#45;&gt;src/js/choose_color.js -->
<g id="edge52" class="edge">
<title>src/js/uno&#45;game.js&#45;&gt;src/js/choose_color.js</title>
<path fill="none" stroke="#000000" stroke-width="2" stroke-opacity="0.200000" d="M348.16,-218.13C383.59,-208.75 439.73,-193.89 479.5,-183.37"/>
<polygon fill="#000000" fill-opacity="0.200000" stroke="#000000" stroke-width="2" stroke-opacity="0.200000" points="480.04,-185.4 485.3,-181.84 478.96,-181.34 480.04,-185.4"/>
</g>
<!-- src/js/layout.js -->
<g id="node26" class="node">
<title>src/js/layout.js</title>
<g id="a_node26"><a xlink:href="src/js/layout.js" xlink:title="layout.js">
<path fill="#ffffcc" stroke="black" d="M547.83,-226.62C547.83,-226.62 506.67,-226.62 506.67,-226.62 503.46,-226.62 500.25,-223.42 500.25,-220.21 500.25,-220.21 500.25,-213.79 500.25,-213.79 500.25,-210.58 503.46,-207.38 506.67,-207.38 506.67,-207.38 547.83,-207.38 547.83,-207.38 551.04,-207.38 554.25,-210.58 554.25,-213.79 554.25,-213.79 554.25,-220.21 554.25,-220.21 554.25,-223.42 551.04,-226.62 547.83,-226.62"/>
<text text-anchor="start" x="510.38" y="-214.07" font-family="Helvetica,sans-Serif" font-size="9.00">layout.js</text>
</a>
</g>
</g>
<!-- src/js/uno&#45;game.js&#45;&gt;src/js/layout.js -->
<g id="edge54" class="edge">
<title>src/js/uno&#45;game.js&#45;&gt;src/js/layout.js</title>
<path fill="none" stroke="#000000" stroke-width="2" stroke-opacity="0.200000" d="M348.16,-225.42C387.19,-223.57 451.36,-220.54 491.08,-218.66"/>
<polygon fill="#000000" fill-opacity="0.200000" stroke="#000000" stroke-width="2" stroke-opacity="0.200000" points="490.98,-220.77 496.87,-218.39 490.78,-216.57 490.98,-220.77"/>
</g>
<!-- src/js/uno.js -->
<g id="node36" class="node">
<title>src/js/uno.js</title>
<g id="a_node36"><a xlink:href="src/js/uno.js" xlink:title="uno.js">
<path fill="#ffffcc" stroke="black" d="M440.08,-157.62C440.08,-157.62 398.92,-157.62 398.92,-157.62 395.71,-157.62 392.5,-154.42 392.5,-151.21 392.5,-151.21 392.5,-144.79 392.5,-144.79 392.5,-141.58 395.71,-138.38 398.92,-138.38 398.92,-138.38 440.08,-138.38 440.08,-138.38 443.29,-138.38 446.5,-141.58 446.5,-144.79 446.5,-144.79 446.5,-151.21 446.5,-151.21 446.5,-154.42 443.29,-157.62 440.08,-157.62"/>
<text text-anchor="start" x="406.75" y="-145.07" font-family="Helvetica,sans-Serif" font-size="9.00">uno.js</text>
</a>
</g>
</g>
<!-- src/js/uno&#45;game.js&#45;&gt;src/js/uno.js -->
<g id="edge55" class="edge">
<title>src/js/uno&#45;game.js&#45;&gt;src/js/uno.js</title>
<path fill="none" stroke="#000000" stroke-width="2" stroke-opacity="0.200000" d="M348.17,-221.51C354.43,-219.32 360.55,-216.27 365.5,-212 375.89,-203.04 370.35,-195.04 378.5,-184 384.08,-176.45 391.44,-169.28 398.33,-163.35"/>
<polygon fill="#000000" fill-opacity="0.200000" stroke="#000000" stroke-width="2" stroke-opacity="0.200000" points="399.34,-165.24 402.64,-159.8 396.67,-162 399.34,-165.24"/>
</g>
<!-- src/js/uno/default&#45;engine.js&#45;&gt;src/js/uno/basic.js -->
<g id="edge60" class="edge">
<title>src/js/uno/default&#45;engine.js&#45;&gt;src/js/uno/basic.js</title>
<path fill="none" stroke="#000000" stroke-width="2" stroke-opacity="0.200000" d="M569.93,-70C585.32,-70 602.61,-70 617.35,-70"/>
<polygon fill="#000000" fill-opacity="0.200000" stroke="#000000" stroke-width="2" stroke-opacity="0.200000" points="617.14,-72.1 623.14,-70 617.14,-67.9 617.14,-72.1"/>
</g>
<!-- src/js/layout.js&#45;&gt;src/js/helper.js -->
<g id="edge24" class="edge">
<title>src/js/layout.js&#45;&gt;src/js/helper.js</title>
<path fill="none" stroke="#000000" stroke-width="2" stroke-opacity="0.200000" d="M554.64,-223.76C563.45,-226.72 573.04,-230.74 581,-236 605.52,-252.22 627.48,-278.57 640.37,-295.84"/>
<polygon fill="#000000" fill-opacity="0.200000" stroke="#000000" stroke-width="2" stroke-opacity="0.200000" points="638.62,-297.01 643.84,-300.63 642.01,-294.54 638.62,-297.01"/>
</g>
<!-- src/js/layout.js&#45;&gt;src/js/uno/basic.js -->
<g id="edge25" class="edge">
<title>src/js/layout.js&#45;&gt;src/js/uno/basic.js</title>
<path fill="none" stroke="#000000" stroke-width="2" stroke-opacity="0.200000" d="M554.49,-213.48C564.26,-210.83 574.54,-206.17 581,-198 612.64,-158.01 560.2,-122.19 594,-84 599.96,-77.27 608.53,-73.48 617.27,-71.42"/>
<polygon fill="#000000" fill-opacity="0.200000" stroke="#000000" stroke-width="2" stroke-opacity="0.200000" points="617.46,-73.52 623,-70.42 616.73,-69.39 617.46,-73.52"/>
</g>
<!-- src/js/lib/qrcode.js -->
<g id="node27" class="node">
<title>src/js/lib/qrcode.js</title>
<g id="a_node27"><a xlink:href="src/js/lib/qrcode.js" xlink:title="qrcode.js">
<path fill="#ffffcc" stroke="black" d="M334.33,-600.62C334.33,-600.62 292.92,-600.62 292.92,-600.62 289.71,-600.62 286.5,-597.42 286.5,-594.21 286.5,-594.21 286.5,-587.79 286.5,-587.79 286.5,-584.58 289.71,-581.38 292.92,-581.38 292.92,-581.38 334.33,-581.38 334.33,-581.38 337.54,-581.38 340.75,-584.58 340.75,-587.79 340.75,-587.79 340.75,-594.21 340.75,-594.21 340.75,-597.42 337.54,-600.62 334.33,-600.62"/>
<text text-anchor="start" x="294.5" y="-588.08" font-family="Helvetica,sans-Serif" font-size="9.00">qrcode.js</text>
</a>
</g>
</g>
<!-- src/js/mode/ai.js&#45;&gt;src/js/helper.js -->
<g id="edge26" class="edge">
<title>src/js/mode/ai.js&#45;&gt;src/js/helper.js</title>
<path fill="none" stroke="#000000" stroke-width="2" stroke-opacity="0.200000" d="M244.8,-546.82C248.29,-544.82 251.45,-542.26 253.75,-539 270.69,-514.99 241.78,-428.56 261.75,-407 359.09,-301.93 447.67,-415.33 581,-363 601.39,-355 621.54,-340.06 635.21,-328.58"/>
<polygon fill="#000000" fill-opacity="0.200000" stroke="#000000" stroke-width="2" stroke-opacity="0.200000" points="636.27,-330.44 639.44,-324.93 633.52,-327.26 636.27,-330.44"/>
</g>
<!-- src/js/mode/ai.js&#45;&gt;src/js/utils/random.js -->
<g id="edge28" class="edge">
<title>src/js/mode/ai.js&#45;&gt;src/js/utils/random.js</title>
<path fill="none" stroke="#000000" stroke-width="2" stroke-opacity="0.200000" d="M244.92,-559.94C293.53,-569.2 397.87,-581.14 460.5,-530 475.64,-517.64 459.52,-501.66 473.5,-488 477.89,-483.71 483.42,-480.63 489.23,-478.42"/>
<polygon fill="#000000" fill-opacity="0.200000" stroke="#000000" stroke-width="2" stroke-opacity="0.200000" points="489.84,-480.43 494.96,-476.66 488.61,-476.41 489.84,-480.43"/>
</g>
<!-- src/js/utils/async&#45;queue.js -->
<g id="node29" class="node">
<title>src/js/utils/async&#45;queue.js</title>
<g id="a_node29"><a xlink:href="src/js/utils/async-queue.js" xlink:title="async&#45;queue.js">
<path fill="#ffffcc" stroke="black" d="M560.33,-513.62C560.33,-513.62 494.17,-513.62 494.17,-513.62 490.96,-513.62 487.75,-510.42 487.75,-507.21 487.75,-507.21 487.75,-500.79 487.75,-500.79 487.75,-497.58 490.96,-494.38 494.17,-494.38 494.17,-494.38 560.33,-494.38 560.33,-494.38 563.54,-494.38 566.75,-497.58 566.75,-500.79 566.75,-500.79 566.75,-507.21 566.75,-507.21 566.75,-510.42 563.54,-513.62 560.33,-513.62"/>
<text text-anchor="start" x="495.75" y="-501.07" font-family="Helvetica,sans-Serif" font-size="9.00">async&#45;queue.js</text>
</a>
</g>
</g>
<!-- src/js/mode/ai.js&#45;&gt;src/js/utils/async&#45;queue.js -->
<g id="edge27" class="edge">
<title>src/js/mode/ai.js&#45;&gt;src/js/utils/async&#45;queue.js</title>
<path fill="none" stroke="#000000" stroke-width="2" stroke-opacity="0.200000" d="M244.96,-561.52C248.34,-563.47 251.42,-565.93 253.75,-569 270.53,-591.15 240.88,-612.65 261.75,-631 296.38,-661.45 321.35,-644.31 365.5,-631 414.01,-616.38 430.97,-609.17 460.5,-568 473.63,-549.69 457.71,-535.07 473.5,-519 475.31,-517.15 477.34,-515.53 479.51,-514.1"/>
<polygon fill="#000000" fill-opacity="0.200000" stroke="#000000" stroke-width="2" stroke-opacity="0.200000" points="480.34,-516.04 484.66,-511.38 478.38,-512.32 480.34,-516.04"/>
</g>
<!-- src/js/mode/hotseat.js&#45;&gt;src/js/utils/random.js -->
<g id="edge29" class="edge">
<title>src/js/mode/hotseat.js&#45;&gt;src/js/utils/random.js</title>
<path fill="none" stroke="#000000" stroke-width="2" stroke-opacity="0.200000" d="M242.83,-626.02C248.91,-628.08 255.48,-629.94 261.75,-631 307.22,-638.66 322.23,-646.94 365.5,-631 417.56,-611.82 432.18,-597.71 460.5,-550 474.87,-525.79 454.3,-508.6 473.5,-488 477.83,-483.36 483.48,-480.11 489.48,-477.86"/>
<polygon fill="#000000" fill-opacity="0.200000" stroke="#000000" stroke-width="2" stroke-opacity="0.200000" points="489.73,-479.97 494.87,-476.23 488.52,-475.95 489.73,-479.97"/>
</g>
<!-- src/js/mode/net.js&#45;&gt;src/js/actions_uno_client.js -->
<g id="edge30" class="edge">
<title>src/js/mode/net.js&#45;&gt;src/js/actions_uno_client.js</title>
<path fill="none" stroke="#000000" stroke-width="2" stroke-opacity="0.200000" d="M244.8,-530.18C248.29,-532.18 251.45,-534.74 253.75,-538 270.57,-561.83 247.05,-643.81 261.75,-669 266.17,-676.57 273.09,-682.71 280.43,-687.54"/>
<polygon fill="#000000" fill-opacity="0.200000" stroke="#000000" stroke-width="2" stroke-opacity="0.200000" points="278.99,-689.13 285.22,-690.4 281.14,-685.52 278.99,-689.13"/>
</g>
<!-- src/js/mode/net.js&#45;&gt;src/js/actions_uno_server.js -->
<g id="edge31" class="edge">
<title>src/js/mode/net.js&#45;&gt;src/js/actions_uno_server.js</title>
<path fill="none" stroke="#000000" stroke-width="2" stroke-opacity="0.200000" d="M244.73,-530.23C248.23,-532.23 251.41,-534.77 253.75,-538 265.92,-554.8 247.9,-615.56 261.75,-631 288.16,-660.44 395,-673.67 464.54,-679.27"/>
<polygon fill="#000000" fill-opacity="0.200000" stroke="#000000" stroke-width="2" stroke-opacity="0.200000" points="464.09,-681.34 470.24,-679.71 464.42,-677.15 464.09,-681.34"/>
</g>
<!-- src/js/mode/net.js&#45;&gt;src/js/helper.js -->
<g id="edge33" class="edge">
<title>src/js/mode/net.js&#45;&gt;src/js/helper.js</title>
<path fill="none" stroke="#000000" stroke-width="2" stroke-opacity="0.200000" d="M244.75,-516.56C248.25,-514.65 251.42,-512.19 253.75,-509 268.99,-488.13 243.31,-411.1 261.75,-393 363.15,-293.49 449.63,-431.08 581,-377 605.07,-367.09 626.37,-345.4 639.3,-330.02"/>
<polygon fill="#000000" fill-opacity="0.200000" stroke="#000000" stroke-width="2" stroke-opacity="0.200000" points="640.89,-331.39 643.05,-325.41 637.63,-328.75 640.89,-331.39"/>
</g>
<!-- src/js/mode/net.js&#45;&gt;src/js/utils/random.js -->
<g id="edge36" class="edge">
<title>src/js/mode/net.js&#45;&gt;src/js/utils/random.js</title>
<path fill="none" stroke="#000000" stroke-width="2" stroke-opacity="0.200000" d="M244.72,-516.54C248.22,-514.64 251.4,-512.18 253.75,-509 267.25,-490.7 245.06,-422.44 261.75,-407 277.96,-392.01 443.06,-393.45 460.5,-407 478.97,-421.35 457.19,-441.23 473.5,-458 477.93,-462.55 483.63,-465.75 489.64,-467.99"/>
<polygon fill="#000000" fill-opacity="0.200000" stroke="#000000" stroke-width="2" stroke-opacity="0.200000" points="488.68,-469.9 495.04,-469.62 489.9,-465.87 488.68,-469.9"/>
</g>
<!-- src/js/mode/net.js&#45;&gt;src/js/connection/client.js -->
<g id="edge32" class="edge">
<title>src/js/mode/net.js&#45;&gt;src/js/connection/client.js</title>
<path fill="none" stroke="#000000" stroke-width="2" stroke-opacity="0.200000" d="M244.96,-516.26C248.33,-514.4 251.42,-512.02 253.75,-509 271.79,-485.6 242.66,-465.55 261.75,-443 265.92,-438.07 271.63,-434.72 277.71,-432.44"/>
<polygon fill="#000000" fill-opacity="0.200000" stroke="#000000" stroke-width="2" stroke-opacity="0.200000" points="278.06,-434.53 283.23,-430.82 276.88,-430.5 278.06,-434.53"/>
</g>
<!-- src/js/mode/net.js&#45;&gt;src/js/names.js -->
<g id="edge34" class="edge">
<title>src/js/mode/net.js&#45;&gt;src/js/names.js</title>
<path fill="none" stroke="#000000" stroke-width="2" stroke-opacity="0.200000" d="M244.8,-516.59C248.29,-514.68 251.45,-512.21 253.75,-509 273.73,-481.16 241.49,-382.64 261.75,-355 265.66,-349.67 271.24,-345.83 277.29,-343.07"/>
<polygon fill="#000000" fill-opacity="0.200000" stroke="#000000" stroke-width="2" stroke-opacity="0.200000" points="277.99,-345.05 282.88,-340.99 276.52,-341.12 277.99,-345.05"/>
</g>
<!-- src/js/mode/net.js&#45;&gt;src/js/utils/async&#45;queue.js -->
<g id="edge35" class="edge">
<title>src/js/mode/net.js&#45;&gt;src/js/utils/async&#45;queue.js</title>
<path fill="none" stroke="#000000" stroke-width="2" stroke-opacity="0.200000" d="M244.95,-529.97C290.57,-540.66 386.3,-557.18 460.5,-530 467.61,-527.4 466.82,-522.56 473.5,-519 475.41,-517.98 477.4,-517.03 479.44,-516.13"/>
<polygon fill="#000000" fill-opacity="0.200000" stroke="#000000" stroke-width="2" stroke-opacity="0.200000" points="479.84,-518.23 484.65,-514.07 478.3,-514.32 479.84,-518.23"/>
</g>
<!-- src/js/mode/server.js&#45;&gt;src/js/actions_uno_client.js -->
<g id="edge37" class="edge">
<title>src/js/mode/server.js&#45;&gt;src/js/actions_uno_client.js</title>
<path fill="none" stroke="#000000" stroke-width="2" stroke-opacity="0.200000" d="M244.7,-592.25C248.2,-594.25 251.39,-596.78 253.75,-600 275.65,-629.9 239.18,-653.6 261.75,-683 262.83,-684.4 264.02,-685.7 265.3,-686.9"/>
<polygon fill="#000000" fill-opacity="0.200000" stroke="#000000" stroke-width="2" stroke-opacity="0.200000" points="263.89,-688.47 269.96,-690.35 266.39,-685.09 263.89,-688.47"/>
</g>
<!-- src/js/mode/server.js&#45;&gt;src/js/actions_uno_server.js -->
<g id="edge38" class="edge">
<title>src/js/mode/server.js&#45;&gt;src/js/actions_uno_server.js</title>
<path fill="none" stroke="#000000" stroke-width="2" stroke-opacity="0.200000" d="M245,-592.49C248.37,-594.45 251.44,-596.91 253.75,-600 262.99,-612.36 250.5,-658.43 261.75,-669 276.18,-682.56 390.94,-684.21 464.48,-683.84"/>
<polygon fill="#000000" fill-opacity="0.200000" stroke="#000000" stroke-width="2" stroke-opacity="0.200000" points="464.22,-685.94 470.21,-683.8 464.19,-681.74 464.22,-685.94"/>
</g>
<!-- src/js/mode/server.js&#45;&gt;src/js/helper.js -->
<g id="edge40" class="edge">
<title>src/js/mode/server.js&#45;&gt;src/js/helper.js</title>
<path fill="none" stroke="#000000" stroke-width="2" stroke-opacity="0.200000" d="M244.84,-577.84C248.32,-575.84 251.47,-573.27 253.75,-570 264.12,-555.12 250.18,-420.96 261.75,-407 307.31,-352.01 529.88,-324.85 617.16,-316.18"/>
<polygon fill="#000000" fill-opacity="0.200000" stroke="#000000" stroke-width="2" stroke-opacity="0.200000" points="617.12,-318.29 622.89,-315.62 616.72,-314.11 617.12,-318.29"/>
</g>
<!-- src/js/mode/server.js&#45;&gt;src/js/connection/server.js -->
<g id="edge39" class="edge">
<title>src/js/mode/server.js&#45;&gt;src/js/connection/server.js</title>
<path fill="none" stroke="#000000" stroke-width="2" stroke-opacity="0.200000" d="M244.74,-577.77C248.23,-575.78 251.41,-573.23 253.75,-570 266.29,-552.65 248.23,-490.6 261.75,-474 265.87,-468.94 271.6,-465.54 277.74,-463.26"/>
<polygon fill="#000000" fill-opacity="0.200000" stroke="#000000" stroke-width="2" stroke-opacity="0.200000" points="278.16,-465.32 283.34,-461.63 276.99,-461.29 278.16,-465.32"/>
</g>
<!-- src/js/mode/server.js&#45;&gt;src/js/lib/qrcode.js -->
<g id="edge41" class="edge">
<title>src/js/mode/server.js&#45;&gt;src/js/lib/qrcode.js</title>
<path fill="none" stroke="#000000" stroke-width="2" stroke-opacity="0.200000" d="M244.97,-586.69C254.99,-587.33 266.57,-588.06 277.29,-588.75"/>
<polygon fill="#000000" fill-opacity="0.200000" stroke="#000000" stroke-width="2" stroke-opacity="0.200000" points="276.89,-590.83 283.01,-589.11 277.15,-586.63 276.89,-590.83"/>
</g>
<!-- src/js/mode/server.js&#45;&gt;src/js/utils/async&#45;queue.js -->
<g id="edge42" class="edge">
<title>src/js/mode/server.js&#45;&gt;src/js/utils/async&#45;queue.js</title>
<path fill="none" stroke="#000000" stroke-width="2" stroke-opacity="0.200000" d="M244.8,-574.99C250.34,-573.14 256.19,-571.36 261.75,-570 272.59,-567.35 451.23,-547.22 460.5,-541 469.93,-534.67 464.51,-525.94 473.5,-519 475.31,-517.6 477.25,-516.33 479.28,-515.18"/>
<polygon fill="#000000" fill-opacity="0.200000" stroke="#000000" stroke-width="2" stroke-opacity="0.200000" points="480.18,-517.08 484.69,-512.61 478.37,-513.29 480.18,-517.08"/>
</g>
<!-- src/js/player.js -->
<g id="node34" class="node">
<title>src/js/player.js</title>
<g id="a_node34"><a xlink:href="src/js/player.js" xlink:title="player.js">
<path fill="#ffffcc" stroke="black" d="M547.83,-134.62C547.83,-134.62 506.67,-134.62 506.67,-134.62 503.46,-134.62 500.25,-131.42 500.25,-128.21 500.25,-128.21 500.25,-121.79 500.25,-121.79 500.25,-118.58 503.46,-115.38 506.67,-115.38 506.67,-115.38 547.83,-115.38 547.83,-115.38 551.04,-115.38 554.25,-118.58 554.25,-121.79 554.25,-121.79 554.25,-128.21 554.25,-128.21 554.25,-131.42 551.04,-134.62 547.83,-134.62"/>
<text text-anchor="start" x="510" y="-122.08" font-family="Helvetica,sans-Serif" font-size="9.00">player.js</text>
</a>
</g>
</g>
<!-- src/js/player.js&#45;&gt;src/js/uno/basic.js -->
<g id="edge43" class="edge">
<title>src/js/player.js&#45;&gt;src/js/uno/basic.js</title>
<path fill="none" stroke="#000000" stroke-width="2" stroke-opacity="0.200000" d="M554.7,-121.91C563.82,-119.77 573.6,-116.14 581,-110 590.95,-101.76 583.88,-92.04 594,-84 600.72,-78.66 609.16,-75.31 617.52,-73.21"/>
<polygon fill="#000000" fill-opacity="0.200000" stroke="#000000" stroke-width="2" stroke-opacity="0.200000" points="617.7,-75.32 623.16,-72.07 616.86,-71.21 617.7,-75.32"/>
</g>
<!-- src/js/uno.js&#45;&gt;src/js/uno/basic.js -->
<g id="edge58" class="edge">
<title>src/js/uno.js&#45;&gt;src/js/uno/basic.js</title>
<path fill="none" stroke="#000000" stroke-width="2" stroke-opacity="0.200000" d="M446.77,-150.55C487,-153.86 561.29,-157.43 581,-141 600.96,-124.36 575.73,-102.48 594,-84 600.27,-77.66 608.86,-74 617.52,-71.93"/>
<polygon fill="#000000" fill-opacity="0.200000" stroke="#000000" stroke-width="2" stroke-opacity="0.200000" points="617.63,-74.04 623.15,-70.89 616.87,-69.91 617.63,-74.04"/>
</g>
<!-- src/js/uno.js&#45;&gt;src/js/utils/handlers.js -->
<g id="edge59" class="edge">
<title>src/js/uno.js&#45;&gt;src/js/utils/handlers.js</title>
<path fill="none" stroke="#000000" stroke-width="2" stroke-opacity="0.200000" d="M425.32,-158.08C433.53,-175.61 450.33,-212.98 460.5,-246 468.66,-272.49 465.54,-280.45 473.5,-307 486.36,-349.91 506.84,-398.42 518.13,-423.99"/>
<polygon fill="#000000" fill-opacity="0.200000" stroke="#000000" stroke-width="2" stroke-opacity="0.200000" points="516.12,-424.64 520.48,-429.27 519.95,-422.94 516.12,-424.64"/>
</g>
<!-- src/js/uno.js&#45;&gt;src/js/deck.js -->
<g id="edge56" class="edge">
<title>src/js/uno.js&#45;&gt;src/js/deck.js</title>
<path fill="none" stroke="#000000" stroke-width="2" stroke-opacity="0.200000" d="M423.05,-137.88C428.64,-117.81 443.9,-72.85 473.5,-49 478.65,-44.85 484.88,-41.85 491.24,-39.68"/>
<polygon fill="#000000" fill-opacity="0.200000" stroke="#000000" stroke-width="2" stroke-opacity="0.200000" points="491.79,-41.71 496.98,-38.04 490.63,-37.67 491.79,-41.71"/>
</g>
<!-- src/js/uno.js&#45;&gt;src/js/player.js -->
<g id="edge57" class="edge">
<title>src/js/uno.js&#45;&gt;src/js/player.js</title>
<path fill="none" stroke="#000000" stroke-width="2" stroke-opacity="0.200000" d="M446.91,-142.26C460.29,-139.35 476.71,-135.78 491.13,-132.64"/>
<polygon fill="#000000" fill-opacity="0.200000" stroke="#000000" stroke-width="2" stroke-opacity="0.200000" points="491.43,-134.72 496.85,-131.39 490.54,-130.62 491.43,-134.72"/>
</g>
<!-- src/js/utils/ellipse.js -->
<g id="node37" class="node">
<title>src/js/utils/ellipse.js</title>
<g id="a_node37"><a xlink:href="src/js/utils/ellipse.js" xlink:title="ellipse.js">
<path fill="#ccffcc" stroke="black" d="M547.83,-544.62C547.83,-544.62 506.67,-544.62 506.67,-544.62 503.46,-544.62 500.25,-541.42 500.25,-538.21 500.25,-538.21 500.25,-531.79 500.25,-531.79 500.25,-528.58 503.46,-525.38 506.67,-525.38 506.67,-525.38 547.83,-525.38 547.83,-525.38 551.04,-525.38 554.25,-528.58 554.25,-531.79 554.25,-531.79 554.25,-538.21 554.25,-538.21 554.25,-541.42 551.04,-544.62 547.83,-544.62"/>
<text text-anchor="start" x="508.5" y="-532.08" font-family="Helvetica,sans-Serif" font-size="9.00">ellipse.js</text>
</a>
</g>
</g>
<!-- src/js/utils/enum.js -->
<g id="node38" class="node">
<title>src/js/utils/enum.js</title>
<g id="a_node38"><a xlink:href="src/js/utils/enum.js" xlink:title="enum.js">
<path fill="#ccffcc" stroke="black" d="M547.83,-575.62C547.83,-575.62 506.67,-575.62 506.67,-575.62 503.46,-575.62 500.25,-572.42 500.25,-569.21 500.25,-569.21 500.25,-562.79 500.25,-562.79 500.25,-559.58 503.46,-556.38 506.67,-556.38 506.67,-556.38 547.83,-556.38 547.83,-556.38 551.04,-556.38 554.25,-559.58 554.25,-562.79 554.25,-562.79 554.25,-569.21 554.25,-569.21 554.25,-572.42 551.04,-575.62 547.83,-575.62"/>
<text text-anchor="start" x="510.38" y="-563.08" font-family="Helvetica,sans-Serif" font-size="9.00">enum.js</text>
</a>
</g>
</g>
<!-- src/js/utils/queue.js -->
<g id="node39" class="node">
<title>src/js/utils/queue.js</title>
<g id="a_node39"><a xlink:href="src/js/utils/queue.js" xlink:title="queue.js">
<path fill="#ccffcc" stroke="black" d="M547.83,-606.62C547.83,-606.62 506.67,-606.62 506.67,-606.62 503.46,-606.62 500.25,-603.42 500.25,-600.21 500.25,-600.21 500.25,-593.79 500.25,-593.79 500.25,-590.58 503.46,-587.38 506.67,-587.38 506.67,-587.38 547.83,-587.38 547.83,-587.38 551.04,-587.38 554.25,-590.58 554.25,-593.79 554.25,-593.79 554.25,-600.21 554.25,-600.21 554.25,-603.42 551.04,-606.62 547.83,-606.62"/>
<text text-anchor="start" x="509.25" y="-594.08" font-family="Helvetica,sans-Serif" font-size="9.00">queue.js</text>
</a>
</g>
</g>
<!-- src/js/utils/timer.js -->
<g id="node40" class="node">
<title>src/js/utils/timer.js</title>
<g id="a_node40"><a xlink:href="src/js/utils/timer.js" xlink:title="timer.js">
<path fill="#ccffcc" stroke="black" d="M547.83,-637.62C547.83,-637.62 506.67,-637.62 506.67,-637.62 503.46,-637.62 500.25,-634.42 500.25,-631.21 500.25,-631.21 500.25,-624.79 500.25,-624.79 500.25,-621.58 503.46,-618.38 506.67,-618.38 506.67,-618.38 547.83,-618.38 547.83,-618.38 551.04,-618.38 554.25,-621.58 554.25,-624.79 554.25,-624.79 554.25,-631.21 554.25,-631.21 554.25,-634.42 551.04,-637.62 547.83,-637.62"/>
<text text-anchor="start" x="511.88" y="-625.08" font-family="Helvetica,sans-Serif" font-size="9.00">timer.js</text>
</a>
</g>
</g>
<!-- src/sw.js -->
<g id="node41" class="node">
<title>src/sw.js</title>
<g id="a_node41"><a xlink:href="src/sw.js" xlink:title="sw.js">
<path fill="#ccffcc" stroke="black" d="M63.58,-703.62C63.58,-703.62 22.42,-703.62 22.42,-703.62 19.21,-703.62 16,-700.42 16,-697.21 16,-697.21 16,-690.79 16,-690.79 16,-687.58 19.21,-684.38 22.42,-684.38 22.42,-684.38 63.58,-684.38 63.58,-684.38 66.79,-684.38 70,-687.58 70,-690.79 70,-690.79 70,-697.21 70,-697.21 70,-700.42 66.79,-703.62 63.58,-703.62"/>
<text text-anchor="start" x="32.12" y="-691.08" font-family="Helvetica,sans-Serif" font-size="9.00">sw.js</text>
</a>
</g>
</g>
</g>
</svg>
