<?xml version="1.0" encoding="UTF-8" standalone="no"?>
<!DOCTYPE svg PUBLIC "-//W3C//DTD SVG 1.1//EN"
 "http://www.w3.org/Graphics/SVG/1.1/DTD/svg11.dtd">
<!-- Generated by graphviz version 11.0.0 (20240428.1522)
 -->
<!-- Title: G Pages: 1 -->
<svg width="1749pt" height="1106pt"
 viewBox="0.00 0.00 1749.20 1105.84" xmlns="http://www.w3.org/2000/svg" xmlns:xlink="http://www.w3.org/1999/xlink">
<g id="graph0" class="graph" transform="scale(1 1) rotate(0) translate(21.6 1084.24)">
<title>G</title>
<polygon fill="#111111" stroke="none" points="-21.6,21.6 -21.6,-1084.24 1727.6,-1084.24 1727.6,21.6 -21.6,21.6"/>
<!-- index.js -->
<g id="node1" class="node">
<title>index.js</title>
<path fill="none" stroke="#c6c5fe" d="M80.96,-207.5C80.96,-207.5 33.29,-207.5 33.29,-207.5 29.21,-207.5 25.12,-203.42 25.12,-199.33 25.12,-199.33 25.12,-191.17 25.12,-191.17 25.12,-187.08 29.21,-183 33.29,-183 33.29,-183 80.96,-183 80.96,-183 85.04,-183 89.12,-187.08 89.12,-191.17 89.12,-191.17 89.12,-199.33 89.12,-199.33 89.12,-203.42 85.04,-207.5 80.96,-207.5"/>
<text text-anchor="middle" x="57.12" y="-190.2" font-family="Arial" font-size="14.00" fill="#c6c5fe">index.js</text>
</g>
<!-- js/starter.js -->
<g id="node2" class="node">
<title>js/starter.js</title>
<path fill="none" stroke="#c6c5fe" d="M271.33,-229.5C271.33,-229.5 203.42,-229.5 203.42,-229.5 199.33,-229.5 195.25,-225.42 195.25,-221.33 195.25,-221.33 195.25,-213.17 195.25,-213.17 195.25,-209.08 199.33,-205 203.42,-205 203.42,-205 271.33,-205 271.33,-205 275.42,-205 279.5,-209.08 279.5,-213.17 279.5,-213.17 279.5,-221.33 279.5,-221.33 279.5,-225.42 275.42,-229.5 271.33,-229.5"/>
<text text-anchor="middle" x="237.38" y="-212.2" font-family="Arial" font-size="14.00" fill="#c6c5fe">js/starter.js</text>
</g>
<!-- index.js&#45;&gt;js/starter.js -->
<g id="edge1" class="edge">
<title>index.js&#45;&gt;js/starter.js</title>
<path fill="none" stroke="#757575" d="M89.58,-199.13C115.55,-202.34 152.96,-206.95 183.52,-210.73"/>
<polygon fill="#757575" stroke="#757575" points="183,-214.19 193.35,-211.94 183.85,-207.24 183,-214.19"/>
</g>
<!-- js/views/install_as_app.js -->
<g id="node3" class="node">
<title>js/views/install_as_app.js</title>
<path fill="none" stroke="#cfffac" d="M316.33,-186.5C316.33,-186.5 158.42,-186.5 158.42,-186.5 154.33,-186.5 150.25,-182.42 150.25,-178.33 150.25,-178.33 150.25,-170.17 150.25,-170.17 150.25,-166.08 154.33,-162 158.42,-162 158.42,-162 316.33,-162 316.33,-162 320.42,-162 324.5,-166.08 324.5,-170.17 324.5,-170.17 324.5,-178.33 324.5,-178.33 324.5,-182.42 320.42,-186.5 316.33,-186.5"/>
<text text-anchor="middle" x="237.38" y="-169.2" font-family="Arial" font-size="14.00" fill="#cfffac">js/views/install_as_app.js</text>
</g>
<!-- index.js&#45;&gt;js/views/install_as_app.js -->
<g id="edge2" class="edge">
<title>index.js&#45;&gt;js/views/install_as_app.js</title>
<path fill="none" stroke="#757575" d="M89.58,-191.54C103.59,-189.89 120.92,-187.85 138.71,-185.76"/>
<polygon fill="#757575" stroke="#757575" points="139.1,-189.23 148.62,-184.59 138.28,-182.28 139.1,-189.23"/>
</g>
<!-- js/game.js -->
<g id="node20" class="node">
<title>js/game.js</title>
<path fill="none" stroke="#c6c5fe" d="M454.96,-740.5C454.96,-740.5 390.79,-740.5 390.79,-740.5 386.71,-740.5 382.62,-736.42 382.62,-732.33 382.62,-732.33 382.62,-724.17 382.62,-724.17 382.62,-720.08 386.71,-716 390.79,-716 390.79,-716 454.96,-716 454.96,-716 459.04,-716 463.12,-720.08 463.12,-724.17 463.12,-724.17 463.12,-732.33 463.12,-732.33 463.12,-736.42 459.04,-740.5 454.96,-740.5"/>
<text text-anchor="middle" x="422.88" y="-723.2" font-family="Arial" font-size="14.00" fill="#c6c5fe">js/game.js</text>
</g>
<!-- js/starter.js&#45;&gt;js/game.js -->
<g id="edge50" class="edge">
<title>js/starter.js&#45;&gt;js/game.js</title>
<path fill="none" stroke="#757575" d="M242.36,-229.7C257.16,-275.79 310.72,-441.02 360.5,-575.25 377.72,-621.68 399.7,-675.24 412.14,-705.09"/>
<polygon fill="#757575" stroke="#757575" points="408.88,-706.37 415.97,-714.25 415.34,-703.67 408.88,-706.37"/>
</g>
<!-- js/helper.js -->
<g id="node26" class="node">
<title>js/helper.js</title>
<path fill="none" stroke="#cfffac" d="M678.33,-147.5C678.33,-147.5 610.42,-147.5 610.42,-147.5 606.33,-147.5 602.25,-143.42 602.25,-139.33 602.25,-139.33 602.25,-131.17 602.25,-131.17 602.25,-127.08 606.33,-123 610.42,-123 610.42,-123 678.33,-123 678.33,-123 682.42,-123 686.5,-127.08 686.5,-131.17 686.5,-131.17 686.5,-139.33 686.5,-139.33 686.5,-143.42 682.42,-147.5 678.33,-147.5"/>
<text text-anchor="middle" x="644.38" y="-130.2" font-family="Arial" font-size="14.00" fill="#cfffac">js/helper.js</text>
</g>
<!-- js/starter.js&#45;&gt;js/helper.js -->
<g id="edge51" class="edge">
<title>js/starter.js&#45;&gt;js/helper.js</title>
<path fill="none" stroke="#757575" d="M279.81,-208.86C354.04,-193.83 509.52,-162.35 591,-145.85"/>
<polygon fill="#757575" stroke="#757575" points="591.4,-149.34 600.51,-143.93 590.02,-142.48 591.4,-149.34"/>
</g>
<!-- js/mode/ai.js -->
<g id="node28" class="node">
<title>js/mode/ai.js</title>
<path fill="none" stroke="#c6c5fe" d="M462.46,-566.5C462.46,-566.5 383.29,-566.5 383.29,-566.5 379.21,-566.5 375.12,-562.42 375.12,-558.33 375.12,-558.33 375.12,-550.17 375.12,-550.17 375.12,-546.08 379.21,-542 383.29,-542 383.29,-542 462.46,-542 462.46,-542 466.54,-542 470.62,-546.08 470.62,-550.17 470.62,-550.17 470.62,-558.33 470.62,-558.33 470.62,-562.42 466.54,-566.5 462.46,-566.5"/>
<text text-anchor="middle" x="422.88" y="-549.2" font-family="Arial" font-size="14.00" fill="#c6c5fe">js/mode/ai.js</text>
</g>
<!-- js/starter.js&#45;&gt;js/mode/ai.js -->
<g id="edge52" class="edge">
<title>js/starter.js&#45;&gt;js/mode/ai.js</title>
<path fill="none" stroke="#757575" d="M245.12,-229.64C272.32,-279.6 374.14,-466.59 409.6,-531.71"/>
<polygon fill="#757575" stroke="#757575" points="406.49,-533.31 414.34,-540.41 412.63,-529.96 406.49,-533.31"/>
</g>
<!-- js/mode/hotseat.js -->
<g id="node30" class="node">
<title>js/mode/hotseat.js</title>
<path fill="none" stroke="#c6c5fe" d="M1153.96,-308.5C1153.96,-308.5 1038.79,-308.5 1038.79,-308.5 1034.71,-308.5 1030.62,-304.42 1030.62,-300.33 1030.62,-300.33 1030.62,-292.17 1030.62,-292.17 1030.62,-288.08 1034.71,-284 1038.79,-284 1038.79,-284 1153.96,-284 1153.96,-284 1158.04,-284 1162.12,-288.08 1162.12,-292.17 1162.12,-292.17 1162.12,-300.33 1162.12,-300.33 1162.12,-304.42 1158.04,-308.5 1153.96,-308.5"/>
<text text-anchor="middle" x="1096.38" y="-291.2" font-family="Arial" font-size="14.00" fill="#c6c5fe">js/mode/hotseat.js</text>
</g>
<!-- js/starter.js&#45;&gt;js/mode/hotseat.js -->
<g id="edge53" class="edge">
<title>js/starter.js&#45;&gt;js/mode/hotseat.js</title>
<path fill="none" stroke="#757575" d="M279.6,-210.62C294.29,-207.26 310.62,-202.34 324.5,-195.25 343.05,-185.77 342.23,-175.25 360.5,-165.25 520.4,-77.69 591.02,-68.55 767.5,-114.25 891.51,-146.36 1018.57,-236.62 1070.75,-276.68"/>
<polygon fill="#757575" stroke="#757575" points="1068.36,-279.25 1078.4,-282.62 1072.65,-273.72 1068.36,-279.25"/>
</g>
<!-- js/mode/net.js -->
<g id="node31" class="node">
<title>js/mode/net.js</title>
<path fill="none" stroke="#c6c5fe" d="M466.96,-406.5C466.96,-406.5 378.79,-406.5 378.79,-406.5 374.71,-406.5 370.62,-402.42 370.62,-398.33 370.62,-398.33 370.62,-390.17 370.62,-390.17 370.62,-386.08 374.71,-382 378.79,-382 378.79,-382 466.96,-382 466.96,-382 471.04,-382 475.12,-386.08 475.12,-390.17 475.12,-390.17 475.12,-398.33 475.12,-398.33 475.12,-402.42 471.04,-406.5 466.96,-406.5"/>
<text text-anchor="middle" x="422.88" y="-389.2" font-family="Arial" font-size="14.00" fill="#c6c5fe">js/mode/net.js</text>
</g>
<!-- js/starter.js&#45;&gt;js/mode/net.js -->
<g id="edge54" class="edge">
<title>js/starter.js&#45;&gt;js/mode/net.js</title>
<path fill="none" stroke="#757575" d="M251.57,-229.98C283.05,-260.34 362.74,-337.21 400.89,-374.01"/>
<polygon fill="#757575" stroke="#757575" points="398.08,-376.16 407.71,-380.59 402.94,-371.12 398.08,-376.16"/>
</g>
<!-- js/mode/server.js -->
<g id="node32" class="node">
<title>js/mode/server.js</title>
<path fill="none" stroke="#c6c5fe" d="M477.08,-270.5C477.08,-270.5 368.67,-270.5 368.67,-270.5 364.58,-270.5 360.5,-266.42 360.5,-262.33 360.5,-262.33 360.5,-254.17 360.5,-254.17 360.5,-250.08 364.58,-246 368.67,-246 368.67,-246 477.08,-246 477.08,-246 481.17,-246 485.25,-250.08 485.25,-254.17 485.25,-254.17 485.25,-262.33 485.25,-262.33 485.25,-266.42 481.17,-270.5 477.08,-270.5"/>
<text text-anchor="middle" x="422.88" y="-253.2" font-family="Arial" font-size="14.00" fill="#c6c5fe">js/mode/server.js</text>
</g>
<!-- js/starter.js&#45;&gt;js/mode/server.js -->
<g id="edge55" class="edge">
<title>js/starter.js&#45;&gt;js/mode/server.js</title>
<path fill="none" stroke="#757575" d="M279.56,-226.45C301.36,-231.32 328.72,-237.44 353.6,-243"/>
<polygon fill="#757575" stroke="#757575" points="352.83,-246.41 363.35,-245.17 354.36,-239.58 352.83,-246.41"/>
</g>
<!-- js/mode/test.js -->
<g id="node33" class="node">
<title>js/mode/test.js</title>
<path fill="none" stroke="#cfffac" d="M468.83,-67.5C468.83,-67.5 376.92,-67.5 376.92,-67.5 372.83,-67.5 368.75,-63.42 368.75,-59.33 368.75,-59.33 368.75,-51.17 368.75,-51.17 368.75,-47.08 372.83,-43 376.92,-43 376.92,-43 468.83,-43 468.83,-43 472.92,-43 477,-47.08 477,-51.17 477,-51.17 477,-59.33 477,-59.33 477,-63.42 472.92,-67.5 468.83,-67.5"/>
<text text-anchor="middle" x="422.88" y="-50.2" font-family="Arial" font-size="14.00" fill="#cfffac">js/mode/test.js</text>
</g>
<!-- js/starter.js&#45;&gt;js/mode/test.js -->
<g id="edge56" class="edge">
<title>js/starter.js&#45;&gt;js/mode/test.js</title>
<path fill="none" stroke="#757575" d="M279.75,-215.1C295.49,-212.3 312.5,-206.6 324.5,-195.25 363.1,-158.74 324.75,-120.56 360.5,-81.25 362.99,-78.51 365.82,-76.05 368.86,-73.84"/>
<polygon fill="#757575" stroke="#757575" points="370.51,-76.94 377.21,-68.73 366.85,-70.97 370.51,-76.94"/>
</g>
<!-- js/settings.js -->
<g id="node34" class="node">
<title>js/settings.js</title>
<path fill="none" stroke="#cfffac" d="M461.71,-24.5C461.71,-24.5 384.04,-24.5 384.04,-24.5 379.96,-24.5 375.88,-20.42 375.88,-16.33 375.88,-16.33 375.88,-8.17 375.88,-8.17 375.88,-4.08 379.96,0 384.04,0 384.04,0 461.71,0 461.71,0 465.79,0 469.88,-4.08 469.88,-8.17 469.88,-8.17 469.88,-16.33 469.88,-16.33 469.88,-20.42 465.79,-24.5 461.71,-24.5"/>
<text text-anchor="middle" x="422.88" y="-7.2" font-family="Arial" font-size="14.00" fill="#cfffac">js/settings.js</text>
</g>
<!-- js/starter.js&#45;&gt;js/settings.js -->
<g id="edge57" class="edge">
<title>js/starter.js&#45;&gt;js/settings.js</title>
<path fill="none" stroke="#757575" d="M279.81,-215.69C295.75,-213 312.89,-207.21 324.5,-195.25 375.56,-142.63 311.97,-89.21 360.5,-34.25 362.17,-32.35 364.02,-30.62 366,-29.04"/>
<polygon fill="#757575" stroke="#757575" points="367.6,-32.17 374.13,-23.83 363.82,-26.28 367.6,-32.17"/>
</g>
<!-- js/actions/actions_uno_client.js -->
<g id="node4" class="node">
<title>js/actions/actions_uno_client.js</title>
<path fill="none" stroke="#c6c5fe" d="M741.71,-270.5C741.71,-270.5 547.04,-270.5 547.04,-270.5 542.96,-270.5 538.88,-266.42 538.88,-262.33 538.88,-262.33 538.88,-254.17 538.88,-254.17 538.88,-250.08 542.96,-246 547.04,-246 547.04,-246 741.71,-246 741.71,-246 745.79,-246 749.88,-250.08 749.88,-254.17 749.88,-254.17 749.88,-262.33 749.88,-262.33 749.88,-266.42 745.79,-270.5 741.71,-270.5"/>
<text text-anchor="middle" x="644.38" y="-253.2" font-family="Arial" font-size="14.00" fill="#c6c5fe">js/actions/actions_uno_client.js</text>
</g>
<!-- js/actions/actions_uno_common.js -->
<g id="node5" class="node">
<title>js/actions/actions_uno_common.js</title>
<path fill="none" stroke="#cfffac" d="M1697.83,-288.5C1697.83,-288.5 1480.67,-288.5 1480.67,-288.5 1476.58,-288.5 1472.5,-284.42 1472.5,-280.33 1472.5,-280.33 1472.5,-272.17 1472.5,-272.17 1472.5,-268.08 1476.58,-264 1480.67,-264 1480.67,-264 1697.83,-264 1697.83,-264 1701.92,-264 1706,-268.08 1706,-272.17 1706,-272.17 1706,-280.33 1706,-280.33 1706,-284.42 1701.92,-288.5 1697.83,-288.5"/>
<text text-anchor="middle" x="1589.25" y="-271.2" font-family="Arial" font-size="14.00" fill="#cfffac">js/actions/actions_uno_common.js</text>
</g>
<!-- js/actions/actions_uno_client.js&#45;&gt;js/actions/actions_uno_common.js -->
<g id="edge3" class="edge">
<title>js/actions/actions_uno_client.js&#45;&gt;js/actions/actions_uno_common.js</title>
<path fill="none" stroke="#757575" d="M750.34,-260.25C924.5,-263.58 1272.62,-270.22 1460.68,-273.81"/>
<polygon fill="#757575" stroke="#757575" points="1460.43,-277.31 1470.49,-274 1460.56,-270.31 1460.43,-277.31"/>
</g>
<!-- js/actions/actions_uno_server.js -->
<g id="node6" class="node">
<title>js/actions/actions_uno_server.js</title>
<path fill="none" stroke="#c6c5fe" d="M1428.33,-327.5C1428.33,-327.5 1226.92,-327.5 1226.92,-327.5 1222.83,-327.5 1218.75,-323.42 1218.75,-319.33 1218.75,-319.33 1218.75,-311.17 1218.75,-311.17 1218.75,-307.08 1222.83,-303 1226.92,-303 1226.92,-303 1428.33,-303 1428.33,-303 1432.42,-303 1436.5,-307.08 1436.5,-311.17 1436.5,-311.17 1436.5,-319.33 1436.5,-319.33 1436.5,-323.42 1432.42,-327.5 1428.33,-327.5"/>
<text text-anchor="middle" x="1327.62" y="-310.2" font-family="Arial" font-size="14.00" fill="#c6c5fe">js/actions/actions_uno_server.js</text>
</g>
<!-- js/actions/actions_uno_server.js&#45;&gt;js/actions/actions_uno_common.js -->
<g id="edge4" class="edge">
<title>js/actions/actions_uno_server.js&#45;&gt;js/actions/actions_uno_common.js</title>
<path fill="none" stroke="#757575" d="M1413.28,-302.53C1438.54,-298.74 1466.41,-294.55 1492.34,-290.66"/>
<polygon fill="#757575" stroke="#757575" points="1492.85,-294.12 1502.22,-289.17 1491.81,-287.2 1492.85,-294.12"/>
</g>
<!-- js/bot/best_card.bot.js -->
<g id="node7" class="node">
<title>js/bot/best_card.bot.js</title>
<path fill="none" stroke="#c6c5fe" d="M1166.33,-757.5C1166.33,-757.5 1026.42,-757.5 1026.42,-757.5 1022.33,-757.5 1018.25,-753.42 1018.25,-749.33 1018.25,-749.33 1018.25,-741.17 1018.25,-741.17 1018.25,-737.08 1022.33,-733 1026.42,-733 1026.42,-733 1166.33,-733 1166.33,-733 1170.42,-733 1174.5,-737.08 1174.5,-741.17 1174.5,-741.17 1174.5,-749.33 1174.5,-749.33 1174.5,-753.42 1170.42,-757.5 1166.33,-757.5"/>
<text text-anchor="middle" x="1096.38" y="-740.2" font-family="Arial" font-size="14.00" fill="#c6c5fe">js/bot/best_card.bot.js</text>
</g>
<!-- js/bot/best_card.bot.js&#45;&gt;js/actions/actions_uno_server.js -->
<g id="edge5" class="edge">
<title>js/bot/best_card.bot.js&#45;&gt;js/actions/actions_uno_server.js</title>
<path fill="none" stroke="#757575" d="M1101.14,-732.72C1117.26,-679.55 1181.3,-472.69 1218.75,-416.25 1240.67,-383.22 1275.42,-353.28 1299.53,-334.72"/>
<polygon fill="#757575" stroke="#757575" points="1301.43,-337.67 1307.31,-328.86 1297.21,-332.08 1301.43,-337.67"/>
</g>
<!-- js/bot/simple.bot.js -->
<g id="node8" class="node">
<title>js/bot/simple.bot.js</title>
<path fill="none" stroke="#c6c5fe" d="M1386.71,-747.5C1386.71,-747.5 1268.54,-747.5 1268.54,-747.5 1264.46,-747.5 1260.38,-743.42 1260.38,-739.33 1260.38,-739.33 1260.38,-731.17 1260.38,-731.17 1260.38,-727.08 1264.46,-723 1268.54,-723 1268.54,-723 1386.71,-723 1386.71,-723 1390.79,-723 1394.88,-727.08 1394.88,-731.17 1394.88,-731.17 1394.88,-739.33 1394.88,-739.33 1394.88,-743.42 1390.79,-747.5 1386.71,-747.5"/>
<text text-anchor="middle" x="1327.62" y="-730.2" font-family="Arial" font-size="14.00" fill="#c6c5fe">js/bot/simple.bot.js</text>
</g>
<!-- js/bot/best_card.bot.js&#45;&gt;js/bot/simple.bot.js -->
<g id="edge6" class="edge">
<title>js/bot/best_card.bot.js&#45;&gt;js/bot/simple.bot.js</title>
<path fill="none" stroke="#757575" d="M1174.99,-741.86C1198.77,-740.83 1224.92,-739.69 1248.72,-738.65"/>
<polygon fill="#757575" stroke="#757575" points="1248.84,-742.15 1258.68,-738.21 1248.54,-735.15 1248.84,-742.15"/>
</g>
<!-- js/uno/basic.js -->
<g id="node9" class="node">
<title>js/uno/basic.js</title>
<path fill="none" stroke="#cfffac" d="M1633.71,-905.5C1633.71,-905.5 1544.79,-905.5 1544.79,-905.5 1540.71,-905.5 1536.62,-901.42 1536.62,-897.33 1536.62,-897.33 1536.62,-889.17 1536.62,-889.17 1536.62,-885.08 1540.71,-881 1544.79,-881 1544.79,-881 1633.71,-881 1633.71,-881 1637.79,-881 1641.88,-885.08 1641.88,-889.17 1641.88,-889.17 1641.88,-897.33 1641.88,-897.33 1641.88,-901.42 1637.79,-905.5 1633.71,-905.5"/>
<text text-anchor="middle" x="1589.25" y="-888.2" font-family="Arial" font-size="14.00" fill="#cfffac">js/uno/basic.js</text>
</g>
<!-- js/bot/best_card.bot.js&#45;&gt;js/uno/basic.js -->
<g id="edge7" class="edge">
<title>js/bot/best_card.bot.js&#45;&gt;js/uno/basic.js</title>
<path fill="none" stroke="#757575" d="M1174.92,-754C1259.74,-764.2 1389.84,-781.89 1436.5,-799.25 1485.04,-817.31 1534.87,-851.85 1563.62,-873.65"/>
<polygon fill="#757575" stroke="#757575" points="1561.28,-876.26 1571.34,-879.59 1565.55,-870.72 1561.28,-876.26"/>
</g>
<!-- js/utils/random.js -->
<g id="node10" class="node">
<title>js/utils/random.js</title>
<path fill="none" stroke="#cfffac" d="M1379.96,-449.5C1379.96,-449.5 1275.29,-449.5 1275.29,-449.5 1271.21,-449.5 1267.12,-445.42 1267.12,-441.33 1267.12,-441.33 1267.12,-433.17 1267.12,-433.17 1267.12,-429.08 1271.21,-425 1275.29,-425 1275.29,-425 1379.96,-425 1379.96,-425 1384.04,-425 1388.12,-429.08 1388.12,-433.17 1388.12,-433.17 1388.12,-441.33 1388.12,-441.33 1388.12,-445.42 1384.04,-449.5 1379.96,-449.5"/>
<text text-anchor="middle" x="1327.62" y="-432.2" font-family="Arial" font-size="14.00" fill="#cfffac">js/utils/random.js</text>
</g>
<!-- js/bot/best_card.bot.js&#45;&gt;js/utils/random.js -->
<g id="edge8" class="edge">
<title>js/bot/best_card.bot.js&#45;&gt;js/utils/random.js</title>
<path fill="none" stroke="#757575" d="M1103.03,-732.65C1118.56,-698.81 1164.32,-603.94 1218.75,-536.25 1243.39,-505.61 1277.64,-475.85 1300.89,-457.1"/>
<polygon fill="#757575" stroke="#757575" points="1302.98,-459.9 1308.63,-450.94 1298.63,-454.42 1302.98,-459.9"/>
</g>
<!-- js/utils/timer.js -->
<g id="node11" class="node">
<title>js/utils/timer.js</title>
<path fill="none" stroke="#cfffac" d="M1371.71,-865.5C1371.71,-865.5 1283.54,-865.5 1283.54,-865.5 1279.46,-865.5 1275.38,-861.42 1275.38,-857.33 1275.38,-857.33 1275.38,-849.17 1275.38,-849.17 1275.38,-845.08 1279.46,-841 1283.54,-841 1283.54,-841 1371.71,-841 1371.71,-841 1375.79,-841 1379.88,-845.08 1379.88,-849.17 1379.88,-849.17 1379.88,-857.33 1379.88,-857.33 1379.88,-861.42 1375.79,-865.5 1371.71,-865.5"/>
<text text-anchor="middle" x="1327.62" y="-848.2" font-family="Arial" font-size="14.00" fill="#cfffac">js/utils/timer.js</text>
</g>
<!-- js/bot/best_card.bot.js&#45;&gt;js/utils/timer.js -->
<g id="edge9" class="edge">
<title>js/bot/best_card.bot.js&#45;&gt;js/utils/timer.js</title>
<path fill="none" stroke="#757575" d="M1124.12,-757.85C1164.99,-777.11 1243.12,-813.91 1289.47,-835.75"/>
<polygon fill="#757575" stroke="#757575" points="1287.79,-838.82 1298.33,-839.92 1290.77,-832.49 1287.79,-838.82"/>
</g>
<!-- js/bot/simple.bot.js&#45;&gt;js/uno/basic.js -->
<g id="edge11" class="edge">
<title>js/bot/simple.bot.js&#45;&gt;js/uno/basic.js</title>
<path fill="none" stroke="#757575" d="M1395.17,-746C1409.28,-749.72 1423.74,-754.67 1436.5,-761.25 1492.18,-789.97 1544.36,-843.28 1570.59,-872.6"/>
<polygon fill="#757575" stroke="#757575" points="1567.64,-874.54 1576.87,-879.74 1572.89,-869.92 1567.64,-874.54"/>
</g>
<!-- js/utils/assert.js -->
<g id="node13" class="node">
<title>js/utils/assert.js</title>
<path fill="none" stroke="#cfffac" d="M1637.08,-669.5C1637.08,-669.5 1541.42,-669.5 1541.42,-669.5 1537.33,-669.5 1533.25,-665.42 1533.25,-661.33 1533.25,-661.33 1533.25,-653.17 1533.25,-653.17 1533.25,-649.08 1537.33,-645 1541.42,-645 1541.42,-645 1637.08,-645 1637.08,-645 1641.17,-645 1645.25,-649.08 1645.25,-653.17 1645.25,-653.17 1645.25,-661.33 1645.25,-661.33 1645.25,-665.42 1641.17,-669.5 1637.08,-669.5"/>
<text text-anchor="middle" x="1589.25" y="-652.2" font-family="Arial" font-size="14.00" fill="#cfffac">js/utils/assert.js</text>
</g>
<!-- js/bot/simple.bot.js&#45;&gt;js/utils/assert.js -->
<g id="edge12" class="edge">
<title>js/bot/simple.bot.js&#45;&gt;js/utils/assert.js</title>
<path fill="none" stroke="#757575" d="M1385.71,-722.54C1402.19,-718.59 1420.13,-714.02 1436.5,-709.25 1472.94,-698.64 1513.58,-684.59 1543.63,-673.77"/>
<polygon fill="#757575" stroke="#757575" points="1544.56,-677.16 1552.77,-670.46 1542.17,-670.58 1544.56,-677.16"/>
</g>
<!-- js/bot/setup_bot.js -->
<g id="node12" class="node">
<title>js/bot/setup_bot.js</title>
<path fill="none" stroke="#c6c5fe" d="M946.71,-765.5C946.71,-765.5 830.79,-765.5 830.79,-765.5 826.71,-765.5 822.62,-761.42 822.62,-757.33 822.62,-757.33 822.62,-749.17 822.62,-749.17 822.62,-745.08 826.71,-741 830.79,-741 830.79,-741 946.71,-741 946.71,-741 950.79,-741 954.88,-745.08 954.88,-749.17 954.88,-749.17 954.88,-757.33 954.88,-757.33 954.88,-761.42 950.79,-765.5 946.71,-765.5"/>
<text text-anchor="middle" x="888.75" y="-748.2" font-family="Arial" font-size="14.00" fill="#c6c5fe">js/bot/setup_bot.js</text>
</g>
<!-- js/bot/setup_bot.js&#45;&gt;js/bot/best_card.bot.js -->
<g id="edge10" class="edge">
<title>js/bot/setup_bot.js&#45;&gt;js/bot/best_card.bot.js</title>
<path fill="none" stroke="#757575" d="M955.09,-750.71C971.49,-750.07 989.37,-749.37 1006.69,-748.7"/>
<polygon fill="#757575" stroke="#757575" points="1006.61,-752.21 1016.47,-748.32 1006.34,-745.21 1006.61,-752.21"/>
</g>
<!-- js/connection/client.js -->
<g id="node14" class="node">
<title>js/connection/client.js</title>
<path fill="none" stroke="#c6c5fe" d="M955.71,-588.5C955.71,-588.5 821.79,-588.5 821.79,-588.5 817.71,-588.5 813.62,-584.42 813.62,-580.33 813.62,-580.33 813.62,-572.17 813.62,-572.17 813.62,-568.08 817.71,-564 821.79,-564 821.79,-564 955.71,-564 955.71,-564 959.79,-564 963.88,-568.08 963.88,-572.17 963.88,-572.17 963.88,-580.33 963.88,-580.33 963.88,-584.42 959.79,-588.5 955.71,-588.5"/>
<text text-anchor="middle" x="888.75" y="-571.2" font-family="Arial" font-size="14.00" fill="#c6c5fe">js/connection/client.js</text>
</g>
<!-- js/connection/common.js -->
<g id="node15" class="node">
<title>js/connection/common.js</title>
<path fill="none" stroke="#c6c5fe" d="M1174.58,-472.5C1174.58,-472.5 1018.17,-472.5 1018.17,-472.5 1014.08,-472.5 1010,-468.42 1010,-464.33 1010,-464.33 1010,-456.17 1010,-456.17 1010,-452.08 1014.08,-448 1018.17,-448 1018.17,-448 1174.58,-448 1174.58,-448 1178.67,-448 1182.75,-452.08 1182.75,-456.17 1182.75,-456.17 1182.75,-464.33 1182.75,-464.33 1182.75,-468.42 1178.67,-472.5 1174.58,-472.5"/>
<text text-anchor="middle" x="1096.38" y="-455.2" font-family="Arial" font-size="14.00" fill="#c6c5fe">js/connection/common.js</text>
</g>
<!-- js/connection/client.js&#45;&gt;js/connection/common.js -->
<g id="edge13" class="edge">
<title>js/connection/client.js&#45;&gt;js/connection/common.js</title>
<path fill="none" stroke="#757575" d="M950.65,-563.5C958.69,-560.92 966.68,-557.85 974,-554.25 1013.06,-535.03 1051.68,-502.08 1074.53,-480.73"/>
<polygon fill="#757575" stroke="#757575" points="1076.82,-483.38 1081.66,-473.95 1072,-478.31 1076.82,-483.38"/>
</g>
<!-- js/utils/handlers.js -->
<g id="node16" class="node">
<title>js/utils/handlers.js</title>
<path fill="none" stroke="#c6c5fe" d="M1382.96,-569.5C1382.96,-569.5 1272.29,-569.5 1272.29,-569.5 1268.21,-569.5 1264.12,-565.42 1264.12,-561.33 1264.12,-561.33 1264.12,-553.17 1264.12,-553.17 1264.12,-549.08 1268.21,-545 1272.29,-545 1272.29,-545 1382.96,-545 1382.96,-545 1387.04,-545 1391.12,-549.08 1391.12,-553.17 1391.12,-553.17 1391.12,-561.33 1391.12,-561.33 1391.12,-565.42 1387.04,-569.5 1382.96,-569.5"/>
<text text-anchor="middle" x="1327.62" y="-552.2" font-family="Arial" font-size="14.00" fill="#c6c5fe">js/utils/handlers.js</text>
</g>
<!-- js/connection/client.js&#45;&gt;js/utils/handlers.js -->
<g id="edge14" class="edge">
<title>js/connection/client.js&#45;&gt;js/utils/handlers.js</title>
<path fill="none" stroke="#757575" d="M964.36,-573.01C1044.72,-569.51 1171.86,-563.98 1252.17,-560.49"/>
<polygon fill="#757575" stroke="#757575" points="1252.32,-563.99 1262.15,-560.05 1252.01,-556.99 1252.32,-563.99"/>
</g>
<!-- js/connection/common.js&#45;&gt;js/utils/random.js -->
<g id="edge16" class="edge">
<title>js/connection/common.js&#45;&gt;js/utils/random.js</title>
<path fill="none" stroke="#757575" d="M1183.07,-451.65C1206.89,-449.26 1232.5,-446.69 1255.4,-444.4"/>
<polygon fill="#757575" stroke="#757575" points="1255.65,-447.89 1265.25,-443.41 1254.95,-440.92 1255.65,-447.89"/>
</g>
<!-- js/connection/common.js&#45;&gt;js/utils/handlers.js -->
<g id="edge15" class="edge">
<title>js/connection/common.js&#45;&gt;js/utils/handlers.js</title>
<path fill="none" stroke="#757575" d="M1143.93,-472.93C1156.66,-476.8 1170.36,-481.34 1182.75,-486.25 1222.19,-501.87 1265.62,-524.03 1294.34,-539.42"/>
<polygon fill="#757575" stroke="#757575" points="1292.43,-542.37 1302.89,-544.05 1295.76,-536.21 1292.43,-542.37"/>
</g>
<!-- js/utils/handlers.js&#45;&gt;js/utils/assert.js -->
<g id="edge72" class="edge">
<title>js/utils/handlers.js&#45;&gt;js/utils/assert.js</title>
<path fill="none" stroke="#757575" d="M1361.51,-569.92C1408,-587.82 1493.05,-620.58 1544.73,-640.49"/>
<polygon fill="#757575" stroke="#757575" points="1543.22,-643.66 1553.81,-643.99 1545.74,-637.13 1543.22,-643.66"/>
</g>
<!-- js/connection/connection_chooser.js -->
<g id="node17" class="node">
<title>js/connection/connection_chooser.js</title>
<path fill="none" stroke="#c6c5fe" d="M759.33,-426.5C759.33,-426.5 529.42,-426.5 529.42,-426.5 525.33,-426.5 521.25,-422.42 521.25,-418.33 521.25,-418.33 521.25,-410.17 521.25,-410.17 521.25,-406.08 525.33,-402 529.42,-402 529.42,-402 759.33,-402 759.33,-402 763.42,-402 767.5,-406.08 767.5,-410.17 767.5,-410.17 767.5,-418.33 767.5,-418.33 767.5,-422.42 763.42,-426.5 759.33,-426.5"/>
<text text-anchor="middle" x="644.38" y="-409.2" font-family="Arial" font-size="14.00" fill="#c6c5fe">js/connection/connection_chooser.js</text>
</g>
<!-- js/connection/connection_chooser.js&#45;&gt;js/utils/assert.js -->
<g id="edge20" class="edge">
<title>js/connection/connection_chooser.js&#45;&gt;js/utils/assert.js</title>
<path fill="none" stroke="#757575" d="M728.49,-401.5C752.63,-398.26 779.07,-395.16 803.5,-393.25 943.83,-382.26 1317.19,-341.56 1436.5,-416.25 1519.55,-468.24 1564.95,-584.15 1581.23,-633.86"/>
<polygon fill="#757575" stroke="#757575" points="1577.86,-634.82 1584.21,-643.3 1584.53,-632.71 1577.86,-634.82"/>
</g>
<!-- js/connection/connection_chooser.js&#45;&gt;js/connection/client.js -->
<g id="edge17" class="edge">
<title>js/connection/connection_chooser.js&#45;&gt;js/connection/client.js</title>
<path fill="none" stroke="#757575" d="M747.55,-426.94C754.79,-430.48 761.56,-434.86 767.5,-440.25 806.83,-475.97 764.99,-517.64 803.5,-554.25 804.58,-555.28 805.7,-556.25 806.86,-557.19"/>
<polygon fill="#757575" stroke="#757575" points="804.84,-560.05 815.11,-562.68 808.72,-554.23 804.84,-560.05"/>
</g>
<!-- js/connection/server.js -->
<g id="node18" class="node">
<title>js/connection/server.js</title>
<path fill="none" stroke="#c6c5fe" d="M959.08,-545.5C959.08,-545.5 818.42,-545.5 818.42,-545.5 814.33,-545.5 810.25,-541.42 810.25,-537.33 810.25,-537.33 810.25,-529.17 810.25,-529.17 810.25,-525.08 814.33,-521 818.42,-521 818.42,-521 959.08,-521 959.08,-521 963.17,-521 967.25,-525.08 967.25,-529.17 967.25,-529.17 967.25,-537.33 967.25,-537.33 967.25,-541.42 963.17,-545.5 959.08,-545.5"/>
<text text-anchor="middle" x="888.75" y="-528.2" font-family="Arial" font-size="14.00" fill="#c6c5fe">js/connection/server.js</text>
</g>
<!-- js/connection/connection_chooser.js&#45;&gt;js/connection/server.js -->
<g id="edge18" class="edge">
<title>js/connection/connection_chooser.js&#45;&gt;js/connection/server.js</title>
<path fill="none" stroke="#757575" d="M744.2,-427C752.53,-430.48 760.46,-434.83 767.5,-440.25 795.54,-461.82 775.96,-489.05 803.5,-511.25 805.22,-512.64 807.02,-513.94 808.88,-515.16"/>
<polygon fill="#757575" stroke="#757575" points="806.9,-518.06 817.34,-519.87 810.31,-511.94 806.9,-518.06"/>
</g>
<!-- js/connection/socket.js -->
<g id="node19" class="node">
<title>js/connection/socket.js</title>
<path fill="none" stroke="#c6c5fe" d="M960.21,-502.5C960.21,-502.5 817.29,-502.5 817.29,-502.5 813.21,-502.5 809.12,-498.42 809.12,-494.33 809.12,-494.33 809.12,-486.17 809.12,-486.17 809.12,-482.08 813.21,-478 817.29,-478 817.29,-478 960.21,-478 960.21,-478 964.29,-478 968.38,-482.08 968.38,-486.17 968.38,-486.17 968.38,-494.33 968.38,-494.33 968.38,-498.42 964.29,-502.5 960.21,-502.5"/>
<text text-anchor="middle" x="888.75" y="-485.2" font-family="Arial" font-size="14.00" fill="#c6c5fe">js/connection/socket.js</text>
</g>
<!-- js/connection/connection_chooser.js&#45;&gt;js/connection/socket.js -->
<g id="edge19" class="edge">
<title>js/connection/connection_chooser.js&#45;&gt;js/connection/socket.js</title>
<path fill="none" stroke="#757575" d="M726.2,-426.93C740.25,-430.41 754.52,-434.78 767.5,-440.25 785.22,-447.72 786.13,-456 803.5,-464.25 811.09,-467.86 819.31,-471.12 827.53,-474.01"/>
<polygon fill="#757575" stroke="#757575" points="826.25,-477.27 836.85,-477.12 828.47,-470.63 826.25,-477.27"/>
</g>
<!-- js/connection/server.js&#45;&gt;js/connection/common.js -->
<g id="edge21" class="edge">
<title>js/connection/server.js&#45;&gt;js/connection/common.js</title>
<path fill="none" stroke="#757575" d="M943.12,-520.54C953.45,-517.74 964.12,-514.6 974,-511.25 1002.72,-501.52 1034.28,-488.18 1058.01,-477.58"/>
<polygon fill="#757575" stroke="#757575" points="1059.27,-480.85 1066.95,-473.55 1056.39,-474.47 1059.27,-480.85"/>
</g>
<!-- js/connection/server.js&#45;&gt;js/utils/handlers.js -->
<g id="edge22" class="edge">
<title>js/connection/server.js&#45;&gt;js/utils/handlers.js</title>
<path fill="none" stroke="#757575" d="M967.6,-537.53C1048.15,-541.95 1173.05,-548.81 1252.28,-553.17"/>
<polygon fill="#757575" stroke="#757575" points="1251.94,-556.65 1262.12,-553.71 1252.32,-549.66 1251.94,-556.65"/>
</g>
<!-- js/connection/socket.js&#45;&gt;js/connection/common.js -->
<g id="edge23" class="edge">
<title>js/connection/socket.js&#45;&gt;js/connection/common.js</title>
<path fill="none" stroke="#757575" d="M968.66,-478.74C978.45,-477.31 988.55,-475.84 998.57,-474.37"/>
<polygon fill="#757575" stroke="#757575" points="998.95,-477.86 1008.34,-472.95 997.94,-470.93 998.95,-477.86"/>
</g>
<!-- js/connection/socket.js&#45;&gt;js/utils/handlers.js -->
<g id="edge24" class="edge">
<title>js/connection/socket.js&#45;&gt;js/utils/handlers.js</title>
<path fill="none" stroke="#757575" d="M968.86,-502.38C1049.49,-514.75 1173.56,-533.78 1252.38,-545.86"/>
<polygon fill="#757575" stroke="#757575" points="1251.76,-549.31 1262.17,-547.37 1252.82,-542.39 1251.76,-549.31"/>
</g>
<!-- js/game.js&#45;&gt;js/utils/assert.js -->
<g id="edge27" class="edge">
<title>js/game.js&#45;&gt;js/utils/assert.js</title>
<path fill="none" stroke="#757575" d="M463.54,-724.93C579.61,-715.32 928.64,-687.14 1218.75,-671.25 1324.47,-665.46 1447.33,-661.32 1521.37,-659.11"/>
<polygon fill="#757575" stroke="#757575" points="1521.42,-662.61 1531.31,-658.81 1521.21,-655.61 1521.42,-662.61"/>
</g>
<!-- js/uno&#45;game.js -->
<g id="node21" class="node">
<title>js/uno&#45;game.js</title>
<path fill="none" stroke="#c6c5fe" d="M690.33,-823.5C690.33,-823.5 598.42,-823.5 598.42,-823.5 594.33,-823.5 590.25,-819.42 590.25,-815.33 590.25,-815.33 590.25,-807.17 590.25,-807.17 590.25,-803.08 594.33,-799 598.42,-799 598.42,-799 690.33,-799 690.33,-799 694.42,-799 698.5,-803.08 698.5,-807.17 698.5,-807.17 698.5,-815.33 698.5,-815.33 698.5,-819.42 694.42,-823.5 690.33,-823.5"/>
<text text-anchor="middle" x="644.38" y="-806.2" font-family="Arial" font-size="14.00" fill="#c6c5fe">js/uno&#45;game.js</text>
</g>
<!-- js/game.js&#45;&gt;js/uno&#45;game.js -->
<g id="edge25" class="edge">
<title>js/game.js&#45;&gt;js/uno&#45;game.js</title>
<path fill="none" stroke="#757575" d="M439.73,-740.89C458.21,-754.94 490.18,-777.24 521.25,-789.25 539.31,-796.23 559.73,-801.02 578.64,-804.3"/>
<polygon fill="#757575" stroke="#757575" points="577.95,-807.73 588.38,-805.87 579.07,-800.82 577.95,-807.73"/>
</g>
<!-- js/uno/default&#45;engine.js -->
<g id="node22" class="node">
<title>js/uno/default&#45;engine.js</title>
<path fill="none" stroke="#c6c5fe" d="M1168.96,-1044.5C1168.96,-1044.5 1023.79,-1044.5 1023.79,-1044.5 1019.71,-1044.5 1015.62,-1040.42 1015.62,-1036.33 1015.62,-1036.33 1015.62,-1028.17 1015.62,-1028.17 1015.62,-1024.08 1019.71,-1020 1023.79,-1020 1023.79,-1020 1168.96,-1020 1168.96,-1020 1173.04,-1020 1177.12,-1024.08 1177.12,-1028.17 1177.12,-1028.17 1177.12,-1036.33 1177.12,-1036.33 1177.12,-1040.42 1173.04,-1044.5 1168.96,-1044.5"/>
<text text-anchor="middle" x="1096.38" y="-1027.2" font-family="Arial" font-size="14.00" fill="#c6c5fe">js/uno/default&#45;engine.js</text>
</g>
<!-- js/game.js&#45;&gt;js/uno/default&#45;engine.js -->
<g id="edge26" class="edge">
<title>js/game.js&#45;&gt;js/uno/default&#45;engine.js</title>
<path fill="none" stroke="#757575" d="M432.59,-741C448.03,-762.69 482.27,-806.89 521.25,-832.25 680.51,-935.85 899.66,-992.64 1015.74,-1017.23"/>
<polygon fill="#757575" stroke="#757575" points="1015,-1020.65 1025.5,-1019.27 1016.43,-1013.8 1015,-1020.65"/>
</g>
<!-- js/views/logger.js -->
<g id="node23" class="node">
<title>js/views/logger.js</title>
<path fill="none" stroke="#cfffac" d="M942.58,-631.5C942.58,-631.5 834.92,-631.5 834.92,-631.5 830.83,-631.5 826.75,-627.42 826.75,-623.33 826.75,-623.33 826.75,-615.17 826.75,-615.17 826.75,-611.08 830.83,-607 834.92,-607 834.92,-607 942.58,-607 942.58,-607 946.67,-607 950.75,-611.08 950.75,-615.17 950.75,-615.17 950.75,-623.33 950.75,-623.33 950.75,-627.42 946.67,-631.5 942.58,-631.5"/>
<text text-anchor="middle" x="888.75" y="-614.2" font-family="Arial" font-size="14.00" fill="#cfffac">js/views/logger.js</text>
</g>
<!-- js/game.js&#45;&gt;js/views/logger.js -->
<g id="edge28" class="edge">
<title>js/game.js&#45;&gt;js/views/logger.js</title>
<path fill="none" stroke="#757575" d="M463.45,-720.17C527.54,-706.94 657.93,-679.38 767.5,-652.25 788.87,-646.96 812.23,-640.67 832.63,-635"/>
<polygon fill="#757575" stroke="#757575" points="833.48,-638.4 842.17,-632.34 831.6,-631.65 833.48,-638.4"/>
</g>
<!-- js/views/names.js -->
<g id="node24" class="node">
<title>js/views/names.js</title>
<path fill="none" stroke="#cfffac" d="M699.33,-586.5C699.33,-586.5 589.42,-586.5 589.42,-586.5 585.33,-586.5 581.25,-582.42 581.25,-578.33 581.25,-578.33 581.25,-570.17 581.25,-570.17 581.25,-566.08 585.33,-562 589.42,-562 589.42,-562 699.33,-562 699.33,-562 703.42,-562 707.5,-566.08 707.5,-570.17 707.5,-570.17 707.5,-578.33 707.5,-578.33 707.5,-582.42 703.42,-586.5 699.33,-586.5"/>
<text text-anchor="middle" x="644.38" y="-569.2" font-family="Arial" font-size="14.00" fill="#cfffac">js/views/names.js</text>
</g>
<!-- js/game.js&#45;&gt;js/views/names.js -->
<g id="edge29" class="edge">
<title>js/game.js&#45;&gt;js/views/names.js</title>
<path fill="none" stroke="#757575" d="M441.84,-715.65C480.28,-688.68 570.72,-625.23 616.22,-593.3"/>
<polygon fill="#757575" stroke="#757575" points="618.06,-596.29 624.23,-587.68 614.04,-590.56 618.06,-596.29"/>
</g>
<!-- js/views/places.js -->
<g id="node25" class="node">
<title>js/views/places.js</title>
<path fill="none" stroke="#cfffac" d="M698.96,-780.5C698.96,-780.5 589.79,-780.5 589.79,-780.5 585.71,-780.5 581.62,-776.42 581.62,-772.33 581.62,-772.33 581.62,-764.17 581.62,-764.17 581.62,-760.08 585.71,-756 589.79,-756 589.79,-756 698.96,-756 698.96,-756 703.04,-756 707.12,-760.08 707.12,-764.17 707.12,-764.17 707.12,-772.33 707.12,-772.33 707.12,-776.42 703.04,-780.5 698.96,-780.5"/>
<text text-anchor="middle" x="644.38" y="-763.2" font-family="Arial" font-size="14.00" fill="#cfffac">js/views/places.js</text>
</g>
<!-- js/game.js&#45;&gt;js/views/places.js -->
<g id="edge30" class="edge">
<title>js/game.js&#45;&gt;js/views/places.js</title>
<path fill="none" stroke="#757575" d="M463.62,-735.49C493.28,-740.9 534.63,-748.43 570.2,-754.92"/>
<polygon fill="#757575" stroke="#757575" points="569.57,-758.36 580.03,-756.71 570.82,-751.47 569.57,-758.36"/>
</g>
<!-- js/uno&#45;game.js&#45;&gt;js/utils/timer.js -->
<g id="edge61" class="edge">
<title>js/uno&#45;game.js&#45;&gt;js/utils/timer.js</title>
<path fill="none" stroke="#757575" d="M698.67,-819.57C729.27,-824.03 768.46,-829.23 803.5,-832.25 969.22,-846.55 1165.34,-851.14 1263.7,-852.59"/>
<polygon fill="#757575" stroke="#757575" points="1263.36,-856.08 1273.41,-852.73 1263.46,-849.09 1263.36,-856.08"/>
</g>
<!-- js/uno&#45;game.js&#45;&gt;js/bot/setup_bot.js -->
<g id="edge58" class="edge">
<title>js/uno&#45;game.js&#45;&gt;js/bot/setup_bot.js</title>
<path fill="none" stroke="#757575" d="M698.85,-802.96C720.3,-799.29 745.18,-794.58 767.5,-789.25 791.05,-783.62 816.82,-776.1 838.44,-769.38"/>
<polygon fill="#757575" stroke="#757575" points="839.39,-772.75 847.88,-766.41 837.3,-766.07 839.39,-772.75"/>
</g>
<!-- js/uno&#45;game.js&#45;&gt;js/utils/assert.js -->
<g id="edge60" class="edge">
<title>js/uno&#45;game.js&#45;&gt;js/utils/assert.js</title>
<path fill="none" stroke="#757575" d="M698.83,-811C721.61,-808.63 747.49,-802.73 767.5,-789.25 792.35,-772.51 777.98,-747.95 803.5,-732.25 807.32,-729.9 1332.22,-681 1521.32,-663.45"/>
<polygon fill="#757575" stroke="#757575" points="1521.61,-666.94 1531.25,-662.53 1520.97,-659.97 1521.61,-666.94"/>
</g>
<!-- js/uno&#45;game.js&#45;&gt;js/views/logger.js -->
<g id="edge64" class="edge">
<title>js/uno&#45;game.js&#45;&gt;js/views/logger.js</title>
<path fill="none" stroke="#757575" d="M698.93,-813.27C722.4,-811.44 748.81,-805.34 767.5,-789.25 805.21,-756.79 774.42,-723.62 803.5,-683.25 816.87,-664.69 837.18,-649.04 854.5,-637.86"/>
<polygon fill="#757575" stroke="#757575" points="856.33,-640.84 863,-632.6 852.65,-634.89 856.33,-640.84"/>
</g>
<!-- js/uno/engine.js -->
<g id="node35" class="node">
<title>js/uno/engine.js</title>
<path fill="none" stroke="#c6c5fe" d="M1145.33,-946.5C1145.33,-946.5 1047.42,-946.5 1047.42,-946.5 1043.33,-946.5 1039.25,-942.42 1039.25,-938.33 1039.25,-938.33 1039.25,-930.17 1039.25,-930.17 1039.25,-926.08 1043.33,-922 1047.42,-922 1047.42,-922 1145.33,-922 1145.33,-922 1149.42,-922 1153.5,-926.08 1153.5,-930.17 1153.5,-930.17 1153.5,-938.33 1153.5,-938.33 1153.5,-942.42 1149.42,-946.5 1145.33,-946.5"/>
<text text-anchor="middle" x="1096.38" y="-929.2" font-family="Arial" font-size="14.00" fill="#c6c5fe">js/uno/engine.js</text>
</g>
<!-- js/uno&#45;game.js&#45;&gt;js/uno/engine.js -->
<g id="edge59" class="edge">
<title>js/uno&#45;game.js&#45;&gt;js/uno/engine.js</title>
<path fill="none" stroke="#757575" d="M666,-823.99C695.39,-841.55 751.54,-872.86 803.5,-889.25 878.14,-912.8 967.56,-924.27 1027.58,-929.68"/>
<polygon fill="#757575" stroke="#757575" points="1027.03,-933.15 1037.3,-930.53 1027.64,-926.18 1027.03,-933.15"/>
</g>
<!-- js/views/choose_color.js -->
<g id="node36" class="node">
<title>js/views/choose_color.js</title>
<path fill="none" stroke="#c6c5fe" d="M965.83,-823.5C965.83,-823.5 811.67,-823.5 811.67,-823.5 807.58,-823.5 803.5,-819.42 803.5,-815.33 803.5,-815.33 803.5,-807.17 803.5,-807.17 803.5,-803.08 807.58,-799 811.67,-799 811.67,-799 965.83,-799 965.83,-799 969.92,-799 974,-803.08 974,-807.17 974,-807.17 974,-815.33 974,-815.33 974,-819.42 969.92,-823.5 965.83,-823.5"/>
<text text-anchor="middle" x="888.75" y="-806.2" font-family="Arial" font-size="14.00" fill="#c6c5fe">js/views/choose_color.js</text>
</g>
<!-- js/uno&#45;game.js&#45;&gt;js/views/choose_color.js -->
<g id="edge62" class="edge">
<title>js/uno&#45;game.js&#45;&gt;js/views/choose_color.js</title>
<path fill="none" stroke="#757575" d="M698.87,-811.25C726.3,-811.25 760.55,-811.25 792.32,-811.25"/>
<polygon fill="#757575" stroke="#757575" points="791.93,-814.75 801.93,-811.25 791.93,-807.75 791.93,-814.75"/>
</g>
<!-- js/views/layout.js -->
<g id="node37" class="node">
<title>js/views/layout.js</title>
<path fill="none" stroke="#c6c5fe" d="M1148.33,-903.5C1148.33,-903.5 1044.42,-903.5 1044.42,-903.5 1040.33,-903.5 1036.25,-899.42 1036.25,-895.33 1036.25,-895.33 1036.25,-887.17 1036.25,-887.17 1036.25,-883.08 1040.33,-879 1044.42,-879 1044.42,-879 1148.33,-879 1148.33,-879 1152.42,-879 1156.5,-883.08 1156.5,-887.17 1156.5,-887.17 1156.5,-895.33 1156.5,-895.33 1156.5,-899.42 1152.42,-903.5 1148.33,-903.5"/>
<text text-anchor="middle" x="1096.38" y="-886.2" font-family="Arial" font-size="14.00" fill="#c6c5fe">js/views/layout.js</text>
</g>
<!-- js/uno&#45;game.js&#45;&gt;js/views/layout.js -->
<g id="edge63" class="edge">
<title>js/uno&#45;game.js&#45;&gt;js/views/layout.js</title>
<path fill="none" stroke="#757575" d="M675.37,-823.92C706.73,-836.58 757.67,-855.53 803.5,-865.25 877.95,-881.04 965.07,-887.25 1024.62,-889.69"/>
<polygon fill="#757575" stroke="#757575" points="1024.14,-893.18 1034.27,-890.06 1024.41,-886.18 1024.14,-893.18"/>
</g>
<!-- js/uno/default&#45;engine.js&#45;&gt;js/uno/basic.js -->
<g id="edge66" class="edge">
<title>js/uno/default&#45;engine.js&#45;&gt;js/uno/basic.js</title>
<path fill="none" stroke="#757575" d="M1145.55,-1044.98C1213.81,-1060.38 1341.02,-1079.17 1436.5,-1035.25 1458.84,-1024.98 1455.15,-1010.67 1472.5,-993.25 1502.12,-963.52 1539.27,-932.39 1563.38,-912.92"/>
<polygon fill="#757575" stroke="#757575" points="1565.45,-915.74 1571.06,-906.76 1561.07,-910.28 1565.45,-915.74"/>
</g>
<!-- js/lib/qrcode.js -->
<g id="node27" class="node">
<title>js/lib/qrcode.js</title>
<path fill="none" stroke="#cfffac" d="M689.96,-227.5C689.96,-227.5 598.79,-227.5 598.79,-227.5 594.71,-227.5 590.62,-223.42 590.62,-219.33 590.62,-219.33 590.62,-211.17 590.62,-211.17 590.62,-207.08 594.71,-203 598.79,-203 598.79,-203 689.96,-203 689.96,-203 694.04,-203 698.12,-207.08 698.12,-211.17 698.12,-211.17 698.12,-219.33 698.12,-219.33 698.12,-223.42 694.04,-227.5 689.96,-227.5"/>
<text text-anchor="middle" x="644.38" y="-210.2" font-family="Arial" font-size="14.00" fill="#cfffac">js/lib/qrcode.js</text>
</g>
<!-- js/mode/ai.js&#45;&gt;js/utils/random.js -->
<g id="edge32" class="edge">
<title>js/mode/ai.js&#45;&gt;js/utils/random.js</title>
<path fill="none" stroke="#757575" d="M446.77,-566.86C506.4,-597.82 668.69,-669.78 767.5,-595.25 814,-560.18 759.65,-507.58 803.5,-469.25 936.68,-352.82 1169.29,-394.78 1273.49,-421.7"/>
<polygon fill="#757575" stroke="#757575" points="1272.33,-425.02 1282.9,-424.19 1274.12,-418.25 1272.33,-425.02"/>
</g>
<!-- js/mode/ai.js&#45;&gt;js/views/logger.js -->
<g id="edge33" class="edge">
<title>js/mode/ai.js&#45;&gt;js/views/logger.js</title>
<path fill="none" stroke="#757575" d="M434.95,-566.72C451.6,-584.42 485.03,-616.05 521.25,-628.25 621.94,-662.17 747.15,-648.02 822.09,-634.08"/>
<polygon fill="#757575" stroke="#757575" points="822.58,-637.55 831.74,-632.22 821.26,-630.67 822.58,-637.55"/>
</g>
<!-- js/utils/async&#45;queue.js -->
<g id="node29" class="node">
<title>js/utils/async&#45;queue.js</title>
<path fill="none" stroke="#cfffac" d="M713.21,-506.5C713.21,-506.5 575.54,-506.5 575.54,-506.5 571.46,-506.5 567.38,-502.42 567.38,-498.33 567.38,-498.33 567.38,-490.17 567.38,-490.17 567.38,-486.08 571.46,-482 575.54,-482 575.54,-482 713.21,-482 713.21,-482 717.29,-482 721.38,-486.08 721.38,-490.17 721.38,-490.17 721.38,-498.33 721.38,-498.33 721.38,-502.42 717.29,-506.5 713.21,-506.5"/>
<text text-anchor="middle" x="644.38" y="-489.2" font-family="Arial" font-size="14.00" fill="#cfffac">js/utils/async&#45;queue.js</text>
</g>
<!-- js/mode/ai.js&#45;&gt;js/utils/async&#45;queue.js -->
<g id="edge31" class="edge">
<title>js/mode/ai.js&#45;&gt;js/utils/async&#45;queue.js</title>
<path fill="none" stroke="#757575" d="M470.43,-541.53C504.18,-532.3 550.04,-519.76 586.06,-509.92"/>
<polygon fill="#757575" stroke="#757575" points="586.71,-513.37 595.43,-507.36 584.86,-506.62 586.71,-513.37"/>
</g>
<!-- js/mode/hotseat.js&#45;&gt;js/utils/random.js -->
<g id="edge34" class="edge">
<title>js/mode/hotseat.js&#45;&gt;js/utils/random.js</title>
<path fill="none" stroke="#757575" d="M1117.72,-308.76C1158.15,-333.63 1248.78,-389.37 1296.28,-418.58"/>
<polygon fill="#757575" stroke="#757575" points="1294.36,-421.51 1304.71,-423.77 1298.02,-415.55 1294.36,-421.51"/>
</g>
<!-- js/mode/net.js&#45;&gt;js/actions/actions_uno_client.js -->
<g id="edge35" class="edge">
<title>js/mode/net.js&#45;&gt;js/actions/actions_uno_client.js</title>
<path fill="none" stroke="#757575" d="M439.2,-381.76C457.96,-366.75 490.96,-341.23 521.25,-322.25 548.94,-304.9 581.82,-287.86 606.49,-275.73"/>
<polygon fill="#757575" stroke="#757575" points="607.7,-279.03 615.15,-271.5 604.63,-272.74 607.7,-279.03"/>
</g>
<!-- js/mode/net.js&#45;&gt;js/actions/actions_uno_server.js -->
<g id="edge36" class="edge">
<title>js/mode/net.js&#45;&gt;js/actions/actions_uno_server.js</title>
<path fill="none" stroke="#757575" d="M475.39,-388.16C490.19,-386.48 506.35,-384.72 521.25,-383.25 764.67,-359.23 1050.01,-336.39 1207.31,-324.26"/>
<polygon fill="#757575" stroke="#757575" points="1207.2,-327.78 1216.91,-323.53 1206.67,-320.8 1207.2,-327.78"/>
</g>
<!-- js/mode/net.js&#45;&gt;js/connection/common.js -->
<g id="edge37" class="edge">
<title>js/mode/net.js&#45;&gt;js/connection/common.js</title>
<path fill="none" stroke="#757575" d="M475.42,-393.62C490.22,-393.47 506.37,-393.33 521.25,-393.25 630.69,-392.69 658.61,-382.24 767.5,-393.25 863.26,-402.93 972.39,-428.14 1037.48,-444.73"/>
<polygon fill="#757575" stroke="#757575" points="1036.3,-448.04 1046.86,-447.14 1038.05,-441.26 1036.3,-448.04"/>
</g>
<!-- js/mode/net.js&#45;&gt;js/connection/connection_chooser.js -->
<g id="edge38" class="edge">
<title>js/mode/net.js&#45;&gt;js/connection/connection_chooser.js</title>
<path fill="none" stroke="#757575" d="M475.62,-398.96C486.19,-399.93 497.78,-400.98 509.76,-402.08"/>
<polygon fill="#757575" stroke="#757575" points="509.08,-405.53 519.36,-402.95 509.72,-398.56 509.08,-405.53"/>
</g>
<!-- js/mode/net.js&#45;&gt;js/views/logger.js -->
<g id="edge40" class="edge">
<title>js/mode/net.js&#45;&gt;js/views/logger.js</title>
<path fill="none" stroke="#757575" d="M429.87,-406.72C442.71,-431.95 475.47,-488.85 521.25,-515.25 617.18,-570.58 671.35,-498.31 767.5,-553.25 789.44,-565.78 782.23,-583.61 803.5,-597.25 807.44,-599.77 811.65,-602.01 816.02,-603.99"/>
<polygon fill="#757575" stroke="#757575" points="814.45,-607.13 825.03,-607.6 817.05,-600.63 814.45,-607.13"/>
</g>
<!-- js/mode/net.js&#45;&gt;js/views/names.js -->
<g id="edge41" class="edge">
<title>js/mode/net.js&#45;&gt;js/views/names.js</title>
<path fill="none" stroke="#757575" d="M427.89,-406.6C438.2,-436.22 468.56,-511.55 521.25,-548.25 535.48,-558.16 552.73,-564.41 569.74,-568.33"/>
<polygon fill="#757575" stroke="#757575" points="568.87,-571.73 579.36,-570.28 570.26,-564.86 568.87,-571.73"/>
</g>
<!-- js/mode/net.js&#45;&gt;js/utils/async&#45;queue.js -->
<g id="edge39" class="edge">
<title>js/mode/net.js&#45;&gt;js/utils/async&#45;queue.js</title>
<path fill="none" stroke="#757575" d="M436.51,-406.85C453.99,-423.54 487.28,-452.68 521.25,-468.25 532.19,-473.26 544.12,-477.33 556.11,-480.61"/>
<polygon fill="#757575" stroke="#757575" points="555.09,-483.96 565.64,-483.04 556.82,-477.18 555.09,-483.96"/>
</g>
<!-- js/mode/server.js&#45;&gt;js/actions/actions_uno_client.js -->
<g id="edge42" class="edge">
<title>js/mode/server.js&#45;&gt;js/actions/actions_uno_client.js</title>
<path fill="none" stroke="#757575" d="M485.6,-258.25C498.61,-258.25 512.74,-258.25 527.02,-258.25"/>
<polygon fill="#757575" stroke="#757575" points="526.97,-261.75 536.97,-258.25 526.97,-254.75 526.97,-261.75"/>
</g>
<!-- js/mode/server.js&#45;&gt;js/actions/actions_uno_server.js -->
<g id="edge43" class="edge">
<title>js/mode/server.js&#45;&gt;js/actions/actions_uno_server.js</title>
<path fill="none" stroke="#757575" d="M437.37,-245.59C455.04,-229.98 487.72,-204.28 521.25,-194.25 626.1,-162.88 658.56,-183.72 767.5,-194.25 956.45,-212.51 1174.93,-270.95 1273.52,-299.4"/>
<polygon fill="#757575" stroke="#757575" points="1272.34,-302.7 1282.92,-302.13 1274.29,-295.98 1272.34,-302.7"/>
</g>
<!-- js/mode/server.js&#45;&gt;js/connection/common.js -->
<g id="edge44" class="edge">
<title>js/mode/server.js&#45;&gt;js/connection/common.js</title>
<path fill="none" stroke="#757575" d="M479.35,-270.99C609.62,-301.02 927.57,-375.11 974,-393.25 1007.35,-406.28 1042.92,-426.79 1066.87,-441.69"/>
<polygon fill="#757575" stroke="#757575" points="1064.78,-444.51 1075.11,-446.88 1068.52,-438.58 1064.78,-444.51"/>
</g>
<!-- js/mode/server.js&#45;&gt;js/connection/connection_chooser.js -->
<g id="edge45" class="edge">
<title>js/mode/server.js&#45;&gt;js/connection/connection_chooser.js</title>
<path fill="none" stroke="#757575" d="M441.47,-270.75C479.76,-297.97 570.86,-362.72 616.44,-395.11"/>
<polygon fill="#757575" stroke="#757575" points="614.29,-397.87 624.47,-400.81 618.34,-392.17 614.29,-397.87"/>
</g>
<!-- js/mode/server.js&#45;&gt;js/views/logger.js -->
<g id="edge49" class="edge">
<title>js/mode/server.js&#45;&gt;js/views/logger.js</title>
<path fill="none" stroke="#757575" d="M430.57,-270.76C451.94,-310.68 517.41,-432.56 521.25,-435.25 611.99,-498.73 684.29,-400.17 767.5,-473.25 810.62,-511.12 762.37,-557.23 803.5,-597.25 807.36,-601.01 811.78,-604.14 816.52,-606.76"/>
<polygon fill="#757575" stroke="#757575" points="814.72,-609.79 825.27,-610.8 817.66,-603.43 814.72,-609.79"/>
</g>
<!-- js/mode/server.js&#45;&gt;js/helper.js -->
<g id="edge46" class="edge">
<title>js/mode/server.js&#45;&gt;js/helper.js</title>
<path fill="none" stroke="#757575" d="M434.99,-245.51C455.94,-221.78 501,-172.22 521.25,-161.25 542.43,-149.77 568.23,-143.36 590.66,-139.78"/>
<polygon fill="#757575" stroke="#757575" points="591.13,-143.25 600.54,-138.37 590.14,-136.32 591.13,-143.25"/>
</g>
<!-- js/mode/server.js&#45;&gt;js/lib/qrcode.js -->
<g id="edge47" class="edge">
<title>js/mode/server.js&#45;&gt;js/lib/qrcode.js</title>
<path fill="none" stroke="#757575" d="M481.22,-245.54C494.35,-242.73 508.27,-239.82 521.25,-237.25 540.06,-233.53 560.56,-229.73 579.3,-226.37"/>
<polygon fill="#757575" stroke="#757575" points="579.68,-229.85 588.91,-224.65 578.45,-222.96 579.68,-229.85"/>
</g>
<!-- js/mode/server.js&#45;&gt;js/utils/async&#45;queue.js -->
<g id="edge48" class="edge">
<title>js/mode/server.js&#45;&gt;js/utils/async&#45;queue.js</title>
<path fill="none" stroke="#757575" d="M431.23,-270.75C443.33,-291.58 467.85,-334.92 485.25,-373.25 503.92,-414.36 486.98,-438.85 521.25,-468.25 531.27,-476.85 543.45,-482.83 556.18,-486.95"/>
<polygon fill="#757575" stroke="#757575" points="554.93,-490.24 565.51,-489.58 556.83,-483.5 554.93,-490.24"/>
</g>
<!-- js/uno/engine.js&#45;&gt;js/uno/basic.js -->
<g id="edge67" class="edge">
<title>js/uno/engine.js&#45;&gt;js/uno/basic.js</title>
<path fill="none" stroke="#757575" d="M1153.68,-929.55C1245.88,-921.85 1428.43,-906.6 1524.97,-898.54"/>
<polygon fill="#757575" stroke="#757575" points="1525.12,-902.03 1534.8,-897.71 1524.54,-895.06 1525.12,-902.03"/>
</g>
<!-- js/uno/engine.js&#45;&gt;js/utils/handlers.js -->
<g id="edge70" class="edge">
<title>js/uno/engine.js&#45;&gt;js/utils/handlers.js</title>
<path fill="none" stroke="#757575" d="M1153.78,-929.28C1164.65,-925.88 1175.04,-920.54 1182.75,-912.25 1243.67,-846.76 1184.67,-796.94 1218.75,-714.25 1240.81,-660.73 1283.14,-606.99 1307.71,-578.36"/>
<polygon fill="#757575" stroke="#757575" points="1310.08,-580.96 1314.02,-571.12 1304.81,-576.36 1310.08,-580.96"/>
</g>
<!-- js/uno/deck.js -->
<g id="node38" class="node">
<title>js/uno/deck.js</title>
<path fill="none" stroke="#c6c5fe" d="M1370.58,-1026.5C1370.58,-1026.5 1284.67,-1026.5 1284.67,-1026.5 1280.58,-1026.5 1276.5,-1022.42 1276.5,-1018.33 1276.5,-1018.33 1276.5,-1010.17 1276.5,-1010.17 1276.5,-1006.08 1280.58,-1002 1284.67,-1002 1284.67,-1002 1370.58,-1002 1370.58,-1002 1374.67,-1002 1378.75,-1006.08 1378.75,-1010.17 1378.75,-1010.17 1378.75,-1018.33 1378.75,-1018.33 1378.75,-1022.42 1374.67,-1026.5 1370.58,-1026.5"/>
<text text-anchor="middle" x="1327.62" y="-1009.2" font-family="Arial" font-size="14.00" fill="#c6c5fe">js/uno/deck.js</text>
</g>
<!-- js/uno/engine.js&#45;&gt;js/uno/deck.js -->
<g id="edge68" class="edge">
<title>js/uno/engine.js&#45;&gt;js/uno/deck.js</title>
<path fill="none" stroke="#757575" d="M1119.5,-946.86C1143.32,-959.94 1182.66,-980.15 1218.75,-992.25 1233.48,-997.19 1249.73,-1001.21 1265.05,-1004.4"/>
<polygon fill="#757575" stroke="#757575" points="1264.03,-1007.76 1274.52,-1006.28 1265.39,-1000.9 1264.03,-1007.76"/>
</g>
<!-- js/uno/player.js -->
<g id="node40" class="node">
<title>js/uno/player.js</title>
<path fill="none" stroke="#c6c5fe" d="M1374.33,-983.5C1374.33,-983.5 1280.92,-983.5 1280.92,-983.5 1276.83,-983.5 1272.75,-979.42 1272.75,-975.33 1272.75,-975.33 1272.75,-967.17 1272.75,-967.17 1272.75,-963.08 1276.83,-959 1280.92,-959 1280.92,-959 1374.33,-959 1374.33,-959 1378.42,-959 1382.5,-963.08 1382.5,-967.17 1382.5,-967.17 1382.5,-975.33 1382.5,-975.33 1382.5,-979.42 1378.42,-983.5 1374.33,-983.5"/>
<text text-anchor="middle" x="1327.62" y="-966.2" font-family="Arial" font-size="14.00" fill="#c6c5fe">js/uno/player.js</text>
</g>
<!-- js/uno/engine.js&#45;&gt;js/uno/player.js -->
<g id="edge69" class="edge">
<title>js/uno/engine.js&#45;&gt;js/uno/player.js</title>
<path fill="none" stroke="#757575" d="M1153.75,-943.35C1186.27,-948.6 1227.3,-955.22 1261.23,-960.7"/>
<polygon fill="#757575" stroke="#757575" points="1260.52,-964.13 1270.95,-962.26 1261.64,-957.22 1260.52,-964.13"/>
</g>
<!-- js/views/choose_color.js&#45;&gt;js/uno/basic.js -->
<g id="edge73" class="edge">
<title>js/views/choose_color.js&#45;&gt;js/uno/basic.js</title>
<path fill="none" stroke="#757575" d="M974.22,-805.62C1082.6,-800.41 1275.78,-797.94 1436.5,-832.25 1478.6,-841.24 1524.07,-860.98 1554.14,-875.58"/>
<polygon fill="#757575" stroke="#757575" points="1552.23,-878.54 1562.75,-879.83 1555.33,-872.27 1552.23,-878.54"/>
</g>
<!-- js/views/layout.js&#45;&gt;js/uno/basic.js -->
<g id="edge74" class="edge">
<title>js/views/layout.js&#45;&gt;js/uno/basic.js</title>
<path fill="none" stroke="#757575" d="M1156.59,-891.49C1249.6,-891.87 1429.2,-892.6 1524.78,-892.99"/>
<polygon fill="#757575" stroke="#757575" points="1524.76,-896.49 1534.78,-893.03 1524.79,-889.49 1524.76,-896.49"/>
</g>
<!-- js/views/layout.js&#45;&gt;js/utils/timer.js -->
<g id="edge75" class="edge">
<title>js/views/layout.js&#45;&gt;js/utils/timer.js</title>
<path fill="none" stroke="#757575" d="M1156.71,-881.41C1189.61,-875.96 1230.5,-869.18 1263.92,-863.64"/>
<polygon fill="#757575" stroke="#757575" points="1264.16,-867.15 1273.45,-862.06 1263.01,-860.25 1264.16,-867.15"/>
</g>
<!-- js/utils/shuffle.js -->
<g id="node39" class="node">
<title>js/utils/shuffle.js</title>
<path fill="none" stroke="#cfffac" d="M1638.96,-1026.5C1638.96,-1026.5 1539.54,-1026.5 1539.54,-1026.5 1535.46,-1026.5 1531.38,-1022.42 1531.38,-1018.33 1531.38,-1018.33 1531.38,-1010.17 1531.38,-1010.17 1531.38,-1006.08 1535.46,-1002 1539.54,-1002 1539.54,-1002 1638.96,-1002 1638.96,-1002 1643.04,-1002 1647.12,-1006.08 1647.12,-1010.17 1647.12,-1010.17 1647.12,-1018.33 1647.12,-1018.33 1647.12,-1022.42 1643.04,-1026.5 1638.96,-1026.5"/>
<text text-anchor="middle" x="1589.25" y="-1009.2" font-family="Arial" font-size="14.00" fill="#cfffac">js/utils/shuffle.js</text>
</g>
<!-- js/uno/deck.js&#45;&gt;js/utils/shuffle.js -->
<g id="edge65" class="edge">
<title>js/uno/deck.js&#45;&gt;js/utils/shuffle.js</title>
<path fill="none" stroke="#757575" d="M1378.99,-1014.25C1419.14,-1014.25 1475.78,-1014.25 1520,-1014.25"/>
<polygon fill="#757575" stroke="#757575" points="1519.74,-1017.75 1529.74,-1014.25 1519.74,-1010.75 1519.74,-1017.75"/>
</g>
<!-- js/uno/player.js&#45;&gt;js/uno/basic.js -->
<g id="edge71" class="edge">
<title>js/uno/player.js&#45;&gt;js/uno/basic.js</title>
<path fill="none" stroke="#757575" d="M1382.94,-959.21C1400.15,-955.11 1419.21,-950.29 1436.5,-945.25 1472.94,-934.64 1513.58,-920.59 1543.63,-909.77"/>
<polygon fill="#757575" stroke="#757575" points="1544.56,-913.16 1552.77,-906.46 1542.17,-906.58 1544.56,-913.16"/>
</g>
<!-- js/utils/ellipse.js -->
<g id="node41" class="node">
<title>js/utils/ellipse.js</title>
<path fill="none" stroke="#cfffac" d="M106.08,-250.5C106.08,-250.5 8.17,-250.5 8.17,-250.5 4.08,-250.5 0,-246.42 0,-242.33 0,-242.33 0,-234.17 0,-234.17 0,-230.08 4.08,-226 8.17,-226 8.17,-226 106.08,-226 106.08,-226 110.17,-226 114.25,-230.08 114.25,-234.17 114.25,-234.17 114.25,-242.33 114.25,-242.33 114.25,-246.42 110.17,-250.5 106.08,-250.5"/>
<text text-anchor="middle" x="57.12" y="-233.2" font-family="Arial" font-size="14.00" fill="#cfffac">js/utils/ellipse.js</text>
</g>
<!-- js/utils/enum.js -->
<g id="node42" class="node">
<title>js/utils/enum.js</title>
<path fill="none" stroke="#cfffac" d="M103.08,-293.5C103.08,-293.5 11.17,-293.5 11.17,-293.5 7.08,-293.5 3,-289.42 3,-285.33 3,-285.33 3,-277.17 3,-277.17 3,-273.08 7.08,-269 11.17,-269 11.17,-269 103.08,-269 103.08,-269 107.17,-269 111.25,-273.08 111.25,-277.17 111.25,-277.17 111.25,-285.33 111.25,-285.33 111.25,-289.42 107.17,-293.5 103.08,-293.5"/>
<text text-anchor="middle" x="57.12" y="-276.2" font-family="Arial" font-size="14.00" fill="#cfffac">js/utils/enum.js</text>
</g>
<!-- js/utils/queue.js -->
<g id="node43" class="node">
<title>js/utils/queue.js</title>
<path fill="none" stroke="#cfffac" d="M105.33,-336.5C105.33,-336.5 8.92,-336.5 8.92,-336.5 4.83,-336.5 0.75,-332.42 0.75,-328.33 0.75,-328.33 0.75,-320.17 0.75,-320.17 0.75,-316.08 4.83,-312 8.92,-312 8.92,-312 105.33,-312 105.33,-312 109.42,-312 113.5,-316.08 113.5,-320.17 113.5,-320.17 113.5,-328.33 113.5,-328.33 113.5,-332.42 109.42,-336.5 105.33,-336.5"/>
<text text-anchor="middle" x="57.12" y="-319.2" font-family="Arial" font-size="14.00" fill="#cfffac">js/utils/queue.js</text>
</g>
<!-- sw.js -->
<g id="node44" class="node">
<title>sw.js</title>
<path fill="none" stroke="#cfffac" d="M75.96,-379.5C75.96,-379.5 38.29,-379.5 38.29,-379.5 34.21,-379.5 30.12,-375.42 30.12,-371.33 30.12,-371.33 30.12,-363.17 30.12,-363.17 30.12,-359.08 34.21,-355 38.29,-355 38.29,-355 75.96,-355 75.96,-355 80.04,-355 84.12,-359.08 84.12,-363.17 84.12,-363.17 84.12,-371.33 84.12,-371.33 84.12,-375.42 80.04,-379.5 75.96,-379.5"/>
<text text-anchor="middle" x="57.12" y="-362.2" font-family="Arial" font-size="14.00" fill="#cfffac">sw.js</text>
</g>
</g>
</svg>
