<?xml version="1.0" encoding="UTF-8" standalone="no"?>
<!DOCTYPE svg PUBLIC "-//W3C//DTD SVG 1.1//EN"
 "http://www.w3.org/Graphics/SVG/1.1/DTD/svg11.dtd">
<!-- Generated by graphviz version 11.0.0 (20240428.1522)
 -->
<!-- Title: G Pages: 1 -->
<svg width="1658pt" height="1196pt"
 viewBox="0.00 0.00 1658.20 1195.70" xmlns="http://www.w3.org/2000/svg" xmlns:xlink="http://www.w3.org/1999/xlink">
<g id="graph0" class="graph" transform="scale(1 1) rotate(0) translate(21.6 1174.1)">
<title>G</title>
<polygon fill="#111111" stroke="none" points="-21.6,21.6 -21.6,-1174.1 1636.6,-1174.1 1636.6,21.6 -21.6,21.6"/>
<!-- src/index.js -->
<g id="node1" class="node">
<title>src/index.js</title>
<path fill="none" stroke="#c6c5fe" d="M138.33,-881.5C138.33,-881.5 67.42,-881.5 67.42,-881.5 63.33,-881.5 59.25,-877.42 59.25,-873.33 59.25,-873.33 59.25,-865.17 59.25,-865.17 59.25,-861.08 63.33,-857 67.42,-857 67.42,-857 138.33,-857 138.33,-857 142.42,-857 146.5,-861.08 146.5,-865.17 146.5,-865.17 146.5,-873.33 146.5,-873.33 146.5,-877.42 142.42,-881.5 138.33,-881.5"/>
<text text-anchor="middle" x="102.88" y="-864.2" font-family="Arial" font-size="14.00" fill="#c6c5fe">src/index.js</text>
</g>
<!-- src/js/install_as_app.js -->
<g id="node2" class="node">
<title>src/js/install_as_app.js</title>
<path fill="none" stroke="#cfffac" d="M441.58,-903.5C441.58,-903.5 299.42,-903.5 299.42,-903.5 295.33,-903.5 291.25,-899.42 291.25,-895.33 291.25,-895.33 291.25,-887.17 291.25,-887.17 291.25,-883.08 295.33,-879 299.42,-879 299.42,-879 441.58,-879 441.58,-879 445.67,-879 449.75,-883.08 449.75,-887.17 449.75,-887.17 449.75,-895.33 449.75,-895.33 449.75,-899.42 445.67,-903.5 441.58,-903.5"/>
<text text-anchor="middle" x="370.5" y="-886.2" font-family="Arial" font-size="14.00" fill="#cfffac">src/js/install_as_app.js</text>
</g>
<!-- src/index.js&#45;&gt;src/js/install_as_app.js -->
<g id="edge1" class="edge">
<title>src/index.js&#45;&gt;src/js/install_as_app.js</title>
<path fill="none" stroke="#757575" d="M146.85,-872.81C182.65,-875.77 234.85,-880.1 279.71,-883.81"/>
<polygon fill="#757575" stroke="#757575" points="279.18,-887.28 289.43,-884.62 279.76,-880.31 279.18,-887.28"/>
</g>
<!-- src/js/starter.js -->
<g id="node3" class="node">
<title>src/js/starter.js</title>
<path fill="none" stroke="#c6c5fe" d="M416.08,-860.5C416.08,-860.5 324.92,-860.5 324.92,-860.5 320.83,-860.5 316.75,-856.42 316.75,-852.33 316.75,-852.33 316.75,-844.17 316.75,-844.17 316.75,-840.08 320.83,-836 324.92,-836 324.92,-836 416.08,-836 416.08,-836 420.17,-836 424.25,-840.08 424.25,-844.17 424.25,-844.17 424.25,-852.33 424.25,-852.33 424.25,-856.42 420.17,-860.5 416.08,-860.5"/>
<text text-anchor="middle" x="370.5" y="-843.2" font-family="Arial" font-size="14.00" fill="#c6c5fe">src/js/starter.js</text>
</g>
<!-- src/index.js&#45;&gt;src/js/starter.js -->
<g id="edge2" class="edge">
<title>src/index.js&#45;&gt;src/js/starter.js</title>
<path fill="none" stroke="#757575" d="M146.85,-865.85C189.67,-862.47 255.94,-857.23 305.06,-853.34"/>
<polygon fill="#757575" stroke="#757575" points="305.32,-856.84 315.01,-852.56 304.77,-849.86 305.32,-856.84"/>
</g>
<!-- src/js/helper.js -->
<g id="node9" class="node">
<title>src/js/helper.js</title>
<path fill="none" stroke="#cfffac" d="M1556.58,-623.5C1556.58,-623.5 1465.42,-623.5 1465.42,-623.5 1461.33,-623.5 1457.25,-619.42 1457.25,-615.33 1457.25,-615.33 1457.25,-607.17 1457.25,-607.17 1457.25,-603.08 1461.33,-599 1465.42,-599 1465.42,-599 1556.58,-599 1556.58,-599 1560.67,-599 1564.75,-603.08 1564.75,-607.17 1564.75,-607.17 1564.75,-615.33 1564.75,-615.33 1564.75,-619.42 1560.67,-623.5 1556.58,-623.5"/>
<text text-anchor="middle" x="1511" y="-606.2" font-family="Arial" font-size="14.00" fill="#cfffac">src/js/helper.js</text>
</g>
<!-- src/js/starter.js&#45;&gt;src/js/helper.js -->
<g id="edge45" class="edge">
<title>src/js/starter.js&#45;&gt;src/js/helper.js</title>
<path fill="none" stroke="#757575" d="M424.75,-856.83C447.71,-860.68 474.85,-865.44 499.25,-870.25 515.33,-873.42 519.08,-875.6 535.25,-878.25 803.21,-922.22 878.91,-879.04 1142.75,-943.25 1159.43,-947.31 1161.88,-954.08 1178.75,-957.25 1262.73,-973 1300.21,-1005.1 1371,-957.25 1482.62,-881.8 1504.62,-700.34 1508.95,-635.11"/>
<polygon fill="#757575" stroke="#757575" points="1512.44,-635.37 1509.51,-625.19 1505.45,-634.98 1512.44,-635.37"/>
</g>
<!-- src/js/game.js -->
<g id="node21" class="node">
<title>src/js/game.js</title>
<path fill="none" stroke="#c6c5fe" d="M656.33,-630.5C656.33,-630.5 568.92,-630.5 568.92,-630.5 564.83,-630.5 560.75,-626.42 560.75,-622.33 560.75,-622.33 560.75,-614.17 560.75,-614.17 560.75,-610.08 564.83,-606 568.92,-606 568.92,-606 656.33,-606 656.33,-606 660.42,-606 664.5,-610.08 664.5,-614.17 664.5,-614.17 664.5,-622.33 664.5,-622.33 664.5,-626.42 660.42,-630.5 656.33,-630.5"/>
<text text-anchor="middle" x="612.62" y="-613.2" font-family="Arial" font-size="14.00" fill="#c6c5fe">src/js/game.js</text>
</g>
<!-- src/js/starter.js&#45;&gt;src/js/game.js -->
<g id="edge44" class="edge">
<title>src/js/starter.js&#45;&gt;src/js/game.js</title>
<path fill="none" stroke="#757575" d="M386.09,-835.83C410.68,-814.57 461.39,-769.33 499.25,-726.25 517.09,-705.95 516.37,-696.59 535.25,-677.25 549.65,-662.5 567.85,-648.3 582.88,-637.52"/>
<polygon fill="#757575" stroke="#757575" points="584.8,-640.45 590.98,-631.84 580.78,-634.72 584.8,-640.45"/>
</g>
<!-- src/js/mode/ai.js -->
<g id="node28" class="node">
<title>src/js/mode/ai.js</title>
<path fill="none" stroke="#c6c5fe" d="M1095.96,-791.5C1095.96,-791.5 993.54,-791.5 993.54,-791.5 989.46,-791.5 985.38,-787.42 985.38,-783.33 985.38,-783.33 985.38,-775.17 985.38,-775.17 985.38,-771.08 989.46,-767 993.54,-767 993.54,-767 1095.96,-767 1095.96,-767 1100.04,-767 1104.12,-771.08 1104.12,-775.17 1104.12,-775.17 1104.12,-783.33 1104.12,-783.33 1104.12,-787.42 1100.04,-791.5 1095.96,-791.5"/>
<text text-anchor="middle" x="1044.75" y="-774.2" font-family="Arial" font-size="14.00" fill="#c6c5fe">src/js/mode/ai.js</text>
</g>
<!-- src/js/starter.js&#45;&gt;src/js/mode/ai.js -->
<g id="edge46" class="edge">
<title>src/js/starter.js&#45;&gt;src/js/mode/ai.js</title>
<path fill="none" stroke="#757575" d="M424.53,-842.81C544.88,-830.45 838.69,-800.3 973.74,-786.44"/>
<polygon fill="#757575" stroke="#757575" points="974.04,-789.92 983.63,-785.42 973.33,-782.96 974.04,-789.92"/>
</g>
<!-- src/js/mode/hotseat.js -->
<g id="node30" class="node">
<title>src/js/mode/hotseat.js</title>
<path fill="none" stroke="#c6c5fe" d="M681.83,-710.5C681.83,-710.5 543.42,-710.5 543.42,-710.5 539.33,-710.5 535.25,-706.42 535.25,-702.33 535.25,-702.33 535.25,-694.17 535.25,-694.17 535.25,-690.08 539.33,-686 543.42,-686 543.42,-686 681.83,-686 681.83,-686 685.92,-686 690,-690.08 690,-694.17 690,-694.17 690,-702.33 690,-702.33 690,-706.42 685.92,-710.5 681.83,-710.5"/>
<text text-anchor="middle" x="612.62" y="-693.2" font-family="Arial" font-size="14.00" fill="#c6c5fe">src/js/mode/hotseat.js</text>
</g>
<!-- src/js/starter.js&#45;&gt;src/js/mode/hotseat.js -->
<g id="edge47" class="edge">
<title>src/js/starter.js&#45;&gt;src/js/mode/hotseat.js</title>
<path fill="none" stroke="#757575" d="M391.56,-835.72C433.85,-809.3 532.31,-747.79 581.93,-716.8"/>
<polygon fill="#757575" stroke="#757575" points="583.54,-719.92 590.17,-711.65 579.83,-713.98 583.54,-719.92"/>
</g>
<!-- src/js/mode/net.js -->
<g id="node31" class="node">
<title>src/js/mode/net.js</title>
<path fill="none" stroke="#c6c5fe" d="M1100.46,-976.5C1100.46,-976.5 989.04,-976.5 989.04,-976.5 984.96,-976.5 980.88,-972.42 980.88,-968.33 980.88,-968.33 980.88,-960.17 980.88,-960.17 980.88,-956.08 984.96,-952 989.04,-952 989.04,-952 1100.46,-952 1100.46,-952 1104.54,-952 1108.62,-956.08 1108.62,-960.17 1108.62,-960.17 1108.62,-968.33 1108.62,-968.33 1108.62,-972.42 1104.54,-976.5 1100.46,-976.5"/>
<text text-anchor="middle" x="1044.75" y="-959.2" font-family="Arial" font-size="14.00" fill="#c6c5fe">src/js/mode/net.js</text>
</g>
<!-- src/js/starter.js&#45;&gt;src/js/mode/net.js -->
<g id="edge48" class="edge">
<title>src/js/starter.js&#45;&gt;src/js/mode/net.js</title>
<path fill="none" stroke="#757575" d="M424.47,-845.24C449.83,-846.57 479.01,-852.54 499.25,-870.25 539.55,-905.52 492.09,-953.54 535.25,-985.25 678.59,-1090.58 910.95,-1017.26 1003.68,-981.13"/>
<polygon fill="#757575" stroke="#757575" points="1004.87,-984.43 1012.87,-977.48 1002.29,-977.92 1004.87,-984.43"/>
</g>
<!-- src/js/mode/server.js -->
<g id="node32" class="node">
<title>src/js/mode/server.js</title>
<path fill="none" stroke="#c6c5fe" d="M1110.58,-879.5C1110.58,-879.5 978.92,-879.5 978.92,-879.5 974.83,-879.5 970.75,-875.42 970.75,-871.33 970.75,-871.33 970.75,-863.17 970.75,-863.17 970.75,-859.08 974.83,-855 978.92,-855 978.92,-855 1110.58,-855 1110.58,-855 1114.67,-855 1118.75,-859.08 1118.75,-863.17 1118.75,-863.17 1118.75,-871.33 1118.75,-871.33 1118.75,-875.42 1114.67,-879.5 1110.58,-879.5"/>
<text text-anchor="middle" x="1044.75" y="-862.2" font-family="Arial" font-size="14.00" fill="#c6c5fe">src/js/mode/server.js</text>
</g>
<!-- src/js/starter.js&#45;&gt;src/js/mode/server.js -->
<g id="edge49" class="edge">
<title>src/js/starter.js&#45;&gt;src/js/mode/server.js</title>
<path fill="none" stroke="#757575" d="M424.53,-853.8C456.55,-856.9 498.2,-860.49 535.25,-862.25 684.27,-869.34 858.13,-869.25 959.1,-868.37"/>
<polygon fill="#757575" stroke="#757575" points="958.96,-871.87 968.93,-868.28 958.89,-864.87 958.96,-871.87"/>
</g>
<!-- src/js/mode/test.js -->
<g id="node33" class="node">
<title>src/js/mode/test.js</title>
<path fill="none" stroke="#cfffac" d="M670.21,-976.5C670.21,-976.5 555.04,-976.5 555.04,-976.5 550.96,-976.5 546.88,-972.42 546.88,-968.33 546.88,-968.33 546.88,-960.17 546.88,-960.17 546.88,-956.08 550.96,-952 555.04,-952 555.04,-952 670.21,-952 670.21,-952 674.29,-952 678.38,-956.08 678.38,-960.17 678.38,-960.17 678.38,-968.33 678.38,-968.33 678.38,-972.42 674.29,-976.5 670.21,-976.5"/>
<text text-anchor="middle" x="612.62" y="-959.2" font-family="Arial" font-size="14.00" fill="#cfffac">src/js/mode/test.js</text>
</g>
<!-- src/js/starter.js&#45;&gt;src/js/mode/test.js -->
<g id="edge50" class="edge">
<title>src/js/starter.js&#45;&gt;src/js/mode/test.js</title>
<path fill="none" stroke="#757575" d="M424.73,-847C449.41,-848.87 477.93,-854.8 499.25,-870.25 526.94,-890.32 509.23,-916.06 535.25,-938.25 538.91,-941.37 542.96,-944.12 547.23,-946.54"/>
<polygon fill="#757575" stroke="#757575" points="545.64,-949.66 556.15,-950.95 548.74,-943.38 545.64,-949.66"/>
</g>
<!-- src/js/settings.js -->
<g id="node35" class="node">
<title>src/js/settings.js</title>
<path fill="none" stroke="#cfffac" d="M663.08,-587.5C663.08,-587.5 562.17,-587.5 562.17,-587.5 558.08,-587.5 554,-583.42 554,-579.33 554,-579.33 554,-571.17 554,-571.17 554,-567.08 558.08,-563 562.17,-563 562.17,-563 663.08,-563 663.08,-563 667.17,-563 671.25,-567.08 671.25,-571.17 671.25,-571.17 671.25,-579.33 671.25,-579.33 671.25,-583.42 667.17,-587.5 663.08,-587.5"/>
<text text-anchor="middle" x="612.62" y="-570.2" font-family="Arial" font-size="14.00" fill="#cfffac">src/js/settings.js</text>
</g>
<!-- src/js/starter.js&#45;&gt;src/js/settings.js -->
<g id="edge51" class="edge">
<title>src/js/starter.js&#45;&gt;src/js/settings.js</title>
<path fill="none" stroke="#757575" d="M390.16,-835.56C418.08,-815.58 470.54,-774.12 499.25,-726.25 529.87,-675.2 493.34,-639.51 535.25,-597.25 537.87,-594.6 540.79,-592.27 543.92,-590.22"/>
<polygon fill="#757575" stroke="#757575" points="545.36,-593.41 552.48,-585.57 542.02,-587.26 545.36,-593.41"/>
</g>
<!-- src/js/actions_uno_client.js -->
<g id="node4" class="node">
<title>src/js/actions_uno_client.js</title>
<path fill="none" stroke="#c6c5fe" d="M1359.46,-1066.5C1359.46,-1066.5 1190.29,-1066.5 1190.29,-1066.5 1186.21,-1066.5 1182.12,-1062.42 1182.12,-1058.33 1182.12,-1058.33 1182.12,-1050.17 1182.12,-1050.17 1182.12,-1046.08 1186.21,-1042 1190.29,-1042 1190.29,-1042 1359.46,-1042 1359.46,-1042 1363.54,-1042 1367.62,-1046.08 1367.62,-1050.17 1367.62,-1050.17 1367.62,-1058.33 1367.62,-1058.33 1367.62,-1062.42 1363.54,-1066.5 1359.46,-1066.5"/>
<text text-anchor="middle" x="1274.88" y="-1049.2" font-family="Arial" font-size="14.00" fill="#c6c5fe">src/js/actions_uno_client.js</text>
</g>
<!-- src/js/actions_uno_common.js -->
<g id="node5" class="node">
<title>src/js/actions_uno_common.js</title>
<path fill="none" stroke="#cfffac" d="M1606.83,-985.5C1606.83,-985.5 1415.17,-985.5 1415.17,-985.5 1411.08,-985.5 1407,-981.42 1407,-977.33 1407,-977.33 1407,-969.17 1407,-969.17 1407,-965.08 1411.08,-961 1415.17,-961 1415.17,-961 1606.83,-961 1606.83,-961 1610.92,-961 1615,-965.08 1615,-969.17 1615,-969.17 1615,-977.33 1615,-977.33 1615,-981.42 1610.92,-985.5 1606.83,-985.5"/>
<text text-anchor="middle" x="1511" y="-968.2" font-family="Arial" font-size="14.00" fill="#cfffac">src/js/actions_uno_common.js</text>
</g>
<!-- src/js/actions_uno_client.js&#45;&gt;src/js/actions_uno_common.js -->
<g id="edge3" class="edge">
<title>src/js/actions_uno_client.js&#45;&gt;src/js/actions_uno_common.js</title>
<path fill="none" stroke="#757575" d="M1326.54,-1041.51C1341,-1037.58 1356.71,-1033.01 1371,-1028.25 1405.02,-1016.91 1442.8,-1001.79 1470.38,-990.27"/>
<polygon fill="#757575" stroke="#757575" points="1471.53,-993.59 1479.4,-986.48 1468.82,-987.13 1471.53,-993.59"/>
</g>
<!-- src/js/actions_uno_server.js -->
<g id="node6" class="node">
<title>src/js/actions_uno_server.js</title>
<path fill="none" stroke="#c6c5fe" d="M1362.83,-905.5C1362.83,-905.5 1186.92,-905.5 1186.92,-905.5 1182.83,-905.5 1178.75,-901.42 1178.75,-897.33 1178.75,-897.33 1178.75,-889.17 1178.75,-889.17 1178.75,-885.08 1182.83,-881 1186.92,-881 1186.92,-881 1362.83,-881 1362.83,-881 1366.92,-881 1371,-885.08 1371,-889.17 1371,-889.17 1371,-897.33 1371,-897.33 1371,-901.42 1366.92,-905.5 1362.83,-905.5"/>
<text text-anchor="middle" x="1274.88" y="-888.2" font-family="Arial" font-size="14.00" fill="#c6c5fe">src/js/actions_uno_server.js</text>
</g>
<!-- src/js/actions_uno_server.js&#45;&gt;src/js/actions_uno_common.js -->
<g id="edge4" class="edge">
<title>src/js/actions_uno_server.js&#45;&gt;src/js/actions_uno_common.js</title>
<path fill="none" stroke="#757575" d="M1337.69,-905.95C1348.87,-908.7 1360.35,-911.82 1371,-915.25 1406.38,-926.63 1445.32,-943.26 1472.96,-955.79"/>
<polygon fill="#757575" stroke="#757575" points="1471.41,-958.93 1481.96,-959.91 1474.33,-952.57 1471.41,-958.93"/>
</g>
<!-- src/js/bot/best_card.bot.js -->
<g id="node7" class="node">
<title>src/js/bot/best_card.bot.js</title>
<path fill="none" stroke="#c6c5fe" d="M1126.33,-625.5C1126.33,-625.5 963.17,-625.5 963.17,-625.5 959.08,-625.5 955,-621.42 955,-617.33 955,-617.33 955,-609.17 955,-609.17 955,-605.08 959.08,-601 963.17,-601 963.17,-601 1126.33,-601 1126.33,-601 1130.42,-601 1134.5,-605.08 1134.5,-609.17 1134.5,-609.17 1134.5,-617.33 1134.5,-617.33 1134.5,-621.42 1130.42,-625.5 1126.33,-625.5"/>
<text text-anchor="middle" x="1044.75" y="-608.2" font-family="Arial" font-size="14.00" fill="#c6c5fe">src/js/bot/best_card.bot.js</text>
</g>
<!-- src/js/bot/best_card.bot.js&#45;&gt;src/js/actions_uno_server.js -->
<g id="edge5" class="edge">
<title>src/js/bot/best_card.bot.js&#45;&gt;src/js/actions_uno_server.js</title>
<path fill="none" stroke="#757575" d="M1062.28,-625.81C1084.17,-643.37 1122.37,-677.37 1142.75,-715.25 1176.46,-777.91 1128.45,-820.92 1178.75,-871.25 1179.79,-872.3 1180.88,-873.29 1182,-874.25"/>
<polygon fill="#757575" stroke="#757575" points="1179.78,-876.97 1189.97,-879.88 1183.82,-871.25 1179.78,-876.97"/>
</g>
<!-- src/js/bot/simple.bot.js -->
<g id="node8" class="node">
<title>src/js/bot/simple.bot.js</title>
<path fill="none" stroke="#c6c5fe" d="M1345.58,-469.5C1345.58,-469.5 1204.17,-469.5 1204.17,-469.5 1200.08,-469.5 1196,-465.42 1196,-461.33 1196,-461.33 1196,-453.17 1196,-453.17 1196,-449.08 1200.08,-445 1204.17,-445 1204.17,-445 1345.58,-445 1345.58,-445 1349.67,-445 1353.75,-449.08 1353.75,-453.17 1353.75,-453.17 1353.75,-461.33 1353.75,-461.33 1353.75,-465.42 1349.67,-469.5 1345.58,-469.5"/>
<text text-anchor="middle" x="1274.88" y="-452.2" font-family="Arial" font-size="14.00" fill="#c6c5fe">src/js/bot/simple.bot.js</text>
</g>
<!-- src/js/bot/best_card.bot.js&#45;&gt;src/js/bot/simple.bot.js -->
<g id="edge6" class="edge">
<title>src/js/bot/best_card.bot.js&#45;&gt;src/js/bot/simple.bot.js</title>
<path fill="none" stroke="#757575" d="M1064.03,-600.75C1103.91,-573.48 1198.91,-508.51 1246.18,-476.19"/>
<polygon fill="#757575" stroke="#757575" points="1247.98,-479.2 1254.26,-470.67 1244.03,-473.42 1247.98,-479.2"/>
</g>
<!-- src/js/bot/best_card.bot.js&#45;&gt;src/js/helper.js -->
<g id="edge7" class="edge">
<title>src/js/bot/best_card.bot.js&#45;&gt;src/js/helper.js</title>
<path fill="none" stroke="#757575" d="M1134.99,-612.87C1225.86,-612.47 1364.56,-611.88 1445.36,-611.53"/>
<polygon fill="#757575" stroke="#757575" points="1445.35,-615.03 1455.33,-611.49 1445.32,-608.03 1445.35,-615.03"/>
</g>
<!-- src/js/uno/basic.js -->
<g id="node10" class="node">
<title>src/js/uno/basic.js</title>
<path fill="none" stroke="#cfffac" d="M1567.08,-287.5C1567.08,-287.5 1454.92,-287.5 1454.92,-287.5 1450.83,-287.5 1446.75,-283.42 1446.75,-279.33 1446.75,-279.33 1446.75,-271.17 1446.75,-271.17 1446.75,-267.08 1450.83,-263 1454.92,-263 1454.92,-263 1567.08,-263 1567.08,-263 1571.17,-263 1575.25,-267.08 1575.25,-271.17 1575.25,-271.17 1575.25,-279.33 1575.25,-279.33 1575.25,-283.42 1571.17,-287.5 1567.08,-287.5"/>
<text text-anchor="middle" x="1511" y="-270.2" font-family="Arial" font-size="14.00" fill="#cfffac">src/js/uno/basic.js</text>
</g>
<!-- src/js/bot/best_card.bot.js&#45;&gt;src/js/uno/basic.js -->
<g id="edge8" class="edge">
<title>src/js/bot/best_card.bot.js&#45;&gt;src/js/uno/basic.js</title>
<path fill="none" stroke="#757575" d="M1101.76,-600.51C1170.95,-582.58 1289.48,-544.43 1371,-478.25 1434.35,-426.82 1480.56,-339.1 1499.93,-297.9"/>
<polygon fill="#757575" stroke="#757575" points="1503.04,-299.5 1504.04,-288.95 1496.68,-296.57 1503.04,-299.5"/>
</g>
<!-- src/js/utils/random.js -->
<g id="node11" class="node">
<title>src/js/utils/random.js</title>
<path fill="none" stroke="#cfffac" d="M1338.83,-701.5C1338.83,-701.5 1210.92,-701.5 1210.92,-701.5 1206.83,-701.5 1202.75,-697.42 1202.75,-693.33 1202.75,-693.33 1202.75,-685.17 1202.75,-685.17 1202.75,-681.08 1206.83,-677 1210.92,-677 1210.92,-677 1338.83,-677 1338.83,-677 1342.92,-677 1347,-681.08 1347,-685.17 1347,-685.17 1347,-693.33 1347,-693.33 1347,-697.42 1342.92,-701.5 1338.83,-701.5"/>
<text text-anchor="middle" x="1274.88" y="-684.2" font-family="Arial" font-size="14.00" fill="#cfffac">src/js/utils/random.js</text>
</g>
<!-- src/js/bot/best_card.bot.js&#45;&gt;src/js/utils/random.js -->
<g id="edge9" class="edge">
<title>src/js/bot/best_card.bot.js&#45;&gt;src/js/utils/random.js</title>
<path fill="none" stroke="#757575" d="M1083.93,-625.97C1122.71,-638.89 1182.89,-658.94 1225.09,-673"/>
<polygon fill="#757575" stroke="#757575" points="1223.92,-676.3 1234.51,-676.14 1226.13,-669.65 1223.92,-676.3"/>
</g>
<!-- src/js/bot/simple.bot.js&#45;&gt;src/js/helper.js -->
<g id="edge11" class="edge">
<title>src/js/bot/simple.bot.js&#45;&gt;src/js/helper.js</title>
<path fill="none" stroke="#757575" d="M1339.21,-469.99C1350.17,-473.47 1361.19,-477.82 1371,-483.25 1421.54,-511.22 1468.32,-561.28 1492.6,-589.8"/>
<polygon fill="#757575" stroke="#757575" points="1489.87,-592 1498.97,-597.42 1495.24,-587.51 1489.87,-592"/>
</g>
<!-- src/js/bot/simple.bot.js&#45;&gt;src/js/uno/basic.js -->
<g id="edge12" class="edge">
<title>src/js/bot/simple.bot.js&#45;&gt;src/js/uno/basic.js</title>
<path fill="none" stroke="#757575" d="M1298.48,-444.68C1318.21,-433.38 1347.3,-415.89 1371,-398.25 1415.36,-365.24 1462.71,-321.22 1489.1,-295.78"/>
<polygon fill="#757575" stroke="#757575" points="1491.39,-298.43 1496.13,-288.96 1486.52,-293.41 1491.39,-298.43"/>
</g>
<!-- src/js/bot/setup_bot.js -->
<g id="node12" class="node">
<title>src/js/bot/setup_bot.js</title>
<path fill="none" stroke="#c6c5fe" d="M887.96,-630.5C887.96,-630.5 748.79,-630.5 748.79,-630.5 744.71,-630.5 740.62,-626.42 740.62,-622.33 740.62,-622.33 740.62,-614.17 740.62,-614.17 740.62,-610.08 744.71,-606 748.79,-606 748.79,-606 887.96,-606 887.96,-606 892.04,-606 896.12,-610.08 896.12,-614.17 896.12,-614.17 896.12,-622.33 896.12,-622.33 896.12,-626.42 892.04,-630.5 887.96,-630.5"/>
<text text-anchor="middle" x="818.38" y="-613.2" font-family="Arial" font-size="14.00" fill="#c6c5fe">src/js/bot/setup_bot.js</text>
</g>
<!-- src/js/bot/setup_bot.js&#45;&gt;src/js/bot/best_card.bot.js -->
<g id="edge10" class="edge">
<title>src/js/bot/setup_bot.js&#45;&gt;src/js/bot/best_card.bot.js</title>
<path fill="none" stroke="#757575" d="M896.59,-616.53C911.69,-616.19 927.72,-615.84 943.45,-615.49"/>
<polygon fill="#757575" stroke="#757575" points="943.39,-618.99 953.31,-615.27 943.23,-611.99 943.39,-618.99"/>
</g>
<!-- src/js/choose_color.js -->
<g id="node13" class="node">
<title>src/js/choose_color.js</title>
<path fill="none" stroke="#c6c5fe" d="M1113.96,-308.5C1113.96,-308.5 975.54,-308.5 975.54,-308.5 971.46,-308.5 967.38,-304.42 967.38,-300.33 967.38,-300.33 967.38,-292.17 967.38,-292.17 967.38,-288.08 971.46,-284 975.54,-284 975.54,-284 1113.96,-284 1113.96,-284 1118.04,-284 1122.12,-288.08 1122.12,-292.17 1122.12,-292.17 1122.12,-300.33 1122.12,-300.33 1122.12,-304.42 1118.04,-308.5 1113.96,-308.5"/>
<text text-anchor="middle" x="1044.75" y="-291.2" font-family="Arial" font-size="14.00" fill="#c6c5fe">src/js/choose_color.js</text>
</g>
<!-- src/js/choose_color.js&#45;&gt;src/js/uno/basic.js -->
<g id="edge13" class="edge">
<title>src/js/choose_color.js&#45;&gt;src/js/uno/basic.js</title>
<path fill="none" stroke="#757575" d="M1122.41,-292.78C1208.96,-288.87 1348.87,-282.54 1434.81,-278.65"/>
<polygon fill="#757575" stroke="#757575" points="1434.96,-282.15 1444.79,-278.2 1434.64,-275.16 1434.96,-282.15"/>
</g>
<!-- src/js/connection/client.js -->
<g id="node14" class="node">
<title>src/js/connection/client.js</title>
<path fill="none" stroke="#cfffac" d="M1353.46,-1109.5C1353.46,-1109.5 1196.29,-1109.5 1196.29,-1109.5 1192.21,-1109.5 1188.12,-1105.42 1188.12,-1101.33 1188.12,-1101.33 1188.12,-1093.17 1188.12,-1093.17 1188.12,-1089.08 1192.21,-1085 1196.29,-1085 1196.29,-1085 1353.46,-1085 1353.46,-1085 1357.54,-1085 1361.62,-1089.08 1361.62,-1093.17 1361.62,-1093.17 1361.62,-1101.33 1361.62,-1101.33 1361.62,-1105.42 1357.54,-1109.5 1353.46,-1109.5"/>
<text text-anchor="middle" x="1274.88" y="-1092.2" font-family="Arial" font-size="14.00" fill="#cfffac">src/js/connection/client.js</text>
</g>
<!-- src/js/connection/common.js -->
<g id="node15" class="node">
<title>src/js/connection/common.js</title>
<path fill="none" stroke="#c6c5fe" d="M1134.58,-44.5C1134.58,-44.5 954.92,-44.5 954.92,-44.5 950.83,-44.5 946.75,-40.42 946.75,-36.33 946.75,-36.33 946.75,-28.17 946.75,-28.17 946.75,-24.08 950.83,-20 954.92,-20 954.92,-20 1134.58,-20 1134.58,-20 1138.67,-20 1142.75,-24.08 1142.75,-28.17 1142.75,-28.17 1142.75,-36.33 1142.75,-36.33 1142.75,-40.42 1138.67,-44.5 1134.58,-44.5"/>
<text text-anchor="middle" x="1044.75" y="-27.2" font-family="Arial" font-size="14.00" fill="#c6c5fe">src/js/connection/common.js</text>
</g>
<!-- src/js/utils/handlers.js -->
<g id="node16" class="node">
<title>src/js/utils/handlers.js</title>
<path fill="none" stroke="#cfffac" d="M1341.83,-24.5C1341.83,-24.5 1207.92,-24.5 1207.92,-24.5 1203.83,-24.5 1199.75,-20.42 1199.75,-16.33 1199.75,-16.33 1199.75,-8.17 1199.75,-8.17 1199.75,-4.08 1203.83,0 1207.92,0 1207.92,0 1341.83,0 1341.83,0 1345.92,0 1350,-4.08 1350,-8.17 1350,-8.17 1350,-16.33 1350,-16.33 1350,-20.42 1345.92,-24.5 1341.83,-24.5"/>
<text text-anchor="middle" x="1274.88" y="-7.2" font-family="Arial" font-size="14.00" fill="#cfffac">src/js/utils/handlers.js</text>
</g>
<!-- src/js/connection/common.js&#45;&gt;src/js/utils/handlers.js -->
<g id="edge14" class="edge">
<title>src/js/connection/common.js&#45;&gt;src/js/utils/handlers.js</title>
<path fill="none" stroke="#757575" d="M1143.16,-23.71C1158.21,-22.39 1173.66,-21.04 1188.43,-19.74"/>
<polygon fill="#757575" stroke="#757575" points="1188.4,-23.26 1198.06,-18.9 1187.79,-16.28 1188.4,-23.26"/>
</g>
<!-- src/js/connection/server.js -->
<g id="node17" class="node">
<title>src/js/connection/server.js</title>
<path fill="none" stroke="#cfffac" d="M1356.83,-819.5C1356.83,-819.5 1192.92,-819.5 1192.92,-819.5 1188.83,-819.5 1184.75,-815.42 1184.75,-811.33 1184.75,-811.33 1184.75,-803.17 1184.75,-803.17 1184.75,-799.08 1188.83,-795 1192.92,-795 1192.92,-795 1356.83,-795 1356.83,-795 1360.92,-795 1365,-799.08 1365,-803.17 1365,-803.17 1365,-811.33 1365,-811.33 1365,-815.42 1360.92,-819.5 1356.83,-819.5"/>
<text text-anchor="middle" x="1274.88" y="-802.2" font-family="Arial" font-size="14.00" fill="#cfffac">src/js/connection/server.js</text>
</g>
<!-- src/js/connection/socket.js -->
<g id="node18" class="node">
<title>src/js/connection/socket.js</title>
<path fill="none" stroke="#c6c5fe" d="M901.46,-24.5C901.46,-24.5 735.29,-24.5 735.29,-24.5 731.21,-24.5 727.12,-20.42 727.12,-16.33 727.12,-16.33 727.12,-8.17 727.12,-8.17 727.12,-4.08 731.21,0 735.29,0 735.29,0 901.46,0 901.46,0 905.54,0 909.62,-4.08 909.62,-8.17 909.62,-8.17 909.62,-16.33 909.62,-16.33 909.62,-20.42 905.54,-24.5 901.46,-24.5"/>
<text text-anchor="middle" x="818.38" y="-7.2" font-family="Arial" font-size="14.00" fill="#c6c5fe">src/js/connection/socket.js</text>
</g>
<!-- src/js/connection/socket.js&#45;&gt;src/js/connection/common.js -->
<g id="edge15" class="edge">
<title>src/js/connection/socket.js&#45;&gt;src/js/connection/common.js</title>
<path fill="none" stroke="#757575" d="M909.99,-20.33C918.27,-21.07 926.71,-21.82 935.12,-22.57"/>
<polygon fill="#757575" stroke="#757575" points="934.78,-26.05 945.06,-23.45 935.41,-19.08 934.78,-26.05"/>
</g>
<!-- src/js/connection/socket.js&#45;&gt;src/js/utils/handlers.js -->
<g id="edge16" class="edge">
<title>src/js/connection/socket.js&#45;&gt;src/js/utils/handlers.js</title>
<path fill="none" stroke="#757575" d="M909.83,-11.45C922.24,-11.37 934.81,-11.3 946.75,-11.25 1033.86,-10.91 1055.64,-10.92 1142.75,-11.25 1157.35,-11.31 1172.87,-11.4 1187.93,-11.5"/>
<polygon fill="#757575" stroke="#757575" points="1187.79,-15 1197.82,-11.57 1187.84,-8 1187.79,-15"/>
</g>
<!-- src/js/deck.js -->
<g id="node19" class="node">
<title>src/js/deck.js</title>
<path fill="none" stroke="#c6c5fe" d="M1315.96,-67.5C1315.96,-67.5 1233.79,-67.5 1233.79,-67.5 1229.71,-67.5 1225.62,-63.42 1225.62,-59.33 1225.62,-59.33 1225.62,-51.17 1225.62,-51.17 1225.62,-47.08 1229.71,-43 1233.79,-43 1233.79,-43 1315.96,-43 1315.96,-43 1320.04,-43 1324.12,-47.08 1324.12,-51.17 1324.12,-51.17 1324.12,-59.33 1324.12,-59.33 1324.12,-63.42 1320.04,-67.5 1315.96,-67.5"/>
<text text-anchor="middle" x="1274.88" y="-50.2" font-family="Arial" font-size="14.00" fill="#c6c5fe">src/js/deck.js</text>
</g>
<!-- src/js/shuffle.js -->
<g id="node20" class="node">
<title>src/js/shuffle.js</title>
<path fill="none" stroke="#cfffac" d="M1558.08,-67.5C1558.08,-67.5 1463.92,-67.5 1463.92,-67.5 1459.83,-67.5 1455.75,-63.42 1455.75,-59.33 1455.75,-59.33 1455.75,-51.17 1455.75,-51.17 1455.75,-47.08 1459.83,-43 1463.92,-43 1463.92,-43 1558.08,-43 1558.08,-43 1562.17,-43 1566.25,-47.08 1566.25,-51.17 1566.25,-51.17 1566.25,-59.33 1566.25,-59.33 1566.25,-63.42 1562.17,-67.5 1558.08,-67.5"/>
<text text-anchor="middle" x="1511" y="-50.2" font-family="Arial" font-size="14.00" fill="#cfffac">src/js/shuffle.js</text>
</g>
<!-- src/js/deck.js&#45;&gt;src/js/shuffle.js -->
<g id="edge17" class="edge">
<title>src/js/deck.js&#45;&gt;src/js/shuffle.js</title>
<path fill="none" stroke="#757575" d="M1324.39,-55.25C1358.98,-55.25 1405.91,-55.25 1443.92,-55.25"/>
<polygon fill="#757575" stroke="#757575" points="1443.89,-58.75 1453.89,-55.25 1443.89,-51.75 1443.89,-58.75"/>
</g>
<!-- src/js/game.js&#45;&gt;src/js/helper.js -->
<g id="edge19" class="edge">
<title>src/js/game.js&#45;&gt;src/js/helper.js</title>
<path fill="none" stroke="#757575" d="M664.73,-608.02C673.55,-605.02 682.34,-601.17 690,-596.25 710.68,-582.96 703.66,-564.52 726,-554.25 853.56,-495.58 1282.59,-568.05 1446.03,-598.75"/>
<polygon fill="#757575" stroke="#757575" points="1444.91,-602.1 1455.38,-600.52 1446.21,-595.22 1444.91,-602.1"/>
</g>
<!-- src/js/game.js&#45;&gt;src/js/bot/setup_bot.js -->
<g id="edge18" class="edge">
<title>src/js/game.js&#45;&gt;src/js/bot/setup_bot.js</title>
<path fill="none" stroke="#757575" d="M664.78,-618.25C684.25,-618.25 707.05,-618.25 728.99,-618.25"/>
<polygon fill="#757575" stroke="#757575" points="728.85,-621.75 738.85,-618.25 728.85,-614.75 728.85,-621.75"/>
</g>
<!-- src/js/names.js -->
<g id="node22" class="node">
<title>src/js/names.js</title>
<path fill="none" stroke="#cfffac" d="M1321.96,-1152.5C1321.96,-1152.5 1227.79,-1152.5 1227.79,-1152.5 1223.71,-1152.5 1219.62,-1148.42 1219.62,-1144.33 1219.62,-1144.33 1219.62,-1136.17 1219.62,-1136.17 1219.62,-1132.08 1223.71,-1128 1227.79,-1128 1227.79,-1128 1321.96,-1128 1321.96,-1128 1326.04,-1128 1330.12,-1132.08 1330.12,-1136.17 1330.12,-1136.17 1330.12,-1144.33 1330.12,-1144.33 1330.12,-1148.42 1326.04,-1152.5 1321.96,-1152.5"/>
<text text-anchor="middle" x="1274.88" y="-1135.2" font-family="Arial" font-size="14.00" fill="#cfffac">src/js/names.js</text>
</g>
<!-- src/js/game.js&#45;&gt;src/js/names.js -->
<g id="edge20" class="edge">
<title>src/js/game.js&#45;&gt;src/js/names.js</title>
<path fill="none" stroke="#757575" d="M632.12,-630.8C648.17,-642.09 671.66,-659.58 690,-677.25 818.33,-800.9 810.24,-870.69 946.75,-985.25 1037.79,-1061.66 1068.11,-1074.84 1178.75,-1118.25 1188.14,-1121.93 1198.3,-1125.09 1208.36,-1127.77"/>
<polygon fill="#757575" stroke="#757575" points="1207.19,-1131.09 1217.74,-1130.13 1208.9,-1124.3 1207.19,-1131.09"/>
</g>
<!-- src/js/places.js -->
<g id="node23" class="node">
<title>src/js/places.js</title>
<path fill="none" stroke="#cfffac" d="M865.08,-587.5C865.08,-587.5 771.67,-587.5 771.67,-587.5 767.58,-587.5 763.5,-583.42 763.5,-579.33 763.5,-579.33 763.5,-571.17 763.5,-571.17 763.5,-567.08 767.58,-563 771.67,-563 771.67,-563 865.08,-563 865.08,-563 869.17,-563 873.25,-567.08 873.25,-571.17 873.25,-571.17 873.25,-579.33 873.25,-579.33 873.25,-583.42 869.17,-587.5 865.08,-587.5"/>
<text text-anchor="middle" x="818.38" y="-570.2" font-family="Arial" font-size="14.00" fill="#cfffac">src/js/places.js</text>
</g>
<!-- src/js/game.js&#45;&gt;src/js/places.js -->
<g id="edge21" class="edge">
<title>src/js/game.js&#45;&gt;src/js/places.js</title>
<path fill="none" stroke="#757575" d="M664.78,-607.45C691.31,-601.85 724.02,-594.95 752.33,-588.98"/>
<polygon fill="#757575" stroke="#757575" points="752.81,-592.45 761.87,-586.96 751.36,-585.6 752.81,-592.45"/>
</g>
<!-- src/js/uno&#45;game.js -->
<g id="node24" class="node">
<title>src/js/uno&#45;game.js</title>
<path fill="none" stroke="#c6c5fe" d="M875.96,-391.5C875.96,-391.5 760.79,-391.5 760.79,-391.5 756.71,-391.5 752.62,-387.42 752.62,-383.33 752.62,-383.33 752.62,-375.17 752.62,-375.17 752.62,-371.08 756.71,-367 760.79,-367 760.79,-367 875.96,-367 875.96,-367 880.04,-367 884.12,-371.08 884.12,-375.17 884.12,-375.17 884.12,-383.33 884.12,-383.33 884.12,-387.42 880.04,-391.5 875.96,-391.5"/>
<text text-anchor="middle" x="818.38" y="-374.2" font-family="Arial" font-size="14.00" fill="#c6c5fe">src/js/uno&#45;game.js</text>
</g>
<!-- src/js/game.js&#45;&gt;src/js/uno&#45;game.js -->
<g id="edge22" class="edge">
<title>src/js/game.js&#45;&gt;src/js/uno&#45;game.js</title>
<path fill="none" stroke="#757575" d="M664.71,-610.02C673.83,-606.83 682.73,-602.4 690,-596.25 718.24,-572.38 707.96,-553.53 726,-521.25 750.48,-477.46 783.06,-428.76 801.98,-401.28"/>
<polygon fill="#757575" stroke="#757575" points="804.84,-403.3 807.65,-393.09 799.08,-399.32 804.84,-403.3"/>
</g>
<!-- src/js/uno/default&#45;engine.js -->
<g id="node25" class="node">
<title>src/js/uno/default&#45;engine.js</title>
<path fill="none" stroke="#c6c5fe" d="M902.58,-288.5C902.58,-288.5 734.17,-288.5 734.17,-288.5 730.08,-288.5 726,-284.42 726,-280.33 726,-280.33 726,-272.17 726,-272.17 726,-268.08 730.08,-264 734.17,-264 734.17,-264 902.58,-264 902.58,-264 906.67,-264 910.75,-268.08 910.75,-272.17 910.75,-272.17 910.75,-280.33 910.75,-280.33 910.75,-284.42 906.67,-288.5 902.58,-288.5"/>
<text text-anchor="middle" x="818.38" y="-271.2" font-family="Arial" font-size="14.00" fill="#c6c5fe">src/js/uno/default&#45;engine.js</text>
</g>
<!-- src/js/game.js&#45;&gt;src/js/uno/default&#45;engine.js -->
<g id="edge23" class="edge">
<title>src/js/game.js&#45;&gt;src/js/uno/default&#45;engine.js</title>
<path fill="none" stroke="#757575" d="M664.73,-612.2C674.29,-608.86 683.36,-603.82 690,-596.25 760.56,-515.84 675.2,-452.4 726,-358.25 740.24,-331.85 766.43,-309.7 787.14,-295.1"/>
<polygon fill="#757575" stroke="#757575" points="788.93,-298.11 795.24,-289.6 785,-292.32 788.93,-298.11"/>
</g>
<!-- src/js/uno&#45;game.js&#45;&gt;src/js/helper.js -->
<g id="edge53" class="edge">
<title>src/js/uno&#45;game.js&#45;&gt;src/js/helper.js</title>
<path fill="none" stroke="#757575" d="M884.36,-385.88C1029.95,-400.76 1369.67,-435.52 1371,-436.25 1435.11,-471.38 1480.14,-549.58 1499.45,-588.44"/>
<polygon fill="#757575" stroke="#757575" points="1496.26,-589.87 1503.76,-597.35 1502.56,-586.82 1496.26,-589.87"/>
</g>
<!-- src/js/uno&#45;game.js&#45;&gt;src/js/choose_color.js -->
<g id="edge52" class="edge">
<title>src/js/uno&#45;game.js&#45;&gt;src/js/choose_color.js</title>
<path fill="none" stroke="#757575" d="M841.73,-366.65C866.67,-353.04 908.54,-331.54 946.75,-318.25 953.39,-315.94 960.36,-313.81 967.4,-311.86"/>
<polygon fill="#757575" stroke="#757575" points="968.24,-315.26 977.02,-309.33 966.46,-308.49 968.24,-315.26"/>
</g>
<!-- src/js/layout.js -->
<g id="node26" class="node">
<title>src/js/layout.js</title>
<path fill="none" stroke="#c6c5fe" d="M1318.96,-389.5C1318.96,-389.5 1230.79,-389.5 1230.79,-389.5 1226.71,-389.5 1222.62,-385.42 1222.62,-381.33 1222.62,-381.33 1222.62,-373.17 1222.62,-373.17 1222.62,-369.08 1226.71,-365 1230.79,-365 1230.79,-365 1318.96,-365 1318.96,-365 1323.04,-365 1327.12,-369.08 1327.12,-373.17 1327.12,-373.17 1327.12,-381.33 1327.12,-381.33 1327.12,-385.42 1323.04,-389.5 1318.96,-389.5"/>
<text text-anchor="middle" x="1274.88" y="-372.2" font-family="Arial" font-size="14.00" fill="#c6c5fe">src/js/layout.js</text>
</g>
<!-- src/js/uno&#45;game.js&#45;&gt;src/js/layout.js -->
<g id="edge54" class="edge">
<title>src/js/uno&#45;game.js&#45;&gt;src/js/layout.js</title>
<path fill="none" stroke="#757575" d="M884.49,-378.96C971.56,-378.58 1124.86,-377.91 1210.85,-377.53"/>
<polygon fill="#757575" stroke="#757575" points="1210.77,-381.03 1220.75,-377.48 1210.74,-374.03 1210.77,-381.03"/>
</g>
<!-- src/js/uno.js -->
<g id="node36" class="node">
<title>src/js/uno.js</title>
<path fill="none" stroke="#c6c5fe" d="M1082.08,-147.5C1082.08,-147.5 1007.42,-147.5 1007.42,-147.5 1003.33,-147.5 999.25,-143.42 999.25,-139.33 999.25,-139.33 999.25,-131.17 999.25,-131.17 999.25,-127.08 1003.33,-123 1007.42,-123 1007.42,-123 1082.08,-123 1082.08,-123 1086.17,-123 1090.25,-127.08 1090.25,-131.17 1090.25,-131.17 1090.25,-139.33 1090.25,-139.33 1090.25,-143.42 1086.17,-147.5 1082.08,-147.5"/>
<text text-anchor="middle" x="1044.75" y="-130.2" font-family="Arial" font-size="14.00" fill="#c6c5fe">src/js/uno.js</text>
</g>
<!-- src/js/uno&#45;game.js&#45;&gt;src/js/uno.js -->
<g id="edge55" class="edge">
<title>src/js/uno&#45;game.js&#45;&gt;src/js/uno.js</title>
<path fill="none" stroke="#757575" d="M839.27,-366.67C860.21,-352.38 892.61,-327.13 910.75,-297.25 944.09,-242.33 900.67,-202.02 946.75,-157.25 957.7,-146.61 972.67,-140.69 987.56,-137.51"/>
<polygon fill="#757575" stroke="#757575" points="988.12,-140.96 997.38,-135.83 986.94,-134.06 988.12,-140.96"/>
</g>
<!-- src/js/uno/default&#45;engine.js&#45;&gt;src/js/uno/basic.js -->
<g id="edge60" class="edge">
<title>src/js/uno/default&#45;engine.js&#45;&gt;src/js/uno/basic.js</title>
<path fill="none" stroke="#757575" d="M911.21,-275.44C923.17,-275.36 935.25,-275.3 946.75,-275.25 1121.77,-274.56 1327.37,-274.84 1435.25,-275.06"/>
<polygon fill="#757575" stroke="#757575" points="1435.13,-278.56 1445.13,-275.08 1435.14,-271.56 1435.13,-278.56"/>
</g>
<!-- src/js/layout.js&#45;&gt;src/js/helper.js -->
<g id="edge24" class="edge">
<title>src/js/layout.js&#45;&gt;src/js/helper.js</title>
<path fill="none" stroke="#757575" d="M1327.24,-384.26C1342.34,-388.1 1358.22,-394.04 1371,-403.25 1438.79,-452.08 1483.19,-544.97 1501.07,-588.13"/>
<polygon fill="#757575" stroke="#757575" points="1497.77,-589.31 1504.75,-597.28 1504.26,-586.69 1497.77,-589.31"/>
</g>
<!-- src/js/layout.js&#45;&gt;src/js/uno/basic.js -->
<g id="edge25" class="edge">
<title>src/js/layout.js&#45;&gt;src/js/uno/basic.js</title>
<path fill="none" stroke="#757575" d="M1327.57,-368.2C1341.89,-364.92 1357.28,-360.65 1371,-355.25 1412.08,-339.09 1455.58,-312.27 1482.76,-294.18"/>
<polygon fill="#757575" stroke="#757575" points="1484.41,-297.29 1490.74,-288.8 1480.49,-291.49 1484.41,-297.29"/>
</g>
<!-- src/js/lib/qrcode.js -->
<g id="node27" class="node">
<title>src/js/lib/qrcode.js</title>
<path fill="none" stroke="#cfffac" d="M1332.08,-862.5C1332.08,-862.5 1217.67,-862.5 1217.67,-862.5 1213.58,-862.5 1209.5,-858.42 1209.5,-854.33 1209.5,-854.33 1209.5,-846.17 1209.5,-846.17 1209.5,-842.08 1213.58,-838 1217.67,-838 1217.67,-838 1332.08,-838 1332.08,-838 1336.17,-838 1340.25,-842.08 1340.25,-846.17 1340.25,-846.17 1340.25,-854.33 1340.25,-854.33 1340.25,-858.42 1336.17,-862.5 1332.08,-862.5"/>
<text text-anchor="middle" x="1274.88" y="-845.2" font-family="Arial" font-size="14.00" fill="#cfffac">src/js/lib/qrcode.js</text>
</g>
<!-- src/js/mode/ai.js&#45;&gt;src/js/helper.js -->
<g id="edge26" class="edge">
<title>src/js/mode/ai.js&#45;&gt;src/js/helper.js</title>
<path fill="none" stroke="#757575" d="M1104.47,-767.44C1194.81,-749.17 1358.8,-715.61 1371,-710.25 1416.62,-690.21 1462.28,-653.78 1488.25,-631.14"/>
<polygon fill="#757575" stroke="#757575" points="1490.29,-634.01 1495.45,-624.76 1485.64,-628.77 1490.29,-634.01"/>
</g>
<!-- src/js/mode/ai.js&#45;&gt;src/js/utils/random.js -->
<g id="edge28" class="edge">
<title>src/js/mode/ai.js&#45;&gt;src/js/utils/random.js</title>
<path fill="none" stroke="#757575" d="M1104.49,-772.22C1117.7,-768.96 1131.22,-764.2 1142.75,-757.25 1163.8,-744.55 1157.98,-728.4 1178.75,-715.25 1184.31,-711.73 1190.34,-708.68 1196.59,-706.04"/>
<polygon fill="#757575" stroke="#757575" points="1197.73,-709.35 1205.82,-702.51 1195.23,-702.81 1197.73,-709.35"/>
</g>
<!-- src/js/utils/async&#45;queue.js -->
<g id="node29" class="node">
<title>src/js/utils/async&#45;queue.js</title>
<path fill="none" stroke="#cfffac" d="M1355.33,-948.5C1355.33,-948.5 1194.42,-948.5 1194.42,-948.5 1190.33,-948.5 1186.25,-944.42 1186.25,-940.33 1186.25,-940.33 1186.25,-932.17 1186.25,-932.17 1186.25,-928.08 1190.33,-924 1194.42,-924 1194.42,-924 1355.33,-924 1355.33,-924 1359.42,-924 1363.5,-928.08 1363.5,-932.17 1363.5,-932.17 1363.5,-940.33 1363.5,-940.33 1363.5,-944.42 1359.42,-948.5 1355.33,-948.5"/>
<text text-anchor="middle" x="1274.88" y="-931.2" font-family="Arial" font-size="14.00" fill="#cfffac">src/js/utils/async&#45;queue.js</text>
</g>
<!-- src/js/mode/ai.js&#45;&gt;src/js/utils/async&#45;queue.js -->
<g id="edge27" class="edge">
<title>src/js/mode/ai.js&#45;&gt;src/js/utils/async&#45;queue.js</title>
<path fill="none" stroke="#757575" d="M1070.54,-791.93C1091.76,-803.74 1122.08,-823 1142.75,-846.25 1165.47,-871.81 1151.64,-893.4 1178.75,-914.25 1180.72,-915.76 1182.77,-917.17 1184.89,-918.49"/>
<polygon fill="#757575" stroke="#757575" points="1182.78,-921.33 1193.25,-922.96 1186.08,-915.16 1182.78,-921.33"/>
</g>
<!-- src/js/mode/hotseat.js&#45;&gt;src/js/utils/random.js -->
<g id="edge29" class="edge">
<title>src/js/mode/hotseat.js&#45;&gt;src/js/utils/random.js</title>
<path fill="none" stroke="#757575" d="M690.33,-697.2C815.35,-695.5 1061.99,-692.14 1190.93,-690.38"/>
<polygon fill="#757575" stroke="#757575" points="1190.81,-693.88 1200.76,-690.25 1190.71,-686.88 1190.81,-693.88"/>
</g>
<!-- src/js/mode/net.js&#45;&gt;src/js/actions_uno_client.js -->
<g id="edge30" class="edge">
<title>src/js/mode/net.js&#45;&gt;src/js/actions_uno_client.js</title>
<path fill="none" stroke="#757575" d="M1109.12,-975.83C1120.77,-979.44 1132.49,-984.14 1142.75,-990.25 1162.74,-1002.15 1158.79,-1016.3 1178.75,-1028.25 1184.77,-1031.86 1191.31,-1034.98 1198.04,-1037.67"/>
<polygon fill="#757575" stroke="#757575" points="1196.71,-1040.91 1207.3,-1041.05 1199.11,-1034.34 1196.71,-1040.91"/>
</g>
<!-- src/js/mode/net.js&#45;&gt;src/js/actions_uno_server.js -->
<g id="edge31" class="edge">
<title>src/js/mode/net.js&#45;&gt;src/js/actions_uno_server.js</title>
<path fill="none" stroke="#757575" d="M1076.82,-951.54C1103.53,-940.92 1143.26,-925.84 1178.75,-915.25 1186.45,-912.95 1194.57,-910.75 1202.68,-908.68"/>
<polygon fill="#757575" stroke="#757575" points="1203.36,-912.12 1212.23,-906.32 1201.68,-905.33 1203.36,-912.12"/>
</g>
<!-- src/js/mode/net.js&#45;&gt;src/js/helper.js -->
<g id="edge33" class="edge">
<title>src/js/mode/net.js&#45;&gt;src/js/helper.js</title>
<path fill="none" stroke="#757575" d="M1101.31,-976.98C1182.58,-994.24 1328.8,-1019.72 1371,-990.25 1432.5,-947.3 1488.35,-711.14 1504.99,-634.95"/>
<polygon fill="#757575" stroke="#757575" points="1508.39,-635.77 1507.08,-625.26 1501.55,-634.29 1508.39,-635.77"/>
</g>
<!-- src/js/mode/net.js&#45;&gt;src/js/utils/random.js -->
<g id="edge36" class="edge">
<title>src/js/mode/net.js&#45;&gt;src/js/utils/random.js</title>
<path fill="none" stroke="#757575" d="M1068.43,-951.69C1090.3,-938.51 1122.91,-915.88 1142.75,-888.25 1170.79,-849.2 1153.32,-827.05 1178.75,-786.25 1197.77,-755.74 1227.87,-727.17 1249.11,-709.05"/>
<polygon fill="#757575" stroke="#757575" points="1251.29,-711.78 1256.73,-702.69 1246.81,-706.41 1251.29,-711.78"/>
</g>
<!-- src/js/mode/net.js&#45;&gt;src/js/connection/client.js -->
<g id="edge32" class="edge">
<title>src/js/mode/net.js&#45;&gt;src/js/connection/client.js</title>
<path fill="none" stroke="#757575" d="M1109.12,-972.39C1121.3,-976.27 1133.21,-981.95 1142.75,-990.25 1173.7,-1017.18 1147.34,-1048.86 1178.75,-1075.25 1180.27,-1076.52 1181.84,-1077.73 1183.47,-1078.87"/>
<polygon fill="#757575" stroke="#757575" points="1181.6,-1081.83 1191.99,-1083.9 1185.17,-1075.8 1181.6,-1081.83"/>
</g>
<!-- src/js/mode/net.js&#45;&gt;src/js/names.js -->
<g id="edge34" class="edge">
<title>src/js/mode/net.js&#45;&gt;src/js/names.js</title>
<path fill="none" stroke="#757575" d="M1108.95,-971.16C1121.43,-975.1 1133.51,-981.12 1142.75,-990.25 1184.79,-1031.78 1135.99,-1077.45 1178.75,-1118.25 1186.94,-1126.06 1197.32,-1131.29 1208.2,-1134.76"/>
<polygon fill="#757575" stroke="#757575" points="1207.16,-1138.11 1217.72,-1137.29 1208.95,-1131.34 1207.16,-1138.11"/>
</g>
<!-- src/js/mode/net.js&#45;&gt;src/js/utils/async&#45;queue.js -->
<g id="edge35" class="edge">
<title>src/js/mode/net.js&#45;&gt;src/js/utils/async&#45;queue.js</title>
<path fill="none" stroke="#757575" d="M1108.99,-956.49C1129.41,-953.98 1152.56,-951.14 1174.92,-948.4"/>
<polygon fill="#757575" stroke="#757575" points="1175.16,-951.89 1184.66,-947.2 1174.31,-944.94 1175.16,-951.89"/>
</g>
<!-- src/js/mode/server.js&#45;&gt;src/js/actions_uno_client.js -->
<g id="edge37" class="edge">
<title>src/js/mode/server.js&#45;&gt;src/js/actions_uno_client.js</title>
<path fill="none" stroke="#757575" d="M1062.38,-879.97C1081.82,-894.91 1114.88,-920.55 1142.75,-943.25 1181.23,-974.59 1225.08,-1012.08 1251.06,-1034.49"/>
<polygon fill="#757575" stroke="#757575" points="1248.47,-1036.87 1258.33,-1040.76 1253.05,-1031.58 1248.47,-1036.87"/>
</g>
<!-- src/js/mode/server.js&#45;&gt;src/js/actions_uno_server.js -->
<g id="edge38" class="edge">
<title>src/js/mode/server.js&#45;&gt;src/js/actions_uno_server.js</title>
<path fill="none" stroke="#757575" d="M1119.19,-875.62C1134.53,-877.37 1151,-879.25 1167.27,-881.1"/>
<polygon fill="#757575" stroke="#757575" points="1166.65,-884.55 1176.99,-882.21 1167.45,-877.6 1166.65,-884.55"/>
</g>
<!-- src/js/mode/server.js&#45;&gt;src/js/helper.js -->
<g id="edge40" class="edge">
<title>src/js/mode/server.js&#45;&gt;src/js/helper.js</title>
<path fill="none" stroke="#757575" d="M1062.42,-854.56C1086.7,-836.68 1133.83,-804.25 1178.75,-786.25 1259.94,-753.72 1293.8,-785.35 1371,-744.25 1423.67,-716.21 1470.53,-662.53 1494.03,-632.65"/>
<polygon fill="#757575" stroke="#757575" points="1496.56,-635.11 1499.89,-625.05 1491.01,-630.83 1496.56,-635.11"/>
</g>
<!-- src/js/mode/server.js&#45;&gt;src/js/connection/server.js -->
<g id="edge39" class="edge">
<title>src/js/mode/server.js&#45;&gt;src/js/connection/server.js</title>
<path fill="none" stroke="#757575" d="M1088.13,-854.55C1114.18,-846.88 1148.29,-837.12 1178.75,-829.25 1187.44,-827 1196.61,-824.75 1205.68,-822.58"/>
<polygon fill="#757575" stroke="#757575" points="1206.27,-826.04 1215.19,-820.33 1204.66,-819.22 1206.27,-826.04"/>
</g>
<!-- src/js/mode/server.js&#45;&gt;src/js/lib/qrcode.js -->
<g id="edge41" class="edge">
<title>src/js/mode/server.js&#45;&gt;src/js/lib/qrcode.js</title>
<path fill="none" stroke="#757575" d="M1119.19,-861.78C1144.26,-859.91 1172.35,-857.82 1197.64,-855.93"/>
<polygon fill="#757575" stroke="#757575" points="1197.82,-859.43 1207.53,-855.19 1197.3,-852.45 1197.82,-859.43"/>
</g>
<!-- src/js/mode/server.js&#45;&gt;src/js/utils/async&#45;queue.js -->
<g id="edge42" class="edge">
<title>src/js/mode/server.js&#45;&gt;src/js/utils/async&#45;queue.js</title>
<path fill="none" stroke="#757575" d="M1078.48,-879.98C1105.2,-890.08 1144.07,-904.15 1178.75,-914.25 1186.58,-916.53 1194.83,-918.73 1203.06,-920.8"/>
<polygon fill="#757575" stroke="#757575" points="1202.22,-924.2 1212.77,-923.18 1203.89,-917.4 1202.22,-924.2"/>
</g>
<!-- src/js/player.js -->
<g id="node34" class="node">
<title>src/js/player.js</title>
<path fill="none" stroke="#c6c5fe" d="M1319.71,-190.5C1319.71,-190.5 1230.04,-190.5 1230.04,-190.5 1225.96,-190.5 1221.88,-186.42 1221.88,-182.33 1221.88,-182.33 1221.88,-174.17 1221.88,-174.17 1221.88,-170.08 1225.96,-166 1230.04,-166 1230.04,-166 1319.71,-166 1319.71,-166 1323.79,-166 1327.88,-170.08 1327.88,-174.17 1327.88,-174.17 1327.88,-182.33 1327.88,-182.33 1327.88,-186.42 1323.79,-190.5 1319.71,-190.5"/>
<text text-anchor="middle" x="1274.88" y="-173.2" font-family="Arial" font-size="14.00" fill="#c6c5fe">src/js/player.js</text>
</g>
<!-- src/js/player.js&#45;&gt;src/js/uno/basic.js -->
<g id="edge43" class="edge">
<title>src/js/player.js&#45;&gt;src/js/uno/basic.js</title>
<path fill="none" stroke="#757575" d="M1328.34,-190.52C1342.38,-194.36 1357.43,-198.99 1371,-204.25 1409.31,-219.09 1451.01,-241.26 1478.63,-256.87"/>
<polygon fill="#757575" stroke="#757575" points="1476.76,-259.83 1487.18,-261.75 1480.23,-253.75 1476.76,-259.83"/>
</g>
<!-- src/js/uno.js&#45;&gt;src/js/uno/basic.js -->
<g id="edge58" class="edge">
<title>src/js/uno.js&#45;&gt;src/js/uno/basic.js</title>
<path fill="none" stroke="#757575" d="M1090.58,-129.71C1155.18,-123.58 1277,-119.08 1371,-157.25 1422.65,-178.22 1469.01,-226.17 1492.92,-254.07"/>
<polygon fill="#757575" stroke="#757575" points="1490.07,-256.11 1499.17,-261.53 1495.43,-251.62 1490.07,-256.11"/>
</g>
<!-- src/js/uno.js&#45;&gt;src/js/utils/handlers.js -->
<g id="edge59" class="edge">
<title>src/js/uno.js&#45;&gt;src/js/utils/handlers.js</title>
<path fill="none" stroke="#757575" d="M1058.47,-122.55C1080.8,-101.01 1129.4,-57.39 1178.75,-34.25 1183.23,-32.15 1187.93,-30.24 1192.73,-28.51"/>
<polygon fill="#757575" stroke="#757575" points="1193.54,-31.93 1201.94,-25.47 1191.35,-25.28 1193.54,-31.93"/>
</g>
<!-- src/js/uno.js&#45;&gt;src/js/deck.js -->
<g id="edge56" class="edge">
<title>src/js/uno.js&#45;&gt;src/js/deck.js</title>
<path fill="none" stroke="#757575" d="M1081.9,-122.57C1121.08,-108.83 1183.75,-86.86 1226.76,-71.77"/>
<polygon fill="#757575" stroke="#757575" points="1227.81,-75.11 1236.09,-68.5 1225.5,-68.51 1227.81,-75.11"/>
</g>
<!-- src/js/uno.js&#45;&gt;src/js/player.js -->
<g id="edge57" class="edge">
<title>src/js/uno.js&#45;&gt;src/js/player.js</title>
<path fill="none" stroke="#757575" d="M1090.55,-143.69C1124.8,-150.15 1172.45,-159.13 1210.59,-166.32"/>
<polygon fill="#757575" stroke="#757575" points="1209.63,-169.7 1220.1,-168.11 1210.92,-162.82 1209.63,-169.7"/>
</g>
<!-- src/js/utils/ellipse.js -->
<g id="node37" class="node">
<title>src/js/utils/ellipse.js</title>
<path fill="none" stroke="#cfffac" d="M163.46,-924.5C163.46,-924.5 42.29,-924.5 42.29,-924.5 38.21,-924.5 34.12,-920.42 34.12,-916.33 34.12,-916.33 34.12,-908.17 34.12,-908.17 34.12,-904.08 38.21,-900 42.29,-900 42.29,-900 163.46,-900 163.46,-900 167.54,-900 171.62,-904.08 171.62,-908.17 171.62,-908.17 171.62,-916.33 171.62,-916.33 171.62,-920.42 167.54,-924.5 163.46,-924.5"/>
<text text-anchor="middle" x="102.88" y="-907.2" font-family="Arial" font-size="14.00" fill="#cfffac">src/js/utils/ellipse.js</text>
</g>
<!-- src/js/utils/enum.js -->
<g id="node38" class="node">
<title>src/js/utils/enum.js</title>
<path fill="none" stroke="#cfffac" d="M160.46,-967.5C160.46,-967.5 45.29,-967.5 45.29,-967.5 41.21,-967.5 37.12,-963.42 37.12,-959.33 37.12,-959.33 37.12,-951.17 37.12,-951.17 37.12,-947.08 41.21,-943 45.29,-943 45.29,-943 160.46,-943 160.46,-943 164.54,-943 168.62,-947.08 168.62,-951.17 168.62,-951.17 168.62,-959.33 168.62,-959.33 168.62,-963.42 164.54,-967.5 160.46,-967.5"/>
<text text-anchor="middle" x="102.88" y="-950.2" font-family="Arial" font-size="14.00" fill="#cfffac">src/js/utils/enum.js</text>
</g>
<!-- src/js/utils/queue.js -->
<g id="node39" class="node">
<title>src/js/utils/queue.js</title>
<path fill="none" stroke="#cfffac" d="M162.71,-1010.5C162.71,-1010.5 43.04,-1010.5 43.04,-1010.5 38.96,-1010.5 34.88,-1006.42 34.88,-1002.33 34.88,-1002.33 34.88,-994.17 34.88,-994.17 34.88,-990.08 38.96,-986 43.04,-986 43.04,-986 162.71,-986 162.71,-986 166.79,-986 170.88,-990.08 170.88,-994.17 170.88,-994.17 170.88,-1002.33 170.88,-1002.33 170.88,-1006.42 166.79,-1010.5 162.71,-1010.5"/>
<text text-anchor="middle" x="102.88" y="-993.2" font-family="Arial" font-size="14.00" fill="#cfffac">src/js/utils/queue.js</text>
</g>
<!-- src/sw.js -->
<g id="node40" class="node">
<title>src/sw.js</title>
<path fill="none" stroke="#cfffac" d="M130.08,-1053.5C130.08,-1053.5 75.67,-1053.5 75.67,-1053.5 71.58,-1053.5 67.5,-1049.42 67.5,-1045.33 67.5,-1045.33 67.5,-1037.17 67.5,-1037.17 67.5,-1033.08 71.58,-1029 75.67,-1029 75.67,-1029 130.08,-1029 130.08,-1029 134.17,-1029 138.25,-1033.08 138.25,-1037.17 138.25,-1037.17 138.25,-1045.33 138.25,-1045.33 138.25,-1049.42 134.17,-1053.5 130.08,-1053.5"/>
<text text-anchor="middle" x="102.88" y="-1036.2" font-family="Arial" font-size="14.00" fill="#cfffac">src/sw.js</text>
</g>
<!-- tests/helper/clicker.js -->
<g id="node41" class="node">
<title>tests/helper/clicker.js</title>
<path fill="none" stroke="#cfffac" d="M678.83,-469.5C678.83,-469.5 546.42,-469.5 546.42,-469.5 542.33,-469.5 538.25,-465.42 538.25,-461.33 538.25,-461.33 538.25,-453.17 538.25,-453.17 538.25,-449.08 542.33,-445 546.42,-445 546.42,-445 678.83,-445 678.83,-445 682.92,-445 687,-449.08 687,-453.17 687,-453.17 687,-461.33 687,-461.33 687,-465.42 682.92,-469.5 678.83,-469.5"/>
<text text-anchor="middle" x="612.62" y="-452.2" font-family="Arial" font-size="14.00" fill="#cfffac">tests/helper/clicker.js</text>
</g>
<!-- tests/html_game/ai.test.js -->
<g id="node42" class="node">
<title>tests/html_game/ai.test.js</title>
<path fill="none" stroke="#c6c5fe" d="M450.58,-674.5C450.58,-674.5 290.42,-674.5 290.42,-674.5 286.33,-674.5 282.25,-670.42 282.25,-666.33 282.25,-666.33 282.25,-658.17 282.25,-658.17 282.25,-654.08 286.33,-650 290.42,-650 290.42,-650 450.58,-650 450.58,-650 454.67,-650 458.75,-654.08 458.75,-658.17 458.75,-658.17 458.75,-666.33 458.75,-666.33 458.75,-670.42 454.67,-674.5 450.58,-674.5"/>
<text text-anchor="middle" x="370.5" y="-657.2" font-family="Arial" font-size="14.00" fill="#c6c5fe">tests/html_game/ai.test.js</text>
</g>
<!-- tests/html_game/ai.test.js&#45;&gt;src/js/helper.js -->
<g id="edge62" class="edge">
<title>tests/html_game/ai.test.js&#45;&gt;src/js/helper.js</title>
<path fill="none" stroke="#757575" d="M459.18,-661.2C633.23,-658.64 1034.58,-650.43 1371,-626.25 1395.45,-624.49 1422.23,-621.79 1445.71,-619.16"/>
<polygon fill="#757575" stroke="#757575" points="1445.9,-622.66 1455.44,-618.05 1445.11,-615.7 1445.9,-622.66"/>
</g>
<!-- tests/html_game/ai.test.js&#45;&gt;src/js/game.js -->
<g id="edge61" class="edge">
<title>tests/html_game/ai.test.js&#45;&gt;src/js/game.js</title>
<path fill="none" stroke="#757575" d="M447.21,-649.51C464.34,-646.54 482.43,-643.34 499.25,-640.25 515.53,-637.25 533.11,-633.88 549.43,-630.69"/>
<polygon fill="#757575" stroke="#757575" points="549.86,-634.17 559,-628.81 548.51,-627.3 549.86,-634.17"/>
</g>
<!-- tests/html_game/ai.test.js&#45;&gt;src/js/mode/ai.js -->
<g id="edge63" class="edge">
<title>tests/html_game/ai.test.js&#45;&gt;src/js/mode/ai.js</title>
<path fill="none" stroke="#757575" d="M458.98,-670.1C472.91,-673.36 486.82,-677.92 499.25,-684.25 519.14,-694.37 515.1,-709.66 535.25,-719.25 679.57,-787.97 872.04,-789.75 973.8,-784.73"/>
<polygon fill="#757575" stroke="#757575" points="973.85,-788.23 983.65,-784.2 973.47,-781.24 973.85,-788.23"/>
</g>
<!-- tests/html_game/ai.test.js&#45;&gt;src/js/settings.js -->
<g id="edge64" class="edge">
<title>tests/html_game/ai.test.js&#45;&gt;src/js/settings.js</title>
<path fill="none" stroke="#757575" d="M459.23,-655.57C473.21,-652.17 487.06,-647.27 499.25,-640.25 520.85,-627.82 514.36,-610.85 535.25,-597.25 537.82,-595.58 540.51,-594.03 543.3,-592.6"/>
<polygon fill="#757575" stroke="#757575" points="544.64,-595.84 552.31,-588.53 541.75,-589.46 544.64,-595.84"/>
</g>
<!-- tests/html_game/color_chooser.test.js -->
<g id="node43" class="node">
<title>tests/html_game/color_chooser.test.js</title>
<path fill="none" stroke="#c6c5fe" d="M491.08,-508.5C491.08,-508.5 249.92,-508.5 249.92,-508.5 245.83,-508.5 241.75,-504.42 241.75,-500.33 241.75,-500.33 241.75,-492.17 241.75,-492.17 241.75,-488.08 245.83,-484 249.92,-484 249.92,-484 491.08,-484 491.08,-484 495.17,-484 499.25,-488.08 499.25,-492.17 499.25,-492.17 499.25,-500.33 499.25,-500.33 499.25,-504.42 495.17,-508.5 491.08,-508.5"/>
<text text-anchor="middle" x="370.5" y="-491.2" font-family="Arial" font-size="14.00" fill="#c6c5fe">tests/html_game/color_chooser.test.js</text>
</g>
<!-- tests/html_game/color_chooser.test.js&#45;&gt;src/js/helper.js -->
<g id="edge66" class="edge">
<title>tests/html_game/color_chooser.test.js&#45;&gt;src/js/helper.js</title>
<path fill="none" stroke="#757575" d="M499.31,-496.69C588.45,-496.96 710.16,-497.25 817.38,-497.25 817.38,-497.25 817.38,-497.25 1045.75,-497.25 1192.36,-497.25 1230.28,-511.11 1371,-552.25 1407.43,-562.9 1447.11,-580.38 1474.72,-593.55"/>
<polygon fill="#757575" stroke="#757575" points="1473.15,-596.68 1483.67,-597.88 1476.2,-590.38 1473.15,-596.68"/>
</g>
<!-- tests/html_game/color_chooser.test.js&#45;&gt;src/js/game.js -->
<g id="edge65" class="edge">
<title>tests/html_game/color_chooser.test.js&#45;&gt;src/js/game.js</title>
<path fill="none" stroke="#757575" d="M409.25,-508.9C435.95,-518.95 471.75,-534.71 499.25,-555.25 518.68,-569.76 514.77,-583.26 535.25,-596.25 539.82,-599.15 544.77,-601.67 549.9,-603.87"/>
<polygon fill="#757575" stroke="#757575" points="548.57,-607.11 559.16,-607.41 551.06,-600.57 548.57,-607.11"/>
</g>
<!-- tests/html_game/color_chooser.test.js&#45;&gt;src/js/settings.js -->
<g id="edge67" class="edge">
<title>tests/html_game/color_chooser.test.js&#45;&gt;src/js/settings.js</title>
<path fill="none" stroke="#757575" d="M449.3,-508.98C465.98,-512.57 483.36,-516.97 499.25,-522.25 527.05,-531.48 556.97,-545.83 578.94,-557.27"/>
<polygon fill="#757575" stroke="#757575" points="577.23,-560.33 587.71,-561.91 580.51,-554.14 577.23,-560.33"/>
</g>
<!-- tests/html_game/color_chooser.test.js&#45;&gt;tests/helper/clicker.js -->
<g id="edge68" class="edge">
<title>tests/html_game/color_chooser.test.js&#45;&gt;tests/helper/clicker.js</title>
<path fill="none" stroke="#757575" d="M449.79,-483.53C474.36,-479.54 501.59,-475.12 526.6,-471.06"/>
<polygon fill="#757575" stroke="#757575" points="527.12,-474.52 536.43,-469.46 526,-467.61 527.12,-474.52"/>
</g>
<!-- tests/html_game/game.test.js -->
<g id="node44" class="node">
<title>tests/html_game/game.test.js</title>
<path fill="none" stroke="#c6c5fe" d="M463.33,-588.5C463.33,-588.5 277.67,-588.5 277.67,-588.5 273.58,-588.5 269.5,-584.42 269.5,-580.33 269.5,-580.33 269.5,-572.17 269.5,-572.17 269.5,-568.08 273.58,-564 277.67,-564 277.67,-564 463.33,-564 463.33,-564 467.42,-564 471.5,-568.08 471.5,-572.17 471.5,-572.17 471.5,-580.33 471.5,-580.33 471.5,-584.42 467.42,-588.5 463.33,-588.5"/>
<text text-anchor="middle" x="370.5" y="-571.2" font-family="Arial" font-size="14.00" fill="#c6c5fe">tests/html_game/game.test.js</text>
</g>
<!-- tests/html_game/game.test.js&#45;&gt;src/js/game.js -->
<g id="edge69" class="edge">
<title>tests/html_game/game.test.js&#45;&gt;src/js/game.js</title>
<path fill="none" stroke="#757575" d="M445.82,-588.98C463.34,-592 481.96,-595.22 499.25,-598.25 515.51,-601.1 533.08,-604.21 549.39,-607.11"/>
<polygon fill="#757575" stroke="#757575" points="548.5,-610.51 558.96,-608.81 549.73,-603.61 548.5,-610.51"/>
</g>
<!-- tests/html_game/game.test.js&#45;&gt;src/js/settings.js -->
<g id="edge70" class="edge">
<title>tests/html_game/game.test.js&#45;&gt;src/js/settings.js</title>
<path fill="none" stroke="#757575" d="M471.94,-575.83C495.69,-575.73 520.49,-575.63 542.49,-575.54"/>
<polygon fill="#757575" stroke="#757575" points="542.22,-579.04 552.21,-575.5 542.19,-572.04 542.22,-579.04"/>
</g>
<!-- tests/html_game/hotseat.test.js -->
<g id="node45" class="node">
<title>tests/html_game/hotseat.test.js</title>
<path fill="none" stroke="#c6c5fe" d="M468.58,-631.5C468.58,-631.5 272.42,-631.5 272.42,-631.5 268.33,-631.5 264.25,-627.42 264.25,-623.33 264.25,-623.33 264.25,-615.17 264.25,-615.17 264.25,-611.08 268.33,-607 272.42,-607 272.42,-607 468.58,-607 468.58,-607 472.67,-607 476.75,-611.08 476.75,-615.17 476.75,-615.17 476.75,-623.33 476.75,-623.33 476.75,-627.42 472.67,-631.5 468.58,-631.5"/>
<text text-anchor="middle" x="370.5" y="-614.2" font-family="Arial" font-size="14.00" fill="#c6c5fe">tests/html_game/hotseat.test.js</text>
</g>
<!-- tests/html_game/hotseat.test.js&#45;&gt;src/js/game.js -->
<g id="edge71" class="edge">
<title>tests/html_game/hotseat.test.js&#45;&gt;src/js/game.js</title>
<path fill="none" stroke="#757575" d="M477.17,-618.81C501.7,-618.71 527.05,-618.6 549.03,-618.51"/>
<polygon fill="#757575" stroke="#757575" points="549.03,-622.01 559.02,-618.47 549,-615.01 549.03,-622.01"/>
</g>
<!-- tests/html_game/hotseat.test.js&#45;&gt;src/js/mode/hotseat.js -->
<g id="edge72" class="edge">
<title>tests/html_game/hotseat.test.js&#45;&gt;src/js/mode/hotseat.js</title>
<path fill="none" stroke="#757575" d="M464.76,-631.96C476.5,-634.54 488.25,-637.6 499.25,-641.25 528.47,-650.93 559.52,-667.19 581.56,-679.87"/>
<polygon fill="#757575" stroke="#757575" points="579.61,-682.79 590,-684.82 583.15,-676.75 579.61,-682.79"/>
</g>
<!-- tests/html_game/hotseat.test.js&#45;&gt;src/js/settings.js -->
<g id="edge73" class="edge">
<title>tests/html_game/hotseat.test.js&#45;&gt;src/js/settings.js</title>
<path fill="none" stroke="#757575" d="M447.21,-606.51C464.34,-603.54 482.43,-600.34 499.25,-597.25 513.21,-594.68 528.13,-591.83 542.38,-589.06"/>
<polygon fill="#757575" stroke="#757575" points="543.01,-592.51 552.15,-587.15 541.67,-585.64 543.01,-592.51"/>
</g>
<!-- tests/html_game/server.test.js -->
<g id="node46" class="node">
<title>tests/html_game/server.test.js</title>
<path fill="none" stroke="#c6c5fe" d="M465.21,-717.5C465.21,-717.5 275.79,-717.5 275.79,-717.5 271.71,-717.5 267.62,-713.42 267.62,-709.33 267.62,-709.33 267.62,-701.17 267.62,-701.17 267.62,-697.08 271.71,-693 275.79,-693 275.79,-693 465.21,-693 465.21,-693 469.29,-693 473.38,-697.08 473.38,-701.17 473.38,-701.17 473.38,-709.33 473.38,-709.33 473.38,-713.42 469.29,-717.5 465.21,-717.5"/>
<text text-anchor="middle" x="370.5" y="-700.2" font-family="Arial" font-size="14.00" fill="#c6c5fe">tests/html_game/server.test.js</text>
</g>
<!-- tests/html_game/server.test.js&#45;&gt;src/js/game.js -->
<g id="edge74" class="edge">
<title>tests/html_game/server.test.js&#45;&gt;src/js/game.js</title>
<path fill="none" stroke="#757575" d="M467.35,-692.57C478.25,-690 489.09,-686.93 499.25,-683.25 530.49,-671.94 563.02,-652.1 584.99,-637.3"/>
<polygon fill="#757575" stroke="#757575" points="586.79,-640.31 593.05,-631.77 582.82,-634.54 586.79,-640.31"/>
</g>
<!-- tests/html_game/server.test.js&#45;&gt;src/js/mode/server.js -->
<g id="edge75" class="edge">
<title>tests/html_game/server.test.js&#45;&gt;src/js/mode/server.js</title>
<path fill="none" stroke="#757575" d="M408.95,-717.94C441.97,-728.87 491.49,-744.68 535.25,-756.25 686.24,-796.16 865.14,-832.78 965.43,-852.36"/>
<polygon fill="#757575" stroke="#757575" points="964.7,-855.78 975.19,-854.25 966.04,-848.91 964.7,-855.78"/>
</g>
<!-- tests/html_game/server.test.js&#45;&gt;src/js/settings.js -->
<g id="edge76" class="edge">
<title>tests/html_game/server.test.js&#45;&gt;src/js/settings.js</title>
<path fill="none" stroke="#757575" d="M473.61,-697.55C482.85,-694.01 491.59,-689.35 499.25,-683.25 531.67,-657.44 504.3,-624.8 535.25,-597.25 537.85,-594.94 540.67,-592.87 543.65,-591.02"/>
<polygon fill="#757575" stroke="#757575" points="545.05,-594.24 552.29,-586.51 541.81,-588.03 545.05,-594.24"/>
</g>
<!-- tests/html_game/starter.test.js -->
<g id="node47" class="node">
<title>tests/html_game/starter.test.js</title>
<path fill="none" stroke="#c6c5fe" d="M197.58,-703.5C197.58,-703.5 8.17,-703.5 8.17,-703.5 4.08,-703.5 0,-699.42 0,-695.33 0,-695.33 0,-687.17 0,-687.17 0,-683.08 4.08,-679 8.17,-679 8.17,-679 197.58,-679 197.58,-679 201.67,-679 205.75,-683.08 205.75,-687.17 205.75,-687.17 205.75,-695.33 205.75,-695.33 205.75,-699.42 201.67,-703.5 197.58,-703.5"/>
<text text-anchor="middle" x="102.88" y="-686.2" font-family="Arial" font-size="14.00" fill="#c6c5fe">tests/html_game/starter.test.js</text>
</g>
<!-- tests/html_game/starter.test.js&#45;&gt;src/js/starter.js -->
<g id="edge78" class="edge">
<title>tests/html_game/starter.test.js&#45;&gt;src/js/starter.js</title>
<path fill="none" stroke="#757575" d="M125.16,-703.83C171.89,-731.45 283.6,-797.48 338.28,-829.8"/>
<polygon fill="#757575" stroke="#757575" points="336.42,-832.76 346.81,-834.84 339.98,-826.74 336.42,-832.76"/>
</g>
<!-- tests/html_game/starter.test.js&#45;&gt;src/js/settings.js -->
<g id="edge77" class="edge">
<title>tests/html_game/starter.test.js&#45;&gt;src/js/settings.js</title>
<path fill="none" stroke="#757575" d="M111.57,-678.67C129.89,-650.11 179.23,-580.9 241.75,-555.25 348.99,-511.26 488.58,-539.13 561.8,-559.48"/>
<polygon fill="#757575" stroke="#757575" points="560.51,-562.75 571.08,-562.12 562.43,-556.02 560.51,-562.75"/>
</g>
<!-- tests/manual/layout.js -->
<g id="node48" class="node">
<title>tests/manual/layout.js</title>
<path fill="none" stroke="#c6c5fe" d="M1111.71,-351.5C1111.71,-351.5 977.79,-351.5 977.79,-351.5 973.71,-351.5 969.62,-347.42 969.62,-343.33 969.62,-343.33 969.62,-335.17 969.62,-335.17 969.62,-331.08 973.71,-327 977.79,-327 977.79,-327 1111.71,-327 1111.71,-327 1115.79,-327 1119.88,-331.08 1119.88,-335.17 1119.88,-335.17 1119.88,-343.33 1119.88,-343.33 1119.88,-347.42 1115.79,-351.5 1111.71,-351.5"/>
<text text-anchor="middle" x="1044.75" y="-334.2" font-family="Arial" font-size="14.00" fill="#c6c5fe">tests/manual/layout.js</text>
</g>
<!-- tests/manual/layout.js&#45;&gt;src/js/layout.js -->
<g id="edge79" class="edge">
<title>tests/manual/layout.js&#45;&gt;src/js/layout.js</title>
<path fill="none" stroke="#757575" d="M1120.13,-351.64C1149.5,-356.53 1182.88,-362.09 1211.01,-366.78"/>
<polygon fill="#757575" stroke="#757575" points="1210.39,-370.22 1220.83,-368.41 1211.54,-363.32 1210.39,-370.22"/>
</g>
<!-- tests/uno/basic.test.js -->
<g id="node49" class="node">
<title>tests/uno/basic.test.js</title>
<path fill="none" stroke="#c6c5fe" d="M1342.96,-346.5C1342.96,-346.5 1206.79,-346.5 1206.79,-346.5 1202.71,-346.5 1198.62,-342.42 1198.62,-338.33 1198.62,-338.33 1198.62,-330.17 1198.62,-330.17 1198.62,-326.08 1202.71,-322 1206.79,-322 1206.79,-322 1342.96,-322 1342.96,-322 1347.04,-322 1351.12,-326.08 1351.12,-330.17 1351.12,-330.17 1351.12,-338.33 1351.12,-338.33 1351.12,-342.42 1347.04,-346.5 1342.96,-346.5"/>
<text text-anchor="middle" x="1274.88" y="-329.2" font-family="Arial" font-size="14.00" fill="#c6c5fe">tests/uno/basic.test.js</text>
</g>
<!-- tests/uno/basic.test.js&#45;&gt;src/js/uno/basic.js -->
<g id="edge80" class="edge">
<title>tests/uno/basic.test.js&#45;&gt;src/js/uno/basic.js</title>
<path fill="none" stroke="#757575" d="M1326.39,-321.52C1362.24,-312.49 1410.55,-300.31 1448.62,-290.72"/>
<polygon fill="#757575" stroke="#757575" points="1449.27,-294.16 1458.11,-288.33 1447.56,-287.38 1449.27,-294.16"/>
</g>
<!-- tests/uno/bot.test.js -->
<g id="node50" class="node">
<title>tests/uno/bot.test.js</title>
<path fill="none" stroke="#c6c5fe" d="M431.83,-306.5C431.83,-306.5 309.17,-306.5 309.17,-306.5 305.08,-306.5 301,-302.42 301,-298.33 301,-298.33 301,-290.17 301,-290.17 301,-286.08 305.08,-282 309.17,-282 309.17,-282 431.83,-282 431.83,-282 435.92,-282 440,-286.08 440,-290.17 440,-290.17 440,-298.33 440,-298.33 440,-302.42 435.92,-306.5 431.83,-306.5"/>
<text text-anchor="middle" x="370.5" y="-289.2" font-family="Arial" font-size="14.00" fill="#c6c5fe">tests/uno/bot.test.js</text>
</g>
<!-- tests/uno/bot.test.js&#45;&gt;src/js/bot/simple.bot.js -->
<g id="edge81" class="edge">
<title>tests/uno/bot.test.js&#45;&gt;src/js/bot/simple.bot.js</title>
<path fill="none" stroke="#757575" d="M406.17,-306.99C469.01,-329.54 606.31,-376.35 726,-400.25 885.64,-432.13 1075.22,-446.82 1184.34,-453.08"/>
<polygon fill="#757575" stroke="#757575" points="1183.92,-456.56 1194.1,-453.63 1184.32,-449.57 1183.92,-456.56"/>
</g>
<!-- tests/uno/bot.test.js&#45;&gt;src/js/uno/basic.js -->
<g id="edge84" class="edge">
<title>tests/uno/bot.test.js&#45;&gt;src/js/uno/basic.js</title>
<path fill="none" stroke="#757575" d="M416.01,-281.53C495.75,-259.89 668.57,-218.25 817.38,-218.25 817.38,-218.25 817.38,-218.25 1045.75,-218.25 1184.31,-218.25 1344.41,-243.57 1435.78,-260.46"/>
<polygon fill="#757575" stroke="#757575" points="1434.89,-263.86 1445.36,-262.25 1436.17,-256.97 1434.89,-263.86"/>
</g>
<!-- tests/uno/bot.test.js&#45;&gt;src/js/uno/default&#45;engine.js -->
<g id="edge85" class="edge">
<title>tests/uno/bot.test.js&#45;&gt;src/js/uno/default&#45;engine.js</title>
<path fill="none" stroke="#757575" d="M440.19,-291.48C513.41,-288.52 630.16,-283.81 714.39,-280.41"/>
<polygon fill="#757575" stroke="#757575" points="714.42,-283.91 724.27,-280.01 714.14,-276.91 714.42,-283.91"/>
</g>
<!-- tests/uno/bot.test.js&#45;&gt;src/js/settings.js -->
<g id="edge82" class="edge">
<title>tests/uno/bot.test.js&#45;&gt;src/js/settings.js</title>
<path fill="none" stroke="#757575" d="M382.13,-306.69C419.62,-350.56 546.01,-498.47 593.44,-553.97"/>
<polygon fill="#757575" stroke="#757575" points="590.71,-556.16 599.86,-561.49 596.03,-551.61 590.71,-556.16"/>
</g>
<!-- tests/uno/bot.test.js&#45;&gt;src/js/uno.js -->
<g id="edge83" class="edge">
<title>tests/uno/bot.test.js&#45;&gt;src/js/uno.js</title>
<path fill="none" stroke="#757575" d="M389.13,-281.59C418.07,-261.52 478.16,-222.76 535.25,-204.25 695.24,-152.38 744.31,-181.42 910.75,-157.25 936.03,-153.58 963.93,-149.04 987.62,-145.04"/>
<polygon fill="#757575" stroke="#757575" points="988.11,-148.5 997.39,-143.38 986.94,-141.6 988.11,-148.5"/>
</g>
<!-- tests/uno/engine.test.js -->
<g id="node51" class="node">
<title>tests/uno/engine.test.js</title>
<path fill="none" stroke="#c6c5fe" d="M443.08,-205.5C443.08,-205.5 297.92,-205.5 297.92,-205.5 293.83,-205.5 289.75,-201.42 289.75,-197.33 289.75,-197.33 289.75,-189.17 289.75,-189.17 289.75,-185.08 293.83,-181 297.92,-181 297.92,-181 443.08,-181 443.08,-181 447.17,-181 451.25,-185.08 451.25,-189.17 451.25,-189.17 451.25,-197.33 451.25,-197.33 451.25,-201.42 447.17,-205.5 443.08,-205.5"/>
<text text-anchor="middle" x="370.5" y="-188.2" font-family="Arial" font-size="14.00" fill="#c6c5fe">tests/uno/engine.test.js</text>
</g>
<!-- tests/uno/engine.test.js&#45;&gt;src/js/uno/basic.js -->
<g id="edge88" class="edge">
<title>tests/uno/engine.test.js&#45;&gt;src/js/uno/basic.js</title>
<path fill="none" stroke="#757575" d="M405.35,-180.54C479.09,-154.02 660.25,-95.25 817.38,-95.25 817.38,-95.25 817.38,-95.25 1045.75,-95.25 1190.8,-95.25 1240.9,-58.11 1371,-122.25 1430.51,-151.59 1476.56,-218.35 1497.55,-253.18"/>
<polygon fill="#757575" stroke="#757575" points="1494.41,-254.73 1502.49,-261.58 1500.44,-251.18 1494.41,-254.73"/>
</g>
<!-- tests/uno/engine.test.js&#45;&gt;src/js/uno/default&#45;engine.js -->
<g id="edge89" class="edge">
<title>tests/uno/engine.test.js&#45;&gt;src/js/uno/default&#45;engine.js</title>
<path fill="none" stroke="#757575" d="M439.7,-205.95C520.02,-220.9 653.2,-245.69 738.05,-261.48"/>
<polygon fill="#757575" stroke="#757575" points="737.22,-264.89 747.69,-263.28 738.5,-258.01 737.22,-264.89"/>
</g>
<!-- tests/uno/engine.test.js&#45;&gt;src/js/settings.js -->
<g id="edge86" class="edge">
<title>tests/uno/engine.test.js&#45;&gt;src/js/settings.js</title>
<path fill="none" stroke="#757575" d="M406.91,-205.92C436.43,-218.38 477.11,-240.36 499.25,-273.25 550.91,-349.98 497.49,-393.8 535.25,-478.25 548.41,-507.68 572.46,-536.01 590.07,-554.37"/>
<polygon fill="#757575" stroke="#757575" points="587.55,-556.8 597.06,-561.47 592.54,-551.89 587.55,-556.8"/>
</g>
<!-- tests/uno/engine.test.js&#45;&gt;src/js/uno.js -->
<g id="edge87" class="edge">
<title>tests/uno/engine.test.js&#45;&gt;src/js/uno.js</title>
<path fill="none" stroke="#757575" d="M433.06,-180.57C463.66,-174.72 501.27,-168.21 535.25,-164.25 698.86,-145.16 893.61,-138.5 987.55,-136.28"/>
<polygon fill="#757575" stroke="#757575" points="987.61,-139.78 997.53,-136.06 987.45,-132.79 987.61,-139.78"/>
</g>
<!-- tests/uno/player.test.js -->
<g id="node52" class="node">
<title>tests/uno/player.test.js</title>
<path fill="none" stroke="#c6c5fe" d="M1115.08,-190.5C1115.08,-190.5 974.42,-190.5 974.42,-190.5 970.33,-190.5 966.25,-186.42 966.25,-182.33 966.25,-182.33 966.25,-174.17 966.25,-174.17 966.25,-170.08 970.33,-166 974.42,-166 974.42,-166 1115.08,-166 1115.08,-166 1119.17,-166 1123.25,-170.08 1123.25,-174.17 1123.25,-174.17 1123.25,-182.33 1123.25,-182.33 1123.25,-186.42 1119.17,-190.5 1115.08,-190.5"/>
<text text-anchor="middle" x="1044.75" y="-173.2" font-family="Arial" font-size="14.00" fill="#c6c5fe">tests/uno/player.test.js</text>
</g>
<!-- tests/uno/player.test.js&#45;&gt;src/js/player.js -->
<g id="edge90" class="edge">
<title>tests/uno/player.test.js&#45;&gt;src/js/player.js</title>
<path fill="none" stroke="#757575" d="M1123.62,-178.25C1151.85,-178.25 1183.39,-178.25 1210.25,-178.25"/>
<polygon fill="#757575" stroke="#757575" points="1209.94,-181.75 1219.94,-178.25 1209.94,-174.75 1209.94,-181.75"/>
</g>
<!-- tests/uno/random.test.js -->
<g id="node53" class="node">
<title>tests/uno/random.test.js</title>
<path fill="none" stroke="#c6c5fe" d="M1119.96,-748.5C1119.96,-748.5 969.54,-748.5 969.54,-748.5 965.46,-748.5 961.38,-744.42 961.38,-740.33 961.38,-740.33 961.38,-732.17 961.38,-732.17 961.38,-728.08 965.46,-724 969.54,-724 969.54,-724 1119.96,-724 1119.96,-724 1124.04,-724 1128.12,-728.08 1128.12,-732.17 1128.12,-732.17 1128.12,-740.33 1128.12,-740.33 1128.12,-744.42 1124.04,-748.5 1119.96,-748.5"/>
<text text-anchor="middle" x="1044.75" y="-731.2" font-family="Arial" font-size="14.00" fill="#c6c5fe">tests/uno/random.test.js</text>
</g>
<!-- tests/uno/random.test.js&#45;&gt;src/js/utils/random.js -->
<g id="edge91" class="edge">
<title>tests/uno/random.test.js&#45;&gt;src/js/utils/random.js</title>
<path fill="none" stroke="#757575" d="M1107.48,-723.53C1136.39,-717.57 1171.03,-710.44 1201.2,-704.22"/>
<polygon fill="#757575" stroke="#757575" points="1201.52,-707.73 1210.61,-702.28 1200.11,-700.87 1201.52,-707.73"/>
</g>
</g>
</svg>
