<?xml version="1.0" encoding="UTF-8" standalone="no"?>
<!DOCTYPE svg PUBLIC "-//W3C//DTD SVG 1.1//EN"
 "http://www.w3.org/Graphics/SVG/1.1/DTD/svg11.dtd">
<!-- Generated by graphviz version 11.0.0 (20240428.1522)
 -->
<!-- Title: G Pages: 1 -->
<svg width="2152pt" height="1420pt"
 viewBox="0.00 0.00 2151.95 1420.00" xmlns="http://www.w3.org/2000/svg" xmlns:xlink="http://www.w3.org/1999/xlink">
<g id="graph0" class="graph" transform="scale(1 1) rotate(0) translate(21.6 1398.4)">
<title>G</title>
<polygon fill="#111111" stroke="none" points="-21.6,21.6 -21.6,-1398.4 2130.35,-1398.4 2130.35,21.6 -21.6,21.6"/>
<!-- src/index.js -->
<g id="node1" class="node">
<title>src/index.js</title>
<path fill="none" stroke="#c6c5fe" d="M138.33,-920.8C138.33,-920.8 67.42,-920.8 67.42,-920.8 63.33,-920.8 59.25,-916.72 59.25,-912.64 59.25,-912.64 59.25,-904.47 59.25,-904.47 59.25,-900.39 63.33,-896.3 67.42,-896.3 67.42,-896.3 138.33,-896.3 138.33,-896.3 142.42,-896.3 146.5,-900.39 146.5,-904.47 146.5,-904.47 146.5,-912.64 146.5,-912.64 146.5,-916.72 142.42,-920.8 138.33,-920.8"/>
<text text-anchor="middle" x="102.88" y="-903.5" font-family="Arial" font-size="14.00" fill="#c6c5fe">src/index.js</text>
</g>
<!-- src/js/starter.js -->
<g id="node2" class="node">
<title>src/js/starter.js</title>
<path fill="none" stroke="#c6c5fe" d="M446.83,-899.8C446.83,-899.8 355.67,-899.8 355.67,-899.8 351.58,-899.8 347.5,-895.72 347.5,-891.64 347.5,-891.64 347.5,-883.47 347.5,-883.47 347.5,-879.39 351.58,-875.3 355.67,-875.3 355.67,-875.3 446.83,-875.3 446.83,-875.3 450.92,-875.3 455,-879.39 455,-883.47 455,-883.47 455,-891.64 455,-891.64 455,-895.72 450.92,-899.8 446.83,-899.8"/>
<text text-anchor="middle" x="401.25" y="-882.5" font-family="Arial" font-size="14.00" fill="#c6c5fe">src/js/starter.js</text>
</g>
<!-- src/index.js&#45;&gt;src/js/starter.js -->
<g id="edge1" class="edge">
<title>src/index.js&#45;&gt;src/js/starter.js</title>
<path fill="none" stroke="#757575" d="M146.97,-905.5C196.54,-901.99 278.42,-896.19 335.62,-892.13"/>
<polygon fill="#757575" stroke="#757575" points="335.84,-895.63 345.56,-891.43 335.34,-888.64 335.84,-895.63"/>
</g>
<!-- src/js/views/install_as_app.js -->
<g id="node3" class="node">
<title>src/js/views/install_as_app.js</title>
<path fill="none" stroke="#cfffac" d="M491.83,-942.8C491.83,-942.8 310.67,-942.8 310.67,-942.8 306.58,-942.8 302.5,-938.72 302.5,-934.64 302.5,-934.64 302.5,-926.47 302.5,-926.47 302.5,-922.39 306.58,-918.3 310.67,-918.3 310.67,-918.3 491.83,-918.3 491.83,-918.3 495.92,-918.3 500,-922.39 500,-926.47 500,-926.47 500,-934.64 500,-934.64 500,-938.72 495.92,-942.8 491.83,-942.8"/>
<text text-anchor="middle" x="401.25" y="-925.5" font-family="Arial" font-size="14.00" fill="#cfffac">src/js/views/install_as_app.js</text>
</g>
<!-- src/index.js&#45;&gt;src/js/views/install_as_app.js -->
<g id="edge2" class="edge">
<title>src/index.js&#45;&gt;src/js/views/install_as_app.js</title>
<path fill="none" stroke="#757575" d="M146.97,-911.75C184.66,-914.55 241.03,-918.73 291.03,-922.45"/>
<polygon fill="#757575" stroke="#757575" points="290.51,-925.92 300.74,-923.17 291.03,-918.94 290.51,-925.92"/>
</g>
<!-- src/js/utils/assert.js -->
<g id="node13" class="node">
<title>src/js/utils/assert.js</title>
<path fill="none" stroke="#cfffac" d="M2039.83,-840.8C2039.83,-840.8 1920.92,-840.8 1920.92,-840.8 1916.83,-840.8 1912.75,-836.72 1912.75,-832.64 1912.75,-832.64 1912.75,-824.47 1912.75,-824.47 1912.75,-820.39 1916.83,-816.3 1920.92,-816.3 1920.92,-816.3 2039.83,-816.3 2039.83,-816.3 2043.92,-816.3 2048,-820.39 2048,-824.47 2048,-824.47 2048,-832.64 2048,-832.64 2048,-836.72 2043.92,-840.8 2039.83,-840.8"/>
<text text-anchor="middle" x="1980.38" y="-823.5" font-family="Arial" font-size="14.00" fill="#cfffac">src/js/utils/assert.js</text>
</g>
<!-- src/js/starter.js&#45;&gt;src/js/utils/assert.js -->
<g id="edge59" class="edge">
<title>src/js/starter.js&#45;&gt;src/js/utils/assert.js</title>
<path fill="none" stroke="#757575" d="M455.43,-881.44C489.27,-880.52 531.99,-885.26 560.75,-909.55 601.34,-943.84 567.25,-979.36 596.75,-1023.55 705.24,-1186.07 757.35,-1281.55 952.75,-1281.55 952.75,-1281.55 952.75,-1281.55 1216.75,-1281.55 1486.34,-1281.55 1601.33,-1350.63 1816,-1187.55 1929.72,-1101.16 1966.58,-917.26 1976.34,-852.07"/>
<polygon fill="#757575" stroke="#757575" points="1979.76,-852.89 1977.69,-842.5 1972.83,-851.91 1979.76,-852.89"/>
</g>
<!-- src/js/game.js -->
<g id="node21" class="node">
<title>src/js/game.js</title>
<path fill="none" stroke="#c6c5fe" d="M733.58,-649.8C733.58,-649.8 646.17,-649.8 646.17,-649.8 642.08,-649.8 638,-645.72 638,-641.64 638,-641.64 638,-633.47 638,-633.47 638,-629.39 642.08,-625.3 646.17,-625.3 646.17,-625.3 733.58,-625.3 733.58,-625.3 737.67,-625.3 741.75,-629.39 741.75,-633.47 741.75,-633.47 741.75,-641.64 741.75,-641.64 741.75,-645.72 737.67,-649.8 733.58,-649.8"/>
<text text-anchor="middle" x="689.88" y="-632.5" font-family="Arial" font-size="14.00" fill="#c6c5fe">src/js/game.js</text>
</g>
<!-- src/js/starter.js&#45;&gt;src/js/game.js -->
<g id="edge52" class="edge">
<title>src/js/starter.js&#45;&gt;src/js/game.js</title>
<path fill="none" stroke="#757575" d="M420.5,-875.04C450.69,-854.06 512.5,-809.9 560.75,-767.55 601.87,-731.46 645.8,-684.93 670.05,-658.45"/>
<polygon fill="#757575" stroke="#757575" points="672.6,-660.84 676.75,-651.09 667.43,-656.13 672.6,-660.84"/>
</g>
<!-- src/js/mode/ai.js -->
<g id="node28" class="node">
<title>src/js/mode/ai.js</title>
<path fill="none" stroke="#c6c5fe" d="M741.08,-817.8C741.08,-817.8 638.67,-817.8 638.67,-817.8 634.58,-817.8 630.5,-813.72 630.5,-809.64 630.5,-809.64 630.5,-801.47 630.5,-801.47 630.5,-797.39 634.58,-793.3 638.67,-793.3 638.67,-793.3 741.08,-793.3 741.08,-793.3 745.17,-793.3 749.25,-797.39 749.25,-801.47 749.25,-801.47 749.25,-809.64 749.25,-809.64 749.25,-813.72 745.17,-817.8 741.08,-817.8"/>
<text text-anchor="middle" x="689.88" y="-800.5" font-family="Arial" font-size="14.00" fill="#c6c5fe">src/js/mode/ai.js</text>
</g>
<!-- src/js/starter.js&#45;&gt;src/js/mode/ai.js -->
<g id="edge53" class="edge">
<title>src/js/starter.js&#45;&gt;src/js/mode/ai.js</title>
<path fill="none" stroke="#757575" d="M440.78,-874.86C479.87,-862.17 542.21,-842.46 596.75,-827.55 604.91,-825.32 613.51,-823.1 622.05,-820.97"/>
<polygon fill="#757575" stroke="#757575" points="622.84,-824.38 631.72,-818.6 621.17,-817.58 622.84,-824.38"/>
</g>
<!-- src/js/mode/hotseat.js -->
<g id="node30" class="node">
<title>src/js/mode/hotseat.js</title>
<path fill="none" stroke="#c6c5fe" d="M759.08,-860.8C759.08,-860.8 620.67,-860.8 620.67,-860.8 616.58,-860.8 612.5,-856.72 612.5,-852.64 612.5,-852.64 612.5,-844.47 612.5,-844.47 612.5,-840.39 616.58,-836.3 620.67,-836.3 620.67,-836.3 759.08,-836.3 759.08,-836.3 763.17,-836.3 767.25,-840.39 767.25,-844.47 767.25,-844.47 767.25,-852.64 767.25,-852.64 767.25,-856.72 763.17,-860.8 759.08,-860.8"/>
<text text-anchor="middle" x="689.88" y="-843.5" font-family="Arial" font-size="14.00" fill="#c6c5fe">src/js/mode/hotseat.js</text>
</g>
<!-- src/js/starter.js&#45;&gt;src/js/mode/hotseat.js -->
<g id="edge54" class="edge">
<title>src/js/starter.js&#45;&gt;src/js/mode/hotseat.js</title>
<path fill="none" stroke="#757575" d="M455.49,-880.31C496.26,-874.76 553.38,-866.99 600.9,-860.52"/>
<polygon fill="#757575" stroke="#757575" points="601.2,-864.02 610.64,-859.2 600.26,-857.08 601.2,-864.02"/>
</g>
<!-- src/js/mode/net.js -->
<g id="node31" class="node">
<title>src/js/mode/net.js</title>
<path fill="none" stroke="#c6c5fe" d="M745.58,-1014.8C745.58,-1014.8 634.17,-1014.8 634.17,-1014.8 630.08,-1014.8 626,-1010.72 626,-1006.64 626,-1006.64 626,-998.47 626,-998.47 626,-994.39 630.08,-990.3 634.17,-990.3 634.17,-990.3 745.58,-990.3 745.58,-990.3 749.67,-990.3 753.75,-994.39 753.75,-998.47 753.75,-998.47 753.75,-1006.64 753.75,-1006.64 753.75,-1010.72 749.67,-1014.8 745.58,-1014.8"/>
<text text-anchor="middle" x="689.88" y="-997.5" font-family="Arial" font-size="14.00" fill="#c6c5fe">src/js/mode/net.js</text>
</g>
<!-- src/js/starter.js&#45;&gt;src/js/mode/net.js -->
<g id="edge55" class="edge">
<title>src/js/starter.js&#45;&gt;src/js/mode/net.js</title>
<path fill="none" stroke="#757575" d="M455.41,-886.57C487.43,-887.96 528.17,-893.34 560.75,-909.55 581.01,-919.63 579.01,-931.51 596.75,-945.55 615.08,-960.07 637.33,-973.92 655.37,-984.34"/>
<polygon fill="#757575" stroke="#757575" points="653.43,-987.27 663.86,-989.16 656.89,-981.18 653.43,-987.27"/>
</g>
<!-- src/js/mode/server.js -->
<g id="node32" class="node">
<title>src/js/mode/server.js</title>
<path fill="none" stroke="#c6c5fe" d="M755.71,-936.8C755.71,-936.8 624.04,-936.8 624.04,-936.8 619.96,-936.8 615.88,-932.72 615.88,-928.64 615.88,-928.64 615.88,-920.47 615.88,-920.47 615.88,-916.39 619.96,-912.3 624.04,-912.3 624.04,-912.3 755.71,-912.3 755.71,-912.3 759.79,-912.3 763.88,-916.39 763.88,-920.47 763.88,-920.47 763.88,-928.64 763.88,-928.64 763.88,-932.72 759.79,-936.8 755.71,-936.8"/>
<text text-anchor="middle" x="689.88" y="-919.5" font-family="Arial" font-size="14.00" fill="#c6c5fe">src/js/mode/server.js</text>
</g>
<!-- src/js/starter.js&#45;&gt;src/js/mode/server.js -->
<g id="edge56" class="edge">
<title>src/js/starter.js&#45;&gt;src/js/mode/server.js</title>
<path fill="none" stroke="#757575" d="M455.49,-894.43C497.16,-899.8 555.91,-907.39 604.03,-913.6"/>
<polygon fill="#757575" stroke="#757575" points="603.52,-917.06 613.89,-914.87 604.42,-910.12 603.52,-917.06"/>
</g>
<!-- src/js/mode/test.js -->
<g id="node34" class="node">
<title>src/js/mode/test.js</title>
<path fill="none" stroke="#cfffac" d="M747.46,-1376.8C747.46,-1376.8 632.29,-1376.8 632.29,-1376.8 628.21,-1376.8 624.12,-1372.72 624.12,-1368.64 624.12,-1368.64 624.12,-1360.47 624.12,-1360.47 624.12,-1356.39 628.21,-1352.3 632.29,-1352.3 632.29,-1352.3 747.46,-1352.3 747.46,-1352.3 751.54,-1352.3 755.62,-1356.39 755.62,-1360.47 755.62,-1360.47 755.62,-1368.64 755.62,-1368.64 755.62,-1372.72 751.54,-1376.8 747.46,-1376.8"/>
<text text-anchor="middle" x="689.88" y="-1359.5" font-family="Arial" font-size="14.00" fill="#cfffac">src/js/mode/test.js</text>
</g>
<!-- src/js/starter.js&#45;&gt;src/js/mode/test.js -->
<g id="edge57" class="edge">
<title>src/js/starter.js&#45;&gt;src/js/mode/test.js</title>
<path fill="none" stroke="#757575" d="M455.43,-879.52C490.4,-877.49 534.4,-881.71 560.75,-909.55 627.12,-979.68 533.84,-1269.31 596.75,-1342.55 601.39,-1347.96 607.1,-1352.16 613.38,-1355.42"/>
<polygon fill="#757575" stroke="#757575" points="611.68,-1358.5 622.26,-1359.2 614.43,-1352.06 611.68,-1358.5"/>
</g>
<!-- src/js/settings.js -->
<g id="node35" class="node">
<title>src/js/settings.js</title>
<path fill="none" stroke="#cfffac" d="M740.33,-546.8C740.33,-546.8 639.42,-546.8 639.42,-546.8 635.33,-546.8 631.25,-542.72 631.25,-538.64 631.25,-538.64 631.25,-530.47 631.25,-530.47 631.25,-526.39 635.33,-522.3 639.42,-522.3 639.42,-522.3 740.33,-522.3 740.33,-522.3 744.42,-522.3 748.5,-526.39 748.5,-530.47 748.5,-530.47 748.5,-538.64 748.5,-538.64 748.5,-542.72 744.42,-546.8 740.33,-546.8"/>
<text text-anchor="middle" x="689.88" y="-529.5" font-family="Arial" font-size="14.00" fill="#cfffac">src/js/settings.js</text>
</g>
<!-- src/js/starter.js&#45;&gt;src/js/settings.js -->
<g id="edge58" class="edge">
<title>src/js/starter.js&#45;&gt;src/js/settings.js</title>
<path fill="none" stroke="#757575" d="M428.67,-874.94C464.37,-856.49 527.35,-818.71 560.75,-767.55 598.47,-709.78 561.35,-675.77 596.75,-616.55 612.21,-590.69 638.51,-568.49 659.06,-553.73"/>
<polygon fill="#757575" stroke="#757575" points="660.86,-556.74 667.08,-548.16 656.87,-550.99 660.86,-556.74"/>
</g>
<!-- src/js/utils/parse&#45;settings.js -->
<g id="node36" class="node">
<title>src/js/utils/parse&#45;settings.js</title>
<path fill="none" stroke="#cfffac" d="M774.83,-1333.8C774.83,-1333.8 604.92,-1333.8 604.92,-1333.8 600.83,-1333.8 596.75,-1329.72 596.75,-1325.64 596.75,-1325.64 596.75,-1317.47 596.75,-1317.47 596.75,-1313.39 600.83,-1309.3 604.92,-1309.3 604.92,-1309.3 774.83,-1309.3 774.83,-1309.3 778.92,-1309.3 783,-1313.39 783,-1317.47 783,-1317.47 783,-1325.64 783,-1325.64 783,-1329.72 778.92,-1333.8 774.83,-1333.8"/>
<text text-anchor="middle" x="689.88" y="-1316.5" font-family="Arial" font-size="14.00" fill="#cfffac">src/js/utils/parse&#45;settings.js</text>
</g>
<!-- src/js/starter.js&#45;&gt;src/js/utils/parse&#45;settings.js -->
<g id="edge60" class="edge">
<title>src/js/starter.js&#45;&gt;src/js/utils/parse&#45;settings.js</title>
<path fill="none" stroke="#757575" d="M455.35,-879.6C490.27,-877.61 534.26,-881.84 560.75,-909.55 620.28,-971.82 541.62,-1229.35 596.75,-1295.55 598.89,-1298.13 601.27,-1300.46 603.83,-1302.57"/>
<polygon fill="#757575" stroke="#757575" points="601.68,-1305.34 611.92,-1308.06 605.62,-1299.55 601.68,-1305.34"/>
</g>
<!-- src/js/actions/actions_uno_client.js -->
<g id="node4" class="node">
<title>src/js/actions/actions_uno_client.js</title>
<path fill="none" stroke="#c6c5fe" d="M1062.71,-1134.8C1062.71,-1134.8 844.79,-1134.8 844.79,-1134.8 840.71,-1134.8 836.62,-1130.72 836.62,-1126.64 836.62,-1126.64 836.62,-1118.47 836.62,-1118.47 836.62,-1114.39 840.71,-1110.3 844.79,-1110.3 844.79,-1110.3 1062.71,-1110.3 1062.71,-1110.3 1066.79,-1110.3 1070.88,-1114.39 1070.88,-1118.47 1070.88,-1118.47 1070.88,-1126.64 1070.88,-1126.64 1070.88,-1130.72 1066.79,-1134.8 1062.71,-1134.8"/>
<text text-anchor="middle" x="953.75" y="-1117.5" font-family="Arial" font-size="14.00" fill="#c6c5fe">src/js/actions/actions_uno_client.js</text>
</g>
<!-- src/js/actions/actions_uno_common.js -->
<g id="node5" class="node">
<title>src/js/actions/actions_uno_common.js</title>
<path fill="none" stroke="#cfffac" d="M2100.58,-1217.8C2100.58,-1217.8 1860.17,-1217.8 1860.17,-1217.8 1856.08,-1217.8 1852,-1213.72 1852,-1209.64 1852,-1209.64 1852,-1201.47 1852,-1201.47 1852,-1197.39 1856.08,-1193.3 1860.17,-1193.3 1860.17,-1193.3 2100.58,-1193.3 2100.58,-1193.3 2104.67,-1193.3 2108.75,-1197.39 2108.75,-1201.47 2108.75,-1201.47 2108.75,-1209.64 2108.75,-1209.64 2108.75,-1213.72 2104.67,-1217.8 2100.58,-1217.8"/>
<text text-anchor="middle" x="1980.38" y="-1200.5" font-family="Arial" font-size="14.00" fill="#cfffac">src/js/actions/actions_uno_common.js</text>
</g>
<!-- src/js/actions/actions_uno_client.js&#45;&gt;src/js/actions/actions_uno_common.js -->
<g id="edge3" class="edge">
<title>src/js/actions/actions_uno_client.js&#45;&gt;src/js/actions/actions_uno_common.js</title>
<path fill="none" stroke="#757575" d="M982.56,-1135.2C1015.61,-1149.51 1072.79,-1172.07 1124.5,-1181.55 1373.56,-1227.21 1670.18,-1222.68 1840.45,-1214.58"/>
<polygon fill="#757575" stroke="#757575" points="1840.41,-1218.08 1850.22,-1214.1 1840.07,-1211.09 1840.41,-1218.08"/>
</g>
<!-- src/js/actions/actions_uno_server.js -->
<g id="node6" class="node">
<title>src/js/actions/actions_uno_server.js</title>
<path fill="none" stroke="#c6c5fe" d="M1807.83,-1178.8C1807.83,-1178.8 1583.17,-1178.8 1583.17,-1178.8 1579.08,-1178.8 1575,-1174.72 1575,-1170.64 1575,-1170.64 1575,-1162.47 1575,-1162.47 1575,-1158.39 1579.08,-1154.3 1583.17,-1154.3 1583.17,-1154.3 1807.83,-1154.3 1807.83,-1154.3 1811.92,-1154.3 1816,-1158.39 1816,-1162.47 1816,-1162.47 1816,-1170.64 1816,-1170.64 1816,-1174.72 1811.92,-1178.8 1807.83,-1178.8"/>
<text text-anchor="middle" x="1695.5" y="-1161.5" font-family="Arial" font-size="14.00" fill="#c6c5fe">src/js/actions/actions_uno_server.js</text>
</g>
<!-- src/js/actions/actions_uno_server.js&#45;&gt;src/js/actions/actions_uno_common.js -->
<g id="edge4" class="edge">
<title>src/js/actions/actions_uno_server.js&#45;&gt;src/js/actions/actions_uno_common.js</title>
<path fill="none" stroke="#757575" d="M1788.73,-1179.27C1816.63,-1183.12 1847.44,-1187.36 1876.02,-1191.3"/>
<polygon fill="#757575" stroke="#757575" points="1875.38,-1194.75 1885.77,-1192.65 1876.34,-1187.81 1875.38,-1194.75"/>
</g>
<!-- src/js/bot/best_card.bot.js -->
<g id="node7" class="node">
<title>src/js/bot/best_card.bot.js</title>
<path fill="none" stroke="#c6c5fe" d="M1522.58,-624.8C1522.58,-624.8 1359.42,-624.8 1359.42,-624.8 1355.33,-624.8 1351.25,-620.72 1351.25,-616.64 1351.25,-616.64 1351.25,-608.47 1351.25,-608.47 1351.25,-604.39 1355.33,-600.3 1359.42,-600.3 1359.42,-600.3 1522.58,-600.3 1522.58,-600.3 1526.67,-600.3 1530.75,-604.39 1530.75,-608.47 1530.75,-608.47 1530.75,-616.64 1530.75,-616.64 1530.75,-620.72 1526.67,-624.8 1522.58,-624.8"/>
<text text-anchor="middle" x="1441" y="-607.5" font-family="Arial" font-size="14.00" fill="#c6c5fe">src/js/bot/best_card.bot.js</text>
</g>
<!-- src/js/bot/best_card.bot.js&#45;&gt;src/js/actions/actions_uno_server.js -->
<g id="edge5" class="edge">
<title>src/js/bot/best_card.bot.js&#45;&gt;src/js/actions/actions_uno_server.js</title>
<path fill="none" stroke="#757575" d="M1449.07,-625.01C1466.96,-657.05 1514.3,-745.34 1539,-824.55 1566.28,-912.03 1535.74,-944.76 1575,-1027.55 1598.26,-1076.59 1643.56,-1121.98 1671.22,-1146.82"/>
<polygon fill="#757575" stroke="#757575" points="1668.57,-1149.16 1678.39,-1153.14 1673.2,-1143.9 1668.57,-1149.16"/>
</g>
<!-- src/js/bot/simple.bot.js -->
<g id="node8" class="node">
<title>src/js/bot/simple.bot.js</title>
<path fill="none" stroke="#c6c5fe" d="M1766.21,-606.8C1766.21,-606.8 1624.79,-606.8 1624.79,-606.8 1620.71,-606.8 1616.62,-602.72 1616.62,-598.64 1616.62,-598.64 1616.62,-590.47 1616.62,-590.47 1616.62,-586.39 1620.71,-582.3 1624.79,-582.3 1624.79,-582.3 1766.21,-582.3 1766.21,-582.3 1770.29,-582.3 1774.38,-586.39 1774.38,-590.47 1774.38,-590.47 1774.38,-598.64 1774.38,-598.64 1774.38,-602.72 1770.29,-606.8 1766.21,-606.8"/>
<text text-anchor="middle" x="1695.5" y="-589.5" font-family="Arial" font-size="14.00" fill="#c6c5fe">src/js/bot/simple.bot.js</text>
</g>
<!-- src/js/bot/best_card.bot.js&#45;&gt;src/js/bot/simple.bot.js -->
<g id="edge6" class="edge">
<title>src/js/bot/best_card.bot.js&#45;&gt;src/js/bot/simple.bot.js</title>
<path fill="none" stroke="#757575" d="M1531.02,-606.21C1555.05,-604.49 1581.05,-602.64 1605.09,-600.93"/>
<polygon fill="#757575" stroke="#757575" points="1605.12,-604.43 1614.84,-600.23 1604.62,-597.45 1605.12,-604.43"/>
</g>
<!-- src/js/uno/basic.js -->
<g id="node9" class="node">
<title>src/js/uno/basic.js</title>
<path fill="none" stroke="#cfffac" d="M2036.46,-227.8C2036.46,-227.8 1924.29,-227.8 1924.29,-227.8 1920.21,-227.8 1916.12,-223.72 1916.12,-219.64 1916.12,-219.64 1916.12,-211.47 1916.12,-211.47 1916.12,-207.39 1920.21,-203.3 1924.29,-203.3 1924.29,-203.3 2036.46,-203.3 2036.46,-203.3 2040.54,-203.3 2044.62,-207.39 2044.62,-211.47 2044.62,-211.47 2044.62,-219.64 2044.62,-219.64 2044.62,-223.72 2040.54,-227.8 2036.46,-227.8"/>
<text text-anchor="middle" x="1980.38" y="-210.5" font-family="Arial" font-size="14.00" fill="#cfffac">src/js/uno/basic.js</text>
</g>
<!-- src/js/bot/best_card.bot.js&#45;&gt;src/js/uno/basic.js -->
<g id="edge7" class="edge">
<title>src/js/bot/best_card.bot.js&#45;&gt;src/js/uno/basic.js</title>
<path fill="none" stroke="#757575" d="M1507.25,-599.81C1517.97,-597.13 1528.88,-594.04 1539,-590.55 1555.73,-584.78 1558.24,-579.23 1575,-573.55 1678.78,-538.37 1728.53,-587.56 1816,-521.55 1914.06,-447.55 1959.58,-297.19 1974.03,-239.15"/>
<polygon fill="#757575" stroke="#757575" points="1977.37,-240.24 1976.29,-229.7 1970.56,-238.61 1977.37,-240.24"/>
</g>
<!-- src/js/utils/random.js -->
<g id="node10" class="node">
<title>src/js/utils/random.js</title>
<path fill="none" stroke="#cfffac" d="M1759.46,-798.8C1759.46,-798.8 1631.54,-798.8 1631.54,-798.8 1627.46,-798.8 1623.38,-794.72 1623.38,-790.64 1623.38,-790.64 1623.38,-782.47 1623.38,-782.47 1623.38,-778.39 1627.46,-774.3 1631.54,-774.3 1631.54,-774.3 1759.46,-774.3 1759.46,-774.3 1763.54,-774.3 1767.62,-778.39 1767.62,-782.47 1767.62,-782.47 1767.62,-790.64 1767.62,-790.64 1767.62,-794.72 1763.54,-798.8 1759.46,-798.8"/>
<text text-anchor="middle" x="1695.5" y="-781.5" font-family="Arial" font-size="14.00" fill="#cfffac">src/js/utils/random.js</text>
</g>
<!-- src/js/bot/best_card.bot.js&#45;&gt;src/js/utils/random.js -->
<g id="edge8" class="edge">
<title>src/js/bot/best_card.bot.js&#45;&gt;src/js/utils/random.js</title>
<path fill="none" stroke="#757575" d="M1460.16,-625.07C1503.82,-655.15 1614.9,-731.7 1666.89,-767.52"/>
<polygon fill="#757575" stroke="#757575" points="1664.7,-770.27 1674.92,-773.06 1668.67,-764.5 1664.7,-770.27"/>
</g>
<!-- src/js/utils/timer.js -->
<g id="node11" class="node">
<title>src/js/utils/timer.js</title>
<path fill="none" stroke="#cfffac" d="M1751.21,-470.8C1751.21,-470.8 1639.79,-470.8 1639.79,-470.8 1635.71,-470.8 1631.62,-466.72 1631.62,-462.64 1631.62,-462.64 1631.62,-454.47 1631.62,-454.47 1631.62,-450.39 1635.71,-446.3 1639.79,-446.3 1639.79,-446.3 1751.21,-446.3 1751.21,-446.3 1755.29,-446.3 1759.38,-450.39 1759.38,-454.47 1759.38,-454.47 1759.38,-462.64 1759.38,-462.64 1759.38,-466.72 1755.29,-470.8 1751.21,-470.8"/>
<text text-anchor="middle" x="1695.5" y="-453.5" font-family="Arial" font-size="14.00" fill="#cfffac">src/js/utils/timer.js</text>
</g>
<!-- src/js/bot/best_card.bot.js&#45;&gt;src/js/utils/timer.js -->
<g id="edge9" class="edge">
<title>src/js/bot/best_card.bot.js&#45;&gt;src/js/utils/timer.js</title>
<path fill="none" stroke="#757575" d="M1521.46,-599.96C1527.66,-597.37 1533.6,-594.27 1539,-590.55 1562.76,-574.2 1554.51,-556.85 1575,-536.55 1599.91,-511.88 1633.79,-490.66 1659.12,-476.6"/>
<polygon fill="#757575" stroke="#757575" points="1660.6,-479.78 1667.72,-471.93 1657.26,-473.62 1660.6,-479.78"/>
</g>
<!-- src/js/bot/simple.bot.js&#45;&gt;src/js/uno/basic.js -->
<g id="edge11" class="edge">
<title>src/js/bot/simple.bot.js&#45;&gt;src/js/uno/basic.js</title>
<path fill="none" stroke="#757575" d="M1774.85,-585.43C1789.67,-580.92 1804.2,-574.28 1816,-564.55 1922.95,-476.38 1963.8,-302.33 1975.49,-239.16"/>
<polygon fill="#757575" stroke="#757575" points="1978.89,-240.01 1977.18,-229.56 1972,-238.8 1978.89,-240.01"/>
</g>
<!-- src/js/bot/simple.bot.js&#45;&gt;src/js/utils/assert.js -->
<g id="edge12" class="edge">
<title>src/js/bot/simple.bot.js&#45;&gt;src/js/utils/assert.js</title>
<path fill="none" stroke="#757575" d="M1748.09,-607.26C1770.24,-614.25 1795.66,-624.44 1816,-638.55 1883.77,-685.59 1940.78,-767.18 1965.79,-806.34"/>
<polygon fill="#757575" stroke="#757575" points="1962.75,-808.09 1971.04,-814.7 1968.68,-804.37 1962.75,-808.09"/>
</g>
<!-- src/js/bot/setup_bot.js -->
<g id="node12" class="node">
<title>src/js/bot/setup_bot.js</title>
<path fill="none" stroke="#c6c5fe" d="M1285.33,-624.8C1285.33,-624.8 1146.17,-624.8 1146.17,-624.8 1142.08,-624.8 1138,-620.72 1138,-616.64 1138,-616.64 1138,-608.47 1138,-608.47 1138,-604.39 1142.08,-600.3 1146.17,-600.3 1146.17,-600.3 1285.33,-600.3 1285.33,-600.3 1289.42,-600.3 1293.5,-604.39 1293.5,-608.47 1293.5,-608.47 1293.5,-616.64 1293.5,-616.64 1293.5,-620.72 1289.42,-624.8 1285.33,-624.8"/>
<text text-anchor="middle" x="1215.75" y="-607.5" font-family="Arial" font-size="14.00" fill="#c6c5fe">src/js/bot/setup_bot.js</text>
</g>
<!-- src/js/bot/setup_bot.js&#45;&gt;src/js/bot/best_card.bot.js -->
<g id="edge10" class="edge">
<title>src/js/bot/setup_bot.js&#45;&gt;src/js/bot/best_card.bot.js</title>
<path fill="none" stroke="#757575" d="M1293.89,-612.55C1308.7,-612.55 1324.4,-612.55 1339.82,-612.55"/>
<polygon fill="#757575" stroke="#757575" points="1339.45,-616.05 1349.45,-612.55 1339.45,-609.05 1339.45,-616.05"/>
</g>
<!-- src/js/connection/client.js -->
<g id="node14" class="node">
<title>src/js/connection/client.js</title>
<path fill="none" stroke="#c6c5fe" d="M1294.33,-1016.8C1294.33,-1016.8 1137.17,-1016.8 1137.17,-1016.8 1133.08,-1016.8 1129,-1012.72 1129,-1008.64 1129,-1008.64 1129,-1000.47 1129,-1000.47 1129,-996.39 1133.08,-992.3 1137.17,-992.3 1137.17,-992.3 1294.33,-992.3 1294.33,-992.3 1298.42,-992.3 1302.5,-996.39 1302.5,-1000.47 1302.5,-1000.47 1302.5,-1008.64 1302.5,-1008.64 1302.5,-1012.72 1298.42,-1016.8 1294.33,-1016.8"/>
<text text-anchor="middle" x="1215.75" y="-999.5" font-family="Arial" font-size="14.00" fill="#c6c5fe">src/js/connection/client.js</text>
</g>
<!-- src/js/connection/common.js -->
<g id="node15" class="node">
<title>src/js/connection/common.js</title>
<path fill="none" stroke="#c6c5fe" d="M1530.83,-1056.8C1530.83,-1056.8 1351.17,-1056.8 1351.17,-1056.8 1347.08,-1056.8 1343,-1052.72 1343,-1048.64 1343,-1048.64 1343,-1040.47 1343,-1040.47 1343,-1036.39 1347.08,-1032.3 1351.17,-1032.3 1351.17,-1032.3 1530.83,-1032.3 1530.83,-1032.3 1534.92,-1032.3 1539,-1036.39 1539,-1040.47 1539,-1040.47 1539,-1048.64 1539,-1048.64 1539,-1052.72 1534.92,-1056.8 1530.83,-1056.8"/>
<text text-anchor="middle" x="1441" y="-1039.5" font-family="Arial" font-size="14.00" fill="#c6c5fe">src/js/connection/common.js</text>
</g>
<!-- src/js/connection/client.js&#45;&gt;src/js/connection/common.js -->
<g id="edge13" class="edge">
<title>src/js/connection/client.js&#45;&gt;src/js/connection/common.js</title>
<path fill="none" stroke="#757575" d="M1287.69,-1017.26C1309.97,-1021.26 1334.75,-1025.69 1357.73,-1029.81"/>
<polygon fill="#757575" stroke="#757575" points="1356.91,-1033.22 1367.37,-1031.54 1358.14,-1026.33 1356.91,-1033.22"/>
</g>
<!-- src/js/utils/handlers.js -->
<g id="node16" class="node">
<title>src/js/utils/handlers.js</title>
<path fill="none" stroke="#c6c5fe" d="M1762.46,-1018.8C1762.46,-1018.8 1628.54,-1018.8 1628.54,-1018.8 1624.46,-1018.8 1620.38,-1014.72 1620.38,-1010.64 1620.38,-1010.64 1620.38,-1002.47 1620.38,-1002.47 1620.38,-998.39 1624.46,-994.3 1628.54,-994.3 1628.54,-994.3 1762.46,-994.3 1762.46,-994.3 1766.54,-994.3 1770.62,-998.39 1770.62,-1002.47 1770.62,-1002.47 1770.62,-1010.64 1770.62,-1010.64 1770.62,-1014.72 1766.54,-1018.8 1762.46,-1018.8"/>
<text text-anchor="middle" x="1695.5" y="-1001.5" font-family="Arial" font-size="14.00" fill="#c6c5fe">src/js/utils/handlers.js</text>
</g>
<!-- src/js/connection/client.js&#45;&gt;src/js/utils/handlers.js -->
<g id="edge14" class="edge">
<title>src/js/connection/client.js&#45;&gt;src/js/utils/handlers.js</title>
<path fill="none" stroke="#757575" d="M1302.99,-1004.91C1389.55,-1005.28 1522.11,-1005.83 1608.56,-1006.19"/>
<polygon fill="#757575" stroke="#757575" points="1608.39,-1009.69 1618.4,-1006.23 1608.42,-1002.69 1608.39,-1009.69"/>
</g>
<!-- src/js/connection/common.js&#45;&gt;src/js/utils/random.js -->
<g id="edge16" class="edge">
<title>src/js/connection/common.js&#45;&gt;src/js/utils/random.js</title>
<path fill="none" stroke="#757575" d="M1454.18,-1032.11C1494.5,-990.91 1623.95,-858.64 1674.25,-807.25"/>
<polygon fill="#757575" stroke="#757575" points="1676.6,-809.85 1681.09,-800.26 1671.59,-804.95 1676.6,-809.85"/>
</g>
<!-- src/js/connection/common.js&#45;&gt;src/js/utils/handlers.js -->
<g id="edge15" class="edge">
<title>src/js/connection/common.js&#45;&gt;src/js/utils/handlers.js</title>
<path fill="none" stroke="#757575" d="M1526.43,-1031.85C1552.9,-1027.86 1582.13,-1023.46 1608.7,-1019.47"/>
<polygon fill="#757575" stroke="#757575" points="1609.04,-1022.95 1618.4,-1018.01 1607.99,-1016.03 1609.04,-1022.95"/>
</g>
<!-- src/js/utils/handlers.js&#45;&gt;src/js/utils/assert.js -->
<g id="edge75" class="edge">
<title>src/js/utils/handlers.js&#45;&gt;src/js/utils/assert.js</title>
<path fill="none" stroke="#757575" d="M1771.02,-996.78C1786.43,-993.01 1802.17,-987.78 1816,-980.55 1879.12,-947.55 1935.84,-883.55 1962.8,-850.1"/>
<polygon fill="#757575" stroke="#757575" points="1965.49,-852.35 1968.95,-842.34 1960,-848 1965.49,-852.35"/>
</g>
<!-- src/js/connection/connection_chooser.js -->
<g id="node17" class="node">
<title>src/js/connection/connection_chooser.js</title>
<path fill="none" stroke="#c6c5fe" d="M1080.33,-1054.8C1080.33,-1054.8 827.17,-1054.8 827.17,-1054.8 823.08,-1054.8 819,-1050.72 819,-1046.64 819,-1046.64 819,-1038.47 819,-1038.47 819,-1034.39 823.08,-1030.3 827.17,-1030.3 827.17,-1030.3 1080.33,-1030.3 1080.33,-1030.3 1084.42,-1030.3 1088.5,-1034.39 1088.5,-1038.47 1088.5,-1038.47 1088.5,-1046.64 1088.5,-1046.64 1088.5,-1050.72 1084.42,-1054.8 1080.33,-1054.8"/>
<text text-anchor="middle" x="953.75" y="-1037.5" font-family="Arial" font-size="14.00" fill="#c6c5fe">src/js/connection/connection_chooser.js</text>
</g>
<!-- src/js/connection/connection_chooser.js&#45;&gt;src/js/utils/assert.js -->
<g id="edge21" class="edge">
<title>src/js/connection/connection_chooser.js&#45;&gt;src/js/utils/assert.js</title>
<path fill="none" stroke="#757575" d="M986.51,-1029.82C1020.27,-1016.69 1075.45,-996.37 1124.5,-983.55 1305.56,-936.24 1354.86,-942.92 1539,-909.55 1665.96,-886.55 1813.4,-859.32 1901.4,-843.02"/>
<polygon fill="#757575" stroke="#757575" points="1901.94,-846.48 1911.13,-841.22 1900.66,-839.6 1901.94,-846.48"/>
</g>
<!-- src/js/connection/connection_chooser.js&#45;&gt;src/js/connection/client.js -->
<g id="edge17" class="edge">
<title>src/js/connection/connection_chooser.js&#45;&gt;src/js/connection/client.js</title>
<path fill="none" stroke="#757575" d="M1041.69,-1029.85C1066.01,-1026.29 1092.6,-1022.41 1117.48,-1018.77"/>
<polygon fill="#757575" stroke="#757575" points="1117.89,-1022.25 1127.28,-1017.34 1116.88,-1015.32 1117.89,-1022.25"/>
</g>
<!-- src/js/connection/fake.js -->
<g id="node18" class="node">
<title>src/js/connection/fake.js</title>
<path fill="none" stroke="#c6c5fe" d="M1516.58,-857.8C1516.58,-857.8 1365.42,-857.8 1365.42,-857.8 1361.33,-857.8 1357.25,-853.72 1357.25,-849.64 1357.25,-849.64 1357.25,-841.47 1357.25,-841.47 1357.25,-837.39 1361.33,-833.3 1365.42,-833.3 1365.42,-833.3 1516.58,-833.3 1516.58,-833.3 1520.67,-833.3 1524.75,-837.39 1524.75,-841.47 1524.75,-841.47 1524.75,-849.64 1524.75,-849.64 1524.75,-853.72 1520.67,-857.8 1516.58,-857.8"/>
<text text-anchor="middle" x="1441" y="-840.5" font-family="Arial" font-size="14.00" fill="#c6c5fe">src/js/connection/fake.js</text>
</g>
<!-- src/js/connection/connection_chooser.js&#45;&gt;src/js/connection/fake.js -->
<g id="edge18" class="edge">
<title>src/js/connection/connection_chooser.js&#45;&gt;src/js/connection/fake.js</title>
<path fill="none" stroke="#757575" d="M1068.02,-1029.86C1075.41,-1026.28 1082.34,-1021.9 1088.5,-1016.55 1125.44,-984.49 1087.84,-944.93 1124.5,-912.55 1156.92,-883.92 1265.1,-865.45 1345.8,-855.3"/>
<polygon fill="#757575" stroke="#757575" points="1346,-858.8 1355.5,-854.11 1345.14,-851.85 1346,-858.8"/>
</g>
<!-- src/js/connection/server.js -->
<g id="node19" class="node">
<title>src/js/connection/server.js</title>
<path fill="none" stroke="#c6c5fe" d="M1297.71,-1139.8C1297.71,-1139.8 1133.79,-1139.8 1133.79,-1139.8 1129.71,-1139.8 1125.62,-1135.72 1125.62,-1131.64 1125.62,-1131.64 1125.62,-1123.47 1125.62,-1123.47 1125.62,-1119.39 1129.71,-1115.3 1133.79,-1115.3 1133.79,-1115.3 1297.71,-1115.3 1297.71,-1115.3 1301.79,-1115.3 1305.88,-1119.39 1305.88,-1123.47 1305.88,-1123.47 1305.88,-1131.64 1305.88,-1131.64 1305.88,-1135.72 1301.79,-1139.8 1297.71,-1139.8"/>
<text text-anchor="middle" x="1215.75" y="-1122.5" font-family="Arial" font-size="14.00" fill="#c6c5fe">src/js/connection/server.js</text>
</g>
<!-- src/js/connection/connection_chooser.js&#45;&gt;src/js/connection/server.js -->
<g id="edge19" class="edge">
<title>src/js/connection/connection_chooser.js&#45;&gt;src/js/connection/server.js</title>
<path fill="none" stroke="#757575" d="M1055.67,-1055.25C1067.11,-1058.69 1078.3,-1063.04 1088.5,-1068.55 1108.68,-1079.46 1104.58,-1094.17 1124.5,-1105.55 1127.72,-1107.39 1131.09,-1109.08 1134.56,-1110.63"/>
<polygon fill="#757575" stroke="#757575" points="1133.21,-1113.86 1143.79,-1114.3 1135.79,-1107.35 1133.21,-1113.86"/>
</g>
<!-- src/js/connection/socket.js -->
<g id="node20" class="node">
<title>src/js/connection/socket.js</title>
<path fill="none" stroke="#c6c5fe" d="M1298.83,-1096.8C1298.83,-1096.8 1132.67,-1096.8 1132.67,-1096.8 1128.58,-1096.8 1124.5,-1092.72 1124.5,-1088.64 1124.5,-1088.64 1124.5,-1080.47 1124.5,-1080.47 1124.5,-1076.39 1128.58,-1072.3 1132.67,-1072.3 1132.67,-1072.3 1298.83,-1072.3 1298.83,-1072.3 1302.92,-1072.3 1307,-1076.39 1307,-1080.47 1307,-1080.47 1307,-1088.64 1307,-1088.64 1307,-1092.72 1302.92,-1096.8 1298.83,-1096.8"/>
<text text-anchor="middle" x="1215.75" y="-1079.5" font-family="Arial" font-size="14.00" fill="#c6c5fe">src/js/connection/socket.js</text>
</g>
<!-- src/js/connection/connection_chooser.js&#45;&gt;src/js/connection/socket.js -->
<g id="edge20" class="edge">
<title>src/js/connection/connection_chooser.js&#45;&gt;src/js/connection/socket.js</title>
<path fill="none" stroke="#757575" d="M1033.46,-1055.27C1062.22,-1059.91 1094.97,-1065.2 1124.65,-1070"/>
<polygon fill="#757575" stroke="#757575" points="1123.93,-1073.43 1134.36,-1071.57 1125.05,-1066.52 1123.93,-1073.43"/>
</g>
<!-- src/js/connection/fake.js&#45;&gt;src/js/utils/timer.js -->
<g id="edge23" class="edge">
<title>src/js/connection/fake.js&#45;&gt;src/js/utils/timer.js</title>
<path fill="none" stroke="#757575" d="M1447.41,-833.07C1467.87,-786.06 1541.1,-620.07 1575,-573.55 1602.48,-535.83 1643.07,-499.77 1669.15,-478.4"/>
<polygon fill="#757575" stroke="#757575" points="1671.29,-481.17 1676.88,-472.16 1666.9,-475.72 1671.29,-481.17"/>
</g>
<!-- src/js/connection/fake.js&#45;&gt;src/js/utils/handlers.js -->
<g id="edge22" class="edge">
<title>src/js/connection/fake.js&#45;&gt;src/js/utils/handlers.js</title>
<path fill="none" stroke="#757575" d="M1516.22,-858.24C1524.12,-860.8 1531.86,-863.87 1539,-867.55 1597.04,-897.49 1650.47,-954.23 1676.99,-985.15"/>
<polygon fill="#757575" stroke="#757575" points="1674.23,-987.31 1683.35,-992.7 1679.59,-982.8 1674.23,-987.31"/>
</g>
<!-- src/js/connection/server.js&#45;&gt;src/js/connection/common.js -->
<g id="edge24" class="edge">
<title>src/js/connection/server.js&#45;&gt;src/js/connection/common.js</title>
<path fill="none" stroke="#757575" d="M1275.96,-1114.84C1286.41,-1112.11 1297.1,-1109 1307,-1105.55 1341.59,-1093.53 1379.39,-1075.71 1405.82,-1062.43"/>
<polygon fill="#757575" stroke="#757575" points="1407.38,-1065.56 1414.71,-1057.91 1404.21,-1059.32 1407.38,-1065.56"/>
</g>
<!-- src/js/connection/server.js&#45;&gt;src/js/utils/handlers.js -->
<g id="edge25" class="edge">
<title>src/js/connection/server.js&#45;&gt;src/js/utils/handlers.js</title>
<path fill="none" stroke="#757575" d="M1306.14,-1125.9C1371.87,-1122.56 1462.67,-1113.49 1539,-1089.55 1586.75,-1074.58 1636.94,-1044.87 1666.97,-1025.36"/>
<polygon fill="#757575" stroke="#757575" points="1668.67,-1028.44 1675.09,-1020.01 1664.82,-1022.59 1668.67,-1028.44"/>
</g>
<!-- src/js/connection/socket.js&#45;&gt;src/js/connection/common.js -->
<g id="edge26" class="edge">
<title>src/js/connection/socket.js&#45;&gt;src/js/connection/common.js</title>
<path fill="none" stroke="#757575" d="M1287.69,-1071.84C1309.97,-1067.85 1334.75,-1063.41 1357.73,-1059.29"/>
<polygon fill="#757575" stroke="#757575" points="1358.14,-1062.78 1367.37,-1057.57 1356.91,-1055.89 1358.14,-1062.78"/>
</g>
<!-- src/js/connection/socket.js&#45;&gt;src/js/utils/handlers.js -->
<g id="edge27" class="edge">
<title>src/js/connection/socket.js&#45;&gt;src/js/utils/handlers.js</title>
<path fill="none" stroke="#757575" d="M1307.33,-1086.5C1372.46,-1086.14 1462,-1082.03 1539,-1065.55 1581.31,-1056.5 1627.36,-1037.83 1658.28,-1023.91"/>
<polygon fill="#757575" stroke="#757575" points="1659.54,-1027.18 1667.18,-1019.83 1656.63,-1020.81 1659.54,-1027.18"/>
</g>
<!-- src/js/game.js&#45;&gt;src/js/utils/assert.js -->
<g id="edge30" class="edge">
<title>src/js/game.js&#45;&gt;src/js/utils/assert.js</title>
<path fill="none" stroke="#757575" d="M736.65,-624.85C813.05,-606.13 969.87,-578.46 1088.5,-628.55 1109.64,-637.48 1104.06,-655.13 1124.5,-665.55 1401.17,-806.56 1515.58,-686.97 1816,-765.55 1860.39,-777.16 1909.23,-796.98 1941.84,-811.3"/>
<polygon fill="#757575" stroke="#757575" points="1940.3,-814.44 1950.86,-815.3 1943.15,-808.05 1940.3,-814.44"/>
</g>
<!-- src/js/uno&#45;game.js -->
<g id="node22" class="node">
<title>src/js/uno&#45;game.js</title>
<path fill="none" stroke="#c6c5fe" d="M1011.33,-543.8C1011.33,-543.8 896.17,-543.8 896.17,-543.8 892.08,-543.8 888,-539.72 888,-535.64 888,-535.64 888,-527.47 888,-527.47 888,-523.39 892.08,-519.3 896.17,-519.3 896.17,-519.3 1011.33,-519.3 1011.33,-519.3 1015.42,-519.3 1019.5,-523.39 1019.5,-527.47 1019.5,-527.47 1019.5,-535.64 1019.5,-535.64 1019.5,-539.72 1015.42,-543.8 1011.33,-543.8"/>
<text text-anchor="middle" x="953.75" y="-526.5" font-family="Arial" font-size="14.00" fill="#c6c5fe">src/js/uno&#45;game.js</text>
</g>
<!-- src/js/game.js&#45;&gt;src/js/uno&#45;game.js -->
<g id="edge28" class="edge">
<title>src/js/game.js&#45;&gt;src/js/uno&#45;game.js</title>
<path fill="none" stroke="#757575" d="M722.2,-624.87C769.23,-605.84 858.14,-569.85 910.74,-548.56"/>
<polygon fill="#757575" stroke="#757575" points="912.03,-551.81 919.98,-544.82 909.4,-545.32 912.03,-551.81"/>
</g>
<!-- src/js/uno/default&#45;engine.js -->
<g id="node23" class="node">
<title>src/js/uno/default&#45;engine.js</title>
<path fill="none" stroke="#c6c5fe" d="M1037.96,-118.8C1037.96,-118.8 869.54,-118.8 869.54,-118.8 865.46,-118.8 861.38,-114.72 861.38,-110.64 861.38,-110.64 861.38,-102.47 861.38,-102.47 861.38,-98.39 865.46,-94.3 869.54,-94.3 869.54,-94.3 1037.96,-94.3 1037.96,-94.3 1042.04,-94.3 1046.12,-98.39 1046.12,-102.47 1046.12,-102.47 1046.12,-110.64 1046.12,-110.64 1046.12,-114.72 1042.04,-118.8 1037.96,-118.8"/>
<text text-anchor="middle" x="953.75" y="-101.5" font-family="Arial" font-size="14.00" fill="#c6c5fe">src/js/uno/default&#45;engine.js</text>
</g>
<!-- src/js/game.js&#45;&gt;src/js/uno/default&#45;engine.js -->
<g id="edge29" class="edge">
<title>src/js/game.js&#45;&gt;src/js/uno/default&#45;engine.js</title>
<path fill="none" stroke="#757575" d="M711.74,-624.99C733.22,-610.9 765.88,-585.97 783,-555.55 826.44,-478.37 789.97,-443.23 819,-359.55 850.45,-268.92 910.54,-171.09 938.18,-128.47"/>
<polygon fill="#757575" stroke="#757575" points="940.94,-130.64 943.49,-120.35 935.09,-126.8 940.94,-130.64"/>
</g>
<!-- src/js/views/logger.js -->
<g id="node24" class="node">
<title>src/js/views/logger.js</title>
<path fill="none" stroke="#cfffac" d="M1281.21,-780.8C1281.21,-780.8 1150.29,-780.8 1150.29,-780.8 1146.21,-780.8 1142.12,-776.72 1142.12,-772.64 1142.12,-772.64 1142.12,-764.47 1142.12,-764.47 1142.12,-760.39 1146.21,-756.3 1150.29,-756.3 1150.29,-756.3 1281.21,-756.3 1281.21,-756.3 1285.29,-756.3 1289.38,-760.39 1289.38,-764.47 1289.38,-764.47 1289.38,-772.64 1289.38,-772.64 1289.38,-776.72 1285.29,-780.8 1281.21,-780.8"/>
<text text-anchor="middle" x="1215.75" y="-763.5" font-family="Arial" font-size="14.00" fill="#cfffac">src/js/views/logger.js</text>
</g>
<!-- src/js/game.js&#45;&gt;src/js/views/logger.js -->
<g id="edge31" class="edge">
<title>src/js/game.js&#45;&gt;src/js/views/logger.js</title>
<path fill="none" stroke="#757575" d="M741.99,-635.07C836.4,-631.48 1033.54,-628.9 1088.5,-666.55 1119.33,-687.68 1096.02,-718.35 1124.5,-742.55 1128.31,-745.79 1132.5,-748.62 1136.92,-751.1"/>
<polygon fill="#757575" stroke="#757575" points="1135.04,-754.08 1145.56,-755.33 1138.12,-747.79 1135.04,-754.08"/>
</g>
<!-- src/js/views/names.js -->
<g id="node25" class="node">
<title>src/js/views/names.js</title>
<path fill="none" stroke="#cfffac" d="M1020.33,-742.8C1020.33,-742.8 887.17,-742.8 887.17,-742.8 883.08,-742.8 879,-738.72 879,-734.64 879,-734.64 879,-726.47 879,-726.47 879,-722.39 883.08,-718.3 887.17,-718.3 887.17,-718.3 1020.33,-718.3 1020.33,-718.3 1024.42,-718.3 1028.5,-722.39 1028.5,-726.47 1028.5,-726.47 1028.5,-734.64 1028.5,-734.64 1028.5,-738.72 1024.42,-742.8 1020.33,-742.8"/>
<text text-anchor="middle" x="953.75" y="-725.5" font-family="Arial" font-size="14.00" fill="#cfffac">src/js/views/names.js</text>
</g>
<!-- src/js/game.js&#45;&gt;src/js/views/names.js -->
<g id="edge32" class="edge">
<title>src/js/game.js&#45;&gt;src/js/views/names.js</title>
<path fill="none" stroke="#757575" d="M709.03,-650.27C733.03,-666.45 777.2,-694.03 819,-708.55 834.35,-713.89 851.15,-717.95 867.51,-721.03"/>
<polygon fill="#757575" stroke="#757575" points="866.79,-724.46 877.24,-722.75 868,-717.56 866.79,-724.46"/>
</g>
<!-- src/js/views/places.js -->
<g id="node26" class="node">
<title>src/js/views/places.js</title>
<path fill="none" stroke="#cfffac" d="M1019.96,-699.8C1019.96,-699.8 887.54,-699.8 887.54,-699.8 883.46,-699.8 879.38,-695.72 879.38,-691.64 879.38,-691.64 879.38,-683.47 879.38,-683.47 879.38,-679.39 883.46,-675.3 887.54,-675.3 887.54,-675.3 1019.96,-675.3 1019.96,-675.3 1024.04,-675.3 1028.12,-679.39 1028.12,-683.47 1028.12,-683.47 1028.12,-691.64 1028.12,-691.64 1028.12,-695.72 1024.04,-699.8 1019.96,-699.8"/>
<text text-anchor="middle" x="953.75" y="-682.5" font-family="Arial" font-size="14.00" fill="#cfffac">src/js/views/places.js</text>
</g>
<!-- src/js/game.js&#45;&gt;src/js/views/places.js -->
<g id="edge33" class="edge">
<title>src/js/game.js&#45;&gt;src/js/views/places.js</title>
<path fill="none" stroke="#757575" d="M741.99,-647.31C779.84,-654.54 832.08,-664.51 875.08,-672.72"/>
<polygon fill="#757575" stroke="#757575" points="874.4,-676.16 884.88,-674.59 875.71,-669.28 874.4,-676.16"/>
</g>
<!-- src/js/uno&#45;game.js&#45;&gt;src/js/utils/timer.js -->
<g id="edge64" class="edge">
<title>src/js/uno&#45;game.js&#45;&gt;src/js/utils/timer.js</title>
<path fill="none" stroke="#757575" d="M1019.75,-525.14C1156.8,-511.61 1474.69,-480.24 1619.82,-465.92"/>
<polygon fill="#757575" stroke="#757575" points="1620.11,-469.41 1629.72,-464.95 1619.42,-462.44 1620.11,-469.41"/>
</g>
<!-- src/js/uno&#45;game.js&#45;&gt;src/js/bot/setup_bot.js -->
<g id="edge61" class="edge">
<title>src/js/uno&#45;game.js&#45;&gt;src/js/bot/setup_bot.js</title>
<path fill="none" stroke="#757575" d="M1019.66,-537.7C1042.2,-541.5 1067.16,-547.63 1088.5,-557.55 1107.13,-566.21 1106.27,-577.08 1124.5,-586.55 1131.48,-590.18 1139.04,-593.37 1146.71,-596.15"/>
<polygon fill="#757575" stroke="#757575" points="1145.54,-599.45 1156.13,-599.32 1147.78,-592.81 1145.54,-599.45"/>
</g>
<!-- src/js/uno&#45;game.js&#45;&gt;src/js/utils/assert.js -->
<g id="edge63" class="edge">
<title>src/js/uno&#45;game.js&#45;&gt;src/js/utils/assert.js</title>
<path fill="none" stroke="#757575" d="M1019.66,-532.21C1043.35,-535.35 1069.07,-542.47 1088.5,-557.55 1118.02,-580.47 1093.57,-612.57 1124.5,-633.55 1251.93,-719.98 1674.47,-616.91 1816,-677.55 1881.92,-705.8 1938.16,-772.5 1964.08,-807.02"/>
<polygon fill="#757575" stroke="#757575" points="1961.22,-809.03 1969.96,-815.01 1966.86,-804.88 1961.22,-809.03"/>
</g>
<!-- src/js/uno&#45;game.js&#45;&gt;src/js/views/logger.js -->
<g id="edge67" class="edge">
<title>src/js/uno&#45;game.js&#45;&gt;src/js/views/logger.js</title>
<path fill="none" stroke="#757575" d="M973.25,-544.17C999.79,-562.59 1049.73,-598.49 1088.5,-633.55 1129.98,-671.07 1173.5,-720.08 1197.06,-747.54"/>
<polygon fill="#757575" stroke="#757575" points="1194.12,-749.49 1203.26,-754.83 1199.44,-744.95 1194.12,-749.49"/>
</g>
<!-- src/js/uno/engine.js -->
<g id="node37" class="node">
<title>src/js/uno/engine.js</title>
<path fill="none" stroke="#c6c5fe" d="M1276.33,-188.8C1276.33,-188.8 1155.17,-188.8 1155.17,-188.8 1151.08,-188.8 1147,-184.72 1147,-180.64 1147,-180.64 1147,-172.47 1147,-172.47 1147,-168.39 1151.08,-164.3 1155.17,-164.3 1155.17,-164.3 1276.33,-164.3 1276.33,-164.3 1280.42,-164.3 1284.5,-168.39 1284.5,-172.47 1284.5,-172.47 1284.5,-180.64 1284.5,-180.64 1284.5,-184.72 1280.42,-188.8 1276.33,-188.8"/>
<text text-anchor="middle" x="1215.75" y="-171.5" font-family="Arial" font-size="14.00" fill="#c6c5fe">src/js/uno/engine.js</text>
</g>
<!-- src/js/uno&#45;game.js&#45;&gt;src/js/uno/engine.js -->
<g id="edge62" class="edge">
<title>src/js/uno&#45;game.js&#45;&gt;src/js/uno/engine.js</title>
<path fill="none" stroke="#757575" d="M973.91,-518.98C1003.7,-498.32 1060.59,-454.19 1088.5,-401.55 1131.43,-320.6 1061.8,-265.37 1124.5,-198.55 1128.07,-194.75 1132.19,-191.55 1136.64,-188.87"/>
<polygon fill="#757575" stroke="#757575" points="1138.12,-192.05 1145.53,-184.47 1135.01,-185.77 1138.12,-192.05"/>
</g>
<!-- src/js/views/choose_color.js -->
<g id="node38" class="node">
<title>src/js/views/choose_color.js</title>
<path fill="none" stroke="#c6c5fe" d="M1529.71,-581.8C1529.71,-581.8 1352.29,-581.8 1352.29,-581.8 1348.21,-581.8 1344.12,-577.72 1344.12,-573.64 1344.12,-573.64 1344.12,-565.47 1344.12,-565.47 1344.12,-561.39 1348.21,-557.3 1352.29,-557.3 1352.29,-557.3 1529.71,-557.3 1529.71,-557.3 1533.79,-557.3 1537.88,-561.39 1537.88,-565.47 1537.88,-565.47 1537.88,-573.64 1537.88,-573.64 1537.88,-577.72 1533.79,-581.8 1529.71,-581.8"/>
<text text-anchor="middle" x="1441" y="-564.5" font-family="Arial" font-size="14.00" fill="#c6c5fe">src/js/views/choose_color.js</text>
</g>
<!-- src/js/uno&#45;game.js&#45;&gt;src/js/views/choose_color.js -->
<g id="edge65" class="edge">
<title>src/js/uno&#45;game.js&#45;&gt;src/js/views/choose_color.js</title>
<path fill="none" stroke="#757575" d="M1020,-538.6C1051.54,-541.88 1089.97,-545.68 1124.5,-548.55 1193.64,-554.31 1271.41,-559.51 1332.43,-563.29"/>
<polygon fill="#757575" stroke="#757575" points="1331.92,-566.76 1342.12,-563.88 1332.35,-559.77 1331.92,-566.76"/>
</g>
<!-- src/js/views/layout.js -->
<g id="node39" class="node">
<title>src/js/views/layout.js</title>
<path fill="none" stroke="#c6c5fe" d="M1504.58,-312.8C1504.58,-312.8 1377.42,-312.8 1377.42,-312.8 1373.33,-312.8 1369.25,-308.72 1369.25,-304.64 1369.25,-304.64 1369.25,-296.47 1369.25,-296.47 1369.25,-292.39 1373.33,-288.3 1377.42,-288.3 1377.42,-288.3 1504.58,-288.3 1504.58,-288.3 1508.67,-288.3 1512.75,-292.39 1512.75,-296.47 1512.75,-296.47 1512.75,-304.64 1512.75,-304.64 1512.75,-308.72 1508.67,-312.8 1504.58,-312.8"/>
<text text-anchor="middle" x="1441" y="-295.5" font-family="Arial" font-size="14.00" fill="#c6c5fe">src/js/views/layout.js</text>
</g>
<!-- src/js/uno&#45;game.js&#45;&gt;src/js/views/layout.js -->
<g id="edge66" class="edge">
<title>src/js/uno&#45;game.js&#45;&gt;src/js/views/layout.js</title>
<path fill="none" stroke="#757575" d="M1002.54,-518.82C1072.13,-499.2 1204.26,-457.88 1307,-401.55 1349.11,-378.46 1392.42,-342.96 1417.73,-320.78"/>
<polygon fill="#757575" stroke="#757575" points="1419.92,-323.52 1425.08,-314.27 1415.28,-318.29 1419.92,-323.52"/>
</g>
<!-- src/js/uno/default&#45;engine.js&#45;&gt;src/js/uno/basic.js -->
<g id="edge69" class="edge">
<title>src/js/uno/default&#45;engine.js&#45;&gt;src/js/uno/basic.js</title>
<path fill="none" stroke="#757575" d="M1045.47,-93.81C1204.8,-74.58 1543.81,-47.8 1816,-122.55 1869.67,-137.29 1924.34,-173.67 1954.86,-196.31"/>
<polygon fill="#757575" stroke="#757575" points="1952.59,-198.98 1962.68,-202.22 1956.81,-193.4 1952.59,-198.98"/>
</g>
<!-- src/js/lib/qrcode.js -->
<g id="node27" class="node">
<title>src/js/lib/qrcode.js</title>
<path fill="none" stroke="#cfffac" d="M1272.96,-392.8C1272.96,-392.8 1158.54,-392.8 1158.54,-392.8 1154.46,-392.8 1150.38,-388.72 1150.38,-384.64 1150.38,-384.64 1150.38,-376.47 1150.38,-376.47 1150.38,-372.39 1154.46,-368.3 1158.54,-368.3 1158.54,-368.3 1272.96,-368.3 1272.96,-368.3 1277.04,-368.3 1281.12,-372.39 1281.12,-376.47 1281.12,-376.47 1281.12,-384.64 1281.12,-384.64 1281.12,-388.72 1277.04,-392.8 1272.96,-392.8"/>
<text text-anchor="middle" x="1215.75" y="-375.5" font-family="Arial" font-size="14.00" fill="#cfffac">src/js/lib/qrcode.js</text>
</g>
<!-- src/js/mode/ai.js&#45;&gt;src/js/utils/random.js -->
<g id="edge35" class="edge">
<title>src/js/mode/ai.js&#45;&gt;src/js/utils/random.js</title>
<path fill="none" stroke="#757575" d="M749.33,-804.16C863.45,-801.46 1123.91,-795.46 1343,-791.55 1435.1,-789.91 1540.77,-788.47 1612.01,-787.56"/>
<polygon fill="#757575" stroke="#757575" points="1611.67,-791.06 1621.62,-787.44 1611.58,-784.06 1611.67,-791.06"/>
</g>
<!-- src/js/mode/ai.js&#45;&gt;src/js/views/logger.js -->
<g id="edge36" class="edge">
<title>src/js/mode/ai.js&#45;&gt;src/js/views/logger.js</title>
<path fill="none" stroke="#757575" d="M749.54,-800.27C771.34,-798.37 796.29,-796.27 819,-794.55 926.54,-786.4 1050.64,-778.49 1130.77,-773.58"/>
<polygon fill="#757575" stroke="#757575" points="1130.5,-777.1 1140.27,-773 1130.07,-770.12 1130.5,-777.1"/>
</g>
<!-- src/js/utils/async&#45;queue.js -->
<g id="node29" class="node">
<title>src/js/utils/async&#45;queue.js</title>
<path fill="none" stroke="#cfffac" d="M1034.21,-936.8C1034.21,-936.8 873.29,-936.8 873.29,-936.8 869.21,-936.8 865.12,-932.72 865.12,-928.64 865.12,-928.64 865.12,-920.47 865.12,-920.47 865.12,-916.39 869.21,-912.3 873.29,-912.3 873.29,-912.3 1034.21,-912.3 1034.21,-912.3 1038.29,-912.3 1042.38,-916.39 1042.38,-920.47 1042.38,-920.47 1042.38,-928.64 1042.38,-928.64 1042.38,-932.72 1038.29,-936.8 1034.21,-936.8"/>
<text text-anchor="middle" x="953.75" y="-919.5" font-family="Arial" font-size="14.00" fill="#cfffac">src/js/utils/async&#45;queue.js</text>
</g>
<!-- src/js/mode/ai.js&#45;&gt;src/js/utils/async&#45;queue.js -->
<g id="edge34" class="edge">
<title>src/js/mode/ai.js&#45;&gt;src/js/utils/async&#45;queue.js</title>
<path fill="none" stroke="#757575" d="M749.64,-816.94C760.89,-819.86 772.45,-823.38 783,-827.55 836.2,-848.6 892.94,-883.99 925.49,-905.7"/>
<polygon fill="#757575" stroke="#757575" points="923.28,-908.44 933.53,-911.13 927.19,-902.63 923.28,-908.44"/>
</g>
<!-- src/js/mode/hotseat.js&#45;&gt;src/js/utils/random.js -->
<g id="edge37" class="edge">
<title>src/js/mode/hotseat.js&#45;&gt;src/js/utils/random.js</title>
<path fill="none" stroke="#757575" d="M767.55,-843.82C952.33,-832.4 1421.07,-803.44 1611.83,-791.66"/>
<polygon fill="#757575" stroke="#757575" points="1611.9,-795.16 1621.66,-791.05 1611.46,-788.18 1611.9,-795.16"/>
</g>
<!-- src/js/mode/net.js&#45;&gt;src/js/actions/actions_uno_client.js -->
<g id="edge38" class="edge">
<title>src/js/mode/net.js&#45;&gt;src/js/actions/actions_uno_client.js</title>
<path fill="none" stroke="#757575" d="M703.83,-1015.18C725.65,-1035.68 771.99,-1075.98 819,-1096.55 828.23,-1100.59 838.09,-1104.01 848.12,-1106.89"/>
<polygon fill="#757575" stroke="#757575" points="847.02,-1110.22 857.58,-1109.43 848.83,-1103.46 847.02,-1110.22"/>
</g>
<!-- src/js/mode/net.js&#45;&gt;src/js/actions/actions_uno_server.js -->
<g id="edge39" class="edge">
<title>src/js/mode/net.js&#45;&gt;src/js/actions/actions_uno_server.js</title>
<path fill="none" stroke="#757575" d="M695.42,-1015.24C708.41,-1049.32 749.28,-1142.64 819,-1178.55 949.31,-1245.68 1380.14,-1204.86 1584.76,-1180.64"/>
<polygon fill="#757575" stroke="#757575" points="1585.1,-1184.12 1594.61,-1179.46 1584.27,-1177.17 1585.1,-1184.12"/>
</g>
<!-- src/js/mode/net.js&#45;&gt;src/js/connection/common.js -->
<g id="edge40" class="edge">
<title>src/js/mode/net.js&#45;&gt;src/js/connection/common.js</title>
<path fill="none" stroke="#757575" d="M697.42,-1015.12C713.45,-1044.36 757.9,-1116.52 819,-1143.55 928.53,-1192.02 987.92,-1208.59 1088.5,-1143.55 1121.24,-1122.38 1092.41,-1085.7 1124.5,-1063.55 1157.16,-1041.01 1253.63,-1037.88 1331.37,-1039.42"/>
<polygon fill="#757575" stroke="#757575" points="1331.11,-1042.91 1341.19,-1039.64 1331.27,-1035.91 1331.11,-1042.91"/>
</g>
<!-- src/js/mode/net.js&#45;&gt;src/js/connection/connection_chooser.js -->
<g id="edge41" class="edge">
<title>src/js/mode/net.js&#45;&gt;src/js/connection/connection_chooser.js</title>
<path fill="none" stroke="#757575" d="M753.93,-1012.19C785.21,-1016.96 823.62,-1022.83 858.32,-1028.13"/>
<polygon fill="#757575" stroke="#757575" points="857.53,-1031.55 867.94,-1029.6 858.59,-1024.63 857.53,-1031.55"/>
</g>
<!-- src/js/mode/net.js&#45;&gt;src/js/views/logger.js -->
<g id="edge43" class="edge">
<title>src/js/mode/net.js&#45;&gt;src/js/views/logger.js</title>
<path fill="none" stroke="#757575" d="M754.06,-1011.43C839.3,-1019.79 991.6,-1021.45 1088.5,-945.55 1122.09,-919.24 1100.72,-891.98 1124.5,-856.55 1142.4,-829.89 1169.44,-804.87 1189.25,-788.38"/>
<polygon fill="#757575" stroke="#757575" points="1191.34,-791.2 1196.88,-782.17 1186.92,-785.77 1191.34,-791.2"/>
</g>
<!-- src/js/mode/net.js&#45;&gt;src/js/views/names.js -->
<g id="edge44" class="edge">
<title>src/js/mode/net.js&#45;&gt;src/js/views/names.js</title>
<path fill="none" stroke="#757575" d="M716.34,-989.93C735.79,-979.58 762.65,-963.7 783,-945.55 801.05,-929.46 897.57,-803.22 936.48,-752.02"/>
<polygon fill="#757575" stroke="#757575" points="939.07,-754.39 942.33,-744.31 933.5,-750.16 939.07,-754.39"/>
</g>
<!-- src/js/mode/net.js&#45;&gt;src/js/utils/async&#45;queue.js -->
<g id="edge42" class="edge">
<title>src/js/mode/net.js&#45;&gt;src/js/utils/async&#45;queue.js</title>
<path fill="none" stroke="#757575" d="M733.53,-989.85C778.71,-976.39 850.13,-955.12 899.1,-940.53"/>
<polygon fill="#757575" stroke="#757575" points="900.08,-943.89 908.66,-937.69 898.08,-937.19 900.08,-943.89"/>
</g>
<!-- src/js/mode/server.js&#45;&gt;src/js/actions/actions_uno_client.js -->
<g id="edge45" class="edge">
<title>src/js/mode/server.js&#45;&gt;src/js/actions/actions_uno_client.js</title>
<path fill="none" stroke="#757575" d="M722.73,-937.27C742.66,-946.74 767.43,-961.5 783,-981.55 815.84,-1023.86 779.08,-1060.85 819,-1096.55 822.18,-1099.4 825.59,-1101.98 829.16,-1104.31"/>
<polygon fill="#757575" stroke="#757575" points="827.24,-1107.24 837.66,-1109.15 830.71,-1101.16 827.24,-1107.24"/>
</g>
<!-- src/js/mode/server.js&#45;&gt;src/js/actions/actions_uno_server.js -->
<g id="edge46" class="edge">
<title>src/js/mode/server.js&#45;&gt;src/js/actions/actions_uno_server.js</title>
<path fill="none" stroke="#757575" d="M720.7,-937.23C740.54,-946.93 765.98,-961.96 783,-981.55 809.1,-1011.6 787.28,-1039.51 819,-1063.55 915.4,-1136.62 984.05,-1040.55 1088.5,-1101.55 1111.22,-1114.82 1101.09,-1136.53 1124.5,-1148.55 1198.21,-1186.4 1419.23,-1182.45 1563.4,-1175.18"/>
<polygon fill="#757575" stroke="#757575" points="1563.19,-1178.7 1572.99,-1174.68 1562.82,-1171.71 1563.19,-1178.7"/>
</g>
<!-- src/js/mode/server.js&#45;&gt;src/js/connection/common.js -->
<g id="edge47" class="edge">
<title>src/js/mode/server.js&#45;&gt;src/js/connection/common.js</title>
<path fill="none" stroke="#757575" d="M761.88,-937.29C780.43,-940.32 800.43,-943.31 819,-945.55 1034.98,-971.61 1096.43,-928.92 1307,-983.55 1343.69,-993.07 1382.78,-1012.21 1409.02,-1026.53"/>
<polygon fill="#757575" stroke="#757575" points="1406.99,-1029.41 1417.43,-1031.21 1410.39,-1023.29 1406.99,-1029.41"/>
</g>
<!-- src/js/mode/server.js&#45;&gt;src/js/connection/connection_chooser.js -->
<g id="edge48" class="edge">
<title>src/js/mode/server.js&#45;&gt;src/js/connection/connection_chooser.js</title>
<path fill="none" stroke="#757575" d="M719.15,-937.29C766.29,-958.54 861.01,-1001.22 914.22,-1025.19"/>
<polygon fill="#757575" stroke="#757575" points="912.66,-1028.33 923.21,-1029.24 915.53,-1021.95 912.66,-1028.33"/>
</g>
<!-- src/js/mode/server.js&#45;&gt;src/js/views/logger.js -->
<g id="edge50" class="edge">
<title>src/js/mode/server.js&#45;&gt;src/js/views/logger.js</title>
<path fill="none" stroke="#757575" d="M733.3,-911.92C828.13,-883.68 1057.11,-815.49 1161.4,-784.44"/>
<polygon fill="#757575" stroke="#757575" points="1162.26,-787.84 1170.84,-781.63 1160.26,-781.13 1162.26,-787.84"/>
</g>
<!-- src/js/mode/server.js&#45;&gt;src/js/utils/async&#45;queue.js -->
<g id="edge49" class="edge">
<title>src/js/mode/server.js&#45;&gt;src/js/utils/async&#45;queue.js</title>
<path fill="none" stroke="#757575" d="M764.17,-924.55C791.94,-924.55 824.04,-924.55 853.79,-924.55"/>
<polygon fill="#757575" stroke="#757575" points="853.55,-928.05 863.55,-924.55 853.55,-921.05 853.55,-928.05"/>
</g>
<!-- src/js/views/qr_helper.js -->
<g id="node33" class="node">
<title>src/js/views/qr_helper.js</title>
<path fill="none" stroke="#c6c5fe" d="M1029.33,-392.8C1029.33,-392.8 878.17,-392.8 878.17,-392.8 874.08,-392.8 870,-388.72 870,-384.64 870,-384.64 870,-376.47 870,-376.47 870,-372.39 874.08,-368.3 878.17,-368.3 878.17,-368.3 1029.33,-368.3 1029.33,-368.3 1033.42,-368.3 1037.5,-372.39 1037.5,-376.47 1037.5,-376.47 1037.5,-384.64 1037.5,-384.64 1037.5,-388.72 1033.42,-392.8 1029.33,-392.8"/>
<text text-anchor="middle" x="953.75" y="-375.5" font-family="Arial" font-size="14.00" fill="#c6c5fe">src/js/views/qr_helper.js</text>
</g>
<!-- src/js/mode/server.js&#45;&gt;src/js/views/qr_helper.js -->
<g id="edge51" class="edge">
<title>src/js/mode/server.js&#45;&gt;src/js/views/qr_helper.js</title>
<path fill="none" stroke="#757575" d="M727.81,-911.94C747.54,-903.21 770.31,-889.52 783,-869.55 869.03,-734.23 749.28,-654.96 819,-510.55 842.35,-462.19 891.58,-421.93 923.36,-399.57"/>
<polygon fill="#757575" stroke="#757575" points="925.1,-402.62 931.36,-394.08 921.14,-396.85 925.1,-402.62"/>
</g>
<!-- src/js/views/qr_helper.js&#45;&gt;src/js/lib/qrcode.js -->
<g id="edge79" class="edge">
<title>src/js/views/qr_helper.js&#45;&gt;src/js/lib/qrcode.js</title>
<path fill="none" stroke="#757575" d="M1037.73,-380.55C1070.16,-380.55 1107.1,-380.55 1138.81,-380.55"/>
<polygon fill="#757575" stroke="#757575" points="1138.73,-384.05 1148.73,-380.55 1138.73,-377.05 1138.73,-384.05"/>
</g>
<!-- src/js/uno/engine.js&#45;&gt;src/js/uno/basic.js -->
<g id="edge70" class="edge">
<title>src/js/uno/engine.js&#45;&gt;src/js/uno/basic.js</title>
<path fill="none" stroke="#757575" d="M1284.73,-176.15C1395.99,-176.02 1623.83,-177.93 1816,-193.55 1845.08,-195.92 1876.91,-199.89 1904.69,-203.81"/>
<polygon fill="#757575" stroke="#757575" points="1904.03,-207.25 1914.42,-205.21 1905.02,-200.32 1904.03,-207.25"/>
</g>
<!-- src/js/uno/engine.js&#45;&gt;src/js/utils/handlers.js -->
<g id="edge73" class="edge">
<title>src/js/uno/engine.js&#45;&gt;src/js/utils/handlers.js</title>
<path fill="none" stroke="#757575" d="M1284.95,-182.93C1293.42,-186.45 1301.14,-191.47 1307,-198.55 1407.84,-320.45 1244.01,-786.15 1343,-909.55 1376.12,-950.84 1515.92,-979.57 1608.92,-994.54"/>
<polygon fill="#757575" stroke="#757575" points="1608.1,-997.95 1618.52,-996.06 1609.19,-991.04 1608.1,-997.95"/>
</g>
<!-- src/js/uno/deck.js -->
<g id="node40" class="node">
<title>src/js/uno/deck.js</title>
<path fill="none" stroke="#c6c5fe" d="M1495.58,-226.8C1495.58,-226.8 1386.42,-226.8 1386.42,-226.8 1382.33,-226.8 1378.25,-222.72 1378.25,-218.64 1378.25,-218.64 1378.25,-210.47 1378.25,-210.47 1378.25,-206.39 1382.33,-202.3 1386.42,-202.3 1386.42,-202.3 1495.58,-202.3 1495.58,-202.3 1499.67,-202.3 1503.75,-206.39 1503.75,-210.47 1503.75,-210.47 1503.75,-218.64 1503.75,-218.64 1503.75,-222.72 1499.67,-226.8 1495.58,-226.8"/>
<text text-anchor="middle" x="1441" y="-209.5" font-family="Arial" font-size="14.00" fill="#c6c5fe">src/js/uno/deck.js</text>
</g>
<!-- src/js/uno/engine.js&#45;&gt;src/js/uno/deck.js -->
<g id="edge71" class="edge">
<title>src/js/uno/engine.js&#45;&gt;src/js/uno/deck.js</title>
<path fill="none" stroke="#757575" d="M1284.95,-188.16C1310.86,-192.57 1340.48,-197.61 1366.84,-202.1"/>
<polygon fill="#757575" stroke="#757575" points="1365.98,-205.5 1376.43,-203.73 1367.16,-198.6 1365.98,-205.5"/>
</g>
<!-- src/js/uno/player.js -->
<g id="node42" class="node">
<title>src/js/uno/player.js</title>
<path fill="none" stroke="#c6c5fe" d="M1499.33,-269.8C1499.33,-269.8 1382.67,-269.8 1382.67,-269.8 1378.58,-269.8 1374.5,-265.72 1374.5,-261.64 1374.5,-261.64 1374.5,-253.47 1374.5,-253.47 1374.5,-249.39 1378.58,-245.3 1382.67,-245.3 1382.67,-245.3 1499.33,-245.3 1499.33,-245.3 1503.42,-245.3 1507.5,-249.39 1507.5,-253.47 1507.5,-253.47 1507.5,-261.64 1507.5,-261.64 1507.5,-265.72 1503.42,-269.8 1499.33,-269.8"/>
<text text-anchor="middle" x="1441" y="-252.5" font-family="Arial" font-size="14.00" fill="#c6c5fe">src/js/uno/player.js</text>
</g>
<!-- src/js/uno/engine.js&#45;&gt;src/js/uno/player.js -->
<g id="edge72" class="edge">
<title>src/js/uno/engine.js&#45;&gt;src/js/uno/player.js</title>
<path fill="none" stroke="#757575" d="M1284.89,-188.75C1292.6,-191.41 1300.14,-194.63 1307,-198.55 1326.92,-209.94 1322.99,-224.33 1343,-235.55 1349.43,-239.16 1356.4,-242.17 1363.57,-244.69"/>
<polygon fill="#757575" stroke="#757575" points="1362.13,-247.91 1372.72,-247.58 1364.24,-241.23 1362.13,-247.91"/>
</g>
<!-- src/js/views/choose_color.js&#45;&gt;src/js/uno/basic.js -->
<g id="edge76" class="edge">
<title>src/js/views/choose_color.js&#45;&gt;src/js/uno/basic.js</title>
<path fill="none" stroke="#757575" d="M1492.81,-556.81C1517.59,-550.63 1547.83,-543.14 1575,-536.55 1681.97,-510.63 1726.7,-543.9 1816,-479.55 1903.42,-416.55 1953.94,-290.94 1971.88,-238.93"/>
<polygon fill="#757575" stroke="#757575" points="1975.14,-240.21 1975,-229.62 1968.5,-237.99 1975.14,-240.21"/>
</g>
<!-- src/js/views/layout.js&#45;&gt;src/js/uno/basic.js -->
<g id="edge77" class="edge">
<title>src/js/views/layout.js&#45;&gt;src/js/uno/basic.js</title>
<path fill="none" stroke="#757575" d="M1513.09,-295.3C1588.64,-289.04 1711.41,-276.92 1816,-257.55 1853.09,-250.69 1894.22,-240.1 1925.93,-231.27"/>
<polygon fill="#757575" stroke="#757575" points="1926.6,-234.72 1935.28,-228.64 1924.7,-227.98 1926.6,-234.72"/>
</g>
<!-- src/js/views/layout.js&#45;&gt;src/js/utils/timer.js -->
<g id="edge78" class="edge">
<title>src/js/views/layout.js&#45;&gt;src/js/utils/timer.js</title>
<path fill="none" stroke="#757575" d="M1505.63,-313.27C1517.08,-316.76 1528.65,-321.13 1539,-326.55 1594.99,-355.91 1648.52,-408.52 1675.78,-437.67"/>
<polygon fill="#757575" stroke="#757575" points="1673,-439.82 1682.35,-444.8 1678.15,-435.07 1673,-439.82"/>
</g>
<!-- src/js/utils/shuffle.js -->
<g id="node41" class="node">
<title>src/js/utils/shuffle.js</title>
<path fill="none" stroke="#cfffac" d="M1756.83,-226.8C1756.83,-226.8 1634.17,-226.8 1634.17,-226.8 1630.08,-226.8 1626,-222.72 1626,-218.64 1626,-218.64 1626,-210.47 1626,-210.47 1626,-206.39 1630.08,-202.3 1634.17,-202.3 1634.17,-202.3 1756.83,-202.3 1756.83,-202.3 1760.92,-202.3 1765,-206.39 1765,-210.47 1765,-210.47 1765,-218.64 1765,-218.64 1765,-222.72 1760.92,-226.8 1756.83,-226.8"/>
<text text-anchor="middle" x="1695.5" y="-209.5" font-family="Arial" font-size="14.00" fill="#cfffac">src/js/utils/shuffle.js</text>
</g>
<!-- src/js/uno/deck.js&#45;&gt;src/js/utils/shuffle.js -->
<g id="edge68" class="edge">
<title>src/js/uno/deck.js&#45;&gt;src/js/utils/shuffle.js</title>
<path fill="none" stroke="#757575" d="M1504.09,-214.55C1537.3,-214.55 1578.56,-214.55 1614.18,-214.55"/>
<polygon fill="#757575" stroke="#757575" points="1614.02,-218.05 1624.02,-214.55 1614.02,-211.05 1614.02,-218.05"/>
</g>
<!-- src/js/uno/player.js&#45;&gt;src/js/uno/basic.js -->
<g id="edge74" class="edge">
<title>src/js/uno/player.js&#45;&gt;src/js/uno/basic.js</title>
<path fill="none" stroke="#757575" d="M1507.96,-254.93C1582.76,-251.67 1708.31,-245.3 1816,-235.55 1845.01,-232.93 1876.83,-229.22 1904.62,-225.71"/>
<polygon fill="#757575" stroke="#757575" points="1904.88,-229.21 1914.35,-224.47 1903.99,-222.26 1904.88,-229.21"/>
</g>
<!-- src/js/utils/ellipse.js -->
<g id="node43" class="node">
<title>src/js/utils/ellipse.js</title>
<path fill="none" stroke="#cfffac" d="M163.46,-963.8C163.46,-963.8 42.29,-963.8 42.29,-963.8 38.21,-963.8 34.12,-959.72 34.12,-955.64 34.12,-955.64 34.12,-947.47 34.12,-947.47 34.12,-943.39 38.21,-939.3 42.29,-939.3 42.29,-939.3 163.46,-939.3 163.46,-939.3 167.54,-939.3 171.62,-943.39 171.62,-947.47 171.62,-947.47 171.62,-955.64 171.62,-955.64 171.62,-959.72 167.54,-963.8 163.46,-963.8"/>
<text text-anchor="middle" x="102.88" y="-946.5" font-family="Arial" font-size="14.00" fill="#cfffac">src/js/utils/ellipse.js</text>
</g>
<!-- src/js/utils/enum.js -->
<g id="node44" class="node">
<title>src/js/utils/enum.js</title>
<path fill="none" stroke="#cfffac" d="M160.46,-1006.8C160.46,-1006.8 45.29,-1006.8 45.29,-1006.8 41.21,-1006.8 37.12,-1002.72 37.12,-998.64 37.12,-998.64 37.12,-990.47 37.12,-990.47 37.12,-986.39 41.21,-982.3 45.29,-982.3 45.29,-982.3 160.46,-982.3 160.46,-982.3 164.54,-982.3 168.62,-986.39 168.62,-990.47 168.62,-990.47 168.62,-998.64 168.62,-998.64 168.62,-1002.72 164.54,-1006.8 160.46,-1006.8"/>
<text text-anchor="middle" x="102.88" y="-989.5" font-family="Arial" font-size="14.00" fill="#cfffac">src/js/utils/enum.js</text>
</g>
<!-- src/js/utils/queue.js -->
<g id="node45" class="node">
<title>src/js/utils/queue.js</title>
<path fill="none" stroke="#cfffac" d="M162.71,-1049.8C162.71,-1049.8 43.04,-1049.8 43.04,-1049.8 38.96,-1049.8 34.88,-1045.72 34.88,-1041.64 34.88,-1041.64 34.88,-1033.47 34.88,-1033.47 34.88,-1029.39 38.96,-1025.3 43.04,-1025.3 43.04,-1025.3 162.71,-1025.3 162.71,-1025.3 166.79,-1025.3 170.88,-1029.39 170.88,-1033.47 170.88,-1033.47 170.88,-1041.64 170.88,-1041.64 170.88,-1045.72 166.79,-1049.8 162.71,-1049.8"/>
<text text-anchor="middle" x="102.88" y="-1032.5" font-family="Arial" font-size="14.00" fill="#cfffac">src/js/utils/queue.js</text>
</g>
<!-- src/js/utils/unused.js -->
<g id="node46" class="node">
<title>src/js/utils/unused.js</title>
<path fill="none" stroke="#cfffac" d="M753.08,-423.8C753.08,-423.8 626.67,-423.8 626.67,-423.8 622.58,-423.8 618.5,-419.72 618.5,-415.64 618.5,-415.64 618.5,-407.47 618.5,-407.47 618.5,-403.39 622.58,-399.3 626.67,-399.3 626.67,-399.3 753.08,-399.3 753.08,-399.3 757.17,-399.3 761.25,-403.39 761.25,-407.47 761.25,-407.47 761.25,-415.64 761.25,-415.64 761.25,-419.72 757.17,-423.8 753.08,-423.8"/>
<text text-anchor="middle" x="689.88" y="-406.5" font-family="Arial" font-size="14.00" fill="#cfffac">src/js/utils/unused.js</text>
</g>
<!-- src/js/views/media.js -->
<g id="node47" class="node">
<title>src/js/views/media.js</title>
<path fill="none" stroke="#cfffac" d="M167.58,-1092.8C167.58,-1092.8 38.17,-1092.8 38.17,-1092.8 34.08,-1092.8 30,-1088.72 30,-1084.64 30,-1084.64 30,-1076.47 30,-1076.47 30,-1072.39 34.08,-1068.3 38.17,-1068.3 38.17,-1068.3 167.58,-1068.3 167.58,-1068.3 171.67,-1068.3 175.75,-1072.39 175.75,-1076.47 175.75,-1076.47 175.75,-1084.64 175.75,-1084.64 175.75,-1088.72 171.67,-1092.8 167.58,-1092.8"/>
<text text-anchor="middle" x="102.88" y="-1075.5" font-family="Arial" font-size="14.00" fill="#cfffac">src/js/views/media.js</text>
</g>
<!-- src/sw.js -->
<g id="node48" class="node">
<title>src/sw.js</title>
<path fill="none" stroke="#cfffac" d="M130.08,-1135.8C130.08,-1135.8 75.67,-1135.8 75.67,-1135.8 71.58,-1135.8 67.5,-1131.72 67.5,-1127.64 67.5,-1127.64 67.5,-1119.47 67.5,-1119.47 67.5,-1115.39 71.58,-1111.3 75.67,-1111.3 75.67,-1111.3 130.08,-1111.3 130.08,-1111.3 134.17,-1111.3 138.25,-1115.39 138.25,-1119.47 138.25,-1119.47 138.25,-1127.64 138.25,-1127.64 138.25,-1131.72 134.17,-1135.8 130.08,-1135.8"/>
<text text-anchor="middle" x="102.88" y="-1118.5" font-family="Arial" font-size="14.00" fill="#cfffac">src/sw.js</text>
</g>
<!-- tests/helper/clicker.js -->
<g id="node49" class="node">
<title>tests/helper/clicker.js</title>
<path fill="none" stroke="#cfffac" d="M756.08,-466.8C756.08,-466.8 623.67,-466.8 623.67,-466.8 619.58,-466.8 615.5,-462.72 615.5,-458.64 615.5,-458.64 615.5,-450.47 615.5,-450.47 615.5,-446.39 619.58,-442.3 623.67,-442.3 623.67,-442.3 756.08,-442.3 756.08,-442.3 760.17,-442.3 764.25,-446.39 764.25,-450.47 764.25,-450.47 764.25,-458.64 764.25,-458.64 764.25,-462.72 760.17,-466.8 756.08,-466.8"/>
<text text-anchor="middle" x="689.88" y="-449.5" font-family="Arial" font-size="14.00" fill="#cfffac">tests/helper/clicker.js</text>
</g>
<!-- tests/html_game/ai.test.js -->
<g id="node50" class="node">
<title>tests/html_game/ai.test.js</title>
<path fill="none" stroke="#c6c5fe" d="M481.33,-629.8C481.33,-629.8 321.17,-629.8 321.17,-629.8 317.08,-629.8 313,-625.72 313,-621.64 313,-621.64 313,-613.47 313,-613.47 313,-609.39 317.08,-605.3 321.17,-605.3 321.17,-605.3 481.33,-605.3 481.33,-605.3 485.42,-605.3 489.5,-609.39 489.5,-613.47 489.5,-613.47 489.5,-621.64 489.5,-621.64 489.5,-625.72 485.42,-629.8 481.33,-629.8"/>
<text text-anchor="middle" x="401.25" y="-612.5" font-family="Arial" font-size="14.00" fill="#c6c5fe">tests/html_game/ai.test.js</text>
</g>
<!-- tests/html_game/ai.test.js&#45;&gt;src/js/utils/timer.js -->
<g id="edge83" class="edge">
<title>tests/html_game/ai.test.js&#45;&gt;src/js/utils/timer.js</title>
<path fill="none" stroke="#757575" d="M489.96,-606.02C513.01,-602.81 537.84,-599.2 560.75,-595.55 659.86,-579.76 696.77,-606.9 783,-555.55 805.01,-542.45 796.33,-522.48 819,-510.55 922.33,-456.2 1226.43,-479.1 1343,-472.55 1438.65,-467.18 1549.05,-463.14 1620.21,-460.81"/>
<polygon fill="#757575" stroke="#757575" points="1619.9,-464.32 1629.78,-460.5 1619.67,-457.32 1619.9,-464.32"/>
</g>
<!-- tests/html_game/ai.test.js&#45;&gt;src/js/game.js -->
<g id="edge80" class="edge">
<title>tests/html_game/ai.test.js&#45;&gt;src/js/game.js</title>
<path fill="none" stroke="#757575" d="M489.8,-623.66C533.86,-626.74 586.24,-630.39 626.21,-633.18"/>
<polygon fill="#757575" stroke="#757575" points="625.93,-636.67 636.15,-633.87 626.42,-629.69 625.93,-636.67"/>
</g>
<!-- tests/html_game/ai.test.js&#45;&gt;src/js/mode/ai.js -->
<g id="edge81" class="edge">
<title>tests/html_game/ai.test.js&#45;&gt;src/js/mode/ai.js</title>
<path fill="none" stroke="#757575" d="M489.71,-617.64C513.98,-620.78 539.48,-627.22 560.75,-639.55 619.25,-673.49 660.32,-745.6 678.45,-782.6"/>
<polygon fill="#757575" stroke="#757575" points="675.23,-783.98 682.68,-791.51 681.55,-780.97 675.23,-783.98"/>
</g>
<!-- tests/html_game/ai.test.js&#45;&gt;src/js/settings.js -->
<g id="edge82" class="edge">
<title>tests/html_game/ai.test.js&#45;&gt;src/js/settings.js</title>
<path fill="none" stroke="#757575" d="M489.88,-615.32C513.77,-612.11 539.04,-606.17 560.75,-595.55 580.8,-585.75 577.42,-571.7 596.75,-560.55 604.06,-556.34 612.09,-552.77 620.27,-549.76"/>
<polygon fill="#757575" stroke="#757575" points="621.27,-553.12 629.63,-546.61 619.03,-546.49 621.27,-553.12"/>
</g>
<!-- tests/html_game/color_chooser.test.js -->
<g id="node51" class="node">
<title>tests/html_game/color_chooser.test.js</title>
<path fill="none" stroke="#c6c5fe" d="M521.83,-463.8C521.83,-463.8 280.67,-463.8 280.67,-463.8 276.58,-463.8 272.5,-459.72 272.5,-455.64 272.5,-455.64 272.5,-447.47 272.5,-447.47 272.5,-443.39 276.58,-439.3 280.67,-439.3 280.67,-439.3 521.83,-439.3 521.83,-439.3 525.92,-439.3 530,-443.39 530,-447.47 530,-447.47 530,-455.64 530,-455.64 530,-459.72 525.92,-463.8 521.83,-463.8"/>
<text text-anchor="middle" x="401.25" y="-446.5" font-family="Arial" font-size="14.00" fill="#c6c5fe">tests/html_game/color_chooser.test.js</text>
</g>
<!-- tests/html_game/color_chooser.test.js&#45;&gt;src/js/utils/timer.js -->
<g id="edge86" class="edge">
<title>tests/html_game/color_chooser.test.js&#45;&gt;src/js/utils/timer.js</title>
<path fill="none" stroke="#757575" d="M436.56,-438.89C475.06,-425.13 539.61,-403.41 596.75,-390.55 905.02,-321.21 992.61,-328.03 1307,-359.55 1411.68,-370.05 1437.37,-379.37 1539,-406.55 1576.84,-416.67 1618.93,-430.94 1649.76,-441.97"/>
<polygon fill="#757575" stroke="#757575" points="1648.57,-445.26 1659.16,-445.36 1650.94,-438.67 1648.57,-445.26"/>
</g>
<!-- tests/html_game/color_chooser.test.js&#45;&gt;src/js/game.js -->
<g id="edge84" class="edge">
<title>tests/html_game/color_chooser.test.js&#45;&gt;src/js/game.js</title>
<path fill="none" stroke="#757575" d="M530.24,-457.36C541.18,-461.32 551.55,-466.6 560.75,-473.55 592.5,-497.56 573.35,-523.36 596.75,-555.55 614.71,-580.26 641.26,-602.89 661.25,-618.09"/>
<polygon fill="#757575" stroke="#757575" points="659.14,-620.89 669.26,-624.03 663.31,-615.26 659.14,-620.89"/>
</g>
<!-- tests/html_game/color_chooser.test.js&#45;&gt;src/js/settings.js -->
<g id="edge85" class="edge">
<title>tests/html_game/color_chooser.test.js&#45;&gt;src/js/settings.js</title>
<path fill="none" stroke="#757575" d="M522.52,-464.27C535.55,-466.82 548.51,-469.88 560.75,-473.55 595.39,-483.93 632.43,-502.46 657.72,-516.38"/>
<polygon fill="#757575" stroke="#757575" points="655.72,-519.27 666.15,-521.1 659.14,-513.17 655.72,-519.27"/>
</g>
<!-- tests/html_game/color_chooser.test.js&#45;&gt;src/js/utils/unused.js -->
<g id="edge87" class="edge">
<title>tests/html_game/color_chooser.test.js&#45;&gt;src/js/utils/unused.js</title>
<path fill="none" stroke="#757575" d="M493.33,-438.84C529.72,-433.76 571.31,-427.96 606.75,-423.01"/>
<polygon fill="#757575" stroke="#757575" points="607.11,-426.5 616.53,-421.65 606.14,-419.56 607.11,-426.5"/>
</g>
<!-- tests/html_game/color_chooser.test.js&#45;&gt;tests/helper/clicker.js -->
<g id="edge88" class="edge">
<title>tests/html_game/color_chooser.test.js&#45;&gt;tests/helper/clicker.js</title>
<path fill="none" stroke="#757575" d="M530.47,-452.9C555.34,-453.16 580.81,-453.42 603.87,-453.66"/>
<polygon fill="#757575" stroke="#757575" points="603.78,-457.16 613.81,-453.77 603.85,-450.16 603.78,-457.16"/>
</g>
<!-- tests/html_game/game.test.js -->
<g id="node52" class="node">
<title>tests/html_game/game.test.js</title>
<path fill="none" stroke="#c6c5fe" d="M494.08,-586.8C494.08,-586.8 308.42,-586.8 308.42,-586.8 304.33,-586.8 300.25,-582.72 300.25,-578.64 300.25,-578.64 300.25,-570.47 300.25,-570.47 300.25,-566.39 304.33,-562.3 308.42,-562.3 308.42,-562.3 494.08,-562.3 494.08,-562.3 498.17,-562.3 502.25,-566.39 502.25,-570.47 502.25,-570.47 502.25,-578.64 502.25,-578.64 502.25,-582.72 498.17,-586.8 494.08,-586.8"/>
<text text-anchor="middle" x="401.25" y="-569.5" font-family="Arial" font-size="14.00" fill="#c6c5fe">tests/html_game/game.test.js</text>
</g>
<!-- tests/html_game/game.test.js&#45;&gt;src/js/game.js -->
<g id="edge89" class="edge">
<title>tests/html_game/game.test.js&#45;&gt;src/js/game.js</title>
<path fill="none" stroke="#757575" d="M502.49,-585.81C521.93,-588.74 542.06,-592.3 560.75,-596.55 588.89,-602.96 619.72,-612.73 644.08,-621.13"/>
<polygon fill="#757575" stroke="#757575" points="642.76,-624.38 653.36,-624.38 645.08,-617.77 642.76,-624.38"/>
</g>
<!-- tests/html_game/game.test.js&#45;&gt;src/js/settings.js -->
<g id="edge90" class="edge">
<title>tests/html_game/game.test.js&#45;&gt;src/js/settings.js</title>
<path fill="none" stroke="#757575" d="M493.33,-561.84C534.36,-556.12 582.01,-549.47 619.99,-544.17"/>
<polygon fill="#757575" stroke="#757575" points="620.03,-547.7 629.45,-542.85 619.06,-540.76 620.03,-547.7"/>
</g>
<!-- tests/html_game/hotseat.test.js -->
<g id="node53" class="node">
<title>tests/html_game/hotseat.test.js</title>
<path fill="none" stroke="#c6c5fe" d="M499.33,-672.8C499.33,-672.8 303.17,-672.8 303.17,-672.8 299.08,-672.8 295,-668.72 295,-664.64 295,-664.64 295,-656.47 295,-656.47 295,-652.39 299.08,-648.3 303.17,-648.3 303.17,-648.3 499.33,-648.3 499.33,-648.3 503.42,-648.3 507.5,-652.39 507.5,-656.47 507.5,-656.47 507.5,-664.64 507.5,-664.64 507.5,-668.72 503.42,-672.8 499.33,-672.8"/>
<text text-anchor="middle" x="401.25" y="-655.5" font-family="Arial" font-size="14.00" fill="#c6c5fe">tests/html_game/hotseat.test.js</text>
</g>
<!-- tests/html_game/hotseat.test.js&#45;&gt;src/js/game.js -->
<g id="edge91" class="edge">
<title>tests/html_game/hotseat.test.js&#45;&gt;src/js/game.js</title>
<path fill="none" stroke="#757575" d="M507.76,-652.09C547.63,-648.89 591.7,-645.35 626.38,-642.57"/>
<polygon fill="#757575" stroke="#757575" points="626.57,-646.06 636.26,-641.78 626.01,-639.09 626.57,-646.06"/>
</g>
<!-- tests/html_game/hotseat.test.js&#45;&gt;src/js/mode/hotseat.js -->
<g id="edge92" class="edge">
<title>tests/html_game/hotseat.test.js&#45;&gt;src/js/mode/hotseat.js</title>
<path fill="none" stroke="#757575" d="M507.95,-657.76C527.35,-661.81 546.08,-669.37 560.75,-682.55 609.83,-726.64 549.86,-780.15 596.75,-826.55 598.6,-828.39 600.58,-830.08 602.65,-831.63"/>
<polygon fill="#757575" stroke="#757575" points="600.71,-834.55 611.05,-836.85 604.41,-828.6 600.71,-834.55"/>
</g>
<!-- tests/html_game/hotseat.test.js&#45;&gt;src/js/settings.js -->
<g id="edge93" class="edge">
<title>tests/html_game/hotseat.test.js&#45;&gt;src/js/settings.js</title>
<path fill="none" stroke="#757575" d="M507.63,-654.1C525.82,-650.71 544.19,-645.75 560.75,-638.55 584.19,-628.37 637.18,-581.88 667.15,-554.62"/>
<polygon fill="#757575" stroke="#757575" points="669.17,-557.52 674.19,-548.19 664.44,-552.36 669.17,-557.52"/>
</g>
<!-- tests/html_game/modes_without_network.test.js -->
<g id="node54" class="node">
<title>tests/html_game/modes_without_network.test.js</title>
<path fill="none" stroke="#c6c5fe" d="M552.58,-506.8C552.58,-506.8 249.92,-506.8 249.92,-506.8 245.83,-506.8 241.75,-502.72 241.75,-498.64 241.75,-498.64 241.75,-490.47 241.75,-490.47 241.75,-486.39 245.83,-482.3 249.92,-482.3 249.92,-482.3 552.58,-482.3 552.58,-482.3 556.67,-482.3 560.75,-486.39 560.75,-490.47 560.75,-490.47 560.75,-498.64 560.75,-498.64 560.75,-502.72 556.67,-506.8 552.58,-506.8"/>
<text text-anchor="middle" x="401.25" y="-489.5" font-family="Arial" font-size="14.00" fill="#c6c5fe">tests/html_game/modes_without_network.test.js</text>
</g>
<!-- tests/html_game/modes_without_network.test.js&#45;&gt;src/js/utils/timer.js -->
<g id="edge96" class="edge">
<title>tests/html_game/modes_without_network.test.js&#45;&gt;src/js/utils/timer.js</title>
<path fill="none" stroke="#757575" d="M561.07,-491.67C629.54,-489.12 710.4,-484.38 783,-475.55 799.18,-473.59 802.85,-470.75 819,-468.55 1136.25,-425.39 1219.14,-430.18 1539,-444.55 1565.54,-445.75 1594.54,-448.08 1620.24,-450.5"/>
<polygon fill="#757575" stroke="#757575" points="1619.62,-453.96 1629.91,-451.43 1620.29,-446.99 1619.62,-453.96"/>
</g>
<!-- tests/html_game/modes_without_network.test.js&#45;&gt;src/js/game.js -->
<g id="edge94" class="edge">
<title>tests/html_game/modes_without_network.test.js&#45;&gt;src/js/game.js</title>
<path fill="none" stroke="#757575" d="M444.04,-507.26C476.64,-517.85 522.63,-534.27 560.75,-553.55 598.05,-572.42 637.83,-599.77 663,-618.09"/>
<polygon fill="#757575" stroke="#757575" points="660.86,-620.86 670.99,-623.97 665.01,-615.22 660.86,-620.86"/>
</g>
<!-- tests/html_game/modes_without_network.test.js&#45;&gt;src/js/settings.js -->
<g id="edge95" class="edge">
<title>tests/html_game/modes_without_network.test.js&#45;&gt;src/js/settings.js</title>
<path fill="none" stroke="#757575" d="M493.33,-507.26C534.36,-512.99 582.01,-519.64 619.99,-524.94"/>
<polygon fill="#757575" stroke="#757575" points="619.06,-528.34 629.45,-526.26 620.03,-521.41 619.06,-528.34"/>
</g>
<!-- tests/html_game/modes_without_network.test.js&#45;&gt;tests/helper/clicker.js -->
<g id="edge97" class="edge">
<title>tests/html_game/modes_without_network.test.js&#45;&gt;tests/helper/clicker.js</title>
<path fill="none" stroke="#757575" d="M494.03,-481.84C515.9,-478.8 539.15,-475.57 560.75,-472.55 574.62,-470.62 589.33,-468.56 603.65,-466.55"/>
<polygon fill="#757575" stroke="#757575" points="604.11,-470.02 613.53,-465.16 603.14,-463.08 604.11,-470.02"/>
</g>
<!-- tests/html_game/net.test.js -->
<g id="node55" class="node">
<title>tests/html_game/net.test.js</title>
<path fill="none" stroke="#c6c5fe" d="M485.83,-758.8C485.83,-758.8 316.67,-758.8 316.67,-758.8 312.58,-758.8 308.5,-754.72 308.5,-750.64 308.5,-750.64 308.5,-742.47 308.5,-742.47 308.5,-738.39 312.58,-734.3 316.67,-734.3 316.67,-734.3 485.83,-734.3 485.83,-734.3 489.92,-734.3 494,-738.39 494,-742.47 494,-742.47 494,-750.64 494,-750.64 494,-754.72 489.92,-758.8 485.83,-758.8"/>
<text text-anchor="middle" x="401.25" y="-741.5" font-family="Arial" font-size="14.00" fill="#c6c5fe">tests/html_game/net.test.js</text>
</g>
<!-- tests/html_game/net.test.js&#45;&gt;src/js/game.js -->
<g id="edge98" class="edge">
<title>tests/html_game/net.test.js&#45;&gt;src/js/game.js</title>
<path fill="none" stroke="#757575" d="M494.16,-741.03C516.46,-737.74 539.88,-732.58 560.75,-724.55 601.69,-708.8 642.49,-677.79 666.7,-657.37"/>
<polygon fill="#757575" stroke="#757575" points="668.68,-660.28 673.98,-651.1 664.12,-654.97 668.68,-660.28"/>
</g>
<!-- tests/html_game/net.test.js&#45;&gt;src/js/mode/net.js -->
<g id="edge99" class="edge">
<title>tests/html_game/net.test.js&#45;&gt;src/js/mode/net.js</title>
<path fill="none" stroke="#757575" d="M425.6,-759.18C459.33,-778.43 521.92,-818.06 560.75,-866.55 584.87,-896.67 571.25,-916.6 596.75,-945.55 611.2,-961.95 631.51,-975.21 649.38,-984.79"/>
<polygon fill="#757575" stroke="#757575" points="647.72,-987.88 658.22,-989.32 650.91,-981.65 647.72,-987.88"/>
</g>
<!-- tests/html_game/net.test.js&#45;&gt;src/js/settings.js -->
<g id="edge100" class="edge">
<title>tests/html_game/net.test.js&#45;&gt;src/js/settings.js</title>
<path fill="none" stroke="#757575" d="M494.39,-750.59C518.18,-747.41 542.27,-739.91 560.75,-724.55 599.66,-692.21 568.91,-658.8 596.75,-616.55 613.53,-591.09 640.16,-568.57 660.48,-553.61"/>
<polygon fill="#757575" stroke="#757575" points="662.27,-556.63 668.37,-547.97 658.2,-550.94 662.27,-556.63"/>
</g>
<!-- tests/html_game/qrcode.test.js -->
<g id="node56" class="node">
<title>tests/html_game/qrcode.test.js</title>
<path fill="none" stroke="#c6c5fe" d="M498.58,-382.8C498.58,-382.8 303.92,-382.8 303.92,-382.8 299.83,-382.8 295.75,-378.72 295.75,-374.64 295.75,-374.64 295.75,-366.47 295.75,-366.47 295.75,-362.39 299.83,-358.3 303.92,-358.3 303.92,-358.3 498.58,-358.3 498.58,-358.3 502.67,-358.3 506.75,-362.39 506.75,-366.47 506.75,-366.47 506.75,-374.64 506.75,-374.64 506.75,-378.72 502.67,-382.8 498.58,-382.8"/>
<text text-anchor="middle" x="401.25" y="-365.5" font-family="Arial" font-size="14.00" fill="#c6c5fe">tests/html_game/qrcode.test.js</text>
</g>
<!-- tests/html_game/qrcode.test.js&#45;&gt;src/js/views/qr_helper.js -->
<g id="edge102" class="edge">
<title>tests/html_game/qrcode.test.js&#45;&gt;src/js/views/qr_helper.js</title>
<path fill="none" stroke="#757575" d="M507.09,-372.46C608.52,-374.3 760.84,-377.07 858.52,-378.84"/>
<polygon fill="#757575" stroke="#757575" points="858.28,-382.34 868.34,-379.02 858.41,-375.34 858.28,-382.34"/>
</g>
<!-- tests/html_game/qrcode.test.js&#45;&gt;src/js/settings.js -->
<g id="edge101" class="edge">
<title>tests/html_game/qrcode.test.js&#45;&gt;src/js/settings.js</title>
<path fill="none" stroke="#757575" d="M456.42,-383.28C488.81,-392.7 529.58,-407.88 560.75,-430.55 581.46,-445.62 577.71,-458.42 596.75,-475.55 614.3,-491.35 636.52,-505.71 654.75,-516.31"/>
<polygon fill="#757575" stroke="#757575" points="652.94,-519.31 663.36,-521.2 656.39,-513.22 652.94,-519.31"/>
</g>
<!-- tests/html_game/server.test.js -->
<g id="node57" class="node">
<title>tests/html_game/server.test.js</title>
<path fill="none" stroke="#c6c5fe" d="M495.96,-715.8C495.96,-715.8 306.54,-715.8 306.54,-715.8 302.46,-715.8 298.38,-711.72 298.38,-707.64 298.38,-707.64 298.38,-699.47 298.38,-699.47 298.38,-695.39 302.46,-691.3 306.54,-691.3 306.54,-691.3 495.96,-691.3 495.96,-691.3 500.04,-691.3 504.12,-695.39 504.12,-699.47 504.12,-699.47 504.12,-707.64 504.12,-707.64 504.12,-711.72 500.04,-715.8 495.96,-715.8"/>
<text text-anchor="middle" x="401.25" y="-698.5" font-family="Arial" font-size="14.00" fill="#c6c5fe">tests/html_game/server.test.js</text>
</g>
<!-- tests/html_game/server.test.js&#45;&gt;src/js/game.js -->
<g id="edge103" class="edge">
<title>tests/html_game/server.test.js&#45;&gt;src/js/game.js</title>
<path fill="none" stroke="#757575" d="M504.26,-692.35C523.16,-689.44 542.65,-685.88 560.75,-681.55 590.14,-674.54 622.31,-663.48 647.05,-654.2"/>
<polygon fill="#757575" stroke="#757575" points="648,-657.59 656.11,-650.76 645.52,-651.05 648,-657.59"/>
</g>
<!-- tests/html_game/server.test.js&#45;&gt;src/js/mode/server.js -->
<g id="edge104" class="edge">
<title>tests/html_game/server.test.js&#45;&gt;src/js/mode/server.js</title>
<path fill="none" stroke="#757575" d="M504.25,-700.04C524.96,-703.87 545.15,-711.54 560.75,-725.55 609.83,-769.64 557.42,-816.59 596.75,-869.55 608.82,-885.8 627.24,-898.17 644.45,-907.02"/>
<polygon fill="#757575" stroke="#757575" points="642.5,-909.96 653.02,-911.17 645.55,-903.66 642.5,-909.96"/>
</g>
<!-- tests/html_game/server.test.js&#45;&gt;src/js/settings.js -->
<g id="edge105" class="edge">
<title>tests/html_game/server.test.js&#45;&gt;src/js/settings.js</title>
<path fill="none" stroke="#757575" d="M504.22,-703.41C524.23,-699.66 544.14,-692.95 560.75,-681.55 587.98,-662.87 576.12,-642.34 596.75,-616.55 615.94,-592.56 642.57,-569.69 662.26,-554.24"/>
<polygon fill="#757575" stroke="#757575" points="664.32,-557.07 670.11,-548.19 660.05,-551.52 664.32,-557.07"/>
</g>
<!-- tests/html_game/starter.test.js -->
<g id="node58" class="node">
<title>tests/html_game/starter.test.js</title>
<path fill="none" stroke="#c6c5fe" d="M197.58,-758.8C197.58,-758.8 8.17,-758.8 8.17,-758.8 4.08,-758.8 0,-754.72 0,-750.64 0,-750.64 0,-742.47 0,-742.47 0,-738.39 4.08,-734.3 8.17,-734.3 8.17,-734.3 197.58,-734.3 197.58,-734.3 201.67,-734.3 205.75,-738.39 205.75,-742.47 205.75,-742.47 205.75,-750.64 205.75,-750.64 205.75,-754.72 201.67,-758.8 197.58,-758.8"/>
<text text-anchor="middle" x="102.88" y="-741.5" font-family="Arial" font-size="14.00" fill="#c6c5fe">tests/html_game/starter.test.js</text>
</g>
<!-- tests/html_game/starter.test.js&#45;&gt;src/js/starter.js -->
<g id="edge107" class="edge">
<title>tests/html_game/starter.test.js&#45;&gt;src/js/starter.js</title>
<path fill="none" stroke="#757575" d="M130.44,-759.19C183.51,-784.44 302.78,-841.18 363.38,-870.01"/>
<polygon fill="#757575" stroke="#757575" points="361.74,-873.11 372.27,-874.24 364.75,-866.79 361.74,-873.11"/>
</g>
<!-- tests/html_game/starter.test.js&#45;&gt;src/js/settings.js -->
<g id="edge106" class="edge">
<title>tests/html_game/starter.test.js&#45;&gt;src/js/settings.js</title>
<path fill="none" stroke="#757575" d="M108.36,-733.83C121.86,-697.74 165.9,-594.65 241.75,-553.55 305.01,-519.28 510.74,-524.65 619.7,-530.24"/>
<polygon fill="#757575" stroke="#757575" points="619.21,-533.72 629.39,-530.76 619.58,-526.73 619.21,-533.72"/>
</g>
<!-- tests/manual/layout.js -->
<g id="node59" class="node">
<title>tests/manual/layout.js</title>
<path fill="none" stroke="#c6c5fe" d="M1282.71,-274.8C1282.71,-274.8 1148.79,-274.8 1148.79,-274.8 1144.71,-274.8 1140.62,-270.72 1140.62,-266.64 1140.62,-266.64 1140.62,-258.47 1140.62,-258.47 1140.62,-254.39 1144.71,-250.3 1148.79,-250.3 1148.79,-250.3 1282.71,-250.3 1282.71,-250.3 1286.79,-250.3 1290.88,-254.39 1290.88,-258.47 1290.88,-258.47 1290.88,-266.64 1290.88,-266.64 1290.88,-270.72 1286.79,-274.8 1282.71,-274.8"/>
<text text-anchor="middle" x="1215.75" y="-257.5" font-family="Arial" font-size="14.00" fill="#c6c5fe">tests/manual/layout.js</text>
</g>
<!-- tests/manual/layout.js&#45;&gt;src/js/views/layout.js -->
<g id="edge108" class="edge">
<title>tests/manual/layout.js&#45;&gt;src/js/views/layout.js</title>
<path fill="none" stroke="#757575" d="M1291.09,-275.21C1312.48,-278.85 1335.93,-282.84 1357.76,-286.55"/>
<polygon fill="#757575" stroke="#757575" points="1357.07,-289.99 1367.52,-288.22 1358.25,-283.09 1357.07,-289.99"/>
</g>
<!-- tests/uno/basic.test.js -->
<g id="node60" class="node">
<title>tests/uno/basic.test.js</title>
<path fill="none" stroke="#c6c5fe" d="M1763.58,-70.8C1763.58,-70.8 1627.42,-70.8 1627.42,-70.8 1623.33,-70.8 1619.25,-66.72 1619.25,-62.64 1619.25,-62.64 1619.25,-54.47 1619.25,-54.47 1619.25,-50.39 1623.33,-46.3 1627.42,-46.3 1627.42,-46.3 1763.58,-46.3 1763.58,-46.3 1767.67,-46.3 1771.75,-50.39 1771.75,-54.47 1771.75,-54.47 1771.75,-62.64 1771.75,-62.64 1771.75,-66.72 1767.67,-70.8 1763.58,-70.8"/>
<text text-anchor="middle" x="1695.5" y="-53.5" font-family="Arial" font-size="14.00" fill="#c6c5fe">tests/uno/basic.test.js</text>
</g>
<!-- tests/uno/basic.test.js&#45;&gt;src/js/uno/basic.js -->
<g id="edge109" class="edge">
<title>tests/uno/basic.test.js&#45;&gt;src/js/uno/basic.js</title>
<path fill="none" stroke="#757575" d="M1772.21,-69.5C1787.14,-73.17 1802.39,-78.06 1816,-84.55 1874.88,-112.64 1931.49,-165.71 1960.08,-194.95"/>
<polygon fill="#757575" stroke="#757575" points="1957.52,-197.33 1966.97,-202.11 1962.56,-192.48 1957.52,-197.33"/>
</g>
<!-- tests/uno/bot.test.js -->
<g id="node61" class="node">
<title>tests/uno/bot.test.js</title>
<path fill="none" stroke="#c6c5fe" d="M462.58,-250.8C462.58,-250.8 339.92,-250.8 339.92,-250.8 335.83,-250.8 331.75,-246.72 331.75,-242.64 331.75,-242.64 331.75,-234.47 331.75,-234.47 331.75,-230.39 335.83,-226.3 339.92,-226.3 339.92,-226.3 462.58,-226.3 462.58,-226.3 466.67,-226.3 470.75,-230.39 470.75,-234.47 470.75,-234.47 470.75,-242.64 470.75,-242.64 470.75,-246.72 466.67,-250.8 462.58,-250.8"/>
<text text-anchor="middle" x="401.25" y="-233.5" font-family="Arial" font-size="14.00" fill="#c6c5fe">tests/uno/bot.test.js</text>
</g>
<!-- tests/uno/bot.test.js&#45;&gt;src/js/bot/simple.bot.js -->
<g id="edge110" class="edge">
<title>tests/uno/bot.test.js&#45;&gt;src/js/bot/simple.bot.js</title>
<path fill="none" stroke="#757575" d="M470.97,-237.94C625.32,-238.65 1009.26,-252.06 1307,-359.55 1456.67,-413.59 1611.7,-528.91 1670.21,-574.96"/>
<polygon fill="#757575" stroke="#757575" points="1667.87,-577.58 1677.88,-581.05 1672.22,-572.09 1667.87,-577.58"/>
</g>
<!-- tests/uno/bot.test.js&#45;&gt;src/js/uno/basic.js -->
<g id="edge112" class="edge">
<title>tests/uno/bot.test.js&#45;&gt;src/js/uno/basic.js</title>
<path fill="none" stroke="#757575" d="M470.49,-225.86C507.72,-219.22 554.67,-211.29 596.75,-205.55 695.14,-192.13 720.15,-192.04 819,-182.55 1260.09,-140.24 1377.08,-115.69 1816,-176.55 1852.95,-181.68 1893.76,-191.42 1925.36,-199.88"/>
<polygon fill="#757575" stroke="#757575" points="1924.1,-203.17 1934.66,-202.42 1925.93,-196.41 1924.1,-203.17"/>
</g>
<!-- tests/uno/bot.test.js&#45;&gt;src/js/utils/random.js -->
<g id="edge115" class="edge">
<title>tests/uno/bot.test.js&#45;&gt;src/js/utils/random.js</title>
<path fill="none" stroke="#757575" d="M471.21,-246.55C557.39,-260.32 703.22,-296.76 783,-390.55 830.79,-446.74 768.33,-498.95 819,-552.55 904.49,-642.99 981.57,-564.89 1088.5,-628.55 1108.21,-640.29 1104.41,-654.47 1124.5,-665.55 1282.23,-752.57 1496.32,-777.08 1612.05,-783.93"/>
<polygon fill="#757575" stroke="#757575" points="1611.58,-787.41 1621.76,-784.48 1611.97,-780.42 1611.58,-787.41"/>
</g>
<!-- tests/uno/bot.test.js&#45;&gt;src/js/uno/default&#45;engine.js -->
<g id="edge113" class="edge">
<title>tests/uno/bot.test.js&#45;&gt;src/js/uno/default&#45;engine.js</title>
<path fill="none" stroke="#757575" d="M426.39,-225.95C462.45,-207.7 532.99,-174.15 596.75,-156.55 680.27,-133.5 777.9,-120.75 849.77,-113.9"/>
<polygon fill="#757575" stroke="#757575" points="849.93,-117.4 859.57,-112.99 849.29,-110.43 849.93,-117.4"/>
</g>
<!-- tests/uno/bot.test.js&#45;&gt;src/js/settings.js -->
<g id="edge111" class="edge">
<title>tests/uno/bot.test.js&#45;&gt;src/js/settings.js</title>
<path fill="none" stroke="#757575" d="M431.1,-251.21C466.85,-268.37 527.12,-302.36 560.75,-349.55 594.55,-396.99 561.98,-428.83 596.75,-475.55 609.89,-493.21 630.02,-506.97 648.11,-516.75"/>
<polygon fill="#757575" stroke="#757575" points="646.33,-519.77 656.83,-521.22 649.52,-513.54 646.33,-519.77"/>
</g>
<!-- tests/uno/bot.test.js&#45;&gt;src/js/uno/engine.js -->
<g id="edge114" class="edge">
<title>tests/uno/bot.test.js&#45;&gt;src/js/uno/engine.js</title>
<path fill="none" stroke="#757575" d="M471.17,-233.29C621.22,-221.84 976.73,-194.72 1135.63,-182.59"/>
<polygon fill="#757575" stroke="#757575" points="1135.51,-186.11 1145.21,-181.86 1134.98,-179.13 1135.51,-186.11"/>
</g>
<!-- tests/uno/engine.test.js -->
<g id="node62" class="node">
<title>tests/uno/engine.test.js</title>
<path fill="none" stroke="#c6c5fe" d="M473.83,-87.8C473.83,-87.8 328.67,-87.8 328.67,-87.8 324.58,-87.8 320.5,-83.72 320.5,-79.64 320.5,-79.64 320.5,-71.47 320.5,-71.47 320.5,-67.39 324.58,-63.3 328.67,-63.3 328.67,-63.3 473.83,-63.3 473.83,-63.3 477.92,-63.3 482,-67.39 482,-71.47 482,-71.47 482,-79.64 482,-79.64 482,-83.72 477.92,-87.8 473.83,-87.8"/>
<text text-anchor="middle" x="401.25" y="-70.5" font-family="Arial" font-size="14.00" fill="#c6c5fe">tests/uno/engine.test.js</text>
</g>
<!-- tests/uno/engine.test.js&#45;&gt;src/js/uno/basic.js -->
<g id="edge117" class="edge">
<title>tests/uno/engine.test.js&#45;&gt;src/js/uno/basic.js</title>
<path fill="none" stroke="#757575" d="M454.74,-62.84C493.69,-53.95 548.22,-42.61 596.75,-36.55 753.95,-16.93 794.33,-18.55 952.75,-18.55 952.75,-18.55 952.75,-18.55 1442,-18.55 1608.44,-18.55 1665.38,33.26 1816,-37.55 1888.33,-71.56 1943.49,-153.54 1966.98,-193.25"/>
<polygon fill="#757575" stroke="#757575" points="1963.84,-194.82 1971.87,-201.73 1969.9,-191.32 1963.84,-194.82"/>
</g>
<!-- tests/uno/engine.test.js&#45;&gt;src/js/uno/default&#45;engine.js -->
<g id="edge118" class="edge">
<title>tests/uno/engine.test.js&#45;&gt;src/js/uno/default&#45;engine.js</title>
<path fill="none" stroke="#757575" d="M482.3,-80.06C579.4,-85.53 743.29,-94.76 849.73,-100.75"/>
<polygon fill="#757575" stroke="#757575" points="849.44,-104.24 859.62,-101.31 849.83,-97.25 849.44,-104.24"/>
</g>
<!-- tests/uno/engine.test.js&#45;&gt;src/js/settings.js -->
<g id="edge116" class="edge">
<title>tests/uno/engine.test.js&#45;&gt;src/js/settings.js</title>
<path fill="none" stroke="#757575" d="M424.36,-88.17C459.78,-109.68 528.53,-157.07 560.75,-217.55 615.18,-319.74 534.28,-378.07 596.75,-475.55 608.37,-493.68 627.77,-507.33 645.77,-516.9"/>
<polygon fill="#757575" stroke="#757575" points="643.99,-519.93 654.51,-521.26 647.12,-513.66 643.99,-519.93"/>
</g>
<!-- tests/uno/engine.test.js&#45;&gt;src/js/uno/engine.js -->
<g id="edge119" class="edge">
<title>tests/uno/engine.test.js&#45;&gt;src/js/uno/engine.js</title>
<path fill="none" stroke="#757575" d="M473.97,-62.83C601.46,-43.18 874.28,-14.67 1088.5,-85.55 1131.26,-99.7 1171.87,-134.01 1194.99,-156.23"/>
<polygon fill="#757575" stroke="#757575" points="1192.31,-158.49 1201.89,-163.02 1197.22,-153.51 1192.31,-158.49"/>
</g>
<!-- tests/uno/player.test.js -->
<g id="node63" class="node">
<title>tests/uno/player.test.js</title>
<path fill="none" stroke="#c6c5fe" d="M1286.08,-231.8C1286.08,-231.8 1145.42,-231.8 1145.42,-231.8 1141.33,-231.8 1137.25,-227.72 1137.25,-223.64 1137.25,-223.64 1137.25,-215.47 1137.25,-215.47 1137.25,-211.39 1141.33,-207.3 1145.42,-207.3 1145.42,-207.3 1286.08,-207.3 1286.08,-207.3 1290.17,-207.3 1294.25,-211.39 1294.25,-215.47 1294.25,-215.47 1294.25,-223.64 1294.25,-223.64 1294.25,-227.72 1290.17,-231.8 1286.08,-231.8"/>
<text text-anchor="middle" x="1215.75" y="-214.5" font-family="Arial" font-size="14.00" fill="#c6c5fe">tests/uno/player.test.js</text>
</g>
<!-- tests/uno/player.test.js&#45;&gt;src/js/uno/player.js -->
<g id="edge120" class="edge">
<title>tests/uno/player.test.js&#45;&gt;src/js/uno/player.js</title>
<path fill="none" stroke="#757575" d="M1291.4,-232.26C1314.38,-236.17 1339.73,-240.49 1362.87,-244.43"/>
<polygon fill="#757575" stroke="#757575" points="1362.1,-247.84 1372.55,-246.07 1363.28,-240.94 1362.1,-247.84"/>
</g>
<!-- tests/uno/random.test.js -->
<g id="node64" class="node">
<title>tests/uno/random.test.js</title>
<path fill="none" stroke="#c6c5fe" d="M1516.21,-900.8C1516.21,-900.8 1365.79,-900.8 1365.79,-900.8 1361.71,-900.8 1357.62,-896.72 1357.62,-892.64 1357.62,-892.64 1357.62,-884.47 1357.62,-884.47 1357.62,-880.39 1361.71,-876.3 1365.79,-876.3 1365.79,-876.3 1516.21,-876.3 1516.21,-876.3 1520.29,-876.3 1524.38,-880.39 1524.38,-884.47 1524.38,-884.47 1524.38,-892.64 1524.38,-892.64 1524.38,-896.72 1520.29,-900.8 1516.21,-900.8"/>
<text text-anchor="middle" x="1441" y="-883.5" font-family="Arial" font-size="14.00" fill="#c6c5fe">tests/uno/random.test.js</text>
</g>
<!-- tests/uno/random.test.js&#45;&gt;src/js/utils/random.js -->
<g id="edge121" class="edge">
<title>tests/uno/random.test.js&#45;&gt;src/js/utils/random.js</title>
<path fill="none" stroke="#757575" d="M1508.39,-875.84C1518.76,-873.19 1529.26,-870.1 1539,-866.55 1584.62,-849.95 1633.93,-822.87 1664.51,-804.88"/>
<polygon fill="#757575" stroke="#757575" points="1666.03,-808.05 1672.83,-799.93 1662.45,-802.04 1666.03,-808.05"/>
</g>
</g>
</svg>
