<?xml version="1.0" standalone="no"?>
<!DOCTYPE svg PUBLIC "-//W3C//DTD SVG 20010904//EN"
 "http://www.w3.org/TR/2001/REC-SVG-20010904/DTD/svg10.dtd">
<svg version="1.0" xmlns="http://www.w3.org/2000/svg"
 width="1024.000000pt" height="1024.000000pt" viewBox="0 0 1024.000000 1024.000000"
 preserveAspectRatio="xMidYMid meet">
<metadata>
Created by potrace 1.16, written by Peter Selinger 2001-2019
</metadata>
<g transform="translate(0.000000,1024.000000) scale(0.100000,-0.100000)"
fill="#000000" stroke="none">
<path d="M655 9788 c-120 -40 -185 -106 -224 -227 -16 -48 -16 -7154 0 -7202
40 -123 105 -188 228 -228 48 -16 8434 -16 8482 0 123 40 188 105 228 228 16
50 16 7169 0 7208 -33 80 -45 99 -84 138 -41 42 -76 62 -144 84 -46 15 -8442
14 -8486 -1z m8085 -1268 l0 -640 -3840 0 -3840 0 0 640 0 640 3840 0 3840 0
0 -640z m0 -3520 l0 -2240 -3840 0 -3840 0 0 2240 0 2240 3840 0 3840 0 0
-2240z"/>
<path d="M1380 8520 l0 -320 320 0 320 0 0 320 0 320 -320 0 -320 0 0 -320z"/>
<path d="M2340 8520 l0 -320 320 0 320 0 0 320 0 320 -320 0 -320 0 0 -320z"/>
<path d="M3300 8520 l0 -320 320 0 320 0 0 320 0 320 -320 0 -320 0 0 -320z"/>
<path d="M1610 6908 c-14 -6 -40 -17 -59 -25 -19 -9 -53 -34 -76 -58 -39 -39
-51 -58 -84 -138 -8 -20 -11 -179 -11 -537 l0 -510 320 0 320 0 0 320 0 320
320 0 320 0 0 320 0 320 -512 -1 c-340 0 -521 -4 -538 -11z"/>
<path d="M7140 6600 l0 -320 320 0 320 0 0 -320 0 -320 320 0 320 0 0 504 c0
506 -1 524 -37 605 -20 43 -91 114 -134 134 -81 36 -99 37 -605 37 l-504 0 0
-320z"/>
<path d="M1380 3856 c0 -506 1 -524 37 -605 20 -43 91 -114 134 -134 81 -36
99 -37 605 -37 l504 0 0 320 0 320 -320 0 -320 0 0 320 0 320 -320 0 -320 0 0
-504z"/>
<path d="M7780 4040 l0 -320 -320 0 -320 0 0 -320 0 -320 510 0 c358 0 517 3
537 11 80 33 99 45 138 84 39 39 51 58 84 138 8 20 11 179 11 537 l0 510 -320
0 -320 0 0 -320z"/>
</g>
</svg>
